<svg width="110" height="44" viewBox="0 0 110 44" fill="none" xmlns="http://www.w3.org/2000/svg">
<path d="M0 8C0 3.58172 3.58172 0 8 0H44V44H8C3.58172 44 0 40.4183 0 36V8Z" fill="#235B95"/>
<g clip-path="url(#clip0_28921_2373)">
<path d="M21.3517 37.1182C20.5977 36.5713 19.8757 35.9792 19.1893 35.345C18.4706 34.6953 17.7543 33.9929 17.0606 33.2575C16.1998 32.345 15.3699 31.3773 14.5938 30.381C12.6553 27.9022 11.0207 25.1872 9.72689 22.2974C8.9792 20.6189 8.35736 18.8841 7.86679 17.1081C7.332 15.1633 6.95821 13.1755 6.74943 11.1658C6.70625 10.7511 6.7239 10.2395 7.24727 9.97072C8.73483 9.28185 10.2696 8.70643 11.8392 8.24912C13.2987 7.80925 14.7819 7.45766 16.2813 7.19617C18.0112 6.89105 19.7626 6.73397 21.5177 6.72656H22.4965C24.2516 6.73397 26.003 6.89105 27.7328 7.19617C29.2323 7.45766 30.7155 7.80925 32.175 8.24912C33.7446 8.70651 35.2794 9.28193 36.7671 9.97072C37.2905 10.2397 37.3079 10.7508 37.2648 11.1658C37.056 13.1755 36.6822 15.1633 36.1474 17.1081C35.6568 18.8841 35.035 20.6189 34.2873 22.2974C32.9935 25.1872 31.359 27.9022 29.4204 30.381C28.6445 31.3771 27.8146 32.3448 26.9537 33.2575C26.2599 33.9929 25.5436 34.6953 24.8249 35.345C24.1384 35.9791 23.4164 36.5712 22.6625 37.1182C22.4581 37.2195 22.2342 37.272 22.0074 37.272C21.7806 37.272 21.5566 37.2195 21.3523 37.1182H21.3517ZM21.9228 17.2521C21.8881 17.2992 19.5296 19.8052 17.8075 21.635C17.2139 22.267 16.6913 22.8211 16.3573 23.1765C15.6842 23.8545 15.2564 24.7487 15.1448 25.7111C15.0991 26.2225 15.1575 26.738 15.3164 27.2248C15.5127 27.8088 15.8103 28.3514 16.1948 28.8262C17.291 30.2208 18.4994 31.5181 19.8071 32.7042C20.3454 33.1992 20.9109 33.6619 21.5008 34.0901C21.6581 34.171 21.8315 34.2131 22.0073 34.2131C22.1831 34.2131 22.3565 34.171 22.5138 34.0901C23.1036 33.6619 23.669 33.1991 24.2073 32.7042C25.515 31.5181 26.7234 30.2209 27.8196 28.8262C28.2041 28.3514 28.5017 27.8088 28.698 27.2248C28.8569 26.738 28.9153 26.2225 28.8696 25.7111C28.7579 24.7486 28.3299 23.8542 27.6565 23.1763L26.4067 21.8479L26.2566 21.6884C24.5134 19.8362 22.1259 17.2995 22.0908 17.2519C22.0818 17.2373 22.0694 17.2254 22.0547 17.2171C22.04 17.2088 22.0235 17.2045 22.0068 17.2045C21.9901 17.2045 21.9736 17.2088 21.9589 17.2171C21.9442 17.2254 21.9318 17.2373 21.9228 17.2519V17.2521ZM22.0416 11.2527C22.0532 11.2713 22.0687 11.2964 22.0908 11.3278C22.1238 11.3748 22.6187 12.1852 23.3043 13.3067C24.9487 15.9973 27.7006 20.5003 28.4243 21.5967C28.9594 22.4064 29.6354 22.872 30.2785 22.8722C30.903 22.8722 31.8064 22.4378 32.5633 20.3625C33.3859 18.1079 33.9281 15.7552 34.1769 13.3606C34.2115 13.029 34.1975 12.6208 33.7793 12.406C32.591 11.8559 31.3652 11.3963 30.1115 11.0309C28.9457 10.6795 27.761 10.3987 26.5633 10.1897C25.1816 9.946 23.7826 9.8205 22.3808 9.81451H21.6323C20.2304 9.8205 18.8315 9.946 17.4498 10.1897C16.2521 10.3987 15.0673 10.6795 13.9015 11.0309C12.6479 11.3963 11.422 11.8559 10.2337 12.406C9.81594 12.6206 9.80173 13.0288 9.83609 13.3606C10.0849 15.7552 10.6271 18.1079 11.4498 20.3625C11.8676 21.5079 12.6032 22.8722 13.7346 22.8722C14.3779 22.8722 15.0534 22.4074 15.5887 21.5967C16.3119 20.5013 19.0625 16.0008 20.7057 13.3118L20.7084 13.3073C21.3939 12.1854 21.8893 11.375 21.9221 11.3282C21.944 11.2968 21.9605 11.2715 21.971 11.2531C21.9887 11.2249 21.9973 11.2107 22.0061 11.2107C22.015 11.2107 22.0242 11.2245 22.0416 11.2527ZM17.3624 24.1637L19.0206 22.3839H24.8562L26.5141 24.1637H17.3624ZM20.2479 21.1092L21.9491 19.3072L23.6501 21.1092H20.2479Z" fill="white"/>
</g>
<path d="M46 0H102C106.418 0 110 3.58172 110 8V36C110 40.4183 106.418 44 102 44H46V0Z" fill="#E6EFF9"/>
<path d="M56.499 27.091H54.5303L58.1148 16.9092H60.3918L63.9813 27.091H62.0125L59.2931 18.9972H59.2135L56.499 27.091ZM56.5637 23.0988H61.933V24.5803H56.5637V23.0988Z" fill="#235B95"/>
<path d="M65.3224 27.091V16.9092H67.1668V25.5448H71.6512V27.091H65.3224Z" fill="#235B95"/>
<path d="M73.252 27.091V16.9092H77.0702C77.8524 16.9092 78.5087 17.055 79.039 17.3467C79.5726 17.6383 79.9753 18.0394 80.2471 18.5498C80.5222 19.0569 80.6597 19.6336 80.6597 20.2799C80.6597 20.9329 80.5222 21.5129 80.2471 22.02C79.972 22.5271 79.566 22.9265 79.029 23.2181C78.4921 23.5065 77.8309 23.6507 77.0454 23.6507H74.5148V22.1343H76.7968C77.2542 22.1343 77.6287 22.0548 77.9204 21.8957C78.212 21.7366 78.4275 21.5178 78.5667 21.2394C78.7092 20.961 78.7805 20.6412 78.7805 20.2799C78.7805 19.9186 78.7092 19.6005 78.5667 19.3254C78.4275 19.0503 78.2104 18.8365 77.9154 18.684C77.6237 18.5283 77.2475 18.4504 76.7868 18.4504H75.0965V27.091H73.252Z" fill="#235B95"/>
<path d="M82.2618 27.091V16.9092H84.1063V21.2195H88.8243V16.9092H90.6737V27.091H88.8243V22.7657H84.1063V27.091H82.2618Z" fill="#235B95"/>
<path d="M93.9873 27.091H92.0186L95.6031 16.9092H97.8801L101.47 27.091H99.5008L96.7813 18.9972H96.7018L93.9873 27.091ZM94.0519 23.0988H99.4213V24.5803H94.0519V23.0988Z" fill="#235B95"/>
<defs>
<clipPath id="clip0_28921_2373">
<rect width="32" height="32" fill="white" transform="translate(6 6)"/>
</clipPath>
</defs>
</svg>
