<svg width="292" height="224" viewBox="0 0 292 224" fill="none" xmlns="http://www.w3.org/2000/svg">
<path d="M35.3813 125.76C39.7663 115.27 51.0793 101.91 76.2373 84.77C88.5993 76.348 97.2603 80.352 101.237 87.77C105.214 95.188 120.041 119.041 120.041 119.041C120.041 119.041 119.597 119.741 114.541 122.041C96.176 130.371 60.7673 140.836 37.2373 130.77C36.2583 129.679 33.3573 128.806 35.3813 125.76Z" fill="#23272D"/>
<path d="M161.237 96.77C170.079 90.516 177.814 94.43 182.237 102.77C186.66 111.11 213.237 159.77 213.237 159.77C217.449 167.905 215.145 173.991 210.578 178.999M161.237 96.77C166.824 92.8462 179.2 86.9988 184 94.9988C188.8 102.999 191.667 107.999 192.5 109.499M161.237 96.77C148.167 106.015 134.305 113.984 120.5 120.227M210.578 178.999C207.944 181.886 204.559 184.414 201.237 186.77C194.581 191.489 187.044 196.075 179 200.274C140.227 220.515 89.6711 231.783 69.2367 205.77C58.1996 191.72 50.2173 179.092 44.5727 168.541C39.2473 158.587 36.0027 150.48 34.2367 144.77C32.77 140.028 32.1885 134.211 34.8887 127M210.578 178.999C214.385 175.165 221 165.399 217 156.999C215 152.599 213.658 149.832 213.237 148.999M120.5 120.227C89.1405 134.409 58.0716 139.683 37.2367 130.77C35.4368 130 34.2335 128.6 34.8887 127M120.5 120.227L101.237 87.77C97.2597 80.352 88.5987 76.348 76.2367 84.77C50.0766 102.593 38.8862 116.324 34.8887 127" stroke="#539BF5" stroke-width="2" stroke-linecap="round"/>
<path d="M198.236 179.77C168.022 201.193 119.642 219.87 88.1094 212.138" stroke="#454F59" stroke-width="2" stroke-linecap="round" stroke-dasharray="4 4"/>
<path d="M38.2344 140.77C68.2414 153.607 119.476 137.015 162.234 106.77" stroke="#454F59" stroke-width="2" stroke-linecap="round" stroke-dasharray="4 4"/>
<path d="M191.237 116.772C192.063 118.706 191.606 118.65 192.237 119.772C192.868 120.894 191.9 121.862 190.237 122.772C188.574 123.682 180.529 128.128 176.237 131.772C174.468 133.163 173.282 135.164 172.912 137.384C172.542 139.604 173.015 141.882 174.237 143.772C176.337 147.029 180.348 154.058 182.237 156.772C184.126 159.486 189.041 160.743 193.541 158.043C198.541 155.043 207.056 149.095 210.237 146.772C213.418 144.449 214.537 139.606 212.237 134.772C209.937 129.938 203.749 120.081 201.237 115.772C198.725 111.463 190.411 114.838 191.237 116.772Z" fill="#539BF5" stroke="#539BF5" stroke-width="2"/>
<path d="M189.016 145.298C186.65 142.994 185.793 139.364 187.101 137.189C188.409 135.015 191.388 135.12 193.753 137.423C196.119 139.726 196.976 143.357 195.668 145.531C194.36 147.706 191.382 147.601 189.016 145.298Z" fill="#539BF5" stroke="#23272D" stroke-width="2" stroke-linecap="round"/>
<path d="M134.822 102.003C138.354 103.016 141.801 103.654 145.041 103.941M130.337 100.522C126.486 99.0992 122.819 97.2229 119.412 94.9327L120 90.9993M114.791 91.2234C111.791 88.3529 109.841 85.297 109.293 82.3728C109.088 81.2807 110.236 70.9693 110.236 70.9693" stroke="#5D6F7D" stroke-width="2" stroke-linecap="round"/>
<path d="M169.551 90.0417C170.017 89.2552 170.347 88.4035 170.528 87.4894C171.579 82.1751 167.334 76.0003 160 70.9382C155.498 67.8308 149.831 65.1427 143.511 63.3301C140.951 62.5961 138.434 62.0484 136 61.6784C122.632 59.6462 111.785 62.9746 110.349 70.2309C109.501 74.5221 112.104 79.3739 117 83.748M157.041 96.3534C151.432 97.0447 144.565 96.4543 137.366 94.3895C129.063 92.008 121.889 88.1162 117 83.748M117 83.748L116.5 88.4993" stroke="#5D6F7D" stroke-width="2" stroke-linecap="round"/>
<path d="M113.892 71.2891C115.322 64.0602 129.483 61.7935 143.492 65.8099C157.5 69.8263 169.339 79.2797 167.909 86.5086C166.479 93.7375 152.318 96.0043 138.31 91.9879C124.301 87.9715 112.462 78.5172 113.892 71.2891Z" stroke="#454F59" stroke-width="2" stroke-linecap="round"/>
<path d="M93.7573 186.07C93.9614 185.738 93.8543 185.304 93.5199 185.105C91.7858 184.07 90.0406 183.032 88.2841 181.99C87.6892 181.638 87.9104 180.718 88.5999 180.666C89.0871 180.628 89.5739 180.588 90.0603 180.545C90.2047 180.532 90.3497 180.564 90.4751 180.637C91.9279 181.481 93.3729 182.323 94.8102 183.162C95.1416 183.356 95.5672 183.247 95.7633 182.917C96.3458 181.936 96.9312 180.935 97.5194 179.912C97.6255 179.727 97.8097 179.601 98.02 179.568C98.7301 179.456 99.4388 179.338 100.146 179.214C100.728 179.112 101.175 179.728 100.888 180.245C100.09 181.685 99.297 183.086 98.5086 184.447C98.3152 184.781 98.4269 185.208 98.7593 185.404C100.64 186.511 102.505 187.616 104.355 188.718C104.92 189.054 104.75 189.907 104.098 189.994C103.537 190.068 102.974 190.138 102.411 190.205C102.257 190.223 102.1 190.189 101.967 190.108C100.483 189.208 98.9885 188.306 97.4849 187.402C97.1525 187.202 96.7212 187.311 96.5221 187.644C95.9279 188.637 95.337 189.607 94.7494 190.555C94.6286 190.75 94.4198 190.873 94.1908 190.884C93.4448 190.919 92.6978 190.948 91.9497 190.969C91.3875 190.986 91.0431 190.362 91.3484 189.89C92.1457 188.657 92.9487 187.383 93.7573 186.07ZM81.4338 190.962C80.3451 190.896 79.2552 190.815 78.164 190.72C76.8019 190.599 75.4691 190.281 74.215 189.776C73.0122 189.302 71.898 188.656 70.9136 187.862C70.0308 187.167 69.31 186.315 68.7948 185.357L66.4576 180.833C65.9928 179.934 65.8812 179.173 66.1268 178.54C66.3724 177.906 66.9425 177.447 67.8398 177.146C68.7372 176.846 69.8947 176.727 71.3097 176.78C72.4291 176.822 73.5476 176.849 74.6652 176.859C76.0123 176.863 77.3511 177.054 78.6363 177.426C79.8279 177.764 80.9364 178.313 81.8991 179.044C82.7855 179.714 83.4826 180.573 83.9306 181.546C84.6598 183.148 85.389 184.75 86.1183 186.353C86.5536 187.309 86.6495 188.158 86.4105 188.889C86.286 189.258 86.0748 189.597 85.792 189.882C85.5092 190.166 85.1617 190.39 84.7744 190.537C83.9494 190.858 83.059 191.011 82.164 190.984C81.9294 190.984 81.6859 190.977 81.4338 190.962ZM70.1588 179.362C69.7453 179.794 69.7331 180.388 70.121 181.157L72.467 185.814C72.8902 186.62 73.5498 187.301 74.3711 187.778C75.2254 188.312 76.2131 188.636 77.2408 188.719C78.2944 188.804 79.347 188.874 80.3986 188.929C81.4087 188.983 82.1006 188.771 82.4778 188.299C82.8549 187.828 82.8574 187.188 82.4841 186.39C81.7306 184.783 80.9777 183.175 80.2255 181.567C79.8473 180.765 79.207 180.09 78.3937 179.639C77.5476 179.153 76.5721 178.893 75.5755 178.887C74.5042 178.868 73.4319 178.835 72.3587 178.788C72.2548 178.783 72.1537 178.781 72.0554 178.781C71.1642 178.781 70.5315 178.973 70.1588 179.362ZM117.18 184.763C117.059 184.415 116.69 184.221 116.334 184.315C113.688 185.018 111.016 185.628 108.318 186.146C107.716 186.288 107.083 186.28 106.486 186.12C106.258 186.055 106.05 185.94 105.88 185.786C105.709 185.632 105.581 185.443 105.504 185.235C105.474 185.157 105.444 185.08 105.414 185.002C105.338 184.805 105.355 184.585 105.46 184.401C107.734 180.435 110.041 176.154 112.379 171.56C112.464 171.394 112.612 171.268 112.79 171.21C113.63 170.939 114.467 170.659 115.302 170.369C115.672 170.241 116.076 170.438 116.2 170.809C117.238 173.911 118.276 177.013 119.314 180.115C119.435 180.476 119.824 180.675 120.187 180.559C120.596 180.428 121.004 180.295 121.411 180.16C121.781 180.037 122.181 180.237 122.302 180.608C122.422 180.975 122.541 181.341 122.66 181.708C122.78 182.075 122.58 182.469 122.213 182.588C121.818 182.715 121.423 182.84 121.027 182.963C120.65 183.08 120.442 183.483 120.567 183.857C120.768 184.458 120.969 185.058 121.17 185.658C121.296 186.035 121.083 186.441 120.701 186.55C120.027 186.742 119.352 186.928 118.674 187.107C118.321 187.201 117.957 187.006 117.837 186.661L117.18 184.763ZM113.783 174.747C113.777 174.749 113.772 174.753 113.769 174.758C112.456 177.363 111.153 179.865 109.86 182.263C109.575 182.791 110.039 183.409 110.623 183.276C112.273 182.899 113.915 182.486 115.547 182.038C115.935 181.931 116.151 181.518 116.019 181.137C115.283 179.012 114.547 176.886 113.81 174.761C113.806 174.75 113.794 174.743 113.783 174.747ZM123.337 173.372C123.227 173.021 123.407 172.645 123.749 172.508C124.432 172.236 125.113 171.957 125.792 171.672C126.024 171.575 126.29 171.699 126.363 171.94C126.48 172.326 127.07 172.363 127.298 172.03C127.501 171.734 127.735 171.456 127.998 171.201C128.581 170.597 129.28 170.097 130.06 169.727C130.375 169.58 130.689 169.432 131.003 169.282C131.395 169.095 131.863 169.304 131.982 169.722L132.297 170.825C132.391 171.154 132.234 171.503 131.924 171.648C131.542 171.827 131.159 172.005 130.774 172.18C129.781 172.601 128.958 173.302 128.425 174.181C128.184 174.575 128.031 175.009 127.974 175.457C127.918 175.906 127.959 176.361 128.096 176.795C128.704 178.797 129.312 180.8 129.921 182.802C130.028 183.155 129.844 183.53 129.499 183.659C128.853 183.9 128.206 184.135 127.556 184.365C127.184 184.496 126.778 184.292 126.66 183.916L123.337 173.372ZM133.212 163.128C133.125 162.812 133.268 162.479 133.556 162.323C134.22 161.964 134.882 161.598 135.541 161.226C135.942 161 136.449 161.212 136.567 161.657L138.025 167.147C138.193 167.778 139.055 167.856 139.33 167.264C141.016 163.631 142.699 159.838 144.378 155.883C144.431 155.759 144.518 155.653 144.629 155.577C145.174 155.206 145.716 154.83 146.255 154.45C146.833 154.043 147.596 154.643 147.325 155.296C145.836 158.875 144.341 162.323 142.84 165.64C142.684 165.985 142.83 166.392 143.17 166.559C146.193 168.048 149.135 169.562 151.998 171.101C152.462 171.35 152.491 172.004 152.049 172.292C151.288 172.786 150.522 173.271 149.751 173.746C149.541 173.876 149.277 173.884 149.058 173.768C146.637 172.487 144.161 171.222 141.63 169.974C141.278 169.801 140.853 169.951 140.687 170.306C140.334 171.057 139.982 171.8 139.63 172.536C139.558 172.687 139.542 172.858 139.585 173.019C140.03 174.696 140.476 176.374 140.921 178.052C141.006 178.372 140.856 178.708 140.559 178.855C139.929 179.169 139.297 179.476 138.661 179.778C138.27 179.964 137.808 179.751 137.692 179.333C136.199 173.931 134.706 168.53 133.212 163.128ZM155.408 169.709C154.997 169.574 154.725 169.205 154.593 168.601C154.466 168.003 154.531 167.384 154.78 166.819C155.025 166.226 155.439 165.705 155.978 165.311C156.506 164.921 156.971 164.785 157.377 164.91C157.782 165.035 158.044 165.397 158.167 165.994C158.295 166.614 158.232 167.254 157.988 167.843C157.763 168.429 157.362 168.945 156.833 169.331C156.531 169.582 156.146 169.733 155.74 169.761C155.627 169.761 155.515 169.744 155.408 169.709ZM161.549 166.012C161.157 165.887 160.899 165.512 160.774 164.886C160.656 164.259 160.72 163.614 160.959 163.018C161.189 162.397 161.585 161.84 162.109 161.397C162.615 160.97 163.06 160.812 163.445 160.927C163.831 161.042 164.08 161.41 164.197 162.03C164.316 162.679 164.255 163.345 164.02 163.967C163.809 164.579 163.427 165.13 162.913 165.564C162.628 165.843 162.243 166.018 161.829 166.055C161.734 166.055 161.639 166.041 161.549 166.012ZM167.421 161.885C167.049 161.769 166.804 161.386 166.687 160.738C166.576 160.081 166.638 159.41 166.868 158.78C167.083 158.132 167.459 157.539 167.965 157.048C168.447 156.585 168.87 156.404 169.235 156.511C169.601 156.618 169.837 156.994 169.946 157.635C170.056 158.314 169.998 159.007 169.774 159.662C169.577 160.301 169.215 160.886 168.719 161.368C168.327 161.737 167.971 161.92 167.655 161.92C167.576 161.921 167.497 161.909 167.421 161.885Z" fill="#539BF5"/>
<path d="M10 111L26 111M18 119L18 103M10 89L26 89M18 97L18 81M32 89L48 89M40 97L40 81M32 67L48 67M40 75L40 59M54 67L70 67M62 75L62 59M54 45L70 45M62 53L62 37M76 45L92 45M84 53L84 37M98 45L114 45M106 53L106 37" stroke="#454F59" stroke-width="2"/>
<path d="M145.022 57.0164C143.51 54.3986 141.621 51.1254 140.865 49.8161C145.693 53.1385 160.529 56.9669 181.254 45.7012C201.978 34.4355 203.984 20.068 202.396 14.2924C204.503 17.4393 208.704 24.6143 208.645 28.1396C208.571 32.5462 207.555 46.6601 183.512 57.9235C159.468 69.1868 146.912 60.2888 145.022 57.0164Z" fill="#23272D"/>
<path d="M138.404 46.2796C138.404 46.2796 143.811 55.052 144.582 56.1098C146.088 58.2964 148.125 60.0646 150.502 61.2484C159.936 65.81 175.266 63.1633 188.177 55.4912M193.233 52.1292C194.552 51.1511 195.828 50.117 197.052 49.03C200.249 46.255 203.016 43.0196 205.261 39.4299M207.401 35.1614C207.689 34.4344 207.934 33.7135 208.137 33.001M200.555 11.0687C200.555 11.0687 206.441 19.9634 207.664 22.56C209.084 25.5726 209.228 29.1663 208.137 33.001M208.137 33.001L204.498 28.501" stroke="#539BF5" stroke-width="2" stroke-linecap="round"/>
<path d="M199.002 29.9221C205.004 20.2195 203.875 10.805 195.016 6.52134C183.285 0.849893 162.445 6.31933 148.466 18.7397C134.486 31.1601 132.664 45.8251 144.394 51.4965C156.124 57.168 176.964 51.6985 190.944 39.2781C194.365 36.239 197.058 33.0654 199.002 29.9221ZM199.002 29.9221L203.502 35.0007" stroke="#539BF5" stroke-width="2" stroke-linecap="round"/>
<path d="M193.581 8.59191C203.87 13.5679 200.165 26.9957 187.903 37.8895C175.641 48.7834 156.446 54.39 146.157 49.4141C135.867 44.4381 138.378 30.7658 150.64 19.872C162.902 8.9781 183.291 3.61701 193.581 8.59191Z" stroke="#23272D" stroke-width="2" stroke-linecap="round"/>
<path d="M285 89H269M277 81V97M263 89H247M255 81V97M263 111H247M255 103V119M241 111H225M233 103V119M219 111H203M211 103V119M255 163V147M263 155H247M255 141V125M263 133H247M233 141V125M241 133H225" stroke="#454F59" stroke-width="2"/>
<path d="M246.444 85.4171L242.201 80.7471C241.949 80.47 241.564 80.3567 241.202 80.4536L240.269 80.7035C240.112 80.7456 239.948 80.7488 239.789 80.7128L229.769 78.436C228.778 78.2107 228.122 79.4368 228.859 80.1366L232.037 83.1513C232.161 83.2689 232.312 83.3528 232.478 83.395L242.605 85.9747L245.449 86.9366C245.624 86.996 245.813 87.0021 245.992 86.9542C246.671 86.7724 246.916 85.9369 246.444 85.4171Z" fill="#505D6A"/>
<path d="M223.475 96.4554L220.006 91.9138C219.704 91.5195 219.16 91.4057 218.726 91.6466L218.174 91.9526C217.958 92.0727 217.705 92.1083 217.464 92.0526L208.338 89.9443C207.475 89.7448 206.798 90.6832 207.26 91.4394L208.066 92.7605C208.104 92.8235 208.149 92.882 208.201 92.935L209.573 94.3534C209.692 94.4765 209.841 94.5669 210.005 94.616L221.62 98.0954C221.744 98.1326 221.875 98.1453 222.004 98.1328L222.777 98.0578C223.558 97.9822 223.952 97.0785 223.475 96.4554Z" fill="#505D6A"/>
<path d="M200.69 74.7973C201.801 75.1732 205.879 76.0567 208.399 76.5812C208.881 76.6815 209.361 76.4143 209.534 75.9535L210.223 74.1133C210.43 73.5609 210.117 72.9502 209.547 72.7969L198.031 69.6964C197.239 69.4831 196.532 70.2655 196.795 71.0424C196.958 71.5221 197.113 72.0104 197.224 72.4238C197.577 73.7443 199.134 74.2708 200.69 74.7973Z" fill="#505D6A"/>
<path d="M247.678 86.5555C248.373 86.2135 248.928 85.641 249.248 84.9355L252.535 77.0202C253.502 74.7555 254.039 73.9825 252.025 72.1962C250.276 70.6462 247.782 68.2951 246.78 67.546M247.678 86.5555C246.982 86.8976 246.19 86.988 245.436 86.8114L242.453 86.0123M247.678 86.5555L241.493 80.5517M231.979 83.2058L226.375 96.1936C226.055 96.8993 225.5 97.472 224.805 97.8143M231.979 83.2058L225.748 77.4144M231.979 83.2058L238.767 85.0245M224.805 97.8143C224.11 98.1565 223.317 98.247 222.563 98.0703L211.797 95.1856C209.942 94.6885 208.991 94.1977 208.253 92.9181C207.514 91.6384 205.998 89.6699 205.7 88.989M224.805 97.8143L219.372 91.1603M239.85 64.9679L243.749 55.9324C244.733 53.6567 244.485 52.869 243.365 51.848C242.47 51.0312 238.794 48.4598 237.068 47.2762M195.822 68.3311C195.973 68.6496 196.193 68.9301 196.466 69.1522C196.74 69.3742 197.06 69.5319 197.402 69.6139L210.859 73.2195L209.245 76.9587M195.822 68.3311C195.671 68.0127 195.594 67.6646 195.596 67.3123C195.598 66.96 195.678 66.6127 195.832 66.2958L199.755 57.2044C200.076 56.4989 200.63 55.9262 201.325 55.5841C202.021 55.242 202.813 55.1516 203.567 55.3283L217.024 58.9339L219.773 52.562M195.822 68.3311C196.193 68.8081 197.195 72.2876 198.024 73.2309C198.853 74.1741 199.525 74.3544 201.208 74.8051L209.245 76.9587M237.43 49.9123C237.584 49.5953 237.664 49.2479 237.666 48.8956C237.668 48.5433 237.591 48.1951 237.44 47.8766C237.289 47.5582 237.069 47.2775 236.795 47.0554C236.522 46.8334 236.202 46.6754 235.86 46.5933L226.44 44.0694C225.686 43.893 224.893 43.9836 224.198 44.3258C223.503 44.668 222.948 45.2407 222.628 45.9462L221.213 49.2262M209.245 76.9587L205.254 86.2073C205.1 86.5242 205.019 86.8716 205.017 87.224C205.015 87.5763 205.093 87.9245 205.243 88.243C205.394 88.5615 205.614 88.8422 205.888 89.0642C206.161 89.2863 206.481 89.4441 206.824 89.5261L216.244 92.0502C216.998 92.2269 217.791 92.1364 218.486 91.7942C219.181 91.4519 219.736 90.8792 220.056 90.1735L221.933 85.8229M224.476 79.9297L225.66 77.1857L239.117 80.7913C239.871 80.9679 240.663 80.8775 241.359 80.5354C242.054 80.1934 242.609 79.6209 242.929 78.9154L246.852 69.824C247.006 69.5071 247.087 69.1596 247.089 68.8074C247.09 68.4551 247.013 68.1069 246.862 67.7885C246.712 67.4701 246.491 67.1896 246.218 66.9676C245.944 66.7456 245.624 66.5877 245.282 66.5057L231.826 62.9001L236.127 52.9317" stroke="#505D6A" stroke-width="2" stroke-linecap="round"/>
</svg>
