<svg width="292" height="224" viewBox="0 0 292 224" fill="none" xmlns="http://www.w3.org/2000/svg">
<path d="M35.3813 125.76C39.7663 115.27 51.0793 101.91 76.2373 84.77C88.5993 76.348 97.2603 80.352 101.237 87.77C105.214 95.188 120.041 119.041 120.041 119.041C120.041 119.041 119.597 119.741 114.541 122.041C96.176 130.371 60.7673 140.836 37.2373 130.77C36.2583 129.679 33.3573 128.806 35.3813 125.76Z" fill="#101627"/>
<path d="M161.237 96.77C170.079 90.516 177.814 94.43 182.237 102.77C186.66 111.11 213.237 159.77 213.237 159.77C217.449 167.905 215.145 173.991 210.578 178.999M161.237 96.77C166.824 92.8462 179.2 86.9988 184 94.9988C188.8 102.999 191.667 107.999 192.5 109.499M161.237 96.77C148.167 106.015 134.305 113.984 120.5 120.227M210.578 178.999C207.944 181.886 204.559 184.414 201.237 186.77C194.581 191.489 187.044 196.075 179 200.274C140.227 220.515 89.6711 231.783 69.2367 205.77C58.1996 191.72 50.2173 179.092 44.5727 168.541C39.2473 158.587 36.0027 150.48 34.2367 144.77C32.77 140.028 32.1885 134.211 34.8887 127M210.578 178.999C214.385 175.165 221 165.399 217 156.999C215 152.599 213.658 149.832 213.237 148.999M120.5 120.227C89.1405 134.409 58.0716 139.683 37.2367 130.77C35.4368 130 34.2335 128.6 34.8887 127M120.5 120.227L101.237 87.77C97.2597 80.352 88.5987 76.348 76.2367 84.77C50.0766 102.593 38.8862 116.324 34.8887 127" stroke="#2079EE" stroke-width="2" stroke-linecap="round"/>
<path d="M198.236 179.77C168.022 201.193 119.642 219.87 88.1094 212.138" stroke="#253355" stroke-width="2" stroke-linecap="round" stroke-dasharray="4 4"/>
<path d="M92.7573 189.07C92.9614 188.738 92.8543 188.304 92.5199 188.105C90.7858 187.07 89.0406 186.032 87.2841 184.99C86.6892 184.638 86.9104 183.718 87.5999 183.666C88.0871 183.628 88.5739 183.588 89.0603 183.545C89.2047 183.532 89.3497 183.564 89.4751 183.637C90.9279 184.481 92.3729 185.323 93.8102 186.162C94.1416 186.356 94.5672 186.247 94.7633 185.917C95.3458 184.936 95.9312 183.935 96.5194 182.912C96.6255 182.727 96.8097 182.601 97.02 182.568C97.7301 182.456 98.4388 182.338 99.1462 182.214C99.7282 182.112 100.175 182.728 99.8882 183.245C99.0902 184.685 98.297 186.086 97.5086 187.447C97.3152 187.781 97.4269 188.208 97.7593 188.404C99.6396 189.511 101.505 190.616 103.355 191.718C103.92 192.054 103.75 192.907 103.098 192.994C102.537 193.068 101.974 193.138 101.411 193.205C101.257 193.223 101.1 193.189 100.967 193.108C99.4827 192.208 97.9885 191.306 96.4849 190.402C96.1525 190.202 95.7212 190.311 95.5221 190.644C94.9279 191.637 94.337 192.607 93.7494 193.555C93.6286 193.75 93.4198 193.873 93.1908 193.884C92.4448 193.919 91.6978 193.948 90.9497 193.969C90.3875 193.986 90.0431 193.362 90.3484 192.89C91.1457 191.657 91.9487 190.383 92.7573 189.07ZM80.4338 193.962C79.3451 193.896 78.2552 193.815 77.164 193.72C75.8019 193.599 74.4691 193.281 73.215 192.776C72.0122 192.302 70.898 191.656 69.9136 190.862C69.0308 190.167 68.31 189.315 67.7948 188.357L65.4576 183.833C64.9928 182.934 64.8812 182.173 65.1268 181.54C65.3724 180.906 65.9425 180.447 66.8398 180.146C67.7372 179.846 68.8947 179.727 70.3097 179.78C71.4291 179.822 72.5476 179.849 73.6652 179.859C75.0123 179.863 76.3511 180.054 77.6363 180.426C78.8279 180.764 79.9364 181.313 80.8991 182.044C81.7855 182.714 82.4826 183.573 82.9306 184.546C83.6598 186.148 84.389 187.75 85.1183 189.353C85.5536 190.309 85.6495 191.158 85.4105 191.889C85.286 192.258 85.0748 192.597 84.792 192.882C84.5092 193.166 84.1617 193.39 83.7744 193.537C82.9494 193.858 82.059 194.011 81.164 193.984C80.9294 193.984 80.6859 193.977 80.4338 193.962ZM69.1588 182.362C68.7453 182.794 68.7331 183.388 69.121 184.157L71.467 188.814C71.8902 189.62 72.5498 190.301 73.3711 190.778C74.2254 191.312 75.2131 191.636 76.2408 191.719C77.2944 191.804 78.347 191.874 79.3986 191.929C80.4087 191.983 81.1006 191.771 81.4778 191.299C81.8549 190.828 81.8574 190.188 81.4841 189.39C80.7306 187.783 79.9777 186.175 79.2255 184.567C78.8473 183.765 78.207 183.09 77.3937 182.639C76.5476 182.153 75.5721 181.893 74.5755 181.887C73.5042 181.868 72.4319 181.835 71.3587 181.788C71.2548 181.783 71.1537 181.781 71.0554 181.781C70.1642 181.781 69.5315 181.973 69.1588 182.362ZM116.18 187.763C116.059 187.415 115.69 187.221 115.334 187.315C112.688 188.018 110.016 188.628 107.318 189.146C106.716 189.288 106.083 189.28 105.486 189.12C105.258 189.055 105.05 188.94 104.88 188.786C104.709 188.632 104.581 188.443 104.504 188.235C104.474 188.157 104.444 188.08 104.414 188.002C104.338 187.805 104.355 187.585 104.46 187.401C106.734 183.435 109.041 179.154 111.379 174.56C111.464 174.394 111.612 174.268 111.79 174.21C112.63 173.939 113.467 173.659 114.302 173.369C114.672 173.241 115.076 173.438 115.2 173.809C116.238 176.911 117.276 180.013 118.314 183.115C118.435 183.476 118.824 183.675 119.187 183.559C119.596 183.428 120.004 183.295 120.411 183.16C120.781 183.037 121.181 183.237 121.302 183.608C121.422 183.975 121.541 184.341 121.66 184.708C121.78 185.075 121.58 185.469 121.213 185.588C120.818 185.715 120.423 185.84 120.027 185.963C119.65 186.08 119.442 186.483 119.567 186.857C119.768 187.458 119.969 188.058 120.17 188.658C120.296 189.035 120.083 189.441 119.701 189.55C119.027 189.742 118.352 189.928 117.674 190.107C117.321 190.201 116.957 190.006 116.837 189.661L116.18 187.763ZM112.783 177.747C112.777 177.749 112.772 177.753 112.769 177.758C111.456 180.363 110.153 182.865 108.86 185.263C108.575 185.791 109.039 186.409 109.623 186.276C111.273 185.899 112.915 185.486 114.547 185.038C114.935 184.931 115.151 184.518 115.019 184.137C114.283 182.012 113.547 179.886 112.81 177.761C112.806 177.75 112.794 177.743 112.783 177.747V177.747ZM122.337 176.372C122.227 176.021 122.407 175.645 122.749 175.508C123.432 175.236 124.113 174.957 124.792 174.672C125.024 174.575 125.29 174.699 125.363 174.94V174.94C125.48 175.326 126.07 175.363 126.298 175.03C126.501 174.734 126.735 174.456 126.998 174.201C127.581 173.597 128.28 173.097 129.06 172.727C129.375 172.58 129.689 172.432 130.003 172.282C130.395 172.095 130.863 172.304 130.982 172.722L131.297 173.825C131.391 174.154 131.234 174.503 130.924 174.648C130.542 174.827 130.159 175.005 129.774 175.18C128.781 175.601 127.958 176.302 127.425 177.181C127.184 177.575 127.031 178.009 126.974 178.457C126.918 178.906 126.959 179.361 127.096 179.795C127.704 181.797 128.312 183.8 128.921 185.802C129.028 186.155 128.844 186.53 128.499 186.659C127.853 186.9 127.206 187.135 126.556 187.365C126.184 187.496 125.778 187.292 125.66 186.916L122.337 176.372ZM132.212 166.128C132.125 165.812 132.268 165.479 132.556 165.323C133.22 164.964 133.882 164.598 134.541 164.226C134.942 164 135.449 164.212 135.567 164.657L137.025 170.147C137.193 170.778 138.055 170.856 138.33 170.264C140.016 166.631 141.699 162.838 143.378 158.883C143.431 158.759 143.518 158.653 143.629 158.577C144.174 158.206 144.716 157.83 145.255 157.45C145.833 157.043 146.596 157.643 146.325 158.296C144.836 161.875 143.341 165.323 141.84 168.64C141.684 168.985 141.83 169.392 142.17 169.559C145.193 171.048 148.135 172.562 150.998 174.101C151.462 174.35 151.491 175.004 151.049 175.292C150.288 175.786 149.522 176.271 148.751 176.746C148.541 176.876 148.277 176.884 148.058 176.768C145.637 175.487 143.161 174.222 140.63 172.974C140.278 172.801 139.853 172.951 139.687 173.306C139.334 174.057 138.982 174.8 138.63 175.536C138.558 175.687 138.542 175.858 138.585 176.019C139.03 177.696 139.476 179.374 139.921 181.052C140.006 181.372 139.856 181.708 139.559 181.855C138.929 182.169 138.297 182.476 137.661 182.778C137.27 182.964 136.808 182.751 136.692 182.333C135.199 176.931 133.706 171.53 132.212 166.128ZM154.408 172.709C153.997 172.574 153.725 172.205 153.593 171.601C153.466 171.003 153.531 170.384 153.78 169.819C154.025 169.226 154.439 168.705 154.978 168.311C155.506 167.921 155.971 167.785 156.377 167.91C156.782 168.035 157.044 168.397 157.167 168.994C157.295 169.614 157.232 170.254 156.988 170.843C156.763 171.429 156.362 171.945 155.833 172.331C155.531 172.582 155.146 172.733 154.74 172.761C154.627 172.761 154.515 172.744 154.408 172.709ZM160.549 169.012C160.157 168.887 159.899 168.512 159.774 167.886C159.656 167.259 159.72 166.614 159.959 166.018C160.189 165.397 160.585 164.84 161.109 164.397C161.615 163.97 162.06 163.812 162.445 163.927C162.831 164.042 163.08 164.41 163.197 165.03C163.316 165.679 163.255 166.345 163.02 166.967C162.809 167.579 162.427 168.13 161.913 168.564C161.628 168.843 161.243 169.018 160.829 169.055C160.734 169.055 160.639 169.041 160.549 169.012ZM166.421 164.885C166.049 164.769 165.804 164.386 165.687 163.738C165.576 163.081 165.638 162.41 165.868 161.78C166.083 161.132 166.459 160.539 166.965 160.048C167.447 159.585 167.87 159.404 168.235 159.511C168.601 159.618 168.837 159.994 168.946 160.635C169.056 161.314 168.998 162.007 168.774 162.662C168.577 163.301 168.215 163.886 167.719 164.368C167.327 164.737 166.971 164.92 166.655 164.92C166.576 164.921 166.497 164.909 166.421 164.885Z" fill="#355594"/>
<path d="M38.2344 140.77C68.2414 153.607 119.476 137.015 162.234 106.77" stroke="#253355" stroke-width="2" stroke-linecap="round" stroke-dasharray="4 4"/>
<path d="M191.237 116.772C192.063 118.706 191.606 118.65 192.237 119.772C192.868 120.894 191.9 121.862 190.237 122.772C188.574 123.682 180.529 128.128 176.237 131.772C174.468 133.163 173.282 135.164 172.912 137.384C172.542 139.604 173.015 141.882 174.237 143.772C176.337 147.029 180.348 154.058 182.237 156.772C184.126 159.486 189.041 160.743 193.541 158.043C198.541 155.043 207.056 149.095 210.237 146.772C213.418 144.449 214.537 139.606 212.237 134.772C209.937 129.938 203.749 120.081 201.237 115.772C198.725 111.463 190.411 114.838 191.237 116.772Z" fill="#2079EE" stroke="#2079EE" stroke-width="2"/>
<path d="M189.016 145.298C186.65 142.994 185.793 139.364 187.101 137.189C188.409 135.015 191.388 135.12 193.753 137.423C196.119 139.726 196.976 143.357 195.668 145.531C194.36 147.706 191.382 147.601 189.016 145.298Z" fill="#2079EE" stroke="#171F34" stroke-width="2" stroke-linecap="round"/>
<path d="M134.822 102.002C138.354 103.015 141.801 103.653 145.041 103.94M130.337 100.521C126.486 99.0983 122.819 97.2219 119.412 94.9317L120 90.9983M114.791 91.2224C111.791 88.3519 109.841 85.296 109.293 82.3718C109.088 81.2797 110.236 70.9683 110.236 70.9683" stroke="#476DB0" stroke-width="2" stroke-linecap="round"/>
<path d="M169.551 90.0408C170.017 89.2542 170.347 88.4025 170.528 87.4884C171.579 82.1741 167.334 75.9994 160 70.9372C155.498 67.8299 149.831 65.1417 143.511 63.3291C140.951 62.5951 138.434 62.0474 136 61.6774C122.632 59.6453 111.785 62.9737 110.349 70.23C109.501 74.5212 112.104 79.3729 117 83.7471M157.041 96.3524C151.432 97.0437 144.565 96.4533 137.366 94.3885C129.063 92.007 121.889 88.1152 117 83.7471M117 83.7471L116.5 88.4983" stroke="#476DB0" stroke-width="2" stroke-linecap="round"/>
<path d="M113.892 71.2881C115.322 64.0592 129.483 61.7925 143.492 65.8089C157.5 69.8253 169.339 79.2788 167.909 86.5076C166.479 93.7365 152.318 96.0033 138.31 91.9869C124.301 87.9705 112.462 78.5162 113.892 71.2881Z" stroke="#253355" stroke-width="2" stroke-linecap="round"/>
<path d="M10 111L26 111M18 119L18 103M10 89L26 89M18 97L18 81M32 89L48 89M40 97L40 81M32 67L48 67M40 75L40 59M54 67L70 67M62 75L62 59M54 45L70 45M62 53L62 37M76 45L92 45M84 53L84 37M98 45L114 45M106 53L106 37" stroke="#253355" stroke-width="2"/>
<path d="M145.022 57.0164C143.51 54.3986 141.621 51.1254 140.865 49.8161C145.693 53.1385 160.529 56.9669 181.254 45.7012C201.978 34.4355 203.984 20.068 202.396 14.2924C204.503 17.4393 208.704 24.6143 208.645 28.1396C208.571 32.5462 207.555 46.6601 183.512 57.9235C159.468 69.1868 146.912 60.2888 145.022 57.0164Z" fill="#101627"/>
<path d="M138.404 46.2796C138.404 46.2796 143.811 55.052 144.582 56.1098C146.088 58.2964 148.125 60.0646 150.502 61.2484C159.936 65.81 175.266 63.1633 188.177 55.4912M193.233 52.1292C194.552 51.1511 195.828 50.117 197.052 49.03C200.249 46.255 203.016 43.0196 205.261 39.4299M207.401 35.1614C207.689 34.4344 207.934 33.7135 208.137 33.001M200.555 11.0687C200.555 11.0687 206.441 19.9634 207.664 22.56C209.084 25.5726 209.228 29.1663 208.137 33.001M208.137 33.001L204.498 28.501" stroke="#2079EE" stroke-width="2" stroke-linecap="round"/>
<path d="M199.002 29.9221C205.004 20.2195 203.875 10.805 195.016 6.52134C183.285 0.849893 162.445 6.31933 148.466 18.7397C134.486 31.1601 132.664 45.8251 144.394 51.4965C156.124 57.168 176.964 51.6985 190.944 39.2781C194.365 36.239 197.058 33.0654 199.002 29.9221ZM199.002 29.9221L203.502 35.0007" stroke="#2079EE" stroke-width="2" stroke-linecap="round"/>
<path d="M193.581 8.59191C203.87 13.5679 200.165 26.9957 187.903 37.8895C175.641 48.7834 156.446 54.39 146.157 49.4141C135.867 44.4381 138.378 30.7658 150.64 19.872C162.902 8.9781 183.291 3.61701 193.581 8.59191Z" stroke="#253355" stroke-width="2" stroke-linecap="round"/>
<path d="M285 89H269M277 81V97M263 89H247M255 81V97M263 111H247M255 103V119M241 111H225M233 103V119M219 111H203M211 103V119M255 163V147M263 155H247M255 141V125M263 133H247M233 141V125M241 133H225" stroke="#253355" stroke-width="2"/>
<path d="M246.444 85.4171L242.201 80.7471C241.949 80.47 241.564 80.3567 241.202 80.4536L240.269 80.7035C240.112 80.7456 239.948 80.7488 239.789 80.7128L229.769 78.436C228.778 78.2107 228.122 79.4368 228.859 80.1366L232.037 83.1513C232.161 83.2689 232.312 83.3528 232.478 83.395L242.605 85.9747L245.449 86.9366C245.624 86.996 245.813 87.0021 245.992 86.9542C246.671 86.7724 246.916 85.9369 246.444 85.4171Z" fill="#253355"/>
<path d="M223.475 96.4554L220.006 91.9138C219.704 91.5195 219.16 91.4057 218.726 91.6466L218.174 91.9526C217.958 92.0727 217.705 92.1083 217.464 92.0526L208.338 89.9443C207.475 89.7448 206.798 90.6832 207.26 91.4394L208.066 92.7605C208.104 92.8235 208.149 92.882 208.201 92.935L209.573 94.3534C209.692 94.4765 209.841 94.5669 210.005 94.616L221.62 98.0954C221.744 98.1326 221.875 98.1453 222.004 98.1328L222.777 98.0578C223.558 97.9822 223.952 97.0785 223.475 96.4554Z" fill="#253355"/>
<path d="M200.69 74.7973C201.801 75.1732 205.879 76.0567 208.399 76.5812C208.881 76.6815 209.361 76.4143 209.534 75.9535L210.223 74.1133C210.43 73.5609 210.117 72.9502 209.547 72.7969L198.031 69.6964C197.239 69.4831 196.532 70.2655 196.795 71.0424C196.958 71.5221 197.113 72.0104 197.224 72.4238C197.577 73.7443 199.134 74.2708 200.69 74.7973Z" fill="#253355"/>
<path d="M247.678 86.5555C248.373 86.2135 248.928 85.641 249.248 84.9355L252.535 77.0202C253.502 74.7555 254.039 73.9825 252.025 72.1962C250.276 70.6462 247.782 68.2951 246.78 67.546M247.678 86.5555C246.982 86.8976 246.19 86.988 245.436 86.8114L242.453 86.0123M247.678 86.5555L241.493 80.5517M231.979 83.2058L226.375 96.1936C226.055 96.8993 225.5 97.472 224.805 97.8143M231.979 83.2058L225.748 77.4144M231.979 83.2058L238.767 85.0245M224.805 97.8143C224.11 98.1565 223.317 98.247 222.563 98.0703L211.797 95.1856C209.942 94.6885 208.991 94.1977 208.253 92.9181C207.514 91.6384 205.998 89.6699 205.7 88.989M224.805 97.8143L219.372 91.1603M239.85 64.9679L243.749 55.9324C244.733 53.6567 244.485 52.869 243.365 51.848C242.47 51.0312 238.794 48.4598 237.068 47.2762M195.822 68.3311C195.973 68.6496 196.193 68.9301 196.466 69.1522C196.74 69.3742 197.06 69.5319 197.402 69.6139L210.859 73.2195L209.245 76.9587M195.822 68.3311C195.671 68.0127 195.594 67.6646 195.596 67.3123C195.598 66.96 195.678 66.6127 195.832 66.2958L199.755 57.2044C200.076 56.4989 200.63 55.9262 201.325 55.5841C202.021 55.242 202.813 55.1516 203.567 55.3283L217.024 58.9339L219.773 52.562M195.822 68.3311C196.193 68.8081 197.195 72.2876 198.024 73.2309C198.853 74.1741 199.525 74.3544 201.208 74.8051L209.245 76.9587M237.43 49.9123C237.584 49.5953 237.664 49.2479 237.666 48.8956C237.668 48.5433 237.591 48.1951 237.44 47.8766C237.289 47.5582 237.069 47.2775 236.795 47.0554C236.522 46.8334 236.202 46.6754 235.86 46.5933L226.44 44.0694C225.686 43.893 224.893 43.9836 224.198 44.3258C223.503 44.668 222.948 45.2407 222.628 45.9462L221.213 49.2262M209.245 76.9587L205.254 86.2073C205.1 86.5242 205.019 86.8716 205.017 87.224C205.015 87.5763 205.093 87.9245 205.243 88.243C205.394 88.5615 205.614 88.8422 205.888 89.0642C206.161 89.2863 206.481 89.4441 206.824 89.5261L216.244 92.0502C216.998 92.2269 217.791 92.1364 218.486 91.7942C219.181 91.4519 219.736 90.8792 220.056 90.1735L221.933 85.8229M224.476 79.9297L225.66 77.1857L239.117 80.7913C239.871 80.9679 240.663 80.8775 241.359 80.5354C242.054 80.1934 242.609 79.6209 242.929 78.9154L246.852 69.824C247.006 69.5071 247.087 69.1596 247.089 68.8074C247.09 68.4551 247.013 68.1069 246.862 67.7885C246.712 67.4701 246.491 67.1896 246.218 66.9676C245.944 66.7456 245.624 66.5877 245.282 66.5057L231.826 62.9001L236.127 52.9317" stroke="#253355" stroke-width="2" stroke-linecap="round"/>
</svg>
