<svg width="242" height="153" viewBox="0 0 242 153" fill="none" xmlns="http://www.w3.org/2000/svg"><g clip-path="url(#clip0_8144_152241)"><path d="M86 114.355v16a3.002 3.002 0 0 1-3 3h-5a3.002 3.002 0 0 1-3-3v-16m22 0v10a3.002 3.002 0 0 1-3 3h-5a3.002 3.002 0 0 1-3-3v-10m22 0v5a3 3 0 0 1-3 3h-5a3.002 3.002 0 0 1-3-3v-5m22 0v10a3 3 0 0 1-3 3h-5a3 3 0 0 1-3-3v-10m22 0v15a3 3 0 0 1-3 3h-5a3 3 0 0 1-3-3v-15m22 0v10a3 3 0 0 1-3 3h-5a3 3 0 0 1-3-3v-10m22 0v5a3 3 0 0 1-3 3h-5a3 3 0 0 1-3-3v-5m22 0v10a3 3 0 0 1-3 3h-5a3 3 0 0 1-3-3v-10" stroke="#7E8A9C" stroke-width="2" stroke-linecap="round"/><path d="M153.17 55.355H176a10 10 0 0 1 10 10v39a5.002 5.002 0 0 1-5 5H56a4.998 4.998 0 0 1-5-5v-39a10 10 0 0 1 10-10h22.98" stroke="#7E8A9C" stroke-width="2"/><path d="M55 73.356h126" stroke="#7E8A9C" stroke-width="2" stroke-linecap="round"/><path d="M76.376 69.087c-4.01 0-2.931-6.732-1.09-6.732h8.716v6.732h-7.626zm76.67-.2v-5.752h8.718c1.841 0 2.921 5.752-1.09 5.752h-7.628z" fill="#7E8A9C"/><path d="M153.149 62.355h7.351a3.502 3.502 0 0 1 2.475 5.975 3.502 3.502 0 0 1-2.475 1.026h-84a3.5 3.5 0 0 1 0-7h7.364" stroke="#7E8A9C" stroke-width="2"/><path d="M170 97.356a6 6 0 1 0 0-12 6 6 0 0 0 0 12z" fill="#235B95"/><path d="M150 96.356a5 5 0 1 0 0-10.001 5 5 0 0 0 0 10zm-20 0a5 5 0 1 0 0-10.001 5 5 0 0 0 0 10zm-18-10H67a3 3 0 0 0-3 3v4a3 3 0 0 0 3 3h45a3 3 0 0 0 3-3v-4a3 3 0 0 0-3-3z" stroke="#7E8A9C" stroke-width="2"/><path d="M180 152.355v-12h-7v-2h7v-11h2v11h16v2h-16v12h-2zm-120 0v-12H44v-2h16v-11h2v11h7v2h-7v12h-2zm160-32v-20h-10v-2h10v-3h2v3h5v2h-5v20h-2zm-200 0v-20h-5v-2h5v-3h2v3h10v2H22v20h-2zm200-48v-12h-10v-2h10v-38h-38v12h-2v-12h-3v-2h3v-11h2v11h38v-11h2v11h10v2h-10v38h20v2h-20v12h-2zm-200 0v-12H0v-2h20v-38H10v-2h10v-11h2v11h38v-11h2v11h3v2h-3v12h-2v-12H22v38h10v2H22v12h-2z" fill="#3C4249"/><path d="M83 67.356v-43a4 4 0 0 1 4-4h32c3.348 0 5-1.73 5-4m14.046 4H143l11 11v38" stroke="#7E8A9C" stroke-width="2"/><path d="M117.271 56.346a6.75 6.75 0 1 0 0-13.502 6.75 6.75 0 0 0 0 13.502zm0 2a8.867 8.867 0 0 1-6.366-2.65 8.55 8.55 0 0 1-2.49-6.137 8.431 8.431 0 0 1 2.464-6.054 9.02 9.02 0 0 1 6.392-2.657 8.83 8.83 0 0 1 6.153 2.527 8.701 8.701 0 0 1 2.7 6.155v.056a8.966 8.966 0 0 1-8.856 8.76h.003z" fill="#7E8A9C"/><path d="M117.931 23.894a25.99 25.99 0 0 0-.714.468c-3.736 2.536-5.748 5.453-5.773 13.787v1.07h11.233v-1.07c0-4.621 1.925-6.84 5.907-9.19 5.063-2.95 8.411-6.736 8.411-12.976 0-9.477-7.884-14.6-18.748-14.6-9.914 0-18.089 4.882-18.247 15.848h12.13a5.823 5.823 0 0 1 1.77-4.188 5.815 5.815 0 0 1 4.242-1.634c3.111 0 5.859 1.834 5.859 4.94" stroke="#7E8A9C" stroke-width="2" stroke-linecap="round"/><path d="M142 20.281v10.075c0 1.244.3 2 2 2h9" stroke="#7E8A9C" stroke-width="2"/></g><defs><clipPath id="clip0_8144_152241"><path fill="#fff" transform="translate(0 .387)" d="M0 0h242v151.967H0z"/></clipPath></defs></svg>