<svg width="330" viewBox="0 0 330 80" fill="none" xmlns="http://www.w3.org/2000/svg">
<path d="M197.942 66.0263C197.942 67.9238 188.535 69.5359 175.448 70.1191C173.717 62.1331 160.74 61.7297 154.649 64.296C154.182 66.2569 153.913 68.7267 153.819 70.1191C140.731 69.5359 131.324 67.9238 131.324 66.0263C131.324 64.0462 141.568 62.3769 155.549 61.8633C158.437 61.7572 161.484 61.7005 164.633 61.7005C167.782 61.7005 170.83 61.7572 173.717 61.8633C187.698 62.3769 197.942 64.0462 197.942 66.0263Z" fill="#5CA4EC"/>
<path d="M139.976 28.0938C138.938 39.86 145.023 44.532 148.195 45.3971C142.312 46.0893 137.38 47.7042 135.65 48.4252L138.246 42.8016C138.246 41.6481 138.592 37.0915 139.976 28.0938Z" fill="#5CA4EC"/>
<path d="M133.936 49.2839C139.373 45.8499 138.262 38.9019 139.992 26.3569C141.723 13.812 152.537 6.89062 162.919 6.89062H166.797C170.268 6.89062 173.788 7.66432 177 9.16321M133.936 49.2839C125.717 54.4749 123.554 68.3176 134.369 71.3457C141.389 73.3114 149.111 73.867 154.685 73.9683M133.936 49.2839C140.153 45.4771 156.704 44.8138 164.202 44.958M175.031 73.9683C180.605 73.867 188.327 73.3115 195.348 71.3457C206.162 68.3176 203.999 54.4749 195.78 49.2839C192.034 46.9179 191.397 42.8837 190.796 36.5" stroke="#235B95" stroke-width="2" stroke-linecap="round"/>
<path d="M133.055 67.401C131.932 66.9676 131.324 66.5036 131.324 66.0212C131.324 63.6321 146.237 61.6953 164.633 61.6953C183.029 61.6953 197.942 63.6321 197.942 66.0212C197.942 66.5036 197.334 66.9676 196.212 67.401" stroke="#235B95" stroke-width="2" stroke-linecap="round"/>
<path d="M155.674 62.1328C154.504 63.8607 153.82 65.945 153.82 68.189C153.82 74.1617 158.662 79.0036 164.635 79.0036C170.608 79.0036 175.45 74.1617 175.45 68.189C175.45 65.945 174.766 63.8607 173.596 62.1328" stroke="#235B95" stroke-width="2" stroke-linecap="round"/>
<path d="M165.634 75.9752C162.018 75.9752 158.947 73.7687 157.848 70.7031" stroke="#235B95" stroke-width="2" stroke-linecap="round"/>
<path d="M168.527 6.46067C168.527 4.5494 166.977 3 165.066 3C163.155 3 161.605 4.5494 161.605 6.46067" stroke="#235B95" stroke-width="2" stroke-linecap="round"/>
<rect x="177" y="7" width="21" height="28" rx="10.5" fill="#5CA4EC"/>
<path d="M187.499 27.2216C186.564 27.2216 185.761 26.9848 185.09 26.5114C184.424 26.0341 183.91 25.3466 183.55 24.4489C183.194 23.5473 183.016 22.4621 183.016 21.1932C183.02 19.9242 183.2 18.8447 183.556 17.9545C183.916 17.0606 184.429 16.3788 185.096 15.9091C185.766 15.4394 186.567 15.2045 187.499 15.2045C188.431 15.2045 189.232 15.4394 189.903 15.9091C190.573 16.3788 191.086 17.0606 191.442 17.9545C191.802 18.8485 191.982 19.928 191.982 21.1932C191.982 22.4659 191.802 23.553 191.442 24.4545C191.086 25.3523 190.573 26.0379 189.903 26.5114C189.236 26.9848 188.435 27.2216 187.499 27.2216ZM187.499 25.4432C188.227 25.4432 188.8 25.0852 189.221 24.3693C189.645 23.6496 189.857 22.5909 189.857 21.1932C189.857 20.2689 189.761 19.4924 189.567 18.8636C189.374 18.2348 189.102 17.7614 188.749 17.4432C188.397 17.1212 187.98 16.9602 187.499 16.9602C186.776 16.9602 186.204 17.3201 185.783 18.0398C185.363 18.7557 185.151 19.8068 185.147 21.1932C185.143 22.1212 185.236 22.9015 185.425 23.5341C185.619 24.1667 185.891 24.6439 186.244 24.9659C186.596 25.2841 187.014 25.4432 187.499 25.4432Z" fill="white"/>
<ellipse cx="165" cy="89.5" rx="32" ry="2.5" fill="#E6EFF9"/>
</svg>
