<svg width="100" height="100" viewBox="0 0 100 100" fill="none" xmlns="http://www.w3.org/2000/svg">
<path d="M82.9422 66.0263C82.9422 67.9238 73.5354 69.5359 60.4478 70.1191C58.7175 62.1331 45.74 61.7297 39.6492 64.296C39.182 66.2569 38.9133 68.7267 38.8186 70.1191C25.7311 69.5359 16.3242 67.9238 16.3242 66.0263C16.3242 64.0462 26.5682 62.3769 40.5489 61.8633C43.4367 61.7572 46.4839 61.7005 49.6332 61.7005C52.7825 61.7005 55.8297 61.7572 58.7175 61.8633C72.6982 62.3769 82.9422 64.0462 82.9422 66.0263Z" fill="#1C468C"/>
<path d="M24.9759 28.0938C23.9377 39.86 30.0227 44.532 33.195 45.3971C27.3119 46.0893 22.3804 47.7042 20.6501 48.4252L23.2456 42.8016C23.2456 41.6481 23.5916 37.0915 24.9759 28.0938Z" fill="#1C468C"/>
<path d="M18.936 49.2839C24.3732 45.8499 23.2619 38.9019 24.9922 26.3569C26.7225 13.812 37.5371 6.89062 47.9192 6.89062H51.7972C55.2683 6.89062 58.7878 7.66432 62 9.16321M18.936 49.2839C10.7169 54.4749 8.55399 68.3176 19.3686 71.3457C26.3891 73.3114 34.1113 73.867 39.6854 73.9683M18.936 49.2839C25.1535 45.4771 41.7041 44.8138 49.2022 44.958M60.0308 73.9683C65.605 73.867 73.3272 73.3115 80.3478 71.3457C91.1624 68.3176 88.9995 54.4749 80.7804 49.2839C77.0341 46.9179 76.3966 42.8837 75.7965 36.5" stroke="#2079EE" stroke-width="2" stroke-linecap="round"/>
<path d="M18.0546 67.401C16.9324 66.9676 16.3242 66.5036 16.3242 66.0212C16.3242 63.6321 31.2372 61.6953 49.6332 61.6953C68.0293 61.6953 82.9422 63.6321 82.9422 66.0212C82.9422 66.5036 82.334 66.9676 81.2119 67.401" stroke="#2079EE" stroke-width="2" stroke-linecap="round"/>
<path d="M40.6738 62.1328C39.5037 63.8607 38.8203 65.945 38.8203 68.189C38.8203 74.1617 43.6622 79.0036 49.6349 79.0036C55.6077 79.0036 60.4495 74.1617 60.4495 68.189C60.4495 65.945 59.7661 63.8607 58.596 62.1328" stroke="#2079EE" stroke-width="2" stroke-linecap="round"/>
<path d="M50.6342 75.9752C47.0177 75.9752 43.9468 73.7687 42.8477 70.7031" stroke="#2079EE" stroke-width="2" stroke-linecap="round"/>
<path d="M53.5268 6.46067C53.5268 4.5494 51.9774 3 50.0661 3C48.1549 3 46.6055 4.5494 46.6055 6.46067" stroke="#2079EE" stroke-width="2" stroke-linecap="round"/>
<rect x="62" y="7" width="21" height="28" rx="10.5" fill="#1C468C"/>
<path d="M72.4993 27.2216C71.5637 27.2216 70.7607 26.9848 70.0902 26.5114C69.4235 26.0341 68.9103 25.3466 68.5504 24.4489C68.1944 23.5473 68.0163 22.4621 68.0163 21.1932C68.0201 19.9242 68.2 18.8447 68.5561 17.9545C68.916 17.0606 69.4292 16.3788 70.0959 15.9091C70.7663 15.4394 71.5675 15.2045 72.4993 15.2045C73.4311 15.2045 74.2322 15.4394 74.9027 15.9091C75.5732 16.3788 76.0864 17.0606 76.4425 17.9545C76.8023 18.8485 76.9822 19.928 76.9822 21.1932C76.9822 22.4659 76.8023 23.553 76.4425 24.4545C76.0864 25.3523 75.5732 26.0379 74.9027 26.5114C74.236 26.9848 73.4349 27.2216 72.4993 27.2216ZM72.4993 25.4432C73.2266 25.4432 73.8004 25.0852 74.2209 24.3693C74.6451 23.6496 74.8572 22.5909 74.8572 21.1932C74.8572 20.2689 74.7607 19.4924 74.5675 18.8636C74.3743 18.2348 74.1016 17.7614 73.7493 17.4432C73.397 17.1212 72.9804 16.9602 72.4993 16.9602C71.7758 16.9602 71.2038 17.3201 70.7834 18.0398C70.3629 18.7557 70.1508 19.8068 70.147 21.1932C70.1432 22.1212 70.236 22.9015 70.4254 23.5341C70.6186 24.1667 70.8913 24.6439 71.2436 24.9659C71.5959 25.2841 72.0144 25.4432 72.4993 25.4432Z" fill="white"/>
<ellipse cx="50" cy="89.5" rx="32" ry="2.5" fill="#253355"/>
</svg>
