<svg xmlns="http://www.w3.org/2000/svg" viewBox="0 0 207 106" xml:space="preserve"><path fill="none" stroke="#3C4249" stroke-width="2" stroke-linecap="round" d="M146.51 53.057c0 23.748-19.252 43-43 43a42.94 42.94 0 0 1-14-2.33m55.831-50.67a42.667 42.667 0 0 0-1.907-6m-4.24-8c-7.724-11.462-20.824-19-35.684-19-23.749 0-43 19.251-43 43 0 8.46 2.443 16.348 6.661 23M80.51 89.395a43.206 43.206 0 0 1-8.285-6.838"/><circle transform="rotate(-83.735 103.01 53.556)" fill="none" stroke="#DE5846" stroke-width="2" cx="103.01" cy="53.557" r="31.5"/><circle fill="#391919" cx="102.996" cy="53.5" r="27.5"/><path fill="none" stroke="#DE5846" stroke-width="2" stroke-linecap="round" d="M102.996 60.325l6.45 6.463c.806.808 1.863 1.212 2.92 1.212s2.114-.404 2.92-1.212a4.143 4.143 0 0 0 0-5.852l-6.45-6.462 6.399-6.412a4.141 4.141 0 0 0 0-5.85 4.125 4.125 0 0 0-5.841 0l-.786.788m-5.612 5.623l-6.4-6.411a4.123 4.123 0 0 0-5.839 0 4.142 4.142 0 0 0 0 5.85l6.399 6.412-6.45 6.462a4.144 4.144 0 0 0 0 5.852 4.123 4.123 0 0 0 5.839 0L97.33 66m9.036-20.755l-1.686 1.689M100.825 62.5l-1.6 1.603"/><path fill="#3C4249" d="M30.062 17.003h2v-7h7v-2h-7v-7h-2v7h-7v2h7v7zm43 88h2v-7h7v-2h-7v-7h-2v7h-7v2h7v7zm-66.002-.002h2v-7h7v-2h-7v-7h-2v7h-7v2h7v7zm22 0h2v-7h7v-2h-7v-7h-2v7h-7v2h7v7zm0-22h2v-7h7v-2h-7v-7h-2v7h-7v2h7v7zm22.5 0h2v-7h7v-2h-7v-7h-2v7h-7v2h7v7zm0-66h2v-7h7v-2h-7v-7h-2v7h-7v2h7v7zm0 22h2v-7h7v-2h-7v-7h-2v7h-7v2h7v7zm21.5-22h2v-7h7v-2h-7v-7h-2v7h-7v2h7v7zm103.883-.003h-2v-7h-7v-2h7v-7h2v7h7v2h-7v7zm-43.001 88h-2v-7h-7v-2h7v-7h2v7h7v2h-7v7zm65.999 0h-2v-7h-7v-2h7v-7h2v7h7v2h-7v7zm-22 0h-2v-7h-7v-2h7v-7h2v7h7v2h-7v7zm0-22h-2v-7h-7v-2h7v-7h2v7h7v2h-7v7zm-22.5 0h-2v-7h-7v-2h7v-7h2v7h7v2h-7v7zm0-66h-2v-7h-7v-2h7v-7h2v7h7v2h-7v7zm0 22h-2v-7h-7v-2h7v-7h2v7h7v2h-7v7zm-21.5-22h-2v-7h-7v-2h7v-7h2v7h7v2h-7v7z"/></svg>