<svg id="error-small" viewBox="0 0 89 89" fill="none" xmlns="http://www.w3.org/2000/svg"><path d="M87.45 44.059c0 23.748-19.252 43-43 43-4.902 0-9.612-.82-14-2.33m55.83-50.67a42.664 42.664 0 0 0-1.906-6m-4.24-8c-7.724-11.462-20.824-19-35.685-19-23.748 0-43 19.251-43 43 0 8.46 2.443 16.348 6.662 23m13.338 13.338a43.209 43.209 0 0 1-8.285-6.838" stroke="#3C4249" stroke-width="2" stroke-linecap="round"/><circle cx="43.949" cy="44.559" r="31.5" stroke="#DE5846" stroke-width="2"/><circle cx="43.938" cy="44.5" r="27.5" fill="#391919"/><path d="M43.937 51.325l6.45 6.463A4.113 4.113 0 0 0 53.307 59a4.113 4.113 0 0 0 2.92-1.212 4.144 4.144 0 0 0 0-5.852l-6.45-6.462 6.4-6.412a4.142 4.142 0 0 0 0-5.85 4.125 4.125 0 0 0-5.841 0l-.787.788m-5.612 5.623l-6.4-6.411a4.123 4.123 0 0 0-5.838 0 4.142 4.142 0 0 0 0 5.85l6.398 6.412-6.45 6.462a4.144 4.144 0 0 0 0 5.852 4.123 4.123 0 0 0 5.84 0l.786-.788m9.035-20.755l-1.685 1.689M41.766 53.5l-1.6 1.603" stroke="#DE5846" stroke-width="2" stroke-linecap="round"/></svg>