<svg xmlns="http://www.w3.org/2000/svg" viewBox="0 0 207 106" xml:space="preserve"><path fill="none" stroke="#DBDEE5" stroke-width="2" stroke-linecap="round" d="M146.516 53.293c0 23.748-19.252 43-43 43-4.902 0-9.612-.82-14-2.33m55.831-50.67a42.662 42.662 0 0 0-1.907-6m-4.24-8c-7.724-11.461-20.824-19-35.684-19-23.749 0-43 19.252-43 43 0 8.46 2.442 16.349 6.661 23m13.339 13.338a43.209 43.209 0 0 1-8.285-6.838"/><circle fill="none" stroke="#DE5846" stroke-width="2" cx="103.016" cy="53.793" r="31.5"/><circle fill="#FFE0DA" cx="103" cy="53.734" r="27.5"/><path fill="none" stroke="#DE5846" stroke-width="2" stroke-linecap="round" d="M103 60.56l6.45 6.462c.806.808 1.863 1.212 2.92 1.212s2.114-.404 2.92-1.212a4.143 4.143 0 0 0 0-5.852l-6.45-6.462 6.399-6.411a4.141 4.141 0 0 0 0-5.85 4.125 4.125 0 0 0-5.841 0l-.787.787M103 48.857l-6.4-6.41a4.123 4.123 0 0 0-5.839 0 4.142 4.142 0 0 0 0 5.85l6.399 6.411-6.45 6.462a4.144 4.144 0 0 0 0 5.852 4.123 4.123 0 0 0 5.839 0l.786-.788m9.036-20.755l-1.686 1.69m-3.856 15.565l-1.6 1.603"/><path fill="#DBDEE5" d="M30.06 17.238h2v-7h7v-2h-7v-7h-2v7h-7v2h7v7zm43 88h2v-7h7v-2h-7v-7h-2v7h-7v2h7v7zm-66.001-.001h2v-7h7v-2h-7v-7h-2v7h-7v2h7v7zm22 0h2v-7h7v-2h-7v-7h-2v7h-7v2h7v7zm0-22h2v-7h7v-2h-7v-7h-2v7h-7v2h7v7zm22.5 0h2v-7h7v-2h-7v-7h-2v7h-7v2h7v7zm-.001-66h2v-7h7v-2h-7v-7h-2v7h-7v2h7v7zm.001 22h2v-7h7v-2h-7v-7h-2v7h-7v2h7v7zm21.499-22h2v-7h7v-2h-7v-7h-2v7h-7v2h7v7zm103.882-.003h-2v-7h-7v-2h7v-7h2v7h7v2h-7v7zm-43.001 88h-2v-7h-7v-2h7v-7h2v7h7v2h-7v7zm65.998 0h-2v-7h-7v-2h7v-7h2v7h7v2h-7v7zm-22 0h-2v-7h-7v-2h7v-7h2v7h7v2h-7v7zm0-22h-2v-7h-7v-2h7v-7h2v7h7v2h-7v7zm-22.5 0h-2v-7h-7v-2h7v-7h2v7h7v2h-7v7zm.001-66h-2v-7h-7v-2h7v-7h2v7h7v2h-7v7zm0 22h-2v-7h-7v-2h7v-7h2v7h7v2h-7v7zm-21.5-22h-2v-7h-7v-2h7v-7h2v7h7v2h-7v7z"/></svg>