<svg width="303" height="163" viewBox="0 0 303 163" fill="none" xmlns="http://www.w3.org/2000/svg"><g clip-path="url(#clip0_8144_152326)"><path d="M122.219 55.996L174.67 4.62a10 10 0 0 1 14.142 0l60.148 60.148a10.001 10.001 0 0 1 0 14.142l-60.148 60.149a9.999 9.999 0 0 1-14.142 0l-35.451-35.063c-3.905-3.9 1.095-8.9 5-5l30.319 29.35a9.997 9.997 0 0 0 14.142 0l49.569-49.569a10.002 10.002 0 0 0 0-14.142L188.68 15.066a10.001 10.001 0 0 0-14.142 0l-50.569 49.57-1.75-8.64z" stroke="#DF5E4C" stroke-width="2"/><path d="M72.274 124.997h-4.055a6.002 6.002 0 0 0-6 6v5a6 6 0 0 0 6 6h78a6 6 0 0 0 6-6v-5a6 6 0 0 0-6-6H82.245c-4.95 0-5.656-2.919-4.626-7.229 1.03-4.31 15.3-56.956 17.6-66.77 3.659-15.585 23.048-14.65 26 1 2.952 15.65 16 66.999 16 66.999" stroke="#212225" stroke-width="2" stroke-linecap="round"/><path d="M126.219 107.998h-38a2.192 2.192 0 0 1-1.794-.971 2.18 2.18 0 0 1-.206-2.029c.559-1.861 1.784-6.09 2-7a2.91 2.91 0 0 1 3-2h33c1.318 0 1.856 1.547 2 2 .255.8 1.664 5.386 2 7 .336 1.614-.214 3-2 3zm-7-28h-23a2.18 2.18 0 0 1-2-3c.559-1.861 1.784-6.09 2-7a2.91 2.91 0 0 1 3-2h18c1.318 0 1.856 1.547 2 2a67.45 67.45 0 0 1 2 7c.189 1.59-.214 3-2 3z" stroke="#DDE0E6" stroke-width="2"/><path d="M274.219 162.383v-19h-38v19h-2v-19h-28v-2h28v-16h2v16h38v-39h-4v-2h4v-38h-4v-2h4v-23h2v23h6v2h-6v38h26v2h-26v39h26v2h-26v19h-2zm-19-56v-4h-4v-2h4v-4h2v4h4v2h-4v4h-2zm19-79v-4h-4v-2h4v-4h2v4h4v2h-4v4h-2zM28 17.383v19h38v-19h2v19h17v2H68v39h-2v-39H28v39h4v2h-4v38h4v2h-4v23h-2v-23h-6v-2h6v-38H0v-2h26v-39H0v-2h26v-19h2zm19 56v4h4v2h-4v4h-2v-4h-4v-2h4v-4h2zm-19 79v4h4v2h-4v4h-2v-4h-4v-2h4v-4h2z" fill="#DBDEE5"/><path d="M116.102 141.996h48.266m-123.266 0h48.266" stroke="#212225" stroke-width="2" stroke-linecap="round"/><path d="M189.219 47.816a8 8 0 0 0-16 0v24a8 8 0 0 0 16 0v-24z" fill="#FFE7E2"/><path d="M188.219 47.816a7 7 0 1 0-14 0v24a7 7 0 1 0 14 0v-24z" stroke="#DF5E4C" stroke-width="2"/><path d="M189.219 91.816a8 8 0 1 0-16 0 8 8 0 0 0 16 0z" fill="#FFE7E2"/><path d="M188.219 91.816a7 7 0 1 0-14 0 7 7 0 0 0 14 0z" stroke="#DF5E4C" stroke-width="2"/></g><defs><clipPath id="clip0_8144_152326"><path fill="#fff" transform="translate(0 .691)" d="M0 0h302.219v161.693H0z"/></clipPath></defs></svg>