<svg width="303" height="162" viewBox="0 0 303 162" fill="none" xmlns="http://www.w3.org/2000/svg"><path d="M122.219 55.305L174.67 3.929a10 10 0 0 1 14.142 0l60.148 60.148a10.001 10.001 0 0 1 0 14.142l-60.148 60.149a10.003 10.003 0 0 1-14.142 0l-35.451-35.063c-3.905-3.9 1.095-8.9 5-5l30.319 29.35a10.001 10.001 0 0 0 14.142 0l49.569-49.57a10.002 10.002 0 0 0 0-14.141l-49.569-49.57a10.001 10.001 0 0 0-14.142 0l-50.569 49.57-1.75-8.64z" stroke="#DF5E4C" stroke-width="2"/><path d="M72.274 124.306h-4.055a6 6 0 0 0-6 6v5a6.003 6.003 0 0 0 6 6h78a6 6 0 0 0 6-6v-5a6 6 0 0 0-6-6H82.245c-4.95 0-5.656-2.919-4.626-7.229 1.03-4.31 15.3-56.956 17.6-66.771 3.659-15.584 23.048-14.65 26 1 2.952 15.65 16 67 16 67" stroke="#7E8A9C" stroke-width="2" stroke-linecap="round"/><path d="M126.219 107.306h-38a2.179 2.179 0 0 1-2-3c.559-1.861 1.784-6.09 2-7a2.91 2.91 0 0 1 3-2h33c1.318 0 1.856 1.547 2 2 .255.8 1.664 5.386 2 7 .336 1.614-.214 3-2 3zm-7-28h-23a2.18 2.18 0 0 1-2-3c.559-1.86 1.784-6.09 2-7a2.91 2.91 0 0 1 3-2h18c1.318 0 1.856 1.547 2 2a67.45 67.45 0 0 1 2 7c.189 1.591-.214 3-2 3z" stroke="#3C4249" stroke-width="2"/><path d="M274.219 161.691v-19h-38v19h-2v-19h-28v-2h28v-16h2v16h38v-39h-4v-2h4v-38h-4v-2h4v-23h2v23h6v2h-6v38h26v2h-26v39h26v2h-26v19h-2zm-19-56v-4h-4v-2h4v-4h2v4h4v2h-4v4h-2zm19-79v-4h-4v-2h4v-4h2v4h4v2h-4v4h-2zM28 16.691v19h38v-19h2v19h17v2H68v39h-2v-39H28v39h4v2h-4v38h4v2h-4v23h-2v-23h-6v-2h6v-38H0v-2h26v-39H0v-2h26v-19h2zm19 56v4h4v2h-4v4h-2v-4h-4v-2h4v-4h2zm-19 79v4h4v2h-4v4h-2v-4h-4v-2h4v-4h2z" fill="#3C4249"/><path d="M116.102 141.305h48.266m-123.266 0h48.266" stroke="#7E8A9C" stroke-width="2" stroke-linecap="round"/><path d="M189.219 47.125a8 8 0 0 0-16 0v24a8 8 0 0 0 16 0v-24z" fill="#5B1B1B"/><path d="M188.219 47.125a7 7 0 1 0-14 0v24a7 7 0 1 0 14 0v-24z" stroke="#DF5E4C" stroke-width="2"/><path d="M189.219 91.125a8 8 0 1 0-16 0 8 8 0 0 0 16 0z" fill="#5B1B1B"/><path d="M188.219 91.125a7 7 0 1 0-14 0 7 7 0 0 0 14 0z" stroke="#DF5E4C" stroke-width="2"/></svg>