<svg width="292" height="224" viewBox="0 0 292 224" fill="none" xmlns="http://www.w3.org/2000/svg">
<path d="M113.359 130.812C116.7 135.1 120.272 139.265 123.977 143.192C126.963 146.358 130.045 149.381 133.139 152.177C136.093 154.907 139.201 157.455 142.446 159.809H142.449C143.328 160.245 144.292 160.471 145.268 160.471C146.245 160.471 147.208 160.245 148.088 159.809C151.333 157.455 154.441 154.906 157.395 152.177C160.489 149.381 163.572 146.358 166.558 143.192C170.263 139.264 173.835 135.099 177.175 130.812C184.053 122.016 190.043 112.529 195.054 102.5M174.066 117.227C173.221 119.741 171.94 122.076 170.285 124.119C165.567 130.122 160.366 135.706 154.737 140.811C152.42 142.941 149.987 144.933 147.448 146.776C146.771 147.124 146.025 147.305 145.268 147.305C144.511 147.305 143.765 147.124 143.088 146.776C140.549 144.933 138.115 142.941 135.798 140.811C131.614 137.015 127.666 132.956 123.977 128.656" stroke="#363B43" stroke-width="2" stroke-dasharray="4 4"/>
<path d="M174.285 108C173.452 104.904 171.837 102.071 169.582 99.8018L163.557 93.3974C156.054 85.4256 145.778 74.507 145.627 74.3021C145.588 74.2397 145.535 74.1881 145.472 74.1525C145.409 74.1169 145.338 74.0984 145.266 74.0984C145.194 74.0984 145.123 74.1169 145.06 74.1525C144.996 74.1881 144.943 74.2405 144.904 74.303C144.755 74.5061 134.603 85.2922 127.191 93.1679C124.636 95.8878 122.387 98.2727 120.95 99.8026C118.052 102.721 116.211 106.57 115.731 110.712C115.534 112.913 115.785 115.132 116.469 117.227C117.314 119.741 118.595 122.076 120.25 124.119C120.482 124.414 120.715 124.709 120.95 125.002M199.998 91.6312C202.394 85.7839 204.442 79.7902 206.128 73.6833C208.43 65.3129 210.039 56.757 210.938 48.1072C211.124 46.3206 211.048 44.1209 208.796 42.9632C202.393 39.9986 195.787 37.5219 189.031 35.5533C182.749 33.66 176.365 32.1467 169.911 31.0213C162.466 29.708 154.927 29.0319 147.373 29H143.16C135.606 29.0319 128.068 29.708 120.623 31.0213C114.169 32.1467 107.785 33.66 101.503 35.5533C94.7473 37.5216 88.1415 39.9983 81.7388 42.9632C79.4862 44.12 79.4102 46.3223 79.596 48.1072C80.4947 56.757 82.1035 65.3129 84.4053 73.6833C86.5168 81.3275 89.1933 88.7945 92.4114 96.0187C97.1371 106.574 102.919 116.588 109.661 125.898M145.416 48.4811C145.465 48.561 145.532 48.669 145.627 48.8041C145.769 49.0064 147.899 52.4947 150.85 57.3216C157.928 68.9023 169.772 88.284 172.887 93.0029C175.19 96.4878 178.1 98.492 180.868 98.4928C183.556 98.4928 187.444 96.6229 190.702 87.6907C194.243 77.9865 196.576 67.8604 197.647 57.5536C197.796 56.1265 197.736 54.3696 195.936 53.4449C190.821 51.0772 185.545 49.0991 180.149 47.5266C175.132 46.0141 170.032 44.8052 164.877 43.9059C158.93 42.8568 152.909 42.3167 146.875 42.2909H143.654C137.62 42.3167 131.599 42.8568 125.652 43.9059C120.497 44.8052 115.397 46.0141 110.38 47.5266C104.984 49.0992 99.7073 51.0773 94.593 53.4449C92.7947 54.3688 92.7335 56.1257 92.8814 57.5536C93.9524 67.8604 96.2861 77.9865 99.8269 87.6907C101.625 92.6205 104.791 98.4928 109.661 98.4928C112.43 98.4928 115.337 96.492 117.641 93.0029C120.754 88.2882 132.593 68.9176 139.665 57.3437L139.677 57.3242C142.628 52.4956 144.76 49.0072 144.901 48.8058C144.995 48.6707 145.066 48.5619 145.112 48.4828C145.188 48.3613 145.225 48.3001 145.263 48.3001C145.301 48.3001 145.34 48.3596 145.416 48.4811ZM125.276 104.052L132.413 96.391H157.53L164.666 104.052H125.276ZM137.695 90.9044L145.017 83.1485L152.339 90.9044H137.695Z" stroke="#539BF5" stroke-width="2" stroke-linecap="round"/>
<path d="M94.9996 111.5L98.4996 120.5C90.8993 120.1 87.6664 124 87 126C85.9999 125.833 83.4996 125.3 81.4996 124.5C78.9996 123.5 77.4996 121.5 79.9996 118C81.9996 115.2 90.833 112.5 94.9996 111.5Z" fill="#363B43"/>
<path d="M210 126L215 119.5C215 119.5 218.5 123.5 219.5 131C219.604 131.778 219.688 132.624 219.755 133.5L216.018 133C213.841 129.123 211.43 126.858 210 126Z" fill="#363B43"/>
<path d="M231.461 93.293C240.795 100.637 286.568 141.042 251.163 205.855" stroke="#505D6A" stroke-width="2" stroke-linecap="round"/>
<path d="M247.5 167.001C245.5 158.001 243 154 239 149.5C242.5 148.001 244.5 142 245.5 136C247.5 141.5 250 149.001 247.5 167.001Z" fill="#3D444D"/>
<path d="M231.469 114.634L233.61 123.535M231.469 114.634L239.808 118.878M231.469 114.634C236.978 119.25 240.843 124.542 243.5 130.021M247.5 167.5C249.201 159.139 250.263 143.97 243.5 130.021M243.5 130.021C245.872 136.681 245 146.5 239.808 149" stroke="#788A98" stroke-width="2" stroke-linecap="round" stroke-linejoin="round"/>
<path d="M215.085 119.754C216.985 123.178 218.76 127.939 219.631 133.5M157.43 199.582C162.647 198.138 167.458 196.571 171.89 194.898M175.313 193.555C178.238 192.363 180.985 191.123 183.564 189.842" stroke="#505D6A" stroke-width="2" stroke-linecap="round"/>
<path d="M210.078 125.738C210.078 125.738 213.546 127.736 216.054 132.854" stroke="#505D6A" stroke-width="2" stroke-linecap="round"/>
<path d="M78.6088 156.553C82.8555 156.553 87.0158 156.461 91.0898 156.283M96.9101 155.968C189.287 149.964 235.416 99.2448 235.416 72.3289C235.416 58.5215 223.604 52.4365 213.719 49.7617M74.3135 156.478C17.986 154.492 21.953 113.198 87.7255 96.6642" stroke="#505D6A" stroke-width="2" stroke-linecap="round"/>
<path d="M233.174 62.8203C239.337 72.7491 236.528 92.6951 214.826 119.764C206.302 130.396 194.648 140.972 179.125 150.125" stroke="#505D6A" stroke-width="2" stroke-linecap="round"/>
<path d="M162.358 158.822C142.903 167.743 118.602 174.5 88.5 177.33M170.233 154.96C171.868 154.103 173.466 153.231 175.026 152.344" stroke="#505D6A" stroke-width="2" stroke-linecap="round"/>
<path d="M86.8248 126.424C86.8248 126.424 84.6137 122.211 98.4655 120.262" stroke="#539BF5" stroke-width="2" stroke-linecap="round"/>
<path d="M189.695 99.5382C211.032 85.8373 221.526 70.5394 211.758 62.5508M186.613 101.46C183.702 103.223 180.613 104.953 177.369 106.628M166.071 111.959C144.933 121.048 119.121 127.471 92.99 127.109C80.0612 126.93 67.4878 118.72 94.9174 111.594" stroke="#539BF5" stroke-width="2" stroke-linecap="round"/>
<path d="M89 26H73M81 18V34M67 26H51M59 18V34M67 48H51M59 40V56M45 48H29M37 40V56M23 48H7M15 40V56M59 100V84.0001M67 92.0001H51M59 78.0001V62.0001M67 70.0001H51M37 78.0001V62.0001M45 70.0001H29" stroke="#363B43" stroke-width="2"/>
<path d="M248 70L264 70M256 78L256 62M270 70L286 70M278 78L278 62M234 17.9999L234 33.9999M226 25.9999L242 25.9999M234 39.9999L234 55.9999M226 47.9999L242 47.9999M256 39.9999L256 55.9999M248 47.9999L264 47.9999" stroke="#363B43" stroke-width="2"/>
<path d="M194.585 143.675C197.203 142.163 200.476 140.273 201.785 139.517C198.463 144.345 194.635 159.182 205.9 179.906C217.166 200.631 231.534 202.636 237.309 201.048C234.162 203.156 226.987 207.356 223.462 207.297C219.055 207.223 204.941 206.208 193.678 182.164C182.415 158.12 191.313 145.564 194.585 143.675Z" fill="#3D444D"/>
<path d="M205.322 137.056C205.322 137.056 196.55 142.463 195.492 143.234C193.305 144.741 191.537 146.778 190.353 149.154C185.792 158.589 188.438 173.918 196.11 186.829M199.472 191.886C200.45 193.204 201.485 194.48 202.572 195.704C205.347 198.902 208.582 201.668 212.172 203.913M216.44 206.054C217.167 206.341 217.888 206.587 218.601 206.789M240.533 199.207C240.533 199.207 231.638 205.093 229.042 206.317C226.029 207.737 222.435 207.88 218.601 206.789M218.601 206.789L223.101 203.15" stroke="#788A98" stroke-width="2" stroke-linecap="round"/>
<path d="M221.679 197.654C231.382 203.656 240.797 202.528 245.08 193.668C250.752 181.938 245.282 161.098 232.862 147.118C220.441 133.138 205.776 131.316 200.105 143.046C194.434 154.777 199.903 175.617 212.323 189.596C215.363 193.017 218.536 195.71 221.679 197.654ZM221.679 197.654L216.601 202.154" stroke="#788A98" stroke-width="2" stroke-linecap="round"/>
<path d="M241.281 189.999C236.78 199.306 224.633 195.954 214.779 184.862C204.924 173.77 199.852 156.407 204.354 147.099C208.855 137.791 221.223 140.063 231.077 151.155C240.932 162.247 245.781 180.691 241.281 189.999Z" stroke="#3D444D" stroke-width="2" stroke-linecap="round"/>
</svg>
