<svg width="292" height="224" viewBox="0 0 274 210" fill="none" xmlns="http://www.w3.org/2000/svg">
<path d="M106.371 122.748C109.506 126.772 112.857 130.68 116.334 134.366C119.136 137.336 122.029 140.173 124.931 142.797C127.704 145.358 130.62 147.749 133.665 149.958H133.667C134.493 150.367 135.397 150.579 136.313 150.579C137.229 150.579 138.134 150.367 138.959 149.958C142.004 147.749 144.92 145.358 147.692 142.797C150.595 140.173 153.488 137.336 156.29 134.366C159.767 130.679 163.119 126.771 166.253 122.748C172.707 114.494 178.328 105.593 183.03 96.1816M163.335 110.001C162.542 112.359 161.34 114.551 159.787 116.468C155.36 122.101 150.48 127.341 145.198 132.131C143.024 134.13 140.741 135.999 138.358 137.728C137.723 138.055 137.023 138.225 136.313 138.225C135.603 138.225 134.902 138.055 134.267 137.728C131.885 135.999 129.601 134.13 127.427 132.131C123.5 128.569 119.796 124.76 116.334 120.725" stroke="#E6EFF9" stroke-width="1.87671" stroke-dasharray="3.75 3.75"/>
<path d="M163.542 101.343C162.76 98.4378 161.244 95.7796 159.129 93.6502L153.475 87.6406C146.435 80.1602 136.792 69.9146 136.65 69.7224C136.614 69.6638 136.564 69.6155 136.505 69.582C136.445 69.5486 136.379 69.5312 136.311 69.5312C136.244 69.5312 136.177 69.5486 136.118 69.582C136.059 69.6155 136.008 69.6646 135.972 69.7232C135.832 69.9138 126.306 80.035 119.351 87.4252C116.954 89.9775 114.843 92.2154 113.494 93.651C110.775 96.3891 109.048 100.001 108.597 103.888C108.412 105.953 108.648 108.035 109.29 110.001C110.083 112.36 111.285 114.551 112.838 116.469C113.055 116.746 113.274 117.022 113.494 117.297M187.67 85.9832C189.918 80.4964 191.839 74.8722 193.422 69.1418C195.582 61.2873 197.092 53.2588 197.935 45.1423C198.109 43.4658 198.039 41.4017 195.925 40.3154C189.917 37.5335 183.718 35.2095 177.379 33.3622C171.484 31.5857 165.493 30.1657 159.437 29.1095C152.451 27.8772 145.377 27.2428 138.289 27.2129H134.336C127.247 27.2428 120.174 27.8772 113.187 29.1095C107.131 30.1657 101.141 31.5857 95.2461 33.3622C88.907 35.2092 82.7083 37.5332 76.7004 40.3154C74.5866 41.4009 74.5153 43.4674 74.6897 45.1423C75.5329 53.2588 77.0426 61.2873 79.2025 69.1418C81.1838 76.3148 83.6953 83.3214 86.7151 90.1003C91.1494 100.005 96.5752 109.401 102.901 118.138M136.452 45.4931C136.498 45.5681 136.561 45.6694 136.65 45.7962C136.784 45.986 138.783 49.2593 141.551 53.7886C148.193 64.6555 159.307 82.8424 162.23 87.2704C164.391 90.5405 167.121 92.4211 169.719 92.4219C172.241 92.4219 175.89 90.6673 178.947 82.2857C182.269 73.1796 184.459 63.6778 185.464 54.0063C185.603 52.6672 185.547 51.0187 183.858 50.1509C179.059 47.9292 174.108 46.073 169.044 44.5974C164.336 43.1782 159.551 42.0438 154.714 41.1999C149.133 40.2155 143.483 39.7087 137.822 39.6845H134.798C129.137 39.7087 123.487 40.2155 117.906 41.1999C113.069 42.0438 108.284 43.1782 103.576 44.5974C98.5124 46.0731 93.5613 47.9293 88.7622 50.1509C87.0747 51.0179 87.0173 52.6664 87.1561 54.0063C88.1611 63.6778 90.3509 73.1797 93.6734 82.2857C95.3609 86.9115 98.3319 92.4219 102.901 92.4219C105.499 92.4219 108.228 90.5445 110.39 87.2704C113.31 82.8463 124.42 64.6698 131.056 53.8094L131.067 53.7911C133.836 49.2601 135.836 45.9868 135.969 45.7978C136.057 45.671 136.124 45.5689 136.167 45.4947C136.238 45.3806 136.273 45.3233 136.308 45.3233C136.344 45.3233 136.381 45.3791 136.452 45.4931ZM117.554 97.638L124.251 90.4496H147.819L154.515 97.638H117.554ZM129.207 85.3013L136.078 78.0235L142.948 85.3013H129.207Z" stroke="#4381C0" stroke-width="1.87671" stroke-linecap="round"/>
<path d="M89.1442 104.627L92.4285 113.072C85.2967 112.697 82.263 116.356 81.6377 118.233C80.6992 118.077 78.3531 117.576 76.4764 116.826C74.1305 115.887 72.723 114.011 75.0689 110.726C76.9456 108.099 85.2344 105.565 89.1442 104.627Z" fill="#8AC0F7"/>
<path d="M197.057 118.234L201.748 112.135C201.748 112.135 205.033 115.888 205.971 122.926C206.068 123.656 206.147 124.45 206.211 125.272L202.704 124.803C200.661 121.164 198.398 119.039 197.057 118.234Z" fill="#B6D7F8"/>
<path d="M217.193 87.543C225.952 94.4342 268.903 132.349 235.681 193.166" stroke="#154A82" stroke-width="1.87671" stroke-linecap="round"/>
<path d="M232.244 156.708C230.367 148.262 228.021 144.508 224.268 140.285C227.552 138.879 229.429 133.247 230.367 127.617C232.244 132.778 234.589 139.817 232.244 156.708Z" fill="#E6EFF9"/>
<path d="M217.202 107.569L219.211 115.92M217.202 107.569L225.026 111.551M217.202 107.569C222.371 111.9 225.998 116.865 228.491 122.007M232.244 157.176C233.84 149.33 234.838 135.096 228.491 122.007M228.491 122.007C230.717 128.256 229.898 137.47 225.026 139.816" stroke="#5CA4EC" stroke-width="1.87671" stroke-linecap="round" stroke-linejoin="round"/>
<path d="M201.828 112.373C203.61 115.586 205.277 120.053 206.094 125.272M147.727 187.281C152.623 185.926 157.137 184.454 161.295 182.885M164.508 181.625C167.252 180.506 169.83 179.343 172.25 178.141" stroke="#154A82" stroke-width="1.87671" stroke-linecap="round"/>
<path d="M197.129 117.988C197.129 117.988 200.383 119.863 202.736 124.665" stroke="#154A82" stroke-width="1.87671" stroke-linecap="round"/>
<path d="M73.7644 146.903C77.7492 146.903 81.6531 146.817 85.4759 146.651M90.9375 146.354C177.62 140.721 220.905 93.128 220.905 67.8714C220.905 54.9151 209.821 49.2052 200.546 46.6953M69.7338 146.834C16.8785 144.97 20.601 106.221 82.319 90.7065" stroke="#154A82" stroke-width="1.87671" stroke-linecap="round"/>
<path d="M218.801 58.9492C224.584 68.266 221.948 86.9824 201.585 112.382C193.586 122.36 182.651 132.284 168.084 140.873" stroke="#154A82" stroke-width="1.87671" stroke-linecap="round"/>
<path d="M152.35 149.032C134.094 157.403 111.291 163.744 83.0449 166.399M159.739 145.408C161.274 144.604 162.773 143.785 164.237 142.953" stroke="#4381C0" stroke-width="1.87671" stroke-linecap="round"/>
<path d="M81.4731 118.632C81.4731 118.632 79.3983 114.678 92.3962 112.85" stroke="#4381C0" stroke-width="1.87671" stroke-linecap="round"/>
<path d="M178.003 93.4027C198.025 80.5463 207.872 66.1915 198.706 58.6953M175.111 95.2057C172.379 96.8607 169.481 98.4836 166.437 100.056M155.835 105.058C136 113.587 111.78 119.613 87.2591 119.274C75.1273 119.106 63.3289 111.402 89.0677 104.715" stroke="#4381C0" stroke-width="1.87671" stroke-linecap="round"/>
<path d="M83.5136 24.3975H68.4999M76.0067 16.8906V31.9043M62.8697 24.3975H47.856M55.3629 16.8906V31.9043M62.8697 45.0413H47.856M55.3629 37.5345V52.5482M42.2259 45.0413H27.2122M34.719 37.5345V52.5482M21.5821 45.0413H6.56836M14.0752 37.5345V52.5482M55.3629 93.8359V78.8222M62.8697 86.329H47.856M55.3629 73.192V58.1784M62.8697 65.6852H47.856M34.719 73.192V58.1784M42.2259 65.6852H27.2122" stroke="#B6D7F8" stroke-width="1.87671"/>
<path d="M232.712 65.6846L247.725 65.6846M240.218 73.1914L240.218 58.1777M253.355 65.6846L268.369 65.6846M260.862 73.1914L260.862 58.1777M219.575 16.89L219.575 31.9037M212.068 24.3968L227.081 24.3968M219.575 37.5338L219.575 52.5475M212.068 45.0407L227.081 45.0407M240.218 37.5338L240.218 52.5475M232.712 45.0407L247.725 45.0407" stroke="#B6D7F8" stroke-width="1.87671"/>
<path d="M182.591 134.818C185.047 133.4 188.119 131.626 189.347 130.917C186.23 135.447 182.637 149.369 193.208 168.816C203.78 188.263 217.262 190.145 222.681 188.655C219.728 190.633 212.995 194.574 209.687 194.519C205.552 194.449 192.309 193.497 181.74 170.935C171.171 148.373 179.52 136.591 182.591 134.818Z" fill="#E6EFF9"/>
<path d="M192.665 128.609C192.665 128.609 184.433 133.683 183.441 134.406C181.389 135.82 179.73 137.731 178.619 139.961C174.339 148.814 176.822 163.199 184.021 175.314M187.176 180.059C188.094 181.296 189.064 182.494 190.084 183.642C192.688 186.642 195.724 189.238 199.093 191.345M203.098 193.353C203.78 193.623 204.457 193.853 205.125 194.044M225.705 186.929C225.705 186.929 217.359 192.452 214.922 193.6C212.096 194.933 208.723 195.067 205.125 194.044M205.125 194.044L209.348 190.629" stroke="#5CA4EC" stroke-width="1.87671" stroke-linecap="round"/>
<path d="M208.014 185.471C217.119 191.103 225.953 190.044 229.972 181.73C235.294 170.723 230.162 151.168 218.507 138.05C206.852 124.932 193.091 123.223 187.77 134.23C182.448 145.237 187.58 164.792 199.235 177.91C202.087 181.12 205.065 183.647 208.014 185.471ZM208.014 185.471L203.249 189.694" stroke="#5CA4EC" stroke-width="1.87671" stroke-linecap="round"/>
<path d="M226.408 178.288C222.184 187.022 210.786 183.876 201.539 173.468C192.292 163.06 187.533 146.767 191.757 138.033C195.981 129.299 207.586 131.43 216.833 141.838C226.08 152.247 230.631 169.554 226.408 178.288Z" stroke="#E6EFF9" stroke-width="1.87671" stroke-linecap="round"/>
</svg>
