<svg version="1.1" id="info-dark" xmlns="http://www.w3.org/2000/svg" viewBox="0 0 208 105" xml:space="preserve"><path fill="none" stroke="#007DFF" stroke-width="2" stroke-linecap="round" d="M122.7 15c-5.5-2.6-11.6-4-17.7-4-22.6 0-41 18.4-41 41s18.4 41 41 41 41-18.4 41-41c0-6.3-1.4-12.2-3.9-17.5m-3.9-6.5c.7 1 1.4 2 2 3"/><path fill="none" stroke="#007DFF" stroke-width="2" stroke-linecap="round" d="M70.9 37.5C69 42.1 68 47 68 52c0 20.4 16.6 37 37 37 9.8 0 18.7-3.8 25.3-10M73.9 32c2.3-3.6 5.2-6.8 8.6-9.4m5.8-3.6c5-2.6 10.7-4 16.8-4 20.4 0 37 16.6 37 37 0 4.6-.9 9.2-2.5 13.5m-3.5 6.5l-2.1 3"/><path fill="#212225" stroke="#EEF3F5" stroke-width="2" d="M108.1 64.9c0 2-1.7 3.6-3.7 3.6s-3.5-1.6-3.6-3.6V51c0-2 1.6-3.6 3.6-3.6S108 49 108 51v13.9h.1zm0-25.4c0 2-1.6 3.6-3.6 3.7s-3.6-1.6-3.7-3.6v-.1c0-2 1.7-3.6 3.7-3.6 2 .1 3.5 1.6 3.6 3.6z"/><path fill="#3C4249" d="M30.6 16h2V9h7V7h-7V0h-2v7h-7v2h7v7zm43 88h2v-7h7v-2h-7v-7h-2v7h-7v2h7v7zM52.1 16h2V9h7V7h-7V0h-2v7h-7v2h7v7z"/><path fill="#3C4249" d="M30.6 16h2V9h7V7h-7V0h-2v7h-7v2h7v7zm43 88h2v-7h7v-2h-7v-7h-2v7h-7v2h7v7zm-66 0h2v-7h7v-2h-7v-7h-2v7h-7v2h7v7zm22 0h2v-7h7v-2h-7v-7h-2v7h-7v2h7v7zm0-22h2v-7h7v-2h-7v-7h-2v7h-7v2h7v7zm22.5 0h2v-7h7v-2h-7v-7h-2v7h-7v2h7v7zm0-66h2V9h7V7h-7V0h-2v7h-7v2h7v7zm0 22h2v-7h7v-2h-7v-7h-2v7h-7v2h7v7zm21.5-22h2V9h7V7h-7V0h-2v7h-7v2h7v7zm103.8 0h-2V9h-7V7h7V0h2v7h7v2h-7v7zm-43 88h-2v-7h-7v-2h7v-7h2v7h7v2h-7v7zm66 0h-2v-7h-7v-2h7v-7h2v7h7v2h-7v7zm-22 0h-2v-7h-7v-2h7v-7h2v7h7v2h-7v7zm0-22h-2v-7h-7v-2h7v-7h2v7h7v2h-7v7zm-22.5 0h-2v-7h-7v-2h7v-7h2v7h7v2h-7v7zm0-66h-2V9h-7V7h7V0h2v7h7v2h-7v7zm0 22h-2v-7h-7v-2h7v-7h2v7h7v2h-7v7zm-21.5-22h-2V9h-7V7h7V0h2v7h7v2h-7v7z"/></svg>