<svg id="info-light" xmlns="http://www.w3.org/2000/svg" viewBox="0 0 207 106" xml:space="preserve"><path fill="none" stroke="#007DFF" stroke-width="2" stroke-linecap="round" d="M121.2 16c-5.5-2.6-11.6-4-17.7-4-22.6 0-41 18.4-41 41s18.4 41 41 41 41-18.4 41-41c0-6.3-1.4-12.2-3.9-17.5m-3.9-6.5c.7 1 1.4 2 2 3"/><path fill="none" stroke="#007DFF" stroke-width="2" stroke-linecap="round" d="M69.35 38.5c-1.9 4.6-2.9 9.5-2.9 14.5 0 20.4 16.6 37 37 37 9.8 0 18.7-3.8 25.3-10m-56.4-47c2.3-3.6 5.2-6.8 8.6-9.4m5.8-3.6c5-2.6 10.7-4 16.8-4 20.4 0 37 16.6 37 37 0 4.6-.9 9.2-2.5 13.5m-3.5 6.5l-2.1 3"/><path fill="#F7FAFB" stroke="#212225" stroke-width="2" d="M107.15 65.7c0 2-1.7 3.6-3.7 3.6s-3.5-1.6-3.6-3.6V51.8c0-2 1.6-3.6 3.6-3.6s3.6 1.6 3.6 3.6v13.9h.1zm0-25.4c0 2-1.6 3.6-3.6 3.7s-3.6-1.6-3.7-3.6v-.1c0-2 1.7-3.6 3.7-3.6 2 .1 3.5 1.6 3.6 3.6z"/><path fill="#DBDEE5" d="M30.062 17.002h2v-7h7v-2h-7v-7h-2v7h-7v2h7v7zm43 88h2v-7h7v-2h-7v-7h-2v7h-7v2h7v7zM7.061 105h2v-7h7v-2h-7v-7h-2v7h-7v2h7v7zm22 0h2v-7h7v-2h-7v-7h-2v7h-7v2h7v7zm0-21.999h2v-7h7v-2h-7v-7h-2v7h-7v2h7v7zm22.5 0h2v-7h7v-2h-7v-7h-2v7h-7v2h7v7zm-.001-66h2v-7h7v-2h-7v-7h-2v7h-7v2h7v7zm.001 22h2v-7h7v-2h-7v-7h-2v7h-7v2h7v7zm21.499-22h2v-7h7v-2h-7v-7h-2v7h-7v2h7v7zm103.882-.003h-2v-7h-7v-2h7v-7h2v7h7v2h-7v7zm-43.001 88h-2v-7h-7v-2h7v-7h2v7h7v2h-7v7zm65.998 0h-2v-7h-7v-2h7v-7h2v7h7v2h-7v7zm-22 0h-2v-7h-7v-2h7v-7h2v7h7v2h-7v7zm0-22h-2v-7h-7v-2h7v-7h2v7h7v2h-7v7zm-22.5 0h-2v-7h-7v-2h7v-7h2v7h7v2h-7v7zm.001-66h-2v-7h-7v-2h7v-7h2v7h7v2h-7v7zm0 22h-2v-7h-7v-2h7v-7h2v7h7v2h-7v7zm-21.5-22h-2v-7h-7v-2h7v-7h2v7h7v2h-7v7z"/></svg>