<svg width="480" height="136" viewBox="0 0 480 136" fill="none" xmlns="http://www.w3.org/2000/svg"><rect x=".5" y=".5" width="479" height="135" rx="11.5" fill="#F3F3F3" stroke="#DBDEE5"/><g filter="url(#filter0_d_9078_151981)"><rect x="32.73" y="16" width="413" height="40" rx="10" fill="#fff"/><path d="M163.887 41.713h5.578c.756 0 1.125-.375 1.125-1.195v-4.301c0-.739-.305-1.12-.932-1.184v-1.476c0-2.21-1.447-3.276-2.982-3.276-1.535 0-2.983 1.067-2.983 3.276v1.505c-.574.088-.931.463-.931 1.155v4.3c0 .82.369 1.196 1.125 1.196zm.75-8.28c0-1.47.943-2.25 2.039-2.25 1.095 0 2.039.78 2.039 2.25v1.594l-4.078.006v-1.6z" fill="#3C3C43" fill-opacity=".6"/><path d="M179.753 40.66a3.777 3.777 0 0 1-1.6-.333 2.747 2.747 0 0 1-1.141-.972c-.281-.426-.422-.942-.422-1.545 0-.532.104-.962.314-1.292.209-.334.489-.596.839-.785.35-.19.736-.33 1.159-.423.427-.096.855-.173 1.286-.229.563-.073 1.02-.127 1.37-.163.354-.04.612-.107.773-.2.165-.092.247-.253.247-.482v-.048c0-.596-.163-1.059-.489-1.389-.321-.33-.81-.495-1.466-.495-.681 0-1.214.149-1.6.447-.387.297-.658.616-.815.954l-1.353-.483c.242-.564.564-1.003.966-1.317.407-.317.85-.539 1.329-.664a5.502 5.502 0 0 1 1.424-.193c.298 0 .64.037 1.026.109.391.068.767.211 1.129.429.367.217.671.545.912.984.241.438.362 1.026.362 1.762v6.11h-1.425v-1.256h-.072a2.527 2.527 0 0 1-.483.646c-.225.23-.525.425-.899.586-.375.16-.832.241-1.371.241zm.218-1.28c.563 0 1.038-.111 1.424-.333.391-.221.684-.507.882-.857.201-.35.301-.718.301-1.105v-1.304c-.06.073-.193.14-.398.2a6.756 6.756 0 0 1-.7.15 32.068 32.068 0 0 1-1.365.181 5.45 5.45 0 0 0-1.038.236 1.796 1.796 0 0 0-.773.477c-.193.21-.289.495-.289.857 0 .495.183.87.549 1.123.37.25.839.374 1.407.374zm6.633 4.539v-12.75h1.376v1.473h.169c.105-.16.25-.366.435-.616.189-.253.459-.479.809-.676.354-.201.833-.302 1.436-.302.781 0 1.469.196 2.065.586.596.39 1.061.944 1.395 1.66.334.716.501 1.562.501 2.536 0 .982-.167 1.833-.501 2.553-.334.717-.797 1.272-1.389 1.666-.591.39-1.274.586-2.046.586-.596 0-1.073-.099-1.431-.296-.358-.201-.634-.428-.827-.682a9.334 9.334 0 0 1-.447-.64h-.121v4.902h-1.424zm1.4-8.114c0 .7.103 1.319.308 1.854.205.531.505.947.9 1.25.394.297.877.446 1.448.446.596 0 1.093-.157 1.492-.47.402-.319.704-.745.905-1.28.205-.54.308-1.14.308-1.8 0-.652-.101-1.24-.302-1.762-.197-.528-.497-.944-.899-1.25-.399-.31-.9-.465-1.504-.465-.579 0-1.066.147-1.461.44-.394.29-.692.697-.893 1.22-.201.52-.302 1.125-.302 1.817zm8.959 8.114v-12.75h1.376v1.473h.169c.105-.16.25-.366.435-.616.189-.253.459-.479.809-.676.354-.201.833-.302 1.437-.302.781 0 1.469.196 2.064.586.596.39 1.061.944 1.395 1.66.334.716.501 1.562.501 2.536 0 .982-.167 1.833-.501 2.553-.334.717-.797 1.272-1.388 1.666-.592.39-1.274.586-2.047.586-.596 0-1.073-.099-1.431-.296-.358-.201-.634-.428-.827-.682a9.334 9.334 0 0 1-.447-.64h-.12v4.902h-1.425zm1.401-8.114c0 .7.102 1.319.307 1.854.206.531.506.947.9 1.25.394.297.877.446 1.449.446.595 0 1.092-.157 1.491-.47.402-.319.704-.745.905-1.28.206-.54.308-1.14.308-1.8 0-.652-.1-1.24-.302-1.762-.197-.528-.497-.944-.899-1.25-.398-.31-.9-.465-1.503-.465-.58 0-1.067.147-1.461.44-.395.29-.692.697-.894 1.22-.201.52-.301 1.125-.301 1.817zm9.997 4.733c-.298 0-.554-.106-.767-.32a1.047 1.047 0 0 1-.32-.766c0-.298.107-.554.32-.767.213-.213.469-.32.767-.32.298 0 .553.107.766.32.214.213.32.469.32.767 0 .197-.05.378-.151.543a1.122 1.122 0 0 1-.392.399 1.035 1.035 0 0 1-.543.144zm6.372.122a3.774 3.774 0 0 1-1.6-.333 2.747 2.747 0 0 1-1.141-.972c-.282-.426-.423-.942-.423-1.545 0-.532.105-.962.314-1.292a2.22 2.22 0 0 1 .839-.785c.351-.19.737-.33 1.159-.423a14.26 14.26 0 0 1 1.286-.229 58.12 58.12 0 0 1 1.371-.163c.354-.04.611-.107.772-.2.165-.092.248-.253.248-.482v-.048c0-.596-.163-1.059-.489-1.389-.322-.33-.811-.495-1.467-.495-.68 0-1.213.149-1.6.447-.386.297-.658.616-.815.954l-1.352-.483c.241-.564.563-1.003.966-1.317a3.633 3.633 0 0 1 1.328-.664 5.515 5.515 0 0 1 1.425-.193c.298 0 .64.037 1.026.109.39.068.767.211 1.129.429.366.217.67.545.911.984.242.438.363 1.026.363 1.762v6.11h-1.425v-1.256h-.072a2.527 2.527 0 0 1-.483.646 2.8 2.8 0 0 1-.9.586c-.374.16-.831.241-1.37.241zm.217-1.28c.563 0 1.038-.111 1.425-.333a2.26 2.26 0 0 0 1.183-1.962v-1.304c-.06.073-.193.14-.398.2a6.78 6.78 0 0 1-.701.15 31.998 31.998 0 0 1-1.364.181 5.45 5.45 0 0 0-1.038.236 1.79 1.79 0 0 0-.773.477c-.193.21-.29.495-.29.857 0 .495.183.87.549 1.123.371.25.84.374 1.407.374zm6.633 1.062v-9.273h1.377v1.4h.096c.169-.458.475-.83.918-1.116a2.697 2.697 0 0 1 1.497-.429c.105 0 .235.002.392.006.157.004.276.01.356.018v1.45a4.207 4.207 0 0 0-.332-.055 3.273 3.273 0 0 0-.537-.042 2.52 2.52 0 0 0-1.207.283 2.076 2.076 0 0 0-1.135 1.89v5.868h-1.425zm7.653-3.381l-.024-1.763h.29l4.057-4.129h1.763l-4.323 4.37h-.121l-1.642 1.522zm-1.328 3.38V28.079h1.425v12.364h-1.425zm5.892 0l-3.622-4.587 1.014-.99 4.419 5.578H233.8zm10.938-9.272l-3.429 9.273h-1.449l-3.429-9.273h1.545l2.56 7.39h.097l2.559-7.39h1.546zm4.327 9.491a3.774 3.774 0 0 1-1.6-.333 2.747 2.747 0 0 1-1.141-.972c-.282-.426-.423-.942-.423-1.545 0-.532.105-.962.314-1.292a2.22 2.22 0 0 1 .839-.785c.351-.19.737-.33 1.16-.423.426-.096.855-.173 1.285-.229a58.12 58.12 0 0 1 1.371-.163c.354-.04.612-.107.772-.2.165-.092.248-.253.248-.482v-.048c0-.596-.163-1.059-.489-1.389-.322-.33-.811-.495-1.467-.495-.68 0-1.213.149-1.6.447-.386.297-.658.616-.815.954l-1.352-.483c.241-.564.563-1.003.966-1.317a3.633 3.633 0 0 1 1.328-.664 5.515 5.515 0 0 1 1.425-.193c.298 0 .64.037 1.026.109.39.068.767.211 1.129.429.366.217.67.545.912.984.241.438.362 1.026.362 1.762v6.11h-1.425v-1.256h-.072a2.527 2.527 0 0 1-.483.646 2.8 2.8 0 0 1-.9.586c-.374.16-.831.241-1.37.241zm.217-1.28c.563 0 1.038-.111 1.425-.333a2.26 2.26 0 0 0 1.183-1.962v-1.304c-.06.073-.193.14-.398.2a6.78 6.78 0 0 1-.701.15 31.998 31.998 0 0 1-1.364.181 5.45 5.45 0 0 0-1.038.236 1.79 1.79 0 0 0-.773.477c-.193.21-.29.495-.29.857 0 .495.183.87.549 1.123.371.25.84.374 1.407.374zm12.477-2.73v-5.48h1.425v9.273h-1.425v-1.57h-.097a3.045 3.045 0 0 1-1.014 1.202c-.459.326-1.038.489-1.739.489-.579 0-1.094-.127-1.545-.38-.451-.258-.805-.645-1.063-1.16-.257-.52-.386-1.173-.386-1.962V31.17h1.425v5.796c0 .676.189 1.215.567 1.617.383.403.87.604 1.461.604.354 0 .715-.09 1.081-.272.37-.18.68-.458.93-.833.253-.374.38-.85.38-1.43zm5.459-8.572v12.364h-1.425V28.078h1.425zm4.034 0v12.364h-1.425V28.078h1.425zm6.642 3.091v1.207h-4.805V31.17h4.805zm-3.405-2.222h1.425v8.838c0 .403.058.705.175.906.121.197.274.33.459.398.189.065.388.097.598.097.156 0 .285-.008.386-.024l.241-.048.29 1.28a2.87 2.87 0 0 1-.404.108c-.173.04-.393.06-.658.06a2.87 2.87 0 0 1-1.184-.26 2.347 2.347 0 0 1-.953-.79c-.25-.354-.375-.8-.375-1.34v-9.225zm6.587 11.591c-.298 0-.554-.106-.767-.32a1.047 1.047 0 0 1-.32-.766c0-.298.107-.554.32-.767.213-.213.469-.32.767-.32.297 0 .553.107.766.32.214.213.32.469.32.767 0 .197-.05.378-.151.543a1.122 1.122 0 0 1-.392.399 1.035 1.035 0 0 1-.543.144zm7.41.097c-.869 0-1.618-.205-2.246-.616a4.012 4.012 0 0 1-1.449-1.696c-.338-.72-.507-1.544-.507-2.47 0-.941.173-1.772.519-2.493.35-.724.837-1.29 1.461-1.696.628-.41 1.361-.616 2.198-.616.652 0 1.239.121 1.763.363.523.241.951.58 1.285 1.014.334.434.542.942.622 1.521h-1.425c-.108-.423-.35-.797-.724-1.123-.37-.33-.869-.495-1.497-.495-.556 0-1.042.145-1.461.435-.415.285-.739.69-.972 1.213-.229.52-.344 1.13-.344 1.83 0 .716.113 1.34.338 1.87.229.532.551.945.966 1.238.418.294.909.441 1.473.441.37 0 .706-.064 1.008-.193.302-.129.557-.314.767-.556.209-.24.358-.53.446-.869h1.425c-.08.548-.28 1.04-.597 1.48-.314.434-.731.78-1.25 1.038-.515.253-1.115.38-1.799.38zm9.496 0c-.837 0-1.572-.2-2.204-.598-.627-.398-1.118-.956-1.473-1.672-.35-.716-.525-1.553-.525-2.511 0-.966.175-1.81.525-2.53.355-.72.846-1.28 1.473-1.678.632-.399 1.367-.598 2.204-.598.837 0 1.57.2 2.197.598.632.398 1.123.958 1.473 1.678.355.72.532 1.564.532 2.53 0 .958-.177 1.795-.532 2.511-.35.716-.841 1.274-1.473 1.672-.627.399-1.36.598-2.197.598zm0-1.28c.636 0 1.159-.163 1.57-.489.41-.326.714-.755.911-1.286a4.928 4.928 0 0 0 .296-1.726c0-.62-.099-1.198-.296-1.733a2.921 2.921 0 0 0-.911-1.298c-.411-.33-.934-.495-1.57-.495s-1.159.165-1.57.495c-.41.33-.714.763-.911 1.298a4.978 4.978 0 0 0-.296 1.733c0 .62.099 1.195.296 1.726.197.532.501.96.911 1.286.411.326.934.49 1.57.49zm6.376 1.087v-9.273h1.377v1.449h.121c.193-.495.505-.88.935-1.153.431-.278.948-.417 1.552-.417.612 0 1.121.14 1.527.417.411.273.731.658.96 1.153h.097c.237-.479.593-.86 1.068-1.141.475-.286 1.045-.429 1.709-.429.829 0 1.507.26 2.034.78.527.514.791 1.317.791 2.408v6.206h-1.425v-6.206c0-.684-.187-1.173-.561-1.467a2.08 2.08 0 0 0-1.322-.44c-.652 0-1.157.196-1.516.59-.358.391-.537.886-.537 1.486v6.037h-1.449V34.09c0-.527-.171-.952-.513-1.274-.342-.326-.783-.489-1.322-.489-.37 0-.716.099-1.038.296-.318.197-.576.47-.773.821-.193.346-.29.746-.29 1.201v5.796h-1.425zm114.372-2.841c0 4.105 3.345 7.399 7.505 7.399 4.159 0 7.495-3.294 7.495-7.399 0-.401-.288-.694-.704-.694-.399 0-.662.293-.662.694 0 3.36-2.725 6.053-6.129 6.053-3.404 0-6.138-2.692-6.138-6.053 0-3.352 2.734-6.036 6.138-6.036.645 0 1.248.05 1.748.167l-2.538 2.475a.688.688 0 0 0-.195.476c0 .385.289.67.671.67a.644.644 0 0 0 .492-.193l3.497-3.461a.647.647 0 0 0 .213-.502.71.71 0 0 0-.213-.502l-3.497-3.494a.633.633 0 0 0-.492-.201.668.668 0 0 0-.671.686c0 .175.068.342.187.476l2.258 2.199a7.927 7.927 0 0 0-1.46-.142c-4.16 0-7.505 3.285-7.505 7.382zM54.51 42c.527 0 .806-.224.982-.784l.894-2.496h4.558l.886 2.496c.176.56.456.784.982.784.56 0 .919-.336.919-.864a1.68 1.68 0 0 0-.104-.568L60.082 31c-.24-.672-.686-1-1.413-1-.694 0-1.15.328-1.381.992l-3.56 9.616a1.626 1.626 0 0 0-.104.544c0 .528.335.848.886.848zm2.331-4.76l1.804-5.2h.048l1.804 5.2h-3.656zm-11.296 4.736c.415 0 .67-.216.822-.712l.575-1.72h3.105l.567 1.728c.152.504.415.704.846.704.48 0 .807-.304.807-.76 0-.184-.04-.368-.112-.576l-2.42-6.48c-.23-.632-.638-.936-1.252-.936-.591 0-.99.296-1.222.936l-2.419 6.48c-.072.192-.111.4-.111.576 0 .472.31.76.814.76zm1.78-3.68l1.07-3.336h.175l1.086 3.336h-2.331z" fill="#000"/></g><g clip-path="url(#clip0_9078_151981)" fill="#007AFF"><path d="M41.305 94.779c0 .329.118.618.368.868l10.433 10.196c.224.237.513.355.855.355.684 0 1.21-.513 1.21-1.197 0-.342-.144-.631-.355-.855l-9.578-9.367 9.578-9.367c.21-.224.355-.527.355-.855 0-.684-.526-1.198-1.21-1.198a1.17 1.17 0 0 0-.855.342l-10.433 10.21c-.25.236-.368.539-.368.868zm108.527-.098c0 .33-.119.619-.369.869l-10.433 10.196a1.133 1.133 0 0 1-.855.355c-.684 0-1.21-.513-1.21-1.197 0-.342.145-.632.355-.856l9.578-9.367-9.578-9.367a1.264 1.264 0 0 1-.355-.855c0-.684.526-1.197 1.21-1.197.342 0 .632.118.855.342l10.433 10.209c.25.237.369.54.369.868zm89.248 4.801c.565 0 1.052-.474 1.052-1.026V84.945l-.079-1.974.882.934 1.999 2.131c.185.21.448.316.711.316.539 0 .96-.395.96-.934 0-.276-.118-.487-.315-.684l-4.447-4.289c-.263-.263-.487-.355-.763-.355-.263 0-.487.092-.763.355l-4.447 4.289c-.198.197-.303.408-.303.684 0 .54.395.934.947.934.25 0 .54-.105.724-.316l1.987-2.13.894-.935-.079 1.974v13.51c0 .553.474 1.027 1.04 1.027zm-7.539 10.301h15.09c2.75 0 4.131-1.368 4.131-4.078v-13.13c0-2.71-1.381-4.078-4.131-4.078h-3.67v2.118h3.631c1.302 0 2.052.71 2.052 2.078v12.893c0 1.369-.75 2.079-2.052 2.079h-15.024c-1.316 0-2.04-.71-2.04-2.079V92.693c0-1.368.724-2.078 2.04-2.078h3.644v-2.118h-3.671c-2.749 0-4.131 1.368-4.131 4.078v13.13c0 2.71 1.382 4.078 4.131 4.078zm89.08-5.075c0 1.079.711 1.5 1.487 1.5.447 0 .829-.263 1.329-.566 1.447-.987 3.236-1.592 5.065-1.579a7.592 7.592 0 0 1 5.249 2.132c.579.526 1 .697 1.487.697.473 0 .907-.171 1.473-.697a7.658 7.658 0 0 1 5.263-2.132c1.828-.013 3.604.592 5.052 1.579.499.303.881.566 1.341.566.763 0 1.474-.421 1.474-1.5V86.855c0-.224-.013-.408-.158-.631-1.171-2.04-4.144-3.763-7.762-3.763-2.868 0-5.355 1.145-6.683 2.763-1.329-1.618-3.829-2.763-6.684-2.763-3.631 0-6.604 1.723-7.775 3.763a1.126 1.126 0 0 0-.158.631v17.853zm2.118-1.118V87.158c1.066-1.54 3.381-2.579 5.815-2.579 2.5 0 4.684 1.053 5.618 2.658v16.576c-1.342-1.065-3.434-1.868-5.618-1.868-2.289 0-4.42.645-5.815 1.645zm13.551.223V87.237c.934-1.605 3.131-2.658 5.631-2.658 2.421 0 4.736 1.04 5.802 2.579v16.432c-1.395-1-3.526-1.645-5.802-1.645-2.197 0-4.289.803-5.631 1.868zm84.072-1.42h2.249v2.013c0 2.71 1.368 4.078 4.131 4.078h13.209c2.737 0 4.118-1.368 4.118-4.078V91.092c0-2.71-1.381-4.079-4.118-4.079h-2.263V85c0-2.71-1.381-4.078-4.118-4.078h-13.208c-2.763 0-4.132 1.368-4.132 4.078v13.314c0 2.71 1.369 4.079 4.132 4.079zm.026-2.118c-1.316 0-2.039-.71-2.039-2.08V85.12c0-1.368.723-2.079 2.039-2.079h13.143c1.302 0 2.039.71 2.039 2.079v1.894h-8.828c-2.763 0-4.131 1.355-4.131 4.079v9.183h-2.223zm6.381 6.091c-1.303 0-2.04-.711-2.04-2.079V91.21c0-1.368.737-2.079 2.04-2.079h13.143c1.302 0 2.039.71 2.039 2.079v13.077c0 1.368-.737 2.079-2.039 2.079h-13.143z"/></g><path d="M180.5 76c0-30.652 24.848-55.5 55.5-55.5s55.5 24.848 55.5 55.5-24.848 55.5-55.5 55.5-55.5-24.848-55.5-55.5z" fill="#fff" stroke="#007DFF"/><mask id="mask0_9078_151981" style="mask-type:alpha" maskUnits="userSpaceOnUse" x="180" y="20" width="112" height="112"><circle cx="236" cy="76" transform="rotate(-180 236 76)" fill="#fff" r="56"/></mask><g mask="url(#mask0_9078_151981)"><rect x="-62.547" y="-38.371" width="602.272" height="169.743" rx="14.46" fill="#F3F3F3" stroke="#DBDEE5" stroke-width="1.257"/><g filter="url(#filter1_d_9078_151981)"><rect x="-22.023" y="-18.883" width="519.287" height="50.294" rx="12.573" fill="#fff"/></g><g clip-path="url(#clip1_9078_151981)"><path d="M237.427 86.086c.711 0 1.323-.596 1.323-1.29V67.807l-.099-2.481 1.108 1.174 2.514 2.68c.232.265.563.397.894.397.678 0 1.207-.496 1.207-1.174 0-.348-.149-.612-.397-.86l-5.591-5.393c-.331-.331-.612-.447-.959-.447-.331 0-.612.116-.96.447l-5.591 5.392c-.248.249-.38.513-.38.86 0 .679.496 1.175 1.191 1.175.314 0 .678-.132.909-.397l2.498-2.68 1.125-1.174-.099 2.481v16.989c0 .694.595 1.29 1.307 1.29zm-9.479 12.952h18.974c3.457 0 5.194-1.72 5.194-5.128V77.401c0-3.407-1.737-5.128-5.194-5.128h-4.616v2.664h4.566c1.638 0 2.581.893 2.581 2.613v16.211c0 1.72-.943 2.614-2.581 2.614h-18.891c-1.654 0-2.564-.893-2.564-2.614v-16.21c0-1.721.91-2.614 2.564-2.614h4.582v-2.664h-4.615c-3.457 0-5.194 1.72-5.194 5.128v16.51c0 3.407 1.737 5.127 5.194 5.127z" fill="#007AFF"/></g></g><path d="M181 76c0-30.376 24.624-55 55-55s55 24.624 55 55-24.624 55-55 55-55-24.624-55-55z" stroke="#007DFF" stroke-width="2"/><defs><clipPath id="clip0_9078_151981"><path fill="#fff" transform="translate(.887 64.988)" d="M0 0h477.64v60.011H0z"/></clipPath><clipPath id="clip1_9078_151981"><path fill="#fff" transform="translate(-62.063 42.715)" d="M0 0h600.563v75.455H0z"/></clipPath><filter id="filter0_d_9078_151981" x="12.73" y="0" width="453" height="80" filterUnits="userSpaceOnUse" color-interpolation-filters="sRGB"><feFlood flood-opacity="0" result="BackgroundImageFix"/><feColorMatrix in="SourceAlpha" type="matrix" values="0 0 0 0 0 0 0 0 0 0 0 0 0 0 0 0 0 0 127 0" result="hardAlpha"/><feOffset dy="4"/><feGaussianBlur stdDeviation="10"/><feColorMatrix type="matrix" values="0 0 0 0 0 0 0 0 0 0 0 0 0 0 0 0 0 0 0.1 0"/><feBlend mode="normal" in2="BackgroundImageFix" result="effect1_dropShadow_9078_151981"/><feBlend mode="normal" in="SourceGraphic" in2="effect1_dropShadow_9078_151981" result="shape"/></filter><filter id="filter1_d_9078_151981" x="-47.17" y="-39.001" width="569.579" height="100.587" filterUnits="userSpaceOnUse" color-interpolation-filters="sRGB"><feFlood flood-opacity="0" result="BackgroundImageFix"/><feColorMatrix in="SourceAlpha" type="matrix" values="0 0 0 0 0 0 0 0 0 0 0 0 0 0 0 0 0 0 127 0" result="hardAlpha"/><feOffset dy="5.029"/><feGaussianBlur stdDeviation="12.573"/><feColorMatrix type="matrix" values="0 0 0 0 0 0 0 0 0 0 0 0 0 0 0 0 0 0 0.1 0"/><feBlend mode="normal" in2="BackgroundImageFix" result="effect1_dropShadow_9078_151981"/><feBlend mode="normal" in="SourceGraphic" in2="effect1_dropShadow_9078_151981" result="shape"/></filter></defs></svg>