<svg width="480" height="171" viewBox="0 0 480 171" fill="none" xmlns="http://www.w3.org/2000/svg"><g clip-path="url(#clip0_9078_152055)"><path fill="#F9F9F9" d="M-1 43h484v170H-1z"/><path d="M20.422 30.158c0-7.05 5.714-12.764 12.763-12.764h412.25c7.049 0 12.763 5.715 12.763 12.764H20.422z" fill="#fff"/><path d="M20.422 30.158c0-7.05 5.714-12.764 12.763-12.764h412.25c7.049 0 12.763 5.715 12.763 12.764H20.422z" fill="#000" fill-opacity=".35"/><path fill="#000" d="M0-26h483v74H0z"/><path d="M20.422 30.158c0-7.05 5.714-12.764 12.763-12.764h412.25c7.049 0 12.763 5.715 12.763 12.764H20.422z" fill="#A6A6A6"/><path d="M0 48.025c0-4.752 0-7.127.625-9.05a12.763 12.763 0 0 1 8.194-8.194c1.923-.625 4.298-.625 9.05-.625H460.75c4.751 0 7.127 0 9.049.625a12.764 12.764 0 0 1 8.195 8.194c.624 1.923.624 4.298.624 9.05H0z" fill="#F9F9F9"/><path d="M35.328 72.394h-2.105a3.219 3.219 0 0 0-1.261-2.058 3.488 3.488 0 0 0-1.073-.54 4.19 4.19 0 0 0-1.248-.182c-.796 0-1.51.2-2.14.6-.625.4-1.12.987-1.484 1.761-.36.774-.54 1.718-.54 2.834 0 1.124.18 2.074.54 2.847.365.774.862 1.359 1.492 1.754a3.91 3.91 0 0 0 2.125.594c.436 0 .85-.058 1.241-.175.396-.122.754-.3 1.073-.533a3.23 3.23 0 0 0 1.275-2.03l2.105.006a5.638 5.638 0 0 1-.654 1.875 5.178 5.178 0 0 1-1.235 1.471c-.499.41-1.07.727-1.713.952a6.338 6.338 0 0 1-2.106.337c-1.196 0-2.262-.283-3.198-.85-.935-.571-1.673-1.388-2.213-2.45-.535-1.061-.803-2.327-.803-3.798 0-1.475.27-2.742.81-3.799.54-1.061 1.277-1.875 2.213-2.442.936-.571 2-.857 3.191-.857.734 0 1.417.106 2.052.317a5.41 5.41 0 0 1 1.72.918c.508.4.929.89 1.262 1.47.333.576.557 1.235.674 1.978zm4.795 9.553c-.657 0-1.25-.121-1.781-.364a3.001 3.001 0 0 1-1.262-1.073c-.306-.468-.459-1.041-.459-1.72 0-.585.113-1.066.338-1.444a2.49 2.49 0 0 1 .91-.898 4.76 4.76 0 0 1 1.282-.499 12.78 12.78 0 0 1 1.444-.256l1.512-.176c.387-.05.668-.128.843-.236.176-.108.263-.283.263-.526v-.047c0-.59-.166-1.046-.499-1.37-.328-.324-.819-.486-1.47-.486-.68 0-1.215.151-1.607.452-.386.297-.654.628-.803.992l-1.896-.432c.225-.63.554-1.138.985-1.525a3.997 3.997 0 0 1 1.505-.85 5.875 5.875 0 0 1 1.788-.27c.414 0 .852.05 1.316.149.468.094.904.27 1.309.526.41.257.744.623 1.005 1.1.261.472.391 1.086.391 1.842v6.882h-1.97v-1.417h-.08a2.87 2.87 0 0 1-.588.77c-.26.251-.596.46-1.005.627-.41.166-.9.25-1.47.25zm.439-1.619c.557 0 1.034-.11 1.43-.33.4-.22.704-.509.91-.864a2.24 2.24 0 0 0 .318-1.154v-1.336c-.072.072-.211.14-.418.203a6.66 6.66 0 0 1-.695.155c-.261.04-.515.079-.763.115l-.62.08a5 5 0 0 0-1.073.25c-.32.117-.576.286-.77.506-.188.216-.283.504-.283.864 0 .5.185.877.553 1.133.37.252.84.378 1.41.378zm8.826-4.763v6.153H47.37V71.354h1.937v1.687h.128c.238-.549.612-.99 1.12-1.322.513-.333 1.158-.5 1.936-.5.707 0 1.325.149 1.856.446.53.292.942.728 1.235 1.309.292.58.438 1.297.438 2.152v6.592h-2.017v-6.349c0-.751-.196-1.338-.587-1.761-.392-.427-.93-.641-1.613-.641-.468 0-.884.101-1.248.304-.36.202-.645.499-.857.89-.207.387-.31.855-.31 1.404zm13.149 6.362c-1.003 0-1.867-.227-2.59-.681a4.511 4.511 0 0 1-1.66-1.896c-.387-.805-.581-1.727-.581-2.766 0-1.053.198-1.982.594-2.787.396-.81.953-1.442 1.673-1.896.72-.454 1.568-.681 2.544-.681.787 0 1.489.146 2.105.438a3.776 3.776 0 0 1 1.491 1.215c.382.521.61 1.13.681 1.828h-1.963a2.352 2.352 0 0 0-.742-1.255c-.383-.35-.895-.526-1.538-.526-.563 0-1.055.148-1.478.445-.419.292-.745.71-.979 1.255-.233.54-.35 1.178-.35 1.916 0 .756.114 1.408.344 1.957.23.549.553.974.971 1.275.423.302.92.452 1.492.452.382 0 .728-.07 1.039-.209.314-.144.578-.349.789-.614.216-.265.367-.585.452-.958h1.963a3.816 3.816 0 0 1-.654 1.795 3.76 3.76 0 0 1-1.464 1.241c-.607.302-1.32.452-2.139.452zm10.327 0c-1.02 0-1.9-.218-2.638-.654a4.44 4.44 0 0 1-1.7-1.856c-.396-.8-.594-1.738-.594-2.813 0-1.062.198-1.998.594-2.807.4-.81.958-1.442 1.673-1.896.72-.454 1.561-.681 2.524-.681.584 0 1.151.096 1.7.29a4.117 4.117 0 0 1 1.477.91c.437.414.78.952 1.033 1.613.252.657.378 1.455.378 2.395v.716h-8.239v-1.512h6.262c0-.53-.108-1-.324-1.41a2.448 2.448 0 0 0-.911-.978c-.387-.239-.841-.358-1.363-.358-.567 0-1.062.14-1.484.418a2.808 2.808 0 0 0-.972 1.08c-.225.44-.337.92-.337 1.437v1.18c0 .694.121 1.283.364 1.768.248.486.592.857 1.032 1.114.441.252.956.378 1.546.378.382 0 .73-.054 1.045-.162a2.28 2.28 0 0 0 .817-.5c.23-.22.405-.492.526-.816l1.91.344a3.458 3.458 0 0 1-.824 1.478 3.99 3.99 0 0 1-1.477.978c-.59.23-1.262.344-2.018.344zM81.012 67.9v13.818h-2.017V67.9h2.017z" fill="#3478F6"/><path d="M152.063 82.707h-3.051l5.555-15.78h3.529l5.563 15.78h-3.051l-4.215-12.544h-.123l-4.207 12.544zm.1-6.188h8.322v2.296h-8.322V76.52zm16.929 6.396c-.93 0-1.762-.24-2.497-.717-.734-.478-1.315-1.171-1.741-2.08-.427-.91-.64-2.014-.64-3.313 0-1.316.216-2.425.648-3.329.436-.91 1.024-1.595 1.764-2.057a4.535 4.535 0 0 1 2.473-.701c.694 0 1.264.118 1.711.354.447.231.801.511 1.063.84.262.323.465.63.609.917h.115v-5.902h2.797v15.78h-2.743v-1.865h-.169a4.785 4.785 0 0 1-.624.917c-.273.318-.632.59-1.079.817-.447.226-1.009.339-1.687.339zm.778-2.289c.591 0 1.094-.159 1.51-.478.416-.323.732-.773.948-1.348.215-.575.323-1.245.323-2.01 0-.766-.108-1.431-.323-1.997-.211-.565-.524-1.004-.94-1.317-.411-.313-.917-.47-1.518-.47-.622 0-1.141.162-1.557.485-.416.324-.729.77-.94 1.341-.21.57-.316 1.223-.316 1.957 0 .74.106 1.4.316 1.98.216.576.532 1.03.948 1.364.421.329.938.493 1.549.493zm12.334 2.289c-.93 0-1.762-.24-2.496-.717-.735-.478-1.315-1.171-1.742-2.08-.426-.91-.639-2.014-.639-3.313 0-1.316.216-2.425.647-3.329.437-.91 1.025-1.595 1.765-2.057a4.532 4.532 0 0 1 2.473-.701c.693 0 1.264.118 1.71.354.447.231.802.511 1.064.84.262.323.465.63.608.917h.116v-5.902h2.797v15.78h-2.743v-1.865h-.17a4.695 4.695 0 0 1-.624.917c-.272.318-.631.59-1.078.817-.447.226-1.01.339-1.688.339zm.778-2.289c.591 0 1.095-.159 1.511-.478.416-.323.732-.773.947-1.348.216-.575.324-1.245.324-2.01 0-.766-.108-1.431-.324-1.997-.21-.565-.524-1.004-.94-1.317-.411-.313-.917-.47-1.518-.47-.621 0-1.14.162-1.556.485-.416.324-.729.77-.94 1.341-.211.57-.316 1.223-.316 1.957 0 .74.105 1.4.316 1.98.216.576.532 1.03.948 1.364.421.329.937.493 1.548.493zm18.68-9.754v2.157h-6.803v-2.157h6.803zm-5.123-2.836h2.789v11.11c0 .376.056.663.169.864a.92.92 0 0 0 .463.4c.19.072.4.108.631.108.175 0 .334-.013.478-.038.149-.026.262-.049.339-.07l.47 2.181a6.22 6.22 0 0 1-.639.17 5.24 5.24 0 0 1-1.002.107c-.699.02-1.328-.084-1.888-.316a2.937 2.937 0 0 1-1.333-1.094c-.323-.493-.483-1.11-.477-1.849V68.036zm11.937 14.902c-1.156 0-2.157-.255-3.005-.763a5.179 5.179 0 0 1-1.972-2.134c-.463-.915-.694-1.983-.694-3.206 0-1.222.231-2.293.694-3.213a5.168 5.168 0 0 1 1.972-2.142c.848-.508 1.849-.762 3.005-.762s2.158.254 3.005.762a5.114 5.114 0 0 1 1.965 2.142c.467.92.701 1.99.701 3.213s-.234 2.291-.701 3.206a5.124 5.124 0 0 1-1.965 2.134c-.847.508-1.849.763-3.005.763zm.016-2.235c.626 0 1.15-.172 1.571-.516.422-.35.735-.817.94-1.402.211-.586.316-1.238.316-1.957 0-.725-.105-1.38-.316-1.965-.205-.59-.518-1.06-.94-1.41-.421-.35-.945-.524-1.571-.524-.642 0-1.177.174-1.603.524-.421.35-.737.82-.948 1.41-.205.585-.308 1.24-.308 1.965 0 .719.103 1.371.308 1.957.211.585.527 1.053.948 1.402.426.344.961.516 1.603.516zm12.419 2.004v-15.78h2.859v6.68h7.312v-6.68h2.866v15.78h-2.866v-6.704h-7.312v6.704h-2.859zm20.631.231c-1.156 0-2.157-.255-3.005-.763a5.179 5.179 0 0 1-1.972-2.134c-.463-.915-.694-1.983-.694-3.206 0-1.222.231-2.293.694-3.213a5.168 5.168 0 0 1 1.972-2.142c.848-.508 1.849-.762 3.005-.762s2.158.254 3.005.762a5.114 5.114 0 0 1 1.965 2.142c.467.92.701 1.99.701 3.213s-.234 2.291-.701 3.206a5.124 5.124 0 0 1-1.965 2.134c-.847.508-1.849.763-3.005.763zm.016-2.235c.626 0 1.15-.172 1.571-.516.422-.35.735-.817.94-1.402.211-.586.316-1.238.316-1.957 0-.725-.105-1.38-.316-1.965-.205-.59-.518-1.06-.94-1.41-.421-.35-.945-.524-1.571-.524-.643 0-1.177.174-1.603.524-.421.35-.737.82-.948 1.41-.205.585-.308 1.24-.308 1.965 0 .719.103 1.371.308 1.957.211.585.527 1.053.948 1.402.426.344.96.516 1.603.516zm7.468 2.004V70.872h2.666v2.01h.139a3.137 3.137 0 0 1 1.225-1.587c.57-.385 1.251-.577 2.042-.577.801 0 1.477.195 2.026.585a3.06 3.06 0 0 1 1.171 1.58h.124a3.232 3.232 0 0 1 1.325-1.572c.627-.396 1.369-.593 2.227-.593 1.089 0 1.977.344 2.666 1.032.688.688 1.032 1.693 1.032 3.013v7.944h-2.797v-7.513c0-.734-.195-1.271-.585-1.61-.391-.344-.869-.516-1.434-.516-.672 0-1.199.21-1.579.631-.375.416-.563.958-.563 1.626v7.382h-2.735v-7.628c0-.612-.185-1.1-.555-1.464-.364-.365-.842-.547-1.433-.547-.4 0-.765.102-1.094.308-.329.2-.591.485-.786.855-.195.365-.293.791-.293 1.28v7.196h-2.789zm24.158.231c-1.187 0-2.211-.247-3.074-.74a5.006 5.006 0 0 1-1.98-2.111c-.463-.915-.694-1.99-.694-3.228 0-1.218.231-2.286.694-3.206.467-.924 1.119-1.644 1.957-2.157.837-.519 1.821-.778 2.951-.778.729 0 1.417.118 2.065.354a4.65 4.65 0 0 1 1.725 1.079c.504.488.899 1.11 1.187 1.864.288.75.432 1.644.432 2.682v.855h-9.701v-1.88h7.027a2.999 2.999 0 0 0-.347-1.425 2.52 2.52 0 0 0-.948-.995c-.4-.24-.868-.362-1.402-.362-.57 0-1.071.14-1.502.416a2.87 2.87 0 0 0-1.01 1.08 3.106 3.106 0 0 0-.362 1.455v1.642c0 .688.126 1.279.378 1.772.251.488.603.863 1.055 1.125.452.257.981.385 1.588.385a3.37 3.37 0 0 0 1.101-.17 2.45 2.45 0 0 0 .856-.516c.241-.226.423-.506.547-.84l2.604.293a4.06 4.06 0 0 1-.94 1.803c-.457.509-1.043.904-1.757 1.187-.714.277-1.531.416-2.45.416zm20.595-11.673c-.072-.673-.375-1.197-.909-1.572-.53-.375-1.218-.563-2.065-.563-.596 0-1.107.09-1.534.27-.426.18-.752.424-.978.732a1.78 1.78 0 0 0-.347 1.056c0 .328.075.613.224.855.154.241.362.447.624.616.262.165.552.303.87.416.319.113.64.208.963.285l1.48.37a10.16 10.16 0 0 1 1.718.563c.555.236 1.05.534 1.487.893.442.36.791.794 1.048 1.303.257.508.385 1.104.385 1.787 0 .925-.236 1.739-.709 2.443-.472.698-1.155 1.245-2.049 1.64-.889.391-1.965.586-3.229.586-1.227 0-2.293-.19-3.197-.57-.899-.38-1.603-.935-2.111-1.664-.504-.73-.776-1.618-.817-2.666h2.812c.041.55.211 1.007.509 1.371.298.365.686.638 1.163.817.483.18 1.022.27 1.618.27.622 0 1.166-.093 1.634-.277.472-.19.842-.453 1.109-.786.267-.34.404-.735.409-1.187-.005-.41-.126-.75-.362-1.017-.237-.272-.568-.498-.994-.678a9.617 9.617 0 0 0-1.48-.493l-1.795-.462c-1.3-.334-2.327-.84-3.082-1.518-.75-.683-1.125-1.59-1.125-2.72 0-.93.252-1.744.755-2.443.509-.698 1.199-1.24 2.073-1.626.873-.39 1.862-.585 2.966-.585 1.12 0 2.101.195 2.943.585.848.386 1.513.923 1.996 1.61.483.684.732 1.47.747 2.359h-2.75zm10 11.673c-1.182 0-2.196-.26-3.044-.779a5.197 5.197 0 0 1-1.949-2.15c-.452-.919-.678-1.977-.678-3.174 0-1.202.231-2.262.693-3.182.462-.924 1.115-1.644 1.957-2.157.848-.519 1.849-.778 3.005-.778.961 0 1.811.177 2.55.531.745.35 1.339.845 1.78 1.487.442.637.694 1.382.755 2.235h-2.665a2.55 2.55 0 0 0-.771-1.426c-.401-.385-.937-.578-1.61-.578a2.52 2.52 0 0 0-1.503.463c-.431.303-.768.74-1.009 1.31-.236.57-.355 1.253-.355 2.05 0 .806.119 1.499.355 2.08.236.575.567 1.02.994 1.332.431.309.937.463 1.518.463.411 0 .778-.077 1.101-.231.329-.16.604-.388.825-.686.221-.298.372-.66.455-1.087h2.665c-.066.838-.313 1.58-.739 2.227a4.383 4.383 0 0 1-1.742 1.51c-.734.36-1.597.54-2.588.54zm6.806-.231V70.872h2.704v1.972h.123c.216-.683.586-1.21 1.11-1.58a3.052 3.052 0 0 1 1.811-.562c.154 0 .326.008.516.023.195.01.357.029.485.054v2.566a2.919 2.919 0 0 0-.562-.108 5.176 5.176 0 0 0-.732-.054c-.509 0-.966.11-1.372.331-.4.216-.716.517-.947.902-.232.385-.347.83-.347 1.333v6.958h-2.789zm12.8.231c-1.186 0-2.211-.247-3.074-.74a5.006 5.006 0 0 1-1.98-2.111c-.463-.915-.694-1.99-.694-3.228 0-1.218.231-2.286.694-3.206.467-.924 1.119-1.644 1.957-2.157.837-.519 1.821-.778 2.951-.778.729 0 1.417.118 2.065.354.652.231 1.227.59 1.726 1.079.503.488.899 1.11 1.186 1.864.288.75.432 1.644.432 2.682v.855h-9.701v-1.88h7.027a2.999 2.999 0 0 0-.347-1.425 2.525 2.525 0 0 0-.947-.995c-.401-.24-.869-.362-1.403-.362-.57 0-1.071.14-1.502.416a2.87 2.87 0 0 0-1.01 1.08 3.106 3.106 0 0 0-.362 1.455v1.642c0 .688.126 1.279.378 1.772.252.488.603.863 1.055 1.125.452.257.982.385 1.588.385a3.37 3.37 0 0 0 1.101-.17 2.45 2.45 0 0 0 .856-.516c.241-.226.424-.506.547-.84l2.604.293a4.06 4.06 0 0 1-.94 1.803c-.457.509-1.043.904-1.757 1.187-.714.277-1.53.416-2.45.416zm12.308 0c-1.187 0-2.212-.247-3.075-.74a5.006 5.006 0 0 1-1.98-2.111c-.462-.915-.693-1.99-.693-3.228 0-1.218.231-2.286.693-3.206.468-.924 1.12-1.644 1.957-2.157.837-.519 1.821-.778 2.951-.778.73 0 1.418.118 2.065.354.652.231 1.228.59 1.726 1.079.503.488.899 1.11 1.187 1.864.287.75.431 1.644.431 2.682v.855h-9.701v-1.88h7.027a2.998 2.998 0 0 0-.346-1.425 2.52 2.52 0 0 0-.948-.995c-.401-.24-.868-.362-1.402-.362-.57 0-1.071.14-1.503.416a2.867 2.867 0 0 0-1.009 1.08 3.106 3.106 0 0 0-.362 1.455v1.642c0 .688.126 1.279.377 1.772.252.488.604.863 1.056 1.125.452.257.981.385 1.587.385.406 0 .773-.057 1.102-.17.329-.118.614-.29.855-.516a2.14 2.14 0 0 0 .547-.84l2.605.293a4.07 4.07 0 0 1-.94 1.803c-.458.509-1.043.904-1.757 1.187-.714.277-1.531.416-2.45.416zm9.857-7.166v6.935h-2.789V70.872h2.666v2.01h.138a3.38 3.38 0 0 1 1.302-1.579c.601-.39 1.344-.585 2.227-.585.817 0 1.528.174 2.134.523.612.35 1.084.856 1.418 1.518.339.663.506 1.467.501 2.412v7.536h-2.789v-7.104c0-.791-.206-1.41-.617-1.857-.405-.447-.968-.67-1.687-.67a2.59 2.59 0 0 0-1.302.323c-.375.21-.671.516-.886.917-.211.4-.316.886-.316 1.456z" fill="#000"/><path d="M423.82 81.646h-2.672l4.865-13.818h3.09l4.872 13.818h-2.672l-3.691-10.984h-.108l-3.684 10.984zm.088-5.418h7.287v2.011h-7.287v-2.01zm14.755 5.601c-.814 0-1.543-.21-2.186-.628-.643-.418-1.151-1.026-1.525-1.822-.373-.796-.56-1.763-.56-2.901 0-1.151.189-2.123.567-2.915.382-.796.897-1.397 1.545-1.801a3.973 3.973 0 0 1 2.166-.614c.607 0 1.106.103 1.498.31.391.203.701.448.931.736.229.283.407.55.533.802h.101v-5.168h2.449v13.818h-2.402v-1.633h-.148c-.126.252-.308.52-.547.803a3.002 3.002 0 0 1-.944.716c-.392.198-.884.297-1.478.297zm.682-2.004c.517 0 .958-.14 1.322-.419.364-.283.641-.677.83-1.18.189-.504.283-1.091.283-1.761 0-.67-.094-1.253-.283-1.748-.184-.495-.459-.88-.823-1.154-.36-.274-.803-.411-1.329-.411-.545 0-.999.141-1.363.425-.365.283-.639.674-.823 1.174-.185.499-.277 1.07-.277 1.713 0 .648.092 1.226.277 1.734.188.504.465.902.829 1.195.369.288.821.432 1.357.432zm10.732 2.004c-.814 0-1.543-.21-2.186-.628-.644-.418-1.152-1.026-1.525-1.822-.374-.796-.56-1.763-.56-2.901 0-1.151.189-2.123.567-2.915.382-.796.897-1.397 1.545-1.801a3.967 3.967 0 0 1 2.165-.614c.608 0 1.107.103 1.498.31.392.203.702.448.931.736.23.283.408.55.533.802h.102v-5.168h2.449v13.818h-2.402v-1.633h-.149a4.13 4.13 0 0 1-.546.803 2.995 2.995 0 0 1-.945.716c-.391.198-.884.297-1.477.297zm.681-2.004c.517 0 .958-.14 1.323-.419.364-.283.641-.677.83-1.18.188-.504.283-1.091.283-1.761 0-.67-.095-1.253-.283-1.748-.185-.495-.459-.88-.824-1.154-.359-.274-.803-.411-1.329-.411-.544 0-.998.141-1.363.425-.364.283-.638.674-.823 1.174-.184.499-.277 1.07-.277 1.713 0 .648.093 1.226.277 1.734.189.504.466.902.83 1.195.369.288.821.432 1.356.432z" fill="#3478F6"/><path fill="#fff" stroke="#C6C6C8" d="M-.5 128.5h483v84H-.5z"/><rect x="9" y="144" width="71" height="71" rx="16" fill="#235B95"/><path d="M43.454 203.893a38.141 38.141 0 0 1-3.49-2.862 60.537 60.537 0 0 1-3.434-3.368 65.098 65.098 0 0 1-3.98-4.642 62.888 62.888 0 0 1-7.854-13.044 59.54 59.54 0 0 1-3.002-8.373 59.276 59.276 0 0 1-1.802-9.589c-.07-.669-.042-1.495.803-1.929a52.825 52.825 0 0 1 7.41-2.778 61.553 61.553 0 0 1 7.168-1.699 49.891 49.891 0 0 1 8.45-.757H45.3a49.89 49.89 0 0 1 8.45.757c2.42.422 4.813.99 7.168 1.699a52.833 52.833 0 0 1 7.41 2.778c.845.434.873 1.259.803 1.929a59.276 59.276 0 0 1-1.803 9.589 59.54 59.54 0 0 1-3.001 8.373 62.888 62.888 0 0 1-7.854 13.044 64.968 64.968 0 0 1-3.98 4.642 60.605 60.605 0 0 1-3.435 3.368 38.169 38.169 0 0 1-3.49 2.862 2.385 2.385 0 0 1-2.114 0zm.922-32.057c-.056.076-3.862 4.12-6.64 7.072-.959 1.02-1.802 1.914-2.34 2.488a6.938 6.938 0 0 0-1.958 4.09 6.137 6.137 0 0 0 .277 2.442 8.308 8.308 0 0 0 1.418 2.584 50.94 50.94 0 0 0 5.829 6.258 30.499 30.499 0 0 0 2.733 2.236 1.78 1.78 0 0 0 1.634 0 30.507 30.507 0 0 0 2.733-2.236 50.941 50.941 0 0 0 5.83-6.258 8.307 8.307 0 0 0 1.416-2.584 6.101 6.101 0 0 0 .277-2.442 6.934 6.934 0 0 0-1.957-4.09l-2.017-2.144-.242-.258c-2.813-2.988-6.666-7.082-6.722-7.158a.165.165 0 0 0-.058-.057.161.161 0 0 0-.155 0 .165.165 0 0 0-.058.057zm.192-9.681c.018.03.043.071.079.121.053.076.852 1.384 1.958 3.193 2.653 4.342 7.094 11.608 8.262 13.378.863 1.306 1.954 2.057 2.992 2.058 1.008 0 2.465-.701 3.687-4.05a47.193 47.193 0 0 0 2.604-11.299c.055-.535.033-1.193-.642-1.54a42.188 42.188 0 0 0-5.919-2.219 49.02 49.02 0 0 0-5.725-1.357 39.891 39.891 0 0 0-6.75-.606h-1.207c-2.262.01-4.52.213-6.75.606-1.932.337-3.843.79-5.725 1.357a42.19 42.19 0 0 0-5.918 2.219c-.674.346-.697 1.005-.642 1.54a47.194 47.194 0 0 0 2.604 11.299c.674 1.848 1.861 4.05 3.687 4.05 1.038 0 2.128-.75 2.992-2.058 1.167-1.768 5.605-9.03 8.257-13.369l.004-.008a399.326 399.326 0 0 1 1.959-3.193 2.12 2.12 0 0 0 .079-.121c.028-.046.042-.069.056-.069.015 0 .03.023.058.068zm-7.551 20.834l2.676-2.872h9.416l2.675 2.872H37.017zm4.656-4.929l2.745-2.908 2.745 2.908h-5.49z" fill="#fff"/><path d="M100.686 161.002h-2.213l4.972-13.818h2.409l4.973 13.818h-2.213l-3.907-11.308h-.108l-3.913 11.308zm.371-5.411h7.179v1.754h-7.179v-1.754zm11.765 5.411v-13.818h4.926c1.07 0 1.959.184 2.665.553.71.369 1.241.879 1.592 1.531.351.648.526 1.397.526 2.247 0 .846-.177 1.59-.533 2.234-.351.638-.881 1.135-1.592 1.491-.706.355-1.595.533-2.665.533h-3.731v-1.795h3.542c.675 0 1.223-.097 1.646-.29.428-.194.74-.475.938-.844.198-.368.297-.811.297-1.329 0-.522-.101-.974-.304-1.356-.198-.382-.51-.675-.938-.877-.422-.207-.978-.31-1.666-.31h-2.618v12.03h-2.085zm6.822-6.235l3.414 6.235h-2.375l-3.347-6.235h2.308zm5.424 6.235v-13.818h2.085v6.598h.169l5.796-6.598h2.624l-5.573 6.22 5.594 7.598h-2.51l-4.467-6.174-1.633 1.876v4.298h-2.085zm13.825-13.818l3.846 11.254h.155l3.846-11.254h2.254l-4.973 13.818h-2.409l-4.972-13.818h2.253zm11.853 13.818h-2.213l4.973-13.818h2.409l4.972 13.818h-2.213l-3.906-11.308h-.108l-3.914 11.308zm.371-5.411h7.179v1.754h-7.179v-1.754zm20.652-8.407h2.091v9.088c0 .967-.227 1.824-.681 2.571-.454.742-1.093 1.327-1.916 1.754-.823.423-1.788.634-2.895.634-1.102 0-2.064-.211-2.888-.634-.823-.427-1.462-1.012-1.916-1.754-.454-.747-.681-1.604-.681-2.571v-9.088h2.085v8.919c0 .626.137 1.181.411 1.667a2.99 2.99 0 0 0 1.181 1.147c.508.274 1.111.411 1.808.411.702 0 1.307-.137 1.815-.411a2.884 2.884 0 0 0 1.174-1.147c.275-.486.412-1.041.412-1.667v-8.919zm5.123 13.818v-13.818h2.084v12.023h6.262v1.795h-8.346zm8.243-12.024v-1.794h10.694v1.794h-4.311v12.024h-2.078v-12.024h-4.305z" fill="#000"/><rect x=".5" y=".5" width="479" height="170" rx="11.5" stroke="#DBDEE5"/><path d="M353.5 77c0-33.413 27.087-60.5 60.5-60.5s60.5 27.087 60.5 60.5-27.087 60.5-60.5 60.5-60.5-27.087-60.5-60.5z" fill="#F5F5F5" stroke="#007DFF"/><mask id="mask0_9078_152055" style="mask-type:alpha" maskUnits="userSpaceOnUse" x="353" y="16" width="122" height="122"><circle cx="414" cy="77" transform="rotate(-180 414 77)" fill="#fff" r="61"/></mask><g mask="url(#mask0_9078_152055)" fill="#3478F6"><path d="M387.04 90.073h-4.868l8.863-25.175h5.63l8.875 25.175h-4.868l-6.724-20.012h-.197l-6.711 20.012zm.159-9.87h13.276v3.663h-13.276v-3.664zm26.882 10.202c-1.483 0-2.811-.381-3.983-1.143-1.171-.762-2.097-1.868-2.778-3.319-.68-1.45-1.02-3.212-1.02-5.286 0-2.098.344-3.868 1.033-5.31.696-1.45 1.635-2.545 2.815-3.282 1.18-.746 2.495-1.119 3.945-1.119 1.107 0 2.016.189 2.729.566.713.368 1.279.815 1.697 1.34.418.516.741 1.004.971 1.462h.184v-9.416h4.462v25.175h-4.376V87.1h-.27c-.23.458-.562.946-.996 1.462-.434.508-1.008.943-1.721 1.303-.713.36-1.61.541-2.692.541zm1.242-3.65c.942 0 1.745-.255 2.409-.763.664-.516 1.168-1.233 1.512-2.151.344-.918.516-1.987.516-3.208s-.172-2.283-.516-3.184c-.336-.901-.836-1.602-1.5-2.102-.655-.5-1.462-.75-2.421-.75-.992 0-1.82.258-2.483.775-.664.516-1.164 1.229-1.5 2.138-.336.91-.504 1.95-.504 3.123 0 1.18.168 2.233.504 3.159.344.918.848 1.643 1.512 2.176.672.524 1.496.786 2.471.786zm19.552 3.65c-1.483 0-2.811-.381-3.983-1.143-1.171-.762-2.097-1.868-2.778-3.319-.68-1.45-1.02-3.212-1.02-5.286 0-2.098.344-3.868 1.033-5.31.696-1.45 1.635-2.545 2.815-3.282 1.18-.746 2.495-1.119 3.945-1.119 1.107 0 2.016.189 2.729.566.713.368 1.279.815 1.697 1.34.418.516.741 1.004.971 1.462h.184v-9.416h4.462v25.175h-4.376V87.1h-.27c-.23.458-.562.946-.996 1.462-.434.508-1.008.943-1.721 1.303-.713.36-1.61.541-2.692.541zm1.242-3.65c.942 0 1.745-.255 2.409-.763.664-.516 1.168-1.233 1.512-2.151.344-.918.516-1.987.516-3.208s-.172-2.283-.516-3.184c-.336-.901-.836-1.602-1.5-2.102-.655-.5-1.463-.75-2.421-.75-.992 0-1.82.258-2.483.775-.664.516-1.164 1.229-1.5 2.138-.336.91-.504 1.95-.504 3.123 0 1.18.168 2.233.504 3.159.344.918.848 1.643 1.512 2.176.672.524 1.495.786 2.471.786z"/></g><path d="M354 77c0-33.137 26.863-60 60-60s60 26.863 60 60-26.863 60-60 60-60-26.863-60-60z" stroke="#007DFF" stroke-width="2"/></g><defs><clipPath id="clip0_9078_152055"><rect width="480" height="171" rx="12" fill="#fff"/></clipPath></defs></svg>