<svg width="480" height="136" viewBox="0 0 480 136" fill="none" xmlns="http://www.w3.org/2000/svg"><g clip-path="url(#clip0_9078_152029)"><rect width="480" height="136" rx="12" fill="#F3F3F3"/><g clip-path="url(#clip1_9078_152029)"><path d="M15-4h450v91.102c0 7.64-6.194 13.835-13.835 13.835H28.835c-7.64 0-13.835-6.194-13.835-13.835V-4z" fill="#fff"/><rect x="15" y="-2.938" width="450" height="51.67" rx="13.835" fill="#fff"/><path d="M33.525 28.898V16.535h7.413v1.328h-5.916v4.178h5.36v1.328h-5.36v5.53h-1.497zm9.35 0v-9.272h1.424v9.272h-1.424zm.724-10.818c-.278 0-.517-.094-.718-.283a.911.911 0 0 1-.296-.683c0-.265.099-.493.296-.682.2-.189.44-.284.718-.284.278 0 .515.095.712.284.202.19.302.417.302.682 0 .266-.1.493-.302.683a.992.992 0 0 1-.712.283zm4.3 5.24v5.578h-1.424v-9.272h1.376v1.449h.12c.218-.471.548-.85.99-1.135.444-.29 1.015-.435 1.715-.435.628 0 1.177.129 1.648.386.471.254.837.64 1.1 1.16.26.515.392 1.167.392 1.955v5.892H52.39v-5.795c0-.729-.19-1.296-.568-1.702-.378-.41-.897-.616-1.557-.616-.455 0-.861.098-1.22.296a2.117 2.117 0 0 0-.839.863c-.205.378-.308.837-.308 1.376zm11.587 5.772c-.773 0-1.455-.196-2.046-.586-.592-.394-1.055-.95-1.389-1.666-.334-.72-.5-1.572-.5-2.554 0-.974.166-1.819.5-2.535.334-.717.799-1.27 1.395-1.66.595-.39 1.284-.586 2.064-.586.604 0 1.08.1 1.431.302.354.197.624.422.809.676.19.25.336.455.44.616h.121v-4.564h1.425v12.363H62.36v-1.424h-.17a9.038 9.038 0 0 1-.446.64c-.193.253-.469.48-.827.682-.358.197-.835.296-1.43.296zm.193-1.28c.572 0 1.055-.15 1.45-.447.394-.302.694-.718.899-1.25.205-.535.308-1.153.308-1.853 0-.692-.101-1.298-.302-1.817-.201-.523-.5-.93-.894-1.22-.394-.293-.881-.44-1.46-.44-.604 0-1.107.155-1.51.465-.398.305-.698.722-.9 1.25-.197.523-.295 1.11-.295 1.762 0 .66.1 1.26.302 1.8.205.534.507.961.905 1.279.403.314.902.47 1.497.47zm14.544 1.28c-.837 0-1.571-.2-2.203-.598-.628-.398-1.12-.956-1.473-1.672-.35-.717-.525-1.554-.525-2.512 0-.965.175-1.809.525-2.53.354-.72.845-1.279 1.473-1.677.632-.399 1.366-.598 2.203-.598.837 0 1.57.2 2.198.598.631.398 1.122.957 1.473 1.678.354.72.53 1.564.53 2.53 0 .957-.176 1.794-.53 2.51a4.011 4.011 0 0 1-1.473 1.673c-.628.398-1.36.598-2.198.598zm0-1.28c.636 0 1.16-.163 1.57-.49.41-.325.714-.754.911-1.285A4.923 4.923 0 0 0 77 24.31a4.95 4.95 0 0 0-.296-1.732 2.92 2.92 0 0 0-.911-1.298c-.41-.33-.934-.495-1.57-.495s-1.159.165-1.57.495a2.92 2.92 0 0 0-.911 1.298 4.973 4.973 0 0 0-.296 1.732c0 .62.099 1.196.296 1.727.197.531.501.96.912 1.286.41.326.933.489 1.57.489zm7.367-4.492v5.578h-1.425v-9.272h1.377v1.449h.12c.218-.471.548-.85.99-1.135.443-.29 1.015-.435 1.715-.435.628 0 1.177.129 1.648.386.471.254.837.64 1.099 1.16.262.515.392 1.167.392 1.955v5.892h-1.424v-5.795c0-.729-.19-1.296-.568-1.702-.378-.41-.897-.616-1.557-.616-.455 0-.862.098-1.22.296a2.117 2.117 0 0 0-.839.863c-.205.378-.308.837-.308 1.376zm12.626 5.578V16.535h4.177c.97 0 1.763.175 2.379.525.62.346 1.079.815 1.376 1.407.298.591.447 1.251.447 1.98 0 .728-.149 1.39-.447 1.986-.293.596-.748 1.07-1.364 1.425-.616.35-1.405.525-2.367.525h-2.994v-1.328h2.946c.664 0 1.198-.115 1.6-.344.403-.23.694-.54.875-.93a3.09 3.09 0 0 0 .278-1.334 3.05 3.05 0 0 0-.278-1.328 1.982 1.982 0 0 0-.881-.918c-.406-.225-.946-.338-1.618-.338h-2.632v11.035h-1.497zm12.892.218a3.77 3.77 0 0 1-1.6-.332 2.746 2.746 0 0 1-1.141-.972c-.281-.427-.422-.942-.422-1.546 0-.53.104-.961.314-1.292.209-.334.489-.595.839-.784.35-.19.736-.33 1.159-.423.427-.096.855-.173 1.286-.23.563-.072 1.02-.126 1.37-.162.354-.04.612-.107.773-.2.165-.092.247-.253.247-.483v-.048c0-.595-.163-1.058-.489-1.388-.322-.33-.811-.495-1.467-.495-.68 0-1.213.149-1.599.446-.387.298-.658.616-.815.954l-1.353-.483c.242-.563.564-1.002.966-1.316a3.63 3.63 0 0 1 1.328-.664 5.515 5.515 0 0 1 1.425-.193c.298 0 .64.036 1.026.109a3.28 3.28 0 0 1 1.129.428c.367.218.67.546.912.984.241.439.362 1.027.362 1.763v6.11h-1.425v-1.256h-.072a2.527 2.527 0 0 1-.483.646c-.225.23-.525.424-.899.585-.375.161-.832.242-1.371.242zm.217-1.28c.564 0 1.039-.11 1.425-.332.391-.221.684-.507.882-.857.201-.35.301-.719.301-1.105v-1.304c-.06.072-.193.139-.398.2a6.728 6.728 0 0 1-.7.15 32.059 32.059 0 0 1-1.365.181 5.45 5.45 0 0 0-1.038.236 1.79 1.79 0 0 0-.773.477c-.193.209-.289.495-.289.857 0 .495.183.87.549 1.123.37.25.839.374 1.406.374zm9.942 4.733c-.688 0-1.28-.089-1.775-.266a3.765 3.765 0 0 1-1.237-.688 3.763 3.763 0 0 1-.779-.905l1.135-.797c.129.169.292.362.489.58.197.22.467.412.809.573.346.165.799.247 1.358.247.749 0 1.367-.18 1.854-.543.487-.362.73-.93.73-1.703v-1.883h-.121a7.51 7.51 0 0 1-.446.628c-.19.245-.463.465-.821.658-.355.189-.834.284-1.437.284-.749 0-1.421-.178-2.017-.532-.591-.354-1.06-.869-1.406-1.545-.342-.676-.513-1.497-.513-2.463 0-.95.167-1.777.501-2.481.334-.709.799-1.256 1.394-1.642.596-.39 1.284-.586 2.065-.586.604 0 1.083.1 1.437.302.358.197.632.422.821.676.193.25.342.455.446.616h.145v-1.473h1.377v9.538c0 .797-.181 1.445-.544 1.944a3.094 3.094 0 0 1-1.448 1.105c-.604.237-1.276.356-2.017.356zm-.048-5.095c.571 0 1.054-.131 1.449-.393.394-.261.694-.638.899-1.129.206-.49.308-1.078.308-1.762 0-.669-.1-1.258-.302-1.77-.201-.51-.499-.91-.893-1.2-.395-.29-.881-.435-1.461-.435-.604 0-1.107.153-1.509.459a2.789 2.789 0 0 0-.9 1.231 4.766 4.766 0 0 0-.296 1.715c0 .644.101 1.213.302 1.708.206.491.507.877.906 1.16.402.277.901.416 1.497.416zm10.118 1.618c-.893 0-1.664-.198-2.312-.592a3.969 3.969 0 0 1-1.491-1.666c-.346-.717-.519-1.55-.519-2.5s.173-1.786.519-2.51c.35-.73.837-1.297 1.461-1.703.628-.41 1.36-.616 2.197-.616.483 0 .96.08 1.431.241.471.161.9.423 1.286.785.386.358.694.833.924 1.425.229.592.344 1.32.344 2.185v.604h-7.148v-1.232h5.699c0-.523-.105-.99-.314-1.4a2.365 2.365 0 0 0-.881-.972c-.379-.237-.825-.356-1.341-.356-.567 0-1.058.14-1.473.422a2.78 2.78 0 0 0-.947 1.087 3.184 3.184 0 0 0-.332 1.437v.82c0 .701.12 1.295.362 1.782.245.483.585.85 1.02 1.105.435.249.94.374 1.515.374.375 0 .713-.053 1.015-.157a2.17 2.17 0 0 0 .79-.483c.222-.218.393-.487.513-.81l1.377.387a3.044 3.044 0 0 1-.731 1.232c-.342.35-.764.624-1.267.82a4.704 4.704 0 0 1-1.697.29zm310.792-1.005a6.77 6.77 0 0 0 3.949-1.272l4.188 4.187c.194.194.45.292.724.292.574 0 .98-.442.98-1.008a.96.96 0 0 0-.282-.706l-4.161-4.17a6.764 6.764 0 0 0 1.396-4.117c0-3.736-3.057-6.793-6.794-6.793-3.728 0-6.793 3.048-6.793 6.793 0 3.737 3.057 6.794 6.793 6.794zm0-1.467c-2.915 0-5.327-2.411-5.327-5.327 0-2.915 2.412-5.326 5.327-5.326 2.916 0 5.327 2.411 5.327 5.326 0 2.916-2.411 5.327-5.327 5.327z" fill="#000"/><path opacity=".5" fill="#3C3C43" fill-opacity=".36" d="M15 48.734h450v.532H15z"/><rect x="15" y="49.266" width="450" height="51.67" rx="13.835" fill="#fff"/><path d="M34.032 81.102h-1.57l4.54-12.364h1.545l4.54 12.364h-1.57l-3.694-10.408h-.097l-3.694 10.408zm.58-4.83h6.326V77.6H34.61v-1.328zm13.275 5.023c-.773 0-1.455-.195-2.047-.586-.591-.394-1.054-.95-1.388-1.666-.334-.72-.501-1.572-.501-2.554 0-.974.167-1.819.5-2.535.335-.716.8-1.27 1.395-1.66.596-.39 1.284-.586 2.065-.586.604 0 1.08.1 1.43.302.355.197.624.422.81.676.189.25.336.455.44.616h.121v-4.564h1.425v12.364H50.76v-1.425h-.169a9.038 9.038 0 0 1-.446.64c-.194.253-.47.48-.827.682-.359.197-.835.296-1.431.296zm.193-1.28c.572 0 1.054-.149 1.449-.447.394-.302.694-.718.9-1.25.205-.535.307-1.153.307-1.853 0-.692-.1-1.298-.302-1.817-.2-.523-.499-.93-.893-1.22-.394-.293-.881-.44-1.461-.44-.604 0-1.107.155-1.51.465-.398.306-.697.722-.899 1.25a4.967 4.967 0 0 0-.296 1.762c0 .66.101 1.26.302 1.8.206.534.507.961.906 1.279.402.314.901.47 1.497.47zm9.931 1.28c-.773 0-1.455-.195-2.046-.586-.592-.394-1.055-.95-1.389-1.666-.334-.72-.5-1.572-.5-2.554 0-.974.166-1.819.5-2.535.334-.716.8-1.27 1.395-1.66.595-.39 1.284-.586 2.064-.586.604 0 1.08.1 1.431.302.354.197.624.422.809.676.19.25.336.455.44.616h.121v-4.564h1.425v12.364h-1.376v-1.425h-.17a9.038 9.038 0 0 1-.446.64c-.193.253-.469.48-.827.682-.358.197-.835.296-1.43.296zm.193-1.28c.572 0 1.055-.149 1.45-.447.394-.302.693-.718.899-1.25.205-.535.308-1.153.308-1.853 0-.692-.101-1.298-.302-1.817-.201-.523-.5-.93-.894-1.22-.394-.293-.881-.44-1.46-.44-.604 0-1.107.155-1.51.465-.398.306-.698.722-.9 1.25-.197.523-.295 1.11-.295 1.762 0 .66.1 1.26.302 1.8.205.534.507.961.905 1.279.403.314.902.47 1.497.47zm14.81-8.186v1.207h-4.805V71.83h4.805zm-3.405-2.222h1.425v8.838c0 .403.058.705.175.906a.9.9 0 0 0 .459.398c.189.065.388.097.597.097.157 0 .286-.008.387-.024l.241-.049.29 1.28a2.9 2.9 0 0 1-.405.109c-.173.04-.392.06-.658.06-.402 0-.797-.086-1.183-.26a2.35 2.35 0 0 1-.954-.79c-.25-.354-.374-.801-.374-1.34v-9.225zm8.781 11.688c-.837 0-1.571-.2-2.203-.598-.628-.398-1.12-.956-1.473-1.672-.35-.717-.525-1.554-.525-2.512 0-.965.175-1.809.525-2.529.354-.72.845-1.28 1.473-1.678.632-.399 1.366-.598 2.203-.598.837 0 1.57.2 2.198.598.632.398 1.123.958 1.473 1.678.354.72.53 1.564.53 2.53 0 .957-.176 1.794-.53 2.51-.35.717-.842 1.275-1.473 1.673-.628.398-1.36.598-2.198.598zm0-1.28c.636 0 1.16-.163 1.57-.49.41-.325.714-.754.911-1.285a4.924 4.924 0 0 0 .296-1.727 4.95 4.95 0 0 0-.296-1.732 2.92 2.92 0 0 0-.911-1.298c-.41-.33-.934-.495-1.57-.495s-1.159.165-1.57.495a2.92 2.92 0 0 0-.911 1.298 4.973 4.973 0 0 0-.296 1.732c0 .62.099 1.196.296 1.727.197.531.501.96.912 1.286.41.326.933.489 1.57.489zm10.483 1.087V68.738h1.497v5.506h6.592v-5.506h1.497v12.364h-1.497v-5.53H90.37v5.53h-1.497zm15.723.193c-.837 0-1.571-.2-2.203-.598-.628-.398-1.119-.956-1.473-1.672-.35-.717-.525-1.554-.525-2.512 0-.965.175-1.809.525-2.529.354-.72.845-1.28 1.473-1.678.632-.399 1.366-.598 2.203-.598.837 0 1.57.2 2.198.598.632.398 1.123.958 1.473 1.678.354.72.531 1.564.531 2.53 0 .957-.177 1.794-.531 2.51-.35.717-.841 1.275-1.473 1.673-.628.398-1.361.598-2.198.598zm0-1.28c.636 0 1.159-.163 1.57-.49.41-.325.714-.754.912-1.285a4.928 4.928 0 0 0 .295-1.727c0-.62-.098-1.197-.295-1.732a2.93 2.93 0 0 0-.912-1.298c-.411-.33-.934-.495-1.57-.495s-1.159.165-1.569.495c-.411.33-.715.763-.912 1.298a4.978 4.978 0 0 0-.296 1.732c0 .62.099 1.196.296 1.727.197.531.501.96.912 1.286.41.326.933.489 1.569.489zm5.943 1.087v-9.273h1.376v1.449h.121c.193-.495.505-.88.936-1.153.43-.278.947-.417 1.551-.417.612 0 1.121.139 1.527.417.411.273.731.658.96 1.153h.097c.237-.48.593-.86 1.068-1.141.475-.286 1.045-.429 1.709-.429.829 0 1.507.26 2.034.779.527.515.791 1.318.791 2.409v6.206h-1.425v-6.206c0-.685-.187-1.174-.561-1.467a2.077 2.077 0 0 0-1.322-.441c-.652 0-1.157.197-1.515.591-.359.39-.538.886-.538 1.486v6.037h-1.449V74.75c0-.528-.171-.952-.513-1.274-.342-.326-.782-.49-1.322-.49-.37 0-.716.1-1.038.297-.318.197-.576.47-.773.82a2.43 2.43 0 0 0-.29 1.202v5.796h-1.424zm18.229.193c-.894 0-1.665-.198-2.313-.592a3.976 3.976 0 0 1-1.491-1.666c-.346-.717-.519-1.55-.519-2.5s.173-1.786.519-2.51c.35-.73.837-1.297 1.461-1.703.628-.41 1.361-.616 2.198-.616.483 0 .96.08 1.43.242.471.16.9.422 1.286.784.387.359.695.834.924 1.425.229.592.344 1.32.344 2.185v.604h-7.148v-1.231h5.699c0-.524-.104-.99-.314-1.4a2.365 2.365 0 0 0-.881-.973c-.378-.237-.825-.356-1.34-.356-.568 0-1.059.14-1.473.422-.411.278-.727.64-.948 1.087a3.197 3.197 0 0 0-.332 1.437v.821c0 .7.121 1.294.362 1.78a2.62 2.62 0 0 0 1.02 1.106c.435.25.94.374 1.516.374.374 0 .712-.052 1.014-.157.306-.109.569-.27.791-.483a2.2 2.2 0 0 0 .513-.809l1.376.386a3.052 3.052 0 0 1-.73 1.232 3.56 3.56 0 0 1-1.268.821 4.702 4.702 0 0 1-1.696.29zm16.874-9.466a1.898 1.898 0 0 0-.882-1.425c-.515-.338-1.147-.507-1.895-.507-.548 0-1.027.089-1.437.266-.407.177-.724.42-.954.73-.225.31-.338.662-.338 1.057 0 .33.079.613.235.85.161.234.367.43.616.586.25.153.511.28.785.38.274.097.525.176.755.236l1.255.338c.322.085.681.201 1.075.35.398.15.779.353 1.141.61a3.1 3.1 0 0 1 .905.978c.238.398.357.887.357 1.467 0 .668-.175 1.272-.526 1.811-.346.54-.853.968-1.521 1.286-.664.318-1.471.477-2.421.477-.885 0-1.652-.143-2.3-.429-.644-.285-1.151-.684-1.521-1.195a3.41 3.41 0 0 1-.622-1.78h1.546c.04.466.197.852.47 1.158a2.55 2.55 0 0 0 1.051.676c.426.145.885.218 1.376.218.572 0 1.085-.093 1.54-.278.454-.19.815-.45 1.08-.785.266-.338.399-.732.399-1.183 0-.41-.115-.745-.344-1.002a2.535 2.535 0 0 0-.906-.628 9.536 9.536 0 0 0-1.213-.423l-1.522-.434c-.966-.278-1.73-.674-2.294-1.19-.563-.515-.845-1.189-.845-2.022 0-.692.187-1.296.562-1.811.378-.52.885-.922 1.521-1.207.64-.29 1.354-.435 2.143-.435.797 0 1.505.143 2.125.428.62.282 1.111.669 1.473 1.16.366.49.559 1.048.58 1.672h-1.449zm7.219 9.466c-.869 0-1.618-.206-2.246-.616a4.012 4.012 0 0 1-1.449-1.696c-.338-.72-.507-1.544-.507-2.47 0-.941.173-1.772.519-2.493.35-.724.837-1.29 1.461-1.696.628-.41 1.361-.616 2.198-.616.652 0 1.239.12 1.762.362.524.242.952.58 1.286 1.015.334.434.542.941.622 1.52h-1.425c-.108-.422-.35-.796-.724-1.122-.37-.33-.869-.495-1.497-.495-.556 0-1.043.145-1.461.435-.415.285-.739.69-.972 1.213-.229.52-.344 1.129-.344 1.83 0 .716.113 1.34.338 1.87.229.532.551.944.966 1.238.418.294.909.44 1.473.44.37 0 .706-.063 1.008-.192.302-.13.557-.314.767-.556.209-.241.358-.53.446-.869h1.425a3.295 3.295 0 0 1-1.847 2.517c-.515.254-1.115.38-1.799.38zm5.295-.193v-9.273h1.376v1.4h.097c.169-.458.475-.83.917-1.116a2.702 2.702 0 0 1 1.497-.43c.105 0 .236.003.393.007.157.004.276.01.356.018v1.449a4.207 4.207 0 0 0-.332-.054 3.273 3.273 0 0 0-.537-.043c-.451 0-.854.095-1.208.284a2.14 2.14 0 0 0-.833.773 2.085 2.085 0 0 0-.302 1.117v5.868h-1.424zm9.496.193c-.893 0-1.664-.198-2.312-.592a3.969 3.969 0 0 1-1.491-1.666c-.346-.717-.519-1.55-.519-2.5s.173-1.786.519-2.51c.35-.73.837-1.297 1.461-1.703.628-.41 1.36-.616 2.197-.616.483 0 .96.08 1.431.242.471.16.9.422 1.286.784.386.359.694.834.924 1.425.229.592.344 1.32.344 2.185v.604h-7.148v-1.231h5.699c0-.524-.105-.99-.314-1.4a2.365 2.365 0 0 0-.881-.973c-.379-.237-.826-.356-1.341-.356-.567 0-1.058.14-1.473.422a2.78 2.78 0 0 0-.947 1.087 3.184 3.184 0 0 0-.333 1.437v.821c0 .7.121 1.294.363 1.78.245.484.585.852 1.02 1.106.435.25.94.374 1.515.374.375 0 .713-.052 1.014-.157.306-.109.57-.27.791-.483.222-.217.393-.487.513-.809l1.377.386a3.054 3.054 0 0 1-.731 1.232c-.342.35-.764.624-1.267.821a4.704 4.704 0 0 1-1.697.29zm9.461 0c-.894 0-1.665-.198-2.313-.592a3.969 3.969 0 0 1-1.491-1.666c-.346-.717-.519-1.55-.519-2.5s.173-1.786.519-2.51c.35-.73.837-1.297 1.461-1.703.628-.41 1.361-.616 2.198-.616.483 0 .96.08 1.43.242.471.16.9.422 1.286.784.387.359.695.834.924 1.425.229.592.344 1.32.344 2.185v.604h-7.148v-1.231h5.699c0-.524-.104-.99-.314-1.4a2.365 2.365 0 0 0-.881-.973c-.378-.237-.825-.356-1.34-.356-.568 0-1.059.14-1.473.422-.411.278-.727.64-.948 1.087a3.183 3.183 0 0 0-.332 1.437v.821c0 .7.121 1.294.362 1.78a2.62 2.62 0 0 0 1.02 1.106c.435.25.94.374 1.516.374.374 0 .712-.052 1.014-.157.306-.109.569-.27.791-.483a2.2 2.2 0 0 0 .513-.809l1.376.386a3.052 3.052 0 0 1-.73 1.232 3.56 3.56 0 0 1-1.268.821 4.702 4.702 0 0 1-1.696.29zm6.997-5.772v5.579h-1.425v-9.273h1.376v1.449h.121c.218-.471.548-.85.99-1.135.443-.29 1.014-.435 1.715-.435.628 0 1.177.129 1.648.386.471.254.837.64 1.099 1.16.261.515.392 1.167.392 1.956v5.892h-1.425v-5.796c0-.728-.189-1.296-.567-1.702-.379-.41-.898-.616-1.558-.616-.455 0-.861.099-1.219.296a2.116 2.116 0 0 0-.839.863c-.206.378-.308.837-.308 1.376z" fill="#000"/><rect x="430.258" y="66.63" width="16.944" height="16.944" rx="3.081" stroke="#212225" stroke-width="1.54"/><path d="M438.897 71.25v7.702m3.684-3.851h-7.702" stroke="#000" stroke-width="1.54" stroke-linecap="round"/></g><path d="M15 130.715v-12.364h7.462v1.328h-5.965v4.178h5.578v1.328h-5.578v4.202h6.061v1.328H15zm13.034.193c-.772 0-1.455-.195-2.046-.586-.592-.394-1.055-.949-1.389-1.666-.334-.72-.5-1.571-.5-2.553 0-.974.166-1.82.5-2.536.334-.716.8-1.27 1.395-1.66.595-.39 1.284-.586 2.064-.586.604 0 1.08.101 1.431.302.354.197.624.423.809.676.19.25.336.455.44.616h.122v-4.564h1.424v12.364h-1.376v-1.425h-.17a9.223 9.223 0 0 1-.446.64c-.193.254-.469.481-.827.682-.358.197-.835.296-1.43.296zm.193-1.28c.572 0 1.055-.149 1.45-.447.394-.301.694-.718.899-1.249.205-.535.308-1.153.308-1.854 0-.692-.101-1.297-.302-1.817-.201-.523-.5-.929-.894-1.219-.394-.294-.881-.441-1.46-.441-.604 0-1.107.155-1.51.465-.398.306-.698.722-.9 1.25-.197.523-.295 1.11-.295 1.762 0 .661.1 1.26.302 1.799.205.536.507.962.905 1.28.403.314.902.471 1.497.471zm6.43 1.087v-9.273h1.425v9.273h-1.425zm.725-10.818c-.278 0-.518-.095-.719-.284a.912.912 0 0 1-.296-.682.91.91 0 0 1 .296-.682c.201-.19.44-.284.719-.284.277 0 .515.094.712.284a.902.902 0 0 1 .302.682.9.9 0 0 1-.302.682.993.993 0 0 1-.712.284zm6.908 1.545v1.208h-4.806v-1.208h4.806zm-3.405-2.221h1.425v8.838c0 .402.058.704.175.905.12.197.273.33.459.399.189.064.388.096.597.096.157 0 .286-.008.387-.024l.241-.048.29 1.28a2.913 2.913 0 0 1-.405.108c-.173.04-.392.061-.658.061-.402 0-.797-.087-1.183-.26a2.352 2.352 0 0 1-.954-.791c-.25-.354-.374-.801-.374-1.34v-9.224zm10.161 11.494h-1.57l4.54-12.364h1.546l4.54 12.364h-1.57l-3.695-10.408h-.096l-3.695 10.408zm.58-4.83h6.326v1.328h-6.326v-1.328zm13.541 5.023c-.87 0-1.618-.205-2.246-.616a4.012 4.012 0 0 1-1.449-1.696c-.338-.721-.507-1.544-.507-2.469 0-.942.173-1.773.52-2.493.35-.725.836-1.29 1.46-1.697.628-.41 1.36-.616 2.198-.616.652 0 1.24.121 1.763.363.523.241.951.579 1.285 1.014.334.434.542.942.622 1.521h-1.425c-.108-.422-.35-.797-.724-1.123-.37-.33-.87-.495-1.497-.495-.556 0-1.043.145-1.461.435-.415.286-.739.69-.972 1.213-.23.519-.344 1.129-.344 1.829 0 .717.112 1.341.338 1.872.23.531.551.944.966 1.238.418.293.91.44 1.473.44.37 0 .706-.064 1.008-.193.302-.129.557-.314.767-.555a2.13 2.13 0 0 0 .446-.87h1.425a3.295 3.295 0 0 1-1.847 2.518c-.515.253-1.115.38-1.8.38zm9.327-9.466v1.208H67.69v-1.208h4.805zm-3.404-2.221h1.424v8.838c0 .402.059.704.175.905.121.197.274.33.46.399.188.064.388.096.597.096.157 0 .285-.008.386-.024l.242-.048.29 1.28a2.913 2.913 0 0 1-.405.108c-.173.04-.392.061-.658.061a2.87 2.87 0 0 1-1.183-.26 2.351 2.351 0 0 1-.954-.791c-.25-.354-.374-.801-.374-1.34v-9.224zm5.113 11.494v-9.273h1.425v9.273h-1.425zm.725-10.818c-.278 0-.517-.095-.719-.284a.912.912 0 0 1-.296-.682.91.91 0 0 1 .296-.682 1.01 1.01 0 0 1 .719-.284c.277 0 .515.094.712.284a.902.902 0 0 1 .302.682.9.9 0 0 1-.302.682.993.993 0 0 1-.712.284zm6.642 11.011c-.837 0-1.571-.199-2.203-.598-.628-.398-1.12-.955-1.473-1.672-.35-.716-.526-1.553-.526-2.511 0-.966.176-1.809.526-2.53.354-.72.845-1.28 1.473-1.678.632-.398 1.366-.598 2.203-.598.837 0 1.57.2 2.198.598.632.398 1.123.958 1.473 1.678.354.721.531 1.564.531 2.53 0 .958-.177 1.795-.531 2.511-.35.717-.841 1.274-1.473 1.672-.628.399-1.36.598-2.198.598zm0-1.28c.636 0 1.16-.163 1.57-.489a2.88 2.88 0 0 0 .911-1.286 4.918 4.918 0 0 0 .296-1.726c0-.62-.098-1.198-.296-1.733a2.922 2.922 0 0 0-.911-1.298c-.41-.33-.934-.495-1.57-.495s-1.159.165-1.57.495c-.41.33-.714.763-.91 1.298a4.974 4.974 0 0 0-.297 1.733c0 .62.099 1.195.296 1.726.197.532.501.96.912 1.286.41.326.933.489 1.57.489zm7.367-4.491v5.578h-1.424v-9.273h1.376v1.449h.12c.218-.471.548-.849.99-1.135.444-.29 1.015-.435 1.715-.435.628 0 1.177.129 1.648.387.471.253.838.64 1.1 1.159.26.515.391 1.167.391 1.956v5.892H93.43v-5.796c0-.728-.19-1.296-.568-1.702-.378-.411-.897-.616-1.557-.616a2.49 2.49 0 0 0-1.22.296 2.117 2.117 0 0 0-.839.863c-.205.379-.308.837-.308 1.377zm14.654-1.618l-1.28.362a2.364 2.364 0 0 0-.356-.622 1.73 1.73 0 0 0-.628-.507c-.266-.133-.606-.199-1.02-.199-.568 0-1.04.131-1.419.392-.374.258-.561.586-.561.984 0 .354.128.634.386.839.258.206.66.377 1.207.514l1.377.338c.829.201 1.447.509 1.853.923.407.411.61.94.61 1.588 0 .531-.153 1.006-.459 1.425-.302.418-.724.748-1.268.99-.543.241-1.175.362-1.895.362-.946 0-1.729-.205-2.349-.616-.62-.41-1.012-1.01-1.177-1.799l1.352-.338c.13.499.373.874.73 1.123.363.25.836.374 1.42.374.664 0 1.191-.141 1.581-.422.395-.286.592-.628.592-1.027 0-.321-.113-.591-.338-.808-.226-.222-.572-.387-1.039-.495l-1.545-.363c-.85-.201-1.473-.513-1.871-.935-.395-.427-.592-.96-.592-1.6 0-.523.147-.986.44-1.389a3.02 3.02 0 0 1 1.214-.948c.515-.229 1.099-.344 1.751-.344.917 0 1.638.202 2.161.604.527.403.901.934 1.123 1.594zm2.918 7.292c-.298 0-.554-.106-.767-.32a1.045 1.045 0 0 1-.32-.766c0-.298.107-.554.32-.767.213-.213.469-.32.767-.32.297 0 .553.107.766.32.214.213.32.469.32.767 0 .197-.05.378-.151.543a1.126 1.126 0 0 1-.392.399 1.04 1.04 0 0 1-.543.144zm4.247 0c-.298 0-.553-.106-.767-.32a1.045 1.045 0 0 1-.32-.766c0-.298.107-.554.32-.767.214-.213.469-.32.767-.32.298 0 .553.107.767.32.213.213.32.469.32.767 0 .197-.051.378-.151.543a1.137 1.137 0 0 1-.393.399 1.04 1.04 0 0 1-.543.144zm4.248 0c-.298 0-.554-.106-.767-.32a1.045 1.045 0 0 1-.32-.766c0-.298.107-.554.32-.767.213-.213.469-.32.767-.32.297 0 .553.107.766.32.213.213.32.469.32.767 0 .197-.05.378-.151.543a1.126 1.126 0 0 1-.392.399 1.04 1.04 0 0 1-.543.144z" fill="#007AFF"/><rect x=".5" y=".5" width="479" height="135" rx="11.5" stroke="#DBDEE5"/><path d="M390 75.5c0-22.644 18.356-41 41-41s41 18.356 41 41-18.356 41-41 41-41-18.356-41-41z" fill="#fff" stroke="#007DFF"/><mask id="mask0_9078_152029" style="mask-type:alpha" maskUnits="userSpaceOnUse" x="389" y="34" width="84" height="83"><circle cx="431" cy="75.5" transform="rotate(-180 431 75.5)" fill="#fff" r="41.5"/></mask><g mask="url(#mask0_9078_152029)" stroke-width="3.324"><rect x="412.65" y="57.15" width="36.56" height="36.56" rx="6.647" stroke="#212225"/><path d="M431.291 67.121V83.74m7.948-8.309h-16.618" stroke="#000" stroke-linecap="round"/></g><path d="M390.5 75.5c0-22.367 18.132-40.5 40.5-40.5s40.5 18.133 40.5 40.5c0 22.368-18.132 40.5-40.5 40.5s-40.5-18.132-40.5-40.5z" stroke="#007DFF" stroke-width="2"/></g><defs><clipPath id="clip0_9078_152029"><path fill="#fff" d="M0 0h480v136H0z"/></clipPath><clipPath id="clip1_9078_152029"><path d="M15-4h450v91.102c0 7.64-6.194 13.835-13.835 13.835H28.835c-7.64 0-13.835-6.194-13.835-13.835V-4z" fill="#fff"/></clipPath></defs></svg>