<svg width="26" height="24" viewBox="0 0 26 24" fill="none" xmlns="http://www.w3.org/2000/svg">
	<path d="M23.8061 0.898438L14.4414 7.93207L16.1732 3.78232L23.8061 0.898438Z" fill="#E2761B" stroke="#E2761B"
		stroke-width="0.0951777" stroke-linecap="round" stroke-linejoin="round" />
	<path d="M2.16797 0.900391L11.4574 8.00065L9.81032 3.78428L2.16797 0.900391Z" fill="#E4761B" stroke="#E4761B"
		stroke-width="0.0951777" stroke-linecap="round" stroke-linejoin="round" />
	<path d="M20.4629 17.209L17.9688 21.0732L23.3052 22.558L24.8393 17.2946L20.4629 17.209Z" fill="#E4761B"
		stroke="#E4761B" stroke-width="0.0951777" stroke-linecap="round" stroke-linejoin="round" />
	<path d="M1.20703 17.2946L2.73174 22.558L8.06821 21.0732L5.57409 17.209L1.20703 17.2946Z" fill="#E4761B"
		stroke="#E4761B" stroke-width="0.0951777" stroke-linecap="round" stroke-linejoin="round" />
	<path d="M7.7605 10.6694L6.27344 12.9441L11.5723 13.1821L11.384 7.42383L7.7605 10.6694Z" fill="#E4761B"
		stroke="#E4761B" stroke-width="0.0951777" stroke-linecap="round" stroke-linejoin="round" />
	<path d="M18.2304 10.6774L14.5599 7.36523L14.4375 13.1901L19.7269 12.9522L18.2304 10.6774Z" fill="#E4761B"
		stroke="#E4761B" stroke-width="0.0951777" stroke-linecap="round" stroke-linejoin="round" />
	<path d="M8.05859 21.0823L11.2398 19.5118L8.49153 17.3418L8.05859 21.0823Z" fill="#E4761B" stroke="#E4761B"
		stroke-width="0.0951777" stroke-linecap="round" stroke-linejoin="round" />
	<path d="M14.7812 19.5118L17.9718 21.0823L17.5295 17.3418L14.7812 19.5118Z" fill="#E4761B" stroke="#E4761B"
		stroke-width="0.0951777" stroke-linecap="round" stroke-linejoin="round" />
	<path d="M17.9601 21.0568L14.7695 19.4863L15.0237 21.5898L14.9954 22.4749L17.9601 21.0568Z" fill="#D7C1B3"
		stroke="#D7C1B3" stroke-width="0.0951777" stroke-linecap="round" stroke-linejoin="round" />
	<path d="M8.09375 21.0568L11.0585 22.4749L11.0396 21.5898L11.2749 19.4863L8.09375 21.0568Z" fill="#D7C1B3"
		stroke="#D7C1B3" stroke-width="0.0951777" stroke-linecap="round" stroke-linejoin="round" />
	<path d="M11.0721 15.9491L8.41797 15.1591L10.2909 14.293L11.0721 15.9491Z" fill="#233447" stroke="#233447"
		stroke-width="0.0951777" stroke-linecap="round" stroke-linejoin="round" />
	<path d="M14.918 15.9491L15.6991 14.293L17.5815 15.1591L14.918 15.9491Z" fill="#233447" stroke="#233447"
		stroke-width="0.0951777" stroke-linecap="round" stroke-linejoin="round" />
	<path d="M8.05271 21.0712L8.50448 17.207L5.55859 17.2927L8.05271 21.0712Z" fill="#CD6116" stroke="#CD6116"
		stroke-width="0.0951777" stroke-linecap="round" stroke-linejoin="round" />
	<path d="M17.4727 17.207L17.9244 21.0712L20.4185 17.2927L17.4727 17.207Z" fill="#CD6116" stroke="#CD6116"
		stroke-width="0.0951777" stroke-linecap="round" stroke-linejoin="round" />
	<path d="M19.7386 12.9473L14.4492 13.1852L14.9386 15.9358L15.7198 14.2798L17.6022 15.1459L19.7386 12.9473Z"
		fill="#CD6116" stroke="#CD6116" stroke-width="0.0951777" stroke-linecap="round" stroke-linejoin="round" />
	<path d="M8.38416 15.1459L10.2665 14.2798L11.0383 15.9358L11.5371 13.1852L6.23828 12.9473L8.38416 15.1459Z"
		fill="#CD6116" stroke="#CD6116" stroke-width="0.0951777" stroke-linecap="round" stroke-linejoin="round" />
	<path d="M6.26953 12.9473L8.49071 17.3254L8.41541 15.1459L6.26953 12.9473Z" fill="#E4751F" stroke="#E4751F"
		stroke-width="0.0951777" stroke-linecap="round" stroke-linejoin="round" />
	<path d="M17.6019 15.1459L17.5078 17.3254L19.7384 12.9473L17.6019 15.1459Z" fill="#E4751F" stroke="#E4751F"
		stroke-width="0.0951777" stroke-linecap="round" stroke-linejoin="round" />
	<path d="M11.5574 13.1836L11.0586 15.9342L11.6798 19.1798L11.8209 14.9063L11.5574 13.1836Z" fill="#E4751F"
		stroke="#E4751F" stroke-width="0.0951777" stroke-linecap="round" stroke-linejoin="round" />
	<path d="M14.4182 13.1836L14.1641 14.8968L14.277 19.1798L14.9076 15.9342L14.4182 13.1836Z" fill="#E4751F"
		stroke="#E4751F" stroke-width="0.0951777" stroke-linecap="round" stroke-linejoin="round" />
	<path d="M14.9236 15.9365L14.293 19.182L14.7447 19.4961L17.493 17.3261L17.5871 15.1465L14.9236 15.9365Z"
		fill="#F6851B" stroke="#F6851B" stroke-width="0.0951777" stroke-linecap="round" stroke-linejoin="round" />
	<path d="M8.41797 15.1465L8.49326 17.3261L11.2415 19.4961L11.6933 19.182L11.0721 15.9365L8.41797 15.1465Z"
		fill="#F6851B" stroke="#F6851B" stroke-width="0.0951777" stroke-linecap="round" stroke-linejoin="round" />
	<path
		d="M14.9841 22.4787L15.0123 21.5935L14.777 21.3842H11.2288L11.0123 21.5935L11.0311 22.4787L8.06641 21.0605L9.1017 21.9171L11.2005 23.3924H14.8052L16.9135 21.9171L17.9488 21.0605L14.9841 22.4787Z"
		fill="#C0AD9E" stroke="#C0AD9E" stroke-width="0.0951777" stroke-linecap="round" stroke-linejoin="round" />
	<path
		d="M14.7537 19.4957L14.3019 19.1816H11.6949L11.2431 19.4957L11.0078 21.5992L11.2243 21.3898H14.7725L15.0078 21.5992L14.7537 19.4957Z"
		fill="#161616" stroke="#161616" stroke-width="0.0951777" stroke-linecap="round" stroke-linejoin="round" />
	<path
		d="M24.2268 8.39088L25.0268 4.50763L23.8315 0.900391L14.7773 7.69608L18.2597 10.6751L23.1821 12.1314L24.2738 10.8465L23.8032 10.5038L24.5562 9.80903L23.9726 9.35217L24.7256 8.77159L24.2268 8.39088Z"
		fill="#763D16" stroke="#763D16" stroke-width="0.0951777" stroke-linecap="round" stroke-linejoin="round" />
	<path
		d="M1.01172 4.50763L1.81172 8.39088L1.30348 8.77159L2.05643 9.35217L1.48231 9.80903L2.23525 10.5038L1.76466 10.8465L2.84701 12.1314L7.76937 10.6751L11.2517 7.69608L2.1976 0.900391L1.01172 4.50763Z"
		fill="#763D16" stroke="#763D16" stroke-width="0.0951777" stroke-linecap="round" stroke-linejoin="round" />
	<path d="M23.1643 12.1164L18.2419 10.6602L19.7384 12.9349L17.5078 17.3131L20.4443 17.275H24.8208L23.1643 12.1164Z"
		fill="#F6851B" stroke="#F6851B" stroke-width="0.0951777" stroke-linecap="round" stroke-linejoin="round" />
	<path d="M7.75922 10.6602L2.83687 12.1164L1.19922 17.275H5.56628L8.49334 17.3131L6.27216 12.9349L7.75922 10.6602Z"
		fill="#F6851B" stroke="#F6851B" stroke-width="0.0951777" stroke-linecap="round" stroke-linejoin="round" />
	<path
		d="M14.4477 13.1965L14.7583 7.70477L16.1889 3.79297H9.83594L11.2477 7.70477L11.5771 13.1965L11.6901 14.9288L11.6995 19.1927H14.3065L14.3254 14.9288L14.4477 13.1965Z"
		fill="#F6851B" stroke="#F6851B" stroke-width="0.0951777" stroke-linecap="round" stroke-linejoin="round" />
</svg>
