<svg width="26" height="24" viewBox="0 0 26 24" fill="none" xmlns="http://www.w3.org/2000/svg"><path d="M23.806.898l-9.365 7.034 1.732-4.15L23.806.898z" fill="#E2761B" stroke="#E2761B" stroke-width=".095" stroke-linecap="round" stroke-linejoin="round"/><path d="M2.168.9l9.29 7.1L9.81 3.785 2.168.9zM20.463 17.209l-2.494 3.864 5.336 1.485 1.534-5.263-4.376-.086zM1.207 17.295l1.525 5.263 5.336-1.485-2.494-3.864-4.367.086z" fill="#E4761B" stroke="#E4761B" stroke-width=".095" stroke-linecap="round" stroke-linejoin="round"/><path d="M7.76 10.67l-1.487 2.274 5.3.238-.189-5.758-3.623 3.245zM18.23 10.677l-3.67-3.312-.123 5.825 5.29-.238-1.497-2.275zM8.059 21.082l3.18-1.57-2.747-2.17-.433 3.74zM14.781 19.512l3.19 1.57-.442-3.74-2.748 2.17z" fill="#E4761B" stroke="#E4761B" stroke-width=".095" stroke-linecap="round" stroke-linejoin="round"/><path d="M17.96 21.057l-3.19-1.57.254 2.103-.029.885 2.965-1.418zM8.094 21.057l2.965 1.418-.02-.885.236-2.104-3.181 1.57z" fill="#D7C1B3" stroke="#D7C1B3" stroke-width=".095" stroke-linecap="round" stroke-linejoin="round"/><path d="M11.072 15.95l-2.654-.79 1.873-.867.781 1.656zM14.918 15.95l.781-1.657 1.882.866-2.663.79z" fill="#233447" stroke="#233447" stroke-width=".095" stroke-linecap="round" stroke-linejoin="round"/><path d="M8.053 21.071l.451-3.864-2.945.086 2.494 3.778zM17.473 17.207l.451 3.864 2.495-3.778-2.946-.086zM19.739 12.947l-5.29.238.49 2.75.78-1.655 1.883.866 2.137-2.199zM8.384 15.146l1.883-.866.771 1.656.5-2.75-5.3-.239 2.146 2.199z" fill="#CD6116" stroke="#CD6116" stroke-width=".095" stroke-linecap="round" stroke-linejoin="round"/><path d="M6.27 12.947l2.22 4.378-.075-2.18-2.145-2.198zM17.602 15.146l-.094 2.18 2.23-4.379-2.136 2.199zM11.557 13.184l-.498 2.75.62 3.246.142-4.274-.264-1.722zM14.418 13.184l-.254 1.713.113 4.283.63-3.246-.489-2.75z" fill="#E4751F" stroke="#E4751F" stroke-width=".095" stroke-linecap="round" stroke-linejoin="round"/><path d="M14.924 15.937l-.631 3.245.452.314 2.748-2.17.094-2.18-2.663.79zM8.418 15.146l.075 2.18 2.748 2.17.452-.314-.62-3.245-2.655-.79z" fill="#F6851B" stroke="#F6851B" stroke-width=".095" stroke-linecap="round" stroke-linejoin="round"/><path d="M14.984 22.479l.028-.886-.235-.209h-3.548l-.217.21.02.885-2.966-1.418 1.036.856 2.098 1.475h3.605l2.108-1.475 1.036-.857-2.965 1.419z" fill="#C0AD9E" stroke="#C0AD9E" stroke-width=".095" stroke-linecap="round" stroke-linejoin="round"/><path d="M14.754 19.496l-.452-.314h-2.607l-.452.314-.235 2.103.216-.21h3.549l.235.21-.254-2.103z" fill="#161616" stroke="#161616" stroke-width=".095" stroke-linecap="round" stroke-linejoin="round"/><path d="M24.227 8.39l.8-3.882L23.83.9l-9.054 6.796 3.483 2.98 4.922 1.455 1.092-1.284-.47-.343.752-.695-.583-.457.753-.58-.5-.381zM1.012 4.508l.8 3.883-.509.38.753.581-.574.457.753.695-.47.343 1.082 1.284 4.922-1.456 3.483-2.979L2.198.9 1.012 4.508z" fill="#763D16" stroke="#763D16" stroke-width=".095" stroke-linecap="round" stroke-linejoin="round"/><path d="M23.164 12.116l-4.922-1.456 1.496 2.275-2.23 4.378 2.936-.038h4.377l-1.657-5.159zM7.76 10.66l-4.923 1.456-1.638 5.159h4.367l2.927.038-2.22-4.378 1.486-2.275zM14.448 13.197l.31-5.492 1.43-3.912H9.837l1.412 3.912.33 5.492.112 1.732.01 4.264h2.607l.018-4.264.123-1.732z" fill="#F6851B" stroke="#F6851B" stroke-width=".095" stroke-linecap="round" stroke-linejoin="round"/></svg>