<svg width="217" height="96" viewBox="0 0 217 96" fill="none" xmlns="http://www.w3.org/2000/svg"><path d="M104.039 6.686a8.769 8.769 0 0 1 8.769 0l29.203 16.86a8.77 8.77 0 0 1 4.384 7.594v33.72a8.77 8.77 0 0 1-4.384 7.595l-29.203 16.86a8.769 8.769 0 0 1-8.769 0l-29.203-16.86a8.77 8.77 0 0 1-4.385-7.594V31.14a8.77 8.77 0 0 1 4.385-7.595l29.203-16.86z" fill="#F5F5FF" stroke="#5452CE" stroke-width="1.028"/><path fill-rule="evenodd" clip-rule="evenodd" d="M108.477 38.694l-24.9 26.203 24.9-40.282 24.719 40.282-24.719-26.203zm-11.22 17.793l3.98-4.205h14.41l3.98 4.205h-22.37zm6.814-7.131l4.402-4.51 4.34 4.51h-8.742z" fill="#D6D5FF"/><path d="M108.477 38.694l.531-.502a.73.73 0 0 0-1.061-.002l.53.504zm-24.9 26.203l-.622-.384a.73.73 0 0 0 1.15.888l-.529-.504zm24.9-40.282l.622-.382a.728.728 0 0 0-1.244-.002l.622.384zm24.719 40.282l-.532.502a.731.731 0 0 0 1.155-.884l-.623.382zm-35.939-8.41l-.53-.502a.73.73 0 0 0 .53 1.233v-.73zm3.98-4.205v-.73a.731.731 0 0 0-.531.228l.531.502zm14.41 0l.531-.502a.731.731 0 0 0-.531-.228v.73zm3.98 4.205v.731a.732.732 0 0 0 .53-1.233l-.53.502zm-15.556-7.131l-.523-.51a.73.73 0 0 0 .523 1.24v-.73zm4.402-4.51l.526-.506a.73.73 0 0 0-1.049-.004l.523.51zm4.34 4.51v.73a.732.732 0 0 0 .527-1.237l-.527.507zm-4.866-11.166l-24.9 26.204 1.059 1.007 24.9-26.204-1.059-1.007zm-23.75 27.091L109.099 25l-1.243-.768-24.9 40.282 1.243.768zm23.657-40.284l24.719 40.282 1.246-.764-24.72-40.282-1.245.764zm25.873 39.399l-24.719-26.204-1.063 1.003L132.664 65.4l1.063-1.003zM97.788 56.99l3.98-4.205-1.062-1.005-3.98 4.205 1.062 1.005zm3.449-3.977h14.41v-1.461h-14.41v1.461zm13.879-.228l3.98 4.205 1.061-1.005-3.979-4.205-1.062 1.005zm4.511 2.972h-22.37v1.461h22.37v-1.462zm-15.034-5.89l4.402-4.51-1.045-1.021-4.402 4.51 1.045 1.02zm3.353-4.514l4.341 4.51 1.053-1.014-4.341-4.51-1.053 1.014zm4.867 3.272h-8.742v1.462h8.742v-1.462z" fill="#5452CE"/><path d="M103.307 3.453a10.231 10.231 0 0 1 10.231 0l30.906 17.844a10.231 10.231 0 0 1 5.115 8.86v35.686c0 3.655-1.95 7.033-5.115 8.86l-30.906 17.844a10.231 10.231 0 0 1-10.231 0L72.402 74.703a10.23 10.23 0 0 1-5.115-8.86V30.157a10.23 10.23 0 0 1 5.115-8.86l30.905-17.844z" stroke="#D6D5FF" stroke-width="1.028"/><path d="M105.5 9.495a5.846 5.846 0 0 1 5.846 0l28.961 16.721a5.846 5.846 0 0 1 2.923 5.063v33.442a5.846 5.846 0 0 1-2.923 5.063l-28.961 16.72a5.846 5.846 0 0 1-5.846 0l-28.962-16.72a5.846 5.846 0 0 1-2.923-5.063V31.279a5.846 5.846 0 0 1 2.923-5.063L105.5 9.496z" stroke="#D6D5FF" stroke-width="1.028"/><path d="M155.923 81.5c.16-4.7 3.718-14.41 16.67-15.636m-9.778-4.752c1.656-2.76 3.43-9.412-2.725-13.95M207.695 5.615c14.272 11.957 8.977 27.913-9.459 19.315-18.436-8.598-4.485-18.088 9.781-.153m2.564 4.599c2.084 5.978-3.526 15.943-19.235 10.117-15.708-5.825-4.648-21.154 11.221-.46m1.923 4.14c3.205 7.204-.481 15.942-17.792 11.19-17.311-4.752-6.892-23.148 9.297-1.38m2.725 4.446c1.656 5.059.833 14.501-15.709 11.804" stroke="#5452CE" stroke-width="1.462" stroke-linecap="round"/><ellipse rx="2.244" ry="2.146" transform="matrix(-1 0 0 1 186.54 79.2)" stroke="#6E6CEF" stroke-width="1.462"/><ellipse rx="2.244" ry="2.146" transform="matrix(-1 0 0 1 171.254 49.97)" stroke="#6E6CEF" stroke-width="1.462"/><ellipse rx="1.91" ry="1.827" transform="matrix(-1 0 0 1 181.523 88.557)" stroke="#6E6CEF" stroke-width="1.462"/><ellipse rx="1.91" ry="1.827" transform="matrix(-1 0 0 1 209.028 62.98)" stroke="#DE5846" stroke-width="1.462"/><ellipse rx="3.056" ry="2.923" transform="matrix(-1 0 0 1 168.147 81.615)" stroke="#DE5846" stroke-width="1.462"/><path d="M60.923 81.5c-.16-4.7-3.72-14.41-16.672-15.636m9.779-4.752c-1.657-2.76-3.431-9.412 2.725-13.95M9.152 5.615C-5.122 17.572.174 33.528 18.612 24.93c18.437-8.598 4.485-18.088-9.782-.153m-2.565 4.599c-2.084 5.978 3.527 15.943 19.236 10.117 15.71-5.825 4.65-21.154-11.22-.46m-1.925 4.14c-3.204 7.204.481 15.942 17.794 11.19 17.313-4.752 6.893-23.148-9.297-1.38m-2.726 4.446c-1.656 5.059-.833 14.501 15.71 11.804" stroke="#DE5846" stroke-width="1.462" stroke-linecap="round"/><ellipse cx="30.315" cy="79.201" rx="2.244" ry="2.146" stroke="#FEB8AE" stroke-width="1.462"/><ellipse cx="45.599" cy="49.97" rx="2.244" ry="2.146" stroke="#FEB8AE" stroke-width="1.462"/><ellipse cx="35.328" cy="88.557" rx="1.91" ry="1.827" stroke="#FEB8AE" stroke-width="1.462"/><ellipse cx="7.819" cy="62.98" rx="1.91" ry="1.827" stroke="#5452CE" stroke-width="1.462"/><ellipse cx="48.706" cy="81.615" rx="3.057" ry="2.923" stroke="#5452CE" stroke-width="1.462"/></svg>