<svg xmlns="http://www.w3.org/2000/svg" viewBox="0 0 385 135.22"><g id="images" transform="translate(-256 -752.78)"><path id="Прямоугольник_1_копия_15" data-name="Прямоугольник 1 копия 15" d="M534 888v-19h-3v-2h3v-4h2v4h38v-1h2v1h38v-38h-22v-2h22v-23h2v23h2v2h-2v38h16v2h-16v6h-2v-6h-38v10h-2v-10h-38v19z" fill="#3c4249"/><path id="Прямоугольник_1_копия_17" data-name="Прямоугольник 1 копия 17" d="M278 844v-23h-2v-2h2v-38h-16v-2h16v-6h2v6h38v-10h2v10h38v-19h2v19h3v2h-3v4h-2v-4h-38v23h-2v-23h-38v38h22v2h-22v23z" fill="#3c4249"/><path id="Прямоугольник_1_копия" data-name="Прямоугольник 1 копия" d="M377 785v-4h-4v-2h4v-4h2v4h4v2h-4v4z" fill="#3c4249"/><path id="Прямоугольник_1_копия_2" data-name="Прямоугольник 1 копия 2" d="M260 825v-4h-4v-2h4v-4h2v4h4v2h-4v4z" fill="#3c4249"/><path id="Прямоугольник_1_копия_3" data-name="Прямоугольник 1 копия 3" d="M614 794v-4h-4v-2h4v-4h2v4h4v2h-4v4z" fill="#3c4249"/><path id="Прямоугольник_1_копия_4" data-name="Прямоугольник 1 копия 4" d="M635 833v-4h-4v-2h4v-4h2v4h4v2h-4v4z" fill="#3c4249"/><g id="Группа_88" data-name="Группа 88"><rect id="Прямоугольник_скругл._углы_12" data-name="Прямоугольник, скругл. углы 12" width="15" height="97" rx="7.5" transform="translate(600 754)" fill="none"/></g><g id="_1" data-name="1" fill="none" stroke="#3c4249" stroke-width="2"><path id="Прямоугольник_скругл._углы_12_копия" data-name="Прямоугольник, скругл. углы 12 копия" d="M315 863.511v-45.677a4 4 0 0 1 8 0v35.674" stroke-linecap="round"/><path id="Прямоугольник_скругл._углы_13_копия_2" data-name="Прямоугольник, скругл. углы 13 копия 2" d="M309 840v-13.614a2.5 2.5 0 0 1 4.985 0V840" transform="translate(-2)"/><path id="Прямоугольник_скругл._углы_14_копия_2" data-name="Прямоугольник, скругл. углы 14 копия 2" d="M315.006 846.009a2.853 2.853 0 0 1-3.016-2.963v-4.056"/><path id="Прямоугольник_скругл._углы_15_копия_2" data-name="Прямоугольник, скругл. углы 15 копия 2" d="M316.989 853.009h0a8.039 8.039 0 0 1-7.989-8.088v-8.913" transform="translate(-2)"/><path id="Прямоугольник_скругл._углы_13_копия_2-2" data-name="Прямоугольник, скругл. углы 13 копия 2" d="M329 845v-7.562a2.494 2.494 0 0 0-4.987 0V845" transform="translate(2)"/><path id="Прямоугольник_скругл._углы_14_копия_2-2" data-name="Прямоугольник, скругл. углы 14 копия 2" d="M323 851.015a2.839 2.839 0 0 0 2.983-2.966v-4.059"/><path id="Прямоугольник_скругл._углы_15_копия_2-2" data-name="Прямоугольник, скругл. углы 15 копия 2" d="M320.986 857.015h0a8.053 8.053 0 0 0 8.014-8.091v-8.916" transform="translate(2)"/><path id="Фигура_1268_копия" data-name="Фигура 1268 копия" transform="translate(305 863.99)" d="M0 0h27"/><path id="Фигура_1267" data-name="Фигура 1267" transform="translate(321 859)" d="M0 5V0"/></g><g id="_1_копия" data-name="1 копия" fill="none" stroke="#3c4249" stroke-width="2"><path id="Прямоугольник_скругл._углы_12_копия-2" data-name="Прямоугольник, скругл. углы 12 копия" d="M423 862.014v-44.3a4.011 4.011 0 0 1 8 0v34.6" stroke-linecap="round"/><path id="Прямоугольник_скругл._углы_13_копия_2-3" data-name="Прямоугольник, скругл. углы 13 копия 2" d="M417 840v-13.614a2.5 2.5 0 0 1 4.985 0V840" transform="translate(-2)"/><path id="Прямоугольник_скругл._углы_14_копия_2-3" data-name="Прямоугольник, скругл. углы 14 копия 2" d="M423.006 846.009a2.853 2.853 0 0 1-3.016-2.963v-4.056"/><path id="Прямоугольник_скругл._углы_15_копия_2-3" data-name="Прямоугольник, скругл. углы 15 копия 2" d="M424.989 853.009h0a8.039 8.039 0 0 1-7.989-8.088v-8.913" transform="translate(-2)"/><path id="Прямоугольник_скругл._углы_13_копия_2-4" data-name="Прямоугольник, скругл. углы 13 копия 2" d="M437 845v-7.562a2.494 2.494 0 0 0-4.987 0V845" transform="translate(2)"/><path id="Прямоугольник_скругл._углы_14_копия_2-4" data-name="Прямоугольник, скругл. углы 14 копия 2" d="M431 851.015a2.839 2.839 0 0 0 2.983-2.966v-4.059"/><path id="Прямоугольник_скругл._углы_15_копия_2-4" data-name="Прямоугольник, скругл. углы 15 копия 2" d="M428.986 857.015h0a8.053 8.053 0 0 0 8.014-8.091v-8.916" transform="translate(2)"/><path id="Фигура_1268_копия-2" data-name="Фигура 1268 копия" transform="translate(413 863.99)" d="M0 0h27"/><path id="Фигура_1267-2" data-name="Фигура 1267" transform="translate(429 859)" d="M0 5V0"/></g><g id="Группа_83" data-name="Группа 83" fill="none" stroke-width="2"><path id="Фигура_1" data-name="Фигура 1" transform="translate(442 864)" stroke="#7e8a9c" d="M0 0h137"/><path id="Фигура_1_копия" data-name="Фигура 1 копия" transform="translate(354 864)" stroke="#3c4249" d="M0 0h78"/><path id="Фигура_1_копия_2" data-name="Фигура 1 копия 2" transform="translate(326 864)" stroke="#3c4249" d="M0 0h18"/><path id="Прямоугольник_скругл._углы_13" data-name="Прямоугольник, скругл. углы 13" d="M393 863.5a9.5 9.5 0 0 1 9.5-9.5h4a9.5 9.5 0 0 1 9.5 9.5" transform="translate(-1)" stroke="#3c4249"/><path id="Прямоугольник_скругл._углы_13_копия" data-name="Прямоугольник, скругл. углы 13 копия" d="M363 863a4.788 4.788 0 0 1 4.543-5h1.913a4.788 4.788 0 0 1 4.544 5" stroke="#3c4249"/><path id="Прямоугольник_скругл._углы_13_копия_3" data-name="Прямоугольник, скругл. углы 13 копия 3" d="M411.017 856h5.662c3.491 0 6.321 3.134 6.321 7" stroke="#3c4249"/><path id="Прямоугольник_скругл._углы_13_копия_4" data-name="Прямоугольник, скругл. углы 13 копия 4" d="M488.383 858.562A9.495 9.495 0 0 1 496.5 854h4a9.5 9.5 0 0 1 9.5 9.5" stroke="#7e8a9c"/><path id="Прямоугольник_скругл._углы_13_копия_5" data-name="Прямоугольник, скругл. углы 13 копия 5" d="M480 864a5.894 5.894 0 0 1 5.783-6h2.435a5.894 5.894 0 0 1 5.782 6" stroke="#7e8a9c"/></g><g id="Группа_84" data-name="Группа 84" fill="none" stroke-linecap="round" stroke-width="2"><path id="Эллипс_3724" data-name="Эллипс 3724" d="M332 859a27 27 0 0 1 27-27c14.912 0 27 10.088 27 25" stroke="#289548" stroke-dasharray="8 4"/><path id="Эллипс_3725" data-name="Эллипс 3725" d="M383.865 853.291a100.081 100.081 0 0 1 113.426-98.582 99.721 99.721 0 0 1 36.085 12.177" transform="translate(2)" stroke="#289548" stroke-dasharray="8 4"/><path id="Эллипс_3725_копия" data-name="Эллипс 3725 копия" d="M383.991 852.964a84.613 84.613 0 0 1 .776-10.887c6.294-46.179 49.087-78.546 95.579-72.294" transform="translate(2)" stroke="#289548" stroke-dasharray="8 4"/><g id="Группа_86" data-name="Группа 86" stroke="#7e8a9c"><g id="Группа_85" data-name="Группа 85"><path id="Эллипс_3722" data-name="Эллипс 3722" d="M497.15 835.749C491.819 829.676 487 820.216 487 811.5a34.5 34.5 0 0 1 62.848-19.669"/><path id="Эллипс_3723" data-name="Эллипс 3723" d="M496.842 835.092C485.225 827.019 482 817.676 482 806.5" transform="translate(-1 -1)"/><path id="Эллипс_3723_копия" data-name="Эллипс 3723 копия" d="M487.07 811.534a37.1 37.1 0 0 1 3.167-26.54" transform="translate(0 3)"/><path id="Эллипс_3723_копия_2" data-name="Эллипс 3723 копия 2" d="M503.215 782.019a33.124 33.124 0 0 1 23.347-9.5"/><path id="Эллипс_3723_копия_3" data-name="Эллипс 3723 копия 3" d="M542.189 791.221c-3.577-2.282-5.2-7.4-11.545-10.889" transform="translate(-5 -3)"/></g><g id="Группа_85_копия" data-name="Группа 85 копия"><path id="Эллипс_3722-2" data-name="Эллипс 3722" d="M559.172 808.355a34.614 34.614 0 1 1-68.426 9.7"/><path id="Эллипс_3723-2" data-name="Эллипс 3723" d="M558.344 804.1c3.985 9.614 4.277 25.473-1.337 35.2"/><path id="Эллипс_3723_копия-2" data-name="Эллипс 3723 копия" d="M554.274 833.642a33.342 33.342 0 0 1-15.22 20.234" transform="translate(2 -3)"/><path id="Эллипс_3723_копия_2-2" data-name="Эллипс 3723 копия 2" d="M526.3 849.96a33.161 33.161 0 0 1-25.036-3.436"/><path id="Эллипс_3723_копия_3-2" data-name="Эллипс 3723 копия 3" d="M497.449 825.125c1.277 2.463.534 4.911 1.233 8.78.289 1.593 2.827 5.225 2.977 6.614"/></g><g id="Группа_85_копия_2" data-name="Группа 85 копия 2"><path id="Эллипс_3722-3" data-name="Эллипс 3722" d="M498.675 785.425a34.614 34.614 0 1 1 47.81 49.9"/><path id="Эллипс_3723-3" data-name="Эллипс 3723" d="M499.009 785.382a34.628 34.628 0 0 1 26.054-16.255"/><path id="Эллипс_3723_копия-3" data-name="Эллипс 3723 копия" d="M522.067 774.644a33.341 33.341 0 0 1 25.313.551" transform="translate(1 -1)"/><path id="Эллипс_3723_копия_2-3" data-name="Эллипс 3723 копия 2" d="M551.647 787.841a33.162 33.162 0 0 1 11.821 22.336"/><path id="Эллипс_3723_копия_3-3" data-name="Эллипс 3723 копия 3" d="M548.314 825.76c1.925-3.8 4.951-.487 7.641-10.8" transform="translate(3 -4)"/></g><g id="Группа_85_копия_3" data-name="Группа 85 копия 3"><path id="Эллипс_3722-4" data-name="Эллипс 3722" d="M542.009 830.43a24.574 24.574 0 1 1-33.949-35.42"/><path id="Эллипс_3723-4" data-name="Эллипс 3723" d="M541.772 830.461A24.59 24.59 0 0 1 523.271 842"/><path id="Эллипс_3723_копия-4" data-name="Эллипс 3723 копия" d="M521.139 838.082c-5.677 2.108-8.263 1.969-13.715-.391"/><path id="Эллипс_3723_копия_2-4" data-name="Эллипс 3723 копия 2" d="M504.394 828.716A23.534 23.534 0 0 1 496 812.862"/><path id="Эллипс_3723_копия_3-4" data-name="Эллипс 3723 копия 3" d="M506.761 801.8c-1.367 2.694-4.351 1.766-7.034 8.352"/><path id="Эллипс_3722_копия" data-name="Эллипс 3722 копия" d="M540.646 790.993a20.447 20.447 0 0 1 6.205 12.84 20.2 20.2 0 0 1-17.769 22.245 19.6 19.6 0 0 1-17.074-7.04"/><path id="Эллипс_3723_копия_4" data-name="Эллипс 3723 копия 4" d="M540.671 791.189A20.366 20.366 0 0 1 550 806.472"/><path id="Эллипс_3723_копия_4-2" data-name="Эллипс 3723 копия 4" d="M546.943 803.954a21.976 21.976 0 0 1-.427 15.609"/><path id="Эллипс_3723_копия_4-3" data-name="Эллипс 3723 копия 4" d="M539.26 822.065A18.906 18.906 0 0 1 526.442 829"/><path id="Эллипс_3723_копия_4-4" data-name="Эллипс 3723 копия 4" d="M517.5 820.111c2.178 1.129 2.844 4.105 11.1 5.85"/></g></g></g></g></svg>