<svg width="490" height="250" viewBox="0 0 490 250" fill="none" xmlns="http://www.w3.org/2000/svg"><path d="M303.07 202.234l71.483 41.307a20.002 20.002 0 0 0 20 0l76.014-43.887a20 20 0 0 0 10-17.32V94.561a20.005 20.005 0 0 0-10-17.32L427.5 52.374M271.5 184l21 12.129" stroke="#5452CE" stroke-width="2" stroke-linecap="round"/><path d="M308.09 175.611v-69.613a20.003 20.003 0 0 1 10-17.32l56.464-32.6a20.004 20.004 0 0 1 20 0l56.464 32.6a20.002 20.002 0 0 1 10 17.32v39.861M289.07 171.233l85.484 49.885a20.007 20.007 0 0 0 20 0L420 206.427m13.107-7.568l17.911-10.341a20 20 0 0 0 10-17.32v-12.339m-70.518 86.5c-9 3-15.758 4.332-21.946.759l-30.228-17.64m-17.224-10.051c-19.691-11.493-47.032-27.193-47.032-27.193" stroke="#5452CE" stroke-width="2" stroke-linecap="round"/><path fill-rule="evenodd" clip-rule="evenodd" d="M386.107 117.853L328 179l58.107-94 57.683 94-57.683-61.147zm-26.18 41.523l9.286-9.812h33.628l9.286 9.812h-52.2zm15.894-16.64l10.272-10.524 10.13 10.524h-20.402z" fill="#D6D5FF"/><path d="M386.107 117.853l.727-.686-.725-.769-.727.766.725.689zM328 179l-.851-.526 1.576 1.215L328 179zm58.107-94l.852-.523-.849-1.384-.854 1.381.851.526zm57.683 94l-.727.686 1.579-1.209-.852.523zm-83.863-19.624l-.726-.687-1.597 1.687h2.323v-1zm9.286-9.812v-1h-.43l-.296.312.726.688zm33.628 0l.726-.688-.296-.312h-.43v1zm9.286 9.812v1h2.323l-1.597-1.687-.726.687zm-36.306-16.64l-.716-.699-1.658 1.699h2.374v-1zm10.272-10.524l.721-.693-.716-.743-.721.738.716.698zm10.13 10.524v1h2.35l-1.63-1.694-.72.694zm-10.841-25.572l-58.107 61.147 1.45 1.378 58.106-61.147-1.449-1.378zm-56.531 62.362l58.106-94-1.701-1.052-58.107 94 1.702 1.052zm56.403-94.003l57.684 94 1.704-1.046-57.683-94-1.705 1.046zm59.263 92.791l-57.683-61.147-1.455 1.372 57.684 61.147 1.454-1.372zm-83.863-18.251l9.286-9.812-1.453-1.375-9.286 9.813 1.453 1.374zm8.559-9.499h33.628v-2h-33.628v2zm32.902-.313l9.286 9.812 1.452-1.374-9.286-9.813-1.452 1.375zm10.012 8.125h-52.2v2h52.2v-2zm-35.591-14.942l10.273-10.523-1.432-1.397-10.272 10.523 1.431 1.397zm8.837-10.528l10.129 10.523 1.441-1.387-10.129-10.523-1.441 1.387zm10.85 8.83h-20.402v2h20.402v-2z" fill="#5452CE"/><path d="M95.383 131.737s22.638-13.509 36.831-38.092a427.167 427.167 0 0 0 19.856-38.247s-23.2 45.149-45.93 41c-8.871 24.928-10.757 35.339-10.757 35.339z" fill="#FEB8AE"/><path d="M168.571 120.508s23.258 8 51.713-51.016c-2.451 6.842-10.4 25.728-23.648 48.67-16.935 29.333-36.235 47.339-36.235 47.339s-7.768-2.345 8.17-44.993zm99.244-22.828s-15.986 37.289-28.971 27.048c-1.274 2.207-5.147 14.631-4.781 24.874.178 4.964 3.208-4.529 6.156-2 4.5-1.5 6.5-3 9.426-4 3.828-7.643 7.801-16.432 10.5-23.64 6.406-17.11 7.67-22.282 7.67-22.282z" fill="#D6D5FF"/><path d="M89.14 127.973l6.39-44.223m-2.132-17.132c-1.709 10.756-6.59 48.7-7.832 58.544-1.242 9.844 6.764 9.034 13.292 3.964s28.156-19.034 52.212-73.728" stroke="#DE5846" stroke-width="2" stroke-linecap="round"/><path d="M60.534 144.098c-.348 6.635 13.58 28.17 43.3 12.387 29.72-15.783 51.944-47.755 72.446-89.5 13.013-26.495 11.284-45.42 3.42-52.188" stroke="#DE5846" stroke-width="2" stroke-linecap="round"/><path d="M92.05 166.207s36.355-3.283 76.187-72.274c15.745-27.271 31.275-67.69 10.906-79.451-20.369-11.761-63.489 33.909-83.628 112.72m21.472 32.53s-2.3 15.736 8.192 21.794 50.179-9.085 95.423-112.589" stroke="#DE5846" stroke-width="2" stroke-linecap="round"/><path d="M94.14 171.025s-2.356 23.124 14.439 32.821c15.878 9.167 47.227 22 103.652-60.784" stroke="#DE5846" stroke-width="2" stroke-linecap="round"/><path d="M222.25 127.762a225.006 225.006 0 0 0 11.547-21.188c13.979-28.878 27.265-68.438 13.038-76.652" stroke="#5452CE" stroke-width="2" stroke-linecap="round"/><path d="M135.398 216.654s43.176-1.621 95.846-92.849c10.123-17.534 39.837-79.883 15.589-93.882-6.619-3.821-15.499-.73-25.116 7.074m-63.762 121.164c4.305-27.215 16.799-57.24 31.58-81.56" stroke="#5452CE" stroke-width="2" stroke-linecap="round"/><path d="M163.078 207.124s37.7 60.322 106.189-42.565c29.33-44.058 27.812-81.138 19.828-85.746" stroke="#5452CE" stroke-width="2" stroke-linecap="round"/><path d="M207.719 227.798s31.7-3.3 67.535-60.43c29.649-47.264 26.386-81.322 14.4-88.24-21.854-12.614-56.942 39.75-55.611 70.474" stroke="#5452CE" stroke-width="2" stroke-linecap="round"/><path d="M183.719 189.359c.677 6.099 11.757 11.94 27.496 2.342m56.917-94.576c-6.093 18.102-12.761 34.101-18.917 46.477" stroke="#5452CE" stroke-width="2" stroke-linecap="round"/><path d="M63.698 88.035c-14.89-8.596-33.048-5.019-40.56 7.99-7.51 13.01-1.53 30.525 13.36 39.123 14.89 8.598 33.048 5.018 40.56-7.991 7.51-13.009 1.527-30.528-13.36-39.122z" stroke="#DE5846" stroke-width="2" stroke-linecap="round"/><path d="M62.365 89.729c-13.397-7.735-29.734-4.516-36.493 7.19-6.758 11.705-1.377 27.464 12.02 35.198 13.396 7.735 29.734 4.516 36.492-7.19 6.759-11.705 1.376-27.464-12.02-35.198z" stroke="#8CC69D" stroke-width="2" stroke-linecap="round"/><path d="M41.065 129.073c.596-2.286 5.933-24.856 5.933-24.856.084-.268.135-.417.575-.197 0 0 23.432 13.402 23.847 13.571.262.106.324.006.017-.253-1.989-1.666-27.957-21.639-27.957-21.639-.17-.148-.274-.072-.295.097 0 0-2.423 32.216-2.395 33.25.005.172.066.28.136.261.049-.013.1-.085.139-.234zm6.336-9.203l12.54-4.322a.15.15 0 0 0 .063-.22.148.148 0 0 0-.067-.054c-.12-.074-3.153-1.887-3.29-1.964a.481.481 0 0 0-.398-.034c-.122.042-8.012 2.687-8.138 2.731a.515.515 0 0 0-.286.361c-.03.157-.489 3.086-.53 3.259-.043.174.007.269.097.245l.01-.002z" fill="#FFE0DA"/><path d="M48.015 113.075c-.138.048-.21.02-.137-.288.073-.309.966-4.209.966-4.416 0-.208.168-.35.488-.165.32.185 4.087 2.326 4.29 2.44.203.113.408.358.23.419l-5.837 2.01z" fill="#FFE0DA"/><path d="M41.065 129.073c.596-2.286 5.933-24.856 5.933-24.856.084-.268.135-.417.575-.197 0 0 23.432 13.402 23.847 13.571.262.106.324.006.017-.253-1.989-1.666-27.957-21.639-27.957-21.639-.17-.148-.274-.072-.295.097 0 0-2.423 32.216-2.395 33.25.005.172.066.28.136.261.049-.013.1-.085.139-.234zm6.336-9.203l12.54-4.322a.15.15 0 0 0 .063-.22.148.148 0 0 0-.067-.054c-.12-.074-3.153-1.887-3.29-1.964a.481.481 0 0 0-.398-.034c-.122.042-8.012 2.687-8.138 2.731a.515.515 0 0 0-.286.361c-.03.157-.489 3.086-.53 3.259-.043.174.007.269.097.245l.01-.002z" stroke="#DE5846" stroke-width="2"/><path d="M48.015 113.075c-.138.048-.21.02-.137-.288.073-.309.966-4.209.966-4.416 0-.208.168-.35.488-.165.32.185 4.087 2.326 4.29 2.44.203.113.408.358.23.419l-5.837 2.01z" stroke="#DE5846" stroke-width="2"/><path d="M22.963 96.277s-3.06 4.9-3.561 5.765a25.026 25.026 0 0 0-2.622 17.977m2.73 7.495a34.086 34.086 0 0 0 13.25 13.648m3.804 1.906c14.054 6.025 29.874 2.022 36.757-9.895a17.4 17.4 0 0 0 1.287-2.532" stroke="#DE5846" stroke-width="2" stroke-linecap="round"/><path d="M204.699 180.463c-4.53-2.865 3.74-13.421 18.474-23.578 14.733-10.158 30.349-16.069 34.88-13.205 4.531 2.865-3.74 13.421-18.474 23.579-14.733 10.157-30.349 16.066-34.88 13.204z" stroke="#5452CE" stroke-width="2" stroke-linecap="round"/><path d="M255.485 147.043c-1.321 4.34-8.069 11.37-17.982 18.205-11.226 7.739-23.006 12.812-29.144 12.87" stroke="#8CC69D" stroke-width="2" stroke-linecap="round"/><path d="M204.246 180.122s7.358 7.722 9.193 8.904c1.665 1.072 4.811.894 8.862-.294m7.299-2.789a107.44 107.44 0 0 0 16.014-9.227m4.208-3.051c9.172-7.004 14.755-13.777 14.422-17.351-.075-.807-5.217-11.574-5.217-11.574M192.87 37.001c10.429-6.094 23.2-3.65 28.526 5.465 5.325 9.114 1.188 21.44-9.242 27.535-9.243 5.402-20.327 4.095-26.435-2.618" stroke="#5452CE" stroke-width="2" stroke-linecap="round"/><path d="M186.02 63.115c4.549 7.785 15.46 9.875 24.371 4.669 8.91-5.207 12.444-15.74 7.894-23.525-4.549-7.785-15.461-9.875-24.371-4.669a21.48 21.48 0 0 0-2.196 1.471" stroke="#8CC69D" stroke-width="2" stroke-linecap="round"/><path d="M192.281 30.824c9.855-4.284 21.207-1.586 26.086 6.763.73 1.246 2.064 3.376 2.064 3.376" stroke="#5452CE" stroke-width="2" stroke-linecap="round"/><path d="M249.468 223.17c-8.923 6.092-18.4 10.591-28.044 13.48m24.41-18.135s-33.052 33.332-81.881 14.493" stroke="#8CC69D" stroke-width="2" stroke-linecap="round"/><path d="M245.761 218.544l-1.789-2.336a1.275 1.275 0 0 1-.165-1.257 1.276 1.276 0 0 1 1.007-.772l11.436-1.498a1.27 1.27 0 0 1 1.336 1.743l-4.423 10.652a1.263 1.263 0 0 1-1.007.771 1.268 1.268 0 0 1-1.171-.486l-1.647-2.15M116.782 40.297c5.872-7.97 12.671-14.894 20.071-20.62m-15.637 22.965S139.893 4.705 186.91 1.87" stroke="#8CC69D" stroke-width="2" stroke-linecap="round"/><path d="M121.269 42.587l2.192 1.182a.945.945 0 0 1 .499.923c-.014.192-.08.382-.192.551a1.31 1.31 0 0 1-.446.414l-9.325 5.284c-.18.101-.38.159-.579.166-.2.007-.392-.036-.558-.126a.946.946 0 0 1-.499-.922l.732-9.915c.014-.192.081-.382.193-.551a1.31 1.31 0 0 1 1.025-.58c.2-.008.392.035.558.124l2.019 1.088" stroke="#8CC69D" stroke-width="2" stroke-linecap="round"/><path d="M338 33v2h-7v7h-2v-7h-7v-2h7v-7h2v7h7zm0 22v2h-7v7h-2v-7h-7v-2h7v-7h2v7h7zm-22-22v2h-7v7h-2v-7h-7v-2h7v-7h2v7h7zm0 22v2h-7v7h-2v-7h-7v-2h7v-7h2v7h7zm0 22v2h-7v7h-2v-7h-7v-2h7v-7h2v7h7zm-22-44v2h-7v7h-2v-7h-7v-2h7v-7h2v7h7zm-22 0v2h-7v7h-2v-7h-7v-2h7v-7h2v7h7zm22 22v2h-7v7h-2v-7h-7v-2h7v-7h2v7h7zm0-44v2h-7v7h-2v-7h-7v-2h7V4h2v7h7zM101 202v2h-7v7h-2v-7h-7v-2h7v-7h2v7h7zm-22-22v2h-7v7h-2v-7h-7v-2h7v-7h2v7h7zm0 22v2h-7v7h-2v-7h-7v-2h7v-7h2v7h7zm0 22v2h-7v7h-2v-7h-7v-2h7v-7h2v7h7zm-22-44v2h-7v7h-2v-7h-7v-2h7v-7h2v7h7zm-22 0v2h-7v7h-2v-7h-7v-2h7v-7h2v7h7zm22 22v2h-7v7h-2v-7h-7v-2h7v-7h2v7h7zm0-44v2h-7v7h-2v-7h-7v-2h7v-7h2v7h7z" fill="#8CC69D"/></svg>