<svg id="success-dark-green" xmlns="http://www.w3.org/2000/svg" viewBox="0 0 207 106" xml:space="preserve"><path fill="none" stroke="#3C4249" stroke-width="2" stroke-linecap="round" d="M146.51 53.057c0 23.748-19.252 43-43 43a42.94 42.94 0 0 1-14-2.33m55.831-50.67a42.667 42.667 0 0 0-1.907-6m-4.24-8c-7.724-11.462-20.824-19-35.684-19-23.749 0-43 19.251-43 43 0 8.46 2.443 16.348 6.661 23M80.51 89.395a43.206 43.206 0 0 1-8.285-6.838"/><circle transform="rotate(-83.735 103.01 53.556)" fill="none" stroke="#289548" stroke-width="2" cx="103.01" cy="53.557" r="31.5"/><circle fill="#26372B" cx="102.994" cy="53.5" r="27.5"/><path fill="none" stroke="#289548" stroke-width="2" stroke-linecap="round" stroke-linejoin="round" d="M111.51 46.666l3.687-3.61 5.313 5.205-16.5 16.147-4.75 4.649-2.043-2m9.484-15.684l-7.441 7.285-7.437-7.285-5.313 5.202 5.089 4.982m3.41 3.34l-1.368-1.34"/><path fill="#3C4249" d="M30.062 17.003h2v-7h7v-2h-7v-7h-2v7h-7v2h7v7zm43 88h2v-7h7v-2h-7v-7h-2v7h-7v2h7v7zm-66.002-.002h2v-7h7v-2h-7v-7h-2v7h-7v2h7v7zm22 0h2v-7h7v-2h-7v-7h-2v7h-7v2h7v7zm0-22h2v-7h7v-2h-7v-7h-2v7h-7v2h7v7zm22.5 0h2v-7h7v-2h-7v-7h-2v7h-7v2h7v7zm0-66h2v-7h7v-2h-7v-7h-2v7h-7v2h7v7zm0 22h2v-7h7v-2h-7v-7h-2v7h-7v2h7v7zm21.5-22h2v-7h7v-2h-7v-7h-2v7h-7v2h7v7zm103.883-.003h-2v-7h-7v-2h7v-7h2v7h7v2h-7v7zm-43.001 88h-2v-7h-7v-2h7v-7h2v7h7v2h-7v7zm65.999 0h-2v-7h-7v-2h7v-7h2v7h7v2h-7v7zm-22 0h-2v-7h-7v-2h7v-7h2v7h7v2h-7v7zm0-22h-2v-7h-7v-2h7v-7h2v7h7v2h-7v7zm-22.5 0h-2v-7h-7v-2h7v-7h2v7h7v2h-7v7zm0-66h-2v-7h-7v-2h7v-7h2v7h7v2h-7v7zm0 22h-2v-7h-7v-2h7v-7h2v7h7v2h-7v7zm-21.5-22h-2v-7h-7v-2h7v-7h2v7h7v2h-7v7z"/></svg>