<svg id="success-light-navy" xmlns="http://www.w3.org/2000/svg" viewBox="0 0 207 106" xml:space="preserve"><path fill="none" stroke="#DBDEE5" stroke-width="2" stroke-linecap="round" d="M146.516 53.426c0 23.748-19.252 43-43 43-4.902 0-9.612-.82-14-2.33m55.831-50.67a42.662 42.662 0 0 0-1.907-6m-4.24-8c-7.724-11.462-20.824-19-35.684-19-23.749 0-43 19.252-43 43 0 8.46 2.442 16.348 6.661 23m13.339 13.338a43.21 43.21 0 0 1-8.285-6.838"/><circle fill="none" stroke="#235B95" stroke-width="2" cx="103.016" cy="53.926" r="31.5"/><circle fill="#EDF7F0" cx="103" cy="53.867" r="27.5"/><path fill="none" stroke="#235B95" stroke-width="2" stroke-linecap="round" stroke-linejoin="round" d="M111.516 47.035l3.687-3.61 5.313 5.205-16.5 16.147-4.75 4.649-2.044-2m9.485-15.684l-7.442 7.285-7.437-7.285-5.312 5.202 5.089 4.982m3.41 3.34l-1.368-1.34"/><path fill="#DBDEE5" d="M30.06 17.371h2v-7h7v-2h-7v-7h-2v7h-7v2h7v7zm43 88h2v-7h7v-2h-7v-7h-2v7h-7v2h7v7zm-66.001-.002h2v-7h7v-2h-7v-7h-2v7h-7v2h7v7zm22 0h2v-7h7v-2h-7v-7h-2v7h-7v2h7v7zm0-21.999h2v-7h7v-2h-7v-7h-2v7h-7v2h7v7zm22.5 0h2v-7h7v-2h-7v-7h-2v7h-7v2h7v7zm-.001-66h2v-7h7v-2h-7v-7h-2v7h-7v2h7v7zm.001 22h2v-7h7v-2h-7v-7h-2v7h-7v2h7v7zm21.499-22h2v-7h7v-2h-7v-7h-2v7h-7v2h7v7zm103.882-.003h-2v-7h-7v-2h7v-7h2v7h7v2h-7v7zm-43.001 88h-2v-7h-7v-2h7v-7h2v7h7v2h-7v7zm65.998 0h-2v-7h-7v-2h7v-7h2v7h7v2h-7v7zm-22 0h-2v-7h-7v-2h7v-7h2v7h7v2h-7v7zm0-22h-2v-7h-7v-2h7v-7h2v7h7v2h-7v7zm-22.5 0h-2v-7h-7v-2h7v-7h2v7h7v2h-7v7zm.001-66h-2v-7h-7v-2h7v-7h2v7h7v2h-7v7zm0 22h-2v-7h-7v-2h7v-7h2v7h7v2h-7v7zm-21.5-22h-2v-7h-7v-2h7v-7h2v7h7v2h-7v7z"/></svg>