<svg viewBox="0 0 208 105" fill="none" xmlns="http://www.w3.org/2000/svg"><path d="M132.688 68.641l11.586-11.586a6.048 6.048 0 0 0 0-8.553L108.992 13.22a6.048 6.048 0 0 0-8.553 0L65.157 48.502a6.048 6.048 0 0 0 0 8.553l35.282 35.282a6.048 6.048 0 0 0 8.553 0l12.356-12.356m6.804-6.803l-2.683 2.683M90.671 42.508h27.501" stroke="#DE5846" stroke-width="2" stroke-linecap="round" stroke-linejoin="round"/><path d="M107.368 38.58h-5.893a1.964 1.964 0 0 0-1.964 1.964v1.965h9.821v-1.965a1.966 1.966 0 0 0-1.964-1.964z" stroke="#DE5846" stroke-width="2" stroke-linecap="round" stroke-linejoin="round"/><path d="M113.411 64.277a1.963 1.963 0 0 1-1.958 1.802H97.39a1.964 1.964 0 0 1-1.957-1.802l-1.815-21.77h21.607l-1.814 21.77z" fill="#391919" stroke="#DE5846" stroke-width="2" stroke-linecap="round" stroke-linejoin="round"/><path d="M101.475 59.204v-9.821m5.893 9.821v-9.821" stroke="#DE5846" stroke-width="2" stroke-linecap="round" stroke-linejoin="round"/><path d="M90.73 16.515l7.57-7.57a9.072 9.072 0 0 1 12.831 0l37.42 37.42a9.072 9.072 0 0 1 0 12.83l-37.42 37.42a9.073 9.073 0 0 1-12.83 0l-37.42-37.42a9.072 9.072 0 0 1 0-12.83l13.595-13.596m13.23-13.23l-9.828 9.828" stroke="#3C4249" stroke-width="2" stroke-linecap="round" stroke-linejoin="round"/><path d="M30.38 16.036h2v-7h7v-2h-7v-7h-2v7h-7v2h7v7zm43 88h2v-7h7v-2h-7v-7h-2v7h-7v2h7v7zm-66-.002h2v-7h7v-2h-7v-7h-2v7h-7v2h7v7zm22 0h2v-7h7v-2h-7v-7h-2v7h-7v2h7v7zm0-22h2v-7h7v-2h-7v-7h-2v7h-7v2h7v7zm22.5 0h2v-7h7v-2h-7v-7h-2v7h-7v2h7v7zm0-66h2v-7h7v-2h-7v-7h-2v7h-7v2h7v7zm0 22h2v-7h7v-2h-7v-7h-2v7h-7v2h7v7zm21.5-22h2v-7h7v-2h-7v-7h-2v7h-7v2h7v7zm103.882-.003h-2v-7h-7v-2h7v-7h2v7h7v2h-7v7zm-43.001 88h-2v-7h-7v-2h7v-7h2v7h7v2h-7v7zm65.999 0h-2v-7h-7v-2h7v-7h2v7h7v2h-7v7zm-22 0h-2v-7h-7v-2h7v-7h2v7h7v2h-7v7zm0-22h-2v-7h-7v-2h7v-7h2v7h7v2h-7v7zm-22.5 0h-2v-7h-7v-2h7v-7h2v7h7v2h-7v7zm0-66h-2v-7h-7v-2h7v-7h2v7h7v2h-7v7zm0 22h-2v-7h-7v-2h7v-7h2v7h7v2h-7v7zm-21.5-22h-2v-7h-7v-2h7v-7h2v7h7v2h-7v7z" fill="#3C4249"/></svg>