<svg viewBox="0 0 208 105" fill="none" xmlns="http://www.w3.org/2000/svg"><path d="M133.017 68.66l11.586-11.587a6.048 6.048 0 0 0 0-8.554l-35.282-35.281a6.048 6.048 0 0 0-8.553 0L65.486 48.519a6.048 6.048 0 0 0 0 8.554l35.282 35.282a6.048 6.048 0 0 0 8.553 0l12.355-12.356m6.805-6.804l-2.684 2.683M91 42.527h27.501" stroke="#DE5846" stroke-width="2" stroke-linecap="round" stroke-linejoin="round"/><path d="M107.697 38.598h-5.893a1.964 1.964 0 0 0-1.965 1.964v1.964h9.822v-1.964a1.962 1.962 0 0 0-1.964-1.964z" stroke="#DE5846" stroke-width="2" stroke-linecap="round" stroke-linejoin="round"/><path d="M113.74 64.297a1.966 1.966 0 0 1-1.957 1.802H97.719a1.964 1.964 0 0 1-1.957-1.802l-1.815-21.77h21.607l-1.814 21.77z" fill="#FFF5F2" stroke="#DE5846" stroke-width="2" stroke-linecap="round" stroke-linejoin="round"/><path d="M101.804 59.224v-9.822m5.893 9.822v-9.822" stroke="#DE5846" stroke-width="2" stroke-linecap="round" stroke-linejoin="round"/><path d="M91.058 16.533l7.571-7.571a9.072 9.072 0 0 1 12.83 0l37.421 37.42a9.074 9.074 0 0 1 0 12.83l-37.421 37.42a9.071 9.071 0 0 1-12.83 0l-37.42-37.42a9.072 9.072 0 0 1 0-12.83l13.595-13.595m13.23-13.23l-9.828 9.828" stroke="#DBDEE5" stroke-width="2" stroke-linecap="round" stroke-linejoin="round"/><path d="M30.546 16.545h2v-7h7v-2h-7v-7h-2v7h-7v2h7v7zm43 88h2v-7h7v-2h-7v-7h-2v7h-7v2h7v7zm-66.002-.002h2v-7h7v-2h-7v-7h-2v7h-7v2h7v7zm22 0h2v-7h7v-2h-7v-7h-2v7h-7v2h7v7zm0-22h2v-7h7v-2h-7v-7h-2v7h-7v2h7v7zm22.5 0h2v-7h7v-2h-7v-7h-2v7h-7v2h7v7zm0-66h2v-7h7v-2h-7v-7h-2v7h-7v2h7v7zm0 22h2v-7h7v-2h-7v-7h-2v7h-7v2h7v7zm21.5-22h2v-7h7v-2h-7v-7h-2v7h-7v2h7v7zm103.883-.003h-2v-7h-7v-2h7v-7h2v7h7v2h-7v7zm-43.002 87.999h-2v-7h-7v-2h7v-7h2v7h7v2h-7v7zm65.999 0h-2v-7h-7v-2h7v-7h2v7h7v2h-7v7zm-22 0h-2v-7h-7v-2h7v-7h2v7h7v2h-7v7zm0-21.999h-2v-7h-7v-2h7v-7h2v7h7v2h-7v7zm-22.5 0h-2v-7h-7v-2h7v-7h2v7h7v2h-7v7zm.001-66h-2v-7h-7v-2h7v-7h2v7h7v2h-7v7zm-.001 22h-2v-7h-7v-2h7v-7h2v7h7v2h-7v7zm-21.5-22h-2v-7h-7v-2h7v-7h2v7h7v2h-7v7z" fill="#DBDEE5"/></svg>