<svg width="208" height="106" viewBox="0 0 208 106" fill="none" xmlns="http://www.w3.org/2000/svg">
<path d="M133.032 68.12L144.619 56.5336C146.98 54.1717 146.98 50.3423 144.619 47.9804L109.337 12.6985C106.975 10.3366 103.145 10.3366 100.783 12.6985L65.5015 47.9804C63.1396 50.3423 63.1396 54.1717 65.5015 56.5336L100.783 91.8155C103.145 94.1774 106.975 94.1774 109.337 91.8155L121.692 79.46M128.496 72.656L125.813 75.3392" stroke="#DE5846" stroke-width="2" stroke-linecap="round" stroke-linejoin="round"/>
<path d="M91.0161 41.9883H118.516" stroke="#DE5846" stroke-width="2" stroke-linecap="round" stroke-linejoin="round"/>
<path d="M107.712 38.0586H101.819C101.298 38.0586 100.799 38.2655 100.43 38.6339C100.062 39.0023 99.855 39.5019 99.855 40.0229V41.9872H109.676V40.0229C109.676 39.5019 109.47 39.0023 109.101 38.6339C108.733 38.2655 108.233 38.0586 107.712 38.0586Z" stroke="#DE5846" stroke-width="2" stroke-linecap="round" stroke-linejoin="round"/>
<path d="M113.756 63.7579C113.715 64.2491 113.491 64.707 113.129 65.0408C112.766 65.3746 112.291 65.5599 111.798 65.5598H97.7352C97.2423 65.5599 96.7674 65.3746 96.4047 65.0408C96.0421 64.707 95.8182 64.2491 95.7774 63.7579L93.9624 41.9883H115.57L113.756 63.7579Z" fill="#5B1B1B" stroke="#DE5846" stroke-width="2" stroke-linecap="round" stroke-linejoin="round"/>
<path d="M101.82 58.6848V48.8633" stroke="#DE5846" stroke-width="2" stroke-linecap="round" stroke-linejoin="round"/>
<path d="M107.712 58.6848V48.8633" stroke="#DE5846" stroke-width="2" stroke-linecap="round" stroke-linejoin="round"/>
<path d="M91.074 15.9939L98.6452 8.42271C102.188 4.87986 107.932 4.87986 111.475 8.42271L148.895 45.8429C152.438 49.3858 152.438 55.1299 148.895 58.6727L111.475 96.0929C107.932 99.6358 102.188 99.6358 98.6452 96.0929L61.225 58.6727C57.6821 55.1299 57.6821 49.3858 61.225 45.8429L74.82 32.2479M88.05 19.0179L78.222 28.8459" stroke="#283C64" stroke-width="2" stroke-linecap="round" stroke-linejoin="round"/>
<path d="M30.5614 16.0058H32.5614V9.00578L39.5614 9.00578V7.00578L32.5614 7.00578V0.00577562L30.5614 0.00577545V7.00578L23.5614 7.00577V9.00577L30.5614 9.00578L30.5614 16.0058Z" fill="#283C64"/>
<path d="M73.5614 104.006H75.5614V97.0058H82.5614L82.5614 95.0058H75.5614V88.0058H73.5614V95.0058H66.5614V97.0058H73.5614V104.006Z" fill="#283C64"/>
<path d="M7.56006 104.004H9.56007L9.56007 97.004H16.5601V95.004H9.56007L9.56007 88.004H7.56007L7.56007 95.004H0.560059L0.560059 97.004H7.56007L7.56006 104.004Z" fill="#283C64"/>
<path d="M29.5601 104.004L31.5601 104.004L31.5601 97.004H38.5601V95.004H31.5601L31.5601 88.004L29.5601 88.004L29.5601 95.004H22.5601V97.004H29.5601L29.5601 104.004Z" fill="#283C64"/>
<path d="M29.5601 82.0041L31.5601 82.0041L31.5601 75.0041H38.5601V73.0041H31.5601L31.5601 66.0041L29.5601 66.0041L29.5601 73.0041H22.5601V75.0041H29.5601L29.5601 82.0041Z" fill="#283C64"/>
<path d="M52.0601 82.0041H54.0601V75.0041H61.0601V73.0041H54.0601V66.0041H52.0601V73.0041H45.0601V75.0041H52.0601V82.0041Z" fill="#283C64"/>
<path d="M52.0598 16.0039H54.0598V9.00391H61.0598V7.00391L54.0598 7.00391V0.00390642L52.0598 0.00390625V7.00391L45.0598 7.00391V9.00391H52.0598V16.0039Z" fill="#283C64"/>
<path d="M52.06 38.0039H54.06V31.0039L61.06 31.0039V29.0039H54.06V22.0039H52.06V29.0039L45.06 29.0039V31.0039L52.06 31.0039V38.0039Z" fill="#283C64"/>
<path d="M73.56 16.0039H75.56L75.56 9.00393L82.56 9.00393V7.00393L75.56 7.00393V0.00393498L73.56 0.00393463V7.00393L66.56 7.00393V9.00393L73.56 9.00393V16.0039Z" fill="#283C64"/>
<path d="M177.442 16.0001H175.442V9.00013L168.442 9.00013V7.00013L175.442 7.00013V0.00013123L177.442 0.000131405V7.00013L184.442 7.00013V9.00013L177.442 9.00013V16.0001Z" fill="#283C64"/>
<path d="M134.441 104H132.441L132.441 97.0001H125.441L125.441 95.0001H132.441L132.441 88.0001H134.441L134.441 95.0001H141.441V97.0001H134.441L134.441 104Z" fill="#283C64"/>
<path d="M200.44 104H198.44V97.0001H191.44V95.0001H198.44V88.0001H200.44V95.0001H207.44V97.0001H200.44V104Z" fill="#283C64"/>
<path d="M178.44 104H176.44V97.0001H169.44V95.0001H176.44V88.0001H178.44V95.0001H185.44V97.0001H178.44V104Z" fill="#283C64"/>
<path d="M178.44 82.0002H176.44V75.0002H169.44V73.0002H176.44V66.0002H178.44V73.0002H185.44V75.0002H178.44V82.0002Z" fill="#283C64"/>
<path d="M155.94 82.0002H153.94V75.0002H146.94V73.0002H153.94V66.0002H155.94V73.0002H162.94V75.0002H155.94V82.0002Z" fill="#283C64"/>
<path d="M155.94 16H153.94V9L146.94 9V7L153.94 7V0L155.94 1.78814e-07V7L162.94 7V9L155.94 9V16Z" fill="#283C64"/>
<path d="M155.94 38H153.94V31H146.94V29L153.94 29V22H155.94V29H162.94V31H155.94V38Z" fill="#283C64"/>
<path d="M134.44 16H132.44V9.00002L125.44 9.00002V7.00002L132.44 7.00002V2.47955e-05H134.44V7.00002H141.44V9.00002H134.44V16Z" fill="#283C64"/>
</svg>
