<svg width="207" height="104" viewBox="0 0 207 104" fill="none" xmlns="http://www.w3.org/2000/svg">
	<path d="M132.472 68.1207L144.059 56.5343C146.42 54.1724 146.42 50.343 144.059 47.9811L108.777 12.6992C106.415 10.3373 102.585 10.3373 100.223 12.6992L64.9415 47.9811C62.5796 50.343 62.5796 54.1724 64.9415 56.5343L100.223 91.8162C102.585 94.1781 106.415 94.1781 108.777 91.8162L121.132 79.4608M127.936 72.6567L125.253 75.34" stroke="#FC9F0F" stroke-width="2" stroke-linecap="round" stroke-linejoin="round"/>
	<path d="M90.514 15.9939L98.0851 8.42271C101.628 4.87986 107.372 4.87986 110.915 8.42271L148.335 45.8429C151.878 49.3858 151.878 55.1299 148.335 58.6727L110.915 96.0929C107.372 99.6358 101.628 99.6358 98.0851 96.0929L60.6649 58.6727C57.122 55.1299 57.122 49.3858 60.6649 45.8429L74.2599 32.2479M87.4899 19.0179L77.6619 28.8459" stroke="#FC9F0F" stroke-width="2" stroke-linecap="round" stroke-linejoin="round"/>
	<path d="M105.118 61.4102C107.117 61.4102 108.737 63.0299 108.737 65.0283C108.737 67.0267 107.117 68.6465 105.118 68.6465C103.12 68.6463 101.5 67.0266 101.5 65.0283C101.5 63.03 103.12 61.4103 105.118 61.4102ZM105.118 36.0078C107.116 36.0078 108.737 37.6277 108.737 39.626V53.4814C108.737 55.4799 107.117 57.1006 105.118 57.1006C103.12 57.1004 101.5 55.4798 101.5 53.4814V39.626C101.5 37.6278 103.12 36.008 105.118 36.0078Z" fill="#171F34" stroke="#E8EBF6" stroke-width="2"/>
	<path d="M30.0014 16.0048H32.0014V9.0048L39.0014 9.0048V7.0048L32.0014 7.0048V0.00479906L30.0014 0.00479889V7.0048L23.0014 7.0048V9.0048L30.0014 9.0048L30.0014 16.0048Z" fill="#283C64"/>
	<path d="M73.0014 104.005H75.0014V97.0048H82.0014L82.0014 95.0048H75.0014V88.0048H73.0014V95.0048H66.0014V97.0048H73.0014V104.005Z" fill="#283C64"/>
	<path d="M7.00001 104.003H9.00001L9.00001 97.0031H16V95.0031H9.00001L9.00001 88.0031H7.00001L7.00001 95.0031H3.4969e-07L0 97.0031H7.00001L7.00001 104.003Z" fill="#283C64"/>
	<path d="M29 104.003L31 104.003L31 97.0031H38.0001V95.0031H31L31 88.0031L29 88.0031L29 95.0031H22V97.0031H29L29 104.003Z" fill="#283C64"/>
	<path d="M29 82.0031L31 82.0031L31 75.0031H38V73.0031H31L31 66.0031L29 66.0031L29 73.0031H22V75.0031H29L29 82.0031Z" fill="#283C64"/>
	<path d="M51.5001 82.0031H53.5001V75.0031H60.5001V73.0031H53.5001V66.0031H51.5001V73.0031H44.5001V75.0031H51.5001V82.0031Z" fill="#283C64"/>
	<path d="M51.4998 16.0029H53.4998V9.00293H60.4998V7.00293L53.4998 7.00293V0.00292986L51.4998 0.00292969V7.00293L44.4997 7.00293V9.00293H51.4998V16.0029Z" fill="#283C64"/>
	<path d="M51.4999 38.003H53.4999V31.003L60.4999 31.003V29.003H53.4999V22.003H51.4999V29.003L44.4999 29.003V31.003L51.4999 31.003V38.003Z" fill="#283C64"/>
	<path d="M73 16.003H75L75 9.00296L82 9.00296V7.00296L75 7.00296V0.00295841L73 0.00295806V7.00296L66 7.00296V9.00296L73 9.00296V16.003Z" fill="#283C64"/>
	<path d="M30.0014 16.0038H32.0014V9.00382L39.0014 9.00382V7.00382L32.0014 7.00382V0.0038225L30.0014 0.00382232V7.00382L23.0014 7.00382V9.00382L30.0014 9.00382L30.0014 16.0038Z" fill="#283C64"/>
	<path d="M73.0014 104.004H75.0014V97.0038H82.0014L82.0014 95.0038H75.0014V88.0038H73.0014V95.0038H66.0014V97.0038H73.0014V104.004Z" fill="#283C64"/>
	<path d="M7.00001 104.002H9.00001L9.00001 97.0021H16V95.0021H9.00001L9.00001 88.0021H7.00001L7.00001 95.0021H3.4969e-07L0 97.0021H7.00001L7.00001 104.002Z" fill="#283C64"/>
	<path d="M29 104.002L31 104.002L31 97.0021H38.0001V95.0021H31L31 88.0021L29 88.0021L29 95.0021H22V97.0021H29L29 104.002Z" fill="#283C64"/>
	<path d="M29 82.0021L31 82.0021L31 75.0021H38V73.0021H31L31 66.0021L29 66.0021L29 73.0021H22V75.0021H29L29 82.0021Z" fill="#283C64"/>
	<path d="M51.5001 82.0021H53.5001V75.0021H60.5001V73.0021H53.5001V66.0021H51.5001V73.0021H44.5001V75.0021H51.5001V82.0021Z" fill="#283C64"/>
	<path d="M51.4998 16.002H53.4998V9.00195H60.4998V7.00195L53.4998 7.00195V0.0019533L51.4998 0.00195312V7.00195L44.4997 7.00195V9.00195H51.4998V16.002Z" fill="#283C64"/>
	<path d="M51.4999 38.002H53.4999V31.002L60.4999 31.002V29.002H53.4999V22.002H51.4999V29.002L44.4999 29.002V31.002L51.4999 31.002V38.002Z" fill="#283C64"/>
	<path d="M73 16.002H75L75 9.00198L82 9.00198V7.00198L75 7.00198V0.00198185L73 0.0019815V7.00198L66 7.00198V9.00198L73 9.00198V16.002Z" fill="#283C64"/>
	<path d="M176.883 16.0001H174.883V9.00013L167.883 9.00013V7.00013L174.883 7.00013V0.00013123L176.883 0.000131405V7.00013L183.883 7.00013V9.00013L176.883 9.00013V16.0001Z" fill="#283C64"/>
	<path d="M133.881 104H131.881L131.881 97.0001H124.881L124.881 95.0001H131.881L131.881 88.0001H133.881L133.881 95.0001H140.881V97.0001H133.881L133.881 104Z" fill="#283C64"/>
	<path d="M199.88 104H197.88V97.0001H190.88V95.0001H197.88V88.0001H199.88V95.0001H206.88V97.0001H199.88V104Z" fill="#283C64"/>
	<path d="M177.88 104H175.88V97.0001H168.88V95.0001H175.88V88.0001H177.88V95.0001H184.88V97.0001H177.88V104Z" fill="#283C64"/>
	<path d="M177.88 82.0002H175.88V75.0002H168.88V73.0002H175.88V66.0002H177.88V73.0002H184.88V75.0002H177.88V82.0002Z" fill="#283C64"/>
	<path d="M155.38 82.0002H153.38V75.0002H146.38V73.0002H153.38V66.0002H155.38V73.0002H162.38V75.0002H155.38V82.0002Z" fill="#283C64"/>
	<path d="M155.381 16H153.381V9L146.381 9V7L153.381 7V0L155.381 1.78814e-07V7L162.381 7V9L155.381 9V16Z" fill="#283C64"/>
	<path d="M155.38 38H153.38V31H146.38V29L153.38 29V22H155.38V29H162.38V31H155.38V38Z" fill="#283C64"/>
	<path d="M133.88 16H131.88V9.00002L124.88 9.00002V7.00002L131.88 7.00002V2.47955e-05H133.88V7.00002H140.88V9.00002H133.88V16Z" fill="#283C64"/>
</svg>
