<svg xmlns="http://www.w3.org/2000/svg" viewBox="0 0 207 106" xml:space="preserve"><path fill="none" stroke="#FC9F0F" stroke-width="2" stroke-linecap="round" stroke-linejoin="round" d="M131.5 68.9l11.6-11.6c2.4-2.4 2.4-6.2 0-8.6l-35.3-35.3c-2.4-2.4-6.2-2.4-8.6 0L63.9 48.7c-2.4 2.4-2.4 6.2 0 8.6l35.3 35.3c2.4 2.4 6.2 2.4 8.6 0l12.4-12.4m6.7-6.8l-2.7 2.7"/><path fill="none" stroke="#FC9F0F" stroke-width="2" stroke-linecap="round" stroke-linejoin="round" d="M89.5 16.7l7.6-7.6c3.5-3.5 9.3-3.5 12.8 0l37.4 37.4c3.5 3.5 3.5 9.3 0 12.8l-37.4 37.4c-3.5 3.5-9.3 3.5-12.8 0L59.7 59.4c-3.5-3.5-3.5-9.3 0-12.8L73.3 33m13.2-13.2l-9.8 9.8"/><path fill="#3C4249" stroke="#EEF3F5" stroke-width="2" d="M100.5 40.4c0-2 1.6-3.6 3.6-3.6s3.6 1.6 3.6 3.6v13.9c0 2-1.6 3.6-3.6 3.6s-3.6-1.6-3.6-3.6V40.4zm0 25.4c0-2 1.6-3.6 3.6-3.6s3.6 1.6 3.6 3.6-1.6 3.6-3.6 3.6-3.6-1.6-3.6-3.6z"/><path fill="#3C4249" d="M30.1 16.5h2v-7h7v-2h-7v-7h-2v7h-7v2h7v7zm43 88h2v-7h7v-2h-7v-7h-2v7h-7v2h7v7zm-66 0h2v-7h7v-2h-7v-7h-2v7h-7v2h7v7zm22 0h2v-7h7v-2h-7v-7h-2v7h-7v2h7v7zm0-22h2v-7h7v-2h-7v-7h-2v7h-7v2h7v7zm22.5 0h2v-7h7v-2h-7v-7h-2v7h-7v2h7v7zm0-66h2v-7h7v-2h-7v-7h-2v7h-7v2h7v7zm0 22h2v-7h7v-2h-7v-7h-2v7h-7v2h7v7zm21.5-22h2v-7h7v-2h-7v-7h-2v7h-7v2h7v7zm103.8 0h-2v-7h-7v-2h7v-7h2v7h7v2h-7v7zm-43 88h-2v-7h-7v-2h7v-7h2v7h7v2h-7v7zm66 0h-2v-7h-7v-2h7v-7h2v7h7v2h-7v7zm-22 0h-2v-7h-7v-2h7v-7h2v7h7v2h-7v7zm0-22h-2v-7h-7v-2h7v-7h2v7h7v2h-7v7zm-22.5 0h-2v-7h-7v-2h7v-7h2v7h7v2h-7v7zm0-66h-2v-7h-7v-2h7v-7h2v7h7v2h-7v7zm0 22h-2v-7h-7v-2h7v-7h2v7h7v2h-7v7zm-21.5-22h-2v-7h-7v-2h7v-7h2v7h7v2h-7v7z"/></svg>