<svg width="460" height="143" viewBox="0 0 460 143" fill="none" xmlns="http://www.w3.org/2000/svg"><g clip-path="url(#clip0_8144_152541)"><path d="M50.176 129.263A52.497 52.497 0 0 1 2.06 66.373a52.5 52.5 0 0 1 103.716 5.649c.146 1.595 1.488 4.344 7.22 4.344h47c4.123 0 8.065.481 11.865-6.053 3.8-6.534 21.629-32.144 34.907-53.156 13.278-21.012 41.077-20.131 53.283 0 12.206 20.131 28.008 46.545 28.008 46.545" stroke="#3C4249" stroke-width="2" stroke-linecap="round"/><path d="M53.992 133.363a4 4 0 1 0 0-8 4 4 0 0 0 0 8zm-.5-25c17.397 0 31.5-14.103 31.5-31.5s-14.103-31.5-31.5-31.5-31.5 14.103-31.5 31.5 14.103 31.5 31.5 31.5z" stroke="#3C4249" stroke-width="2"/><path d="M79.992 59.363s-17.04 12.613-19 14c-1.959 1.387-6 4.6-6 9v26m19-55s-15.94 11.4-18 13c-2.06 1.6-7.1 2.131-11-1-3.9-3.13-13-11-13-11" stroke="#3C4249" stroke-width="2"/><path d="M409.808 24.465a52.499 52.499 0 1 1-55 61.677c-.232-1.25-.1-8.78-7.818-8.78h-36.998c-8.279 0-9 7.908-6.923 11.605a69.41 69.41 0 0 1 4.082 7.773c10.367 21.376-6.946 44.65-26.478 44.65h-62.075" stroke="#3C4249" stroke-width="2" stroke-linecap="round"/><path d="M405.992 28.363a4 4 0 1 0 0-8 4 4 0 0 0 0 8zm.5 80c17.397 0 31.5-14.103 31.5-31.5s-14.103-31.5-31.5-31.5-31.5 14.103-31.5 31.5 14.103 31.5 31.5 31.5z" stroke="#3C4249" stroke-width="2"/><path d="M379.992 94.363s17.041-12.613 19-14c1.959-1.387 6-4.6 6-9v-26m-19 55.001s15.94-11.4 18-13c2.06-1.6 7.1-2.13 11 1 3.9 3.132 13 11 13 11" stroke="#3C4249" stroke-width="2"/><path d="M214.994 131.363h62c11.755 0 31.2-15.121 18-37-13.2-21.88-36.877-61.063-44-73-7.123-11.937-25.344-14.5-35 0-9.656 14.5-30.623 48.194-45 72-14.377 23.806 6.276 38 16 38h5" stroke="#FC9F0F" stroke-width="2"/><path d="M214.993 120.364h63c7.155 0 14.6-9.67 9-19s-41.917-69.99-45-75c-3.083-5.012-12.417-8.433-18 1-5.583 9.431-40.205 62.91-46 73-5.795 10.09-.2 20 9 20h5" stroke="#FC9F0F" stroke-width="2"/><path d="M215.055 131.363a5.496 5.496 0 0 1-5.5-5.5 5.5 5.5 0 0 1 5.5-5.5m-23.075 0a5.52 5.52 0 0 1 0 11" stroke="#FC9F0F" stroke-width="2"/><path d="M241.102 51.64a8 8 0 0 0-16 0v24a8 8 0 0 0 16 0v-24z" fill="#5B1B1B"/><path d="M240.102 51.64a7 7 0 1 0-14 0v24a7 7 0 1 0 14 0v-24z" stroke="#FC9F0F" stroke-width="2"/><path d="M241.102 95.64a8 8 0 1 0-16 0 8 8 0 0 0 16 0z" fill="#5B1B1B"/><path d="M240.102 95.64a7 7 0 1 0-14 0 7 7 0 0 0 14 0z" stroke="#FC9F0F" stroke-width="2"/><path d="M128.992 1.363h-2v59h2v-59zm-40 0h-2v19h2v-19z" fill="#3C4249"/><path d="M139.992 7.363h-71v2h71v-2zm-2 40h-25v2h25v-2zm191-46h-2v59h2v-59zm40 0h-2v19h2v-19z" fill="#3C4249"/><path d="M386.992 7.363h-71v2h71v-2zm-44 40h-25v2h25v-2zm-232 82h36v-2h-36v2z" fill="#3C4249"/><path d="M126.992 135.363h2v-26h-2v26zm-39-6h10v-2h-10v2z" fill="#3C4249"/><path d="M91.992 133.363h2v-10h-2v10z" fill="#3C4249"/></g><defs><clipPath id="clip0_8144_152541"><path fill="#fff" transform="translate(0 .727)" d="M0 0h459.982v141.662H0z"/></clipPath></defs></svg>