<svg version="1.1" id="warning-light" xmlns="http://www.w3.org/2000/svg" viewBox="0 0 208 105" xml:space="preserve"><style type="text/css">.st0{fill:none;stroke:#fc9f0f;stroke-width:2;stroke-linecap:round;stroke-linejoin:round}.st2{fill:#dbdee5}</style><path class="st0" d="M132 68.4l11.6-11.6c2.4-2.4 2.4-6.2 0-8.6l-35.3-35.3c-2.4-2.4-6.2-2.4-8.6 0L64.4 48.2c-2.4 2.4-2.4 6.2 0 8.6l35.3 35.3c2.4 2.4 6.2 2.4 8.6 0l12.4-12.4m6.7-6.8l-2.7 2.7"/><path class="st0" d="M90 16.2l7.6-7.6c3.5-3.5 9.3-3.5 12.8 0L147.8 46c3.5 3.5 3.5 9.3 0 12.8l-37.4 37.4c-3.5 3.5-9.3 3.5-12.8 0L60.2 58.9c-3.5-3.5-3.5-9.3 0-12.8l13.6-13.6M87 19.3l-9.8 9.8"/><path d="M101 39.9c0-2 1.6-3.6 3.6-3.6s3.6 1.6 3.6 3.6v13.9c0 2-1.6 3.6-3.6 3.6s-3.6-1.6-3.6-3.6V39.9zm0 25.4c0-2 1.6-3.6 3.6-3.6s3.6 1.6 3.6 3.6-1.6 3.6-3.6 3.6-3.6-1.6-3.6-3.6z" fill="#f7fafb" stroke="#212225" stroke-width="2"/><path class="st2" d="M30.6 16.5h2v-7h7v-2h-7v-7h-2v7h-7v2h7v7zm43 88h2v-7h7v-2h-7v-7h-2v7h-7v2h7v7zm-66 0h2v-7h7v-2h-7v-7h-2v7h-7v2h7v7zm22 0h2v-7h7v-2h-7v-7h-2v7h-7v2h7v7zm0-22h2v-7h7v-2h-7v-7h-2v7h-7v2h7v7zm22.5 0h2v-7h7v-2h-7v-7h-2v7h-7v2h7v7zm0-66h2v-7h7v-2h-7v-7h-2v7h-7v2h7v7zm0 22h2v-7h7v-2h-7v-7h-2v7h-7v2h7v7zm21.5-22h2v-7h7v-2h-7v-7h-2v7h-7v2h7v7z"/><path class="st2" d="M30.6 16.5h2v-7h7v-2h-7v-7h-2v7h-7v2h7v7zm43 88h2v-7h7v-2h-7v-7h-2v7h-7v2h7v7zm-66 0h2v-7h7v-2h-7v-7h-2v7h-7v2h7v7zm22 0h2v-7h7v-2h-7v-7h-2v7h-7v2h7v7zm0-22h2v-7h7v-2h-7v-7h-2v7h-7v2h7v7zm22.5 0h2v-7h7v-2h-7v-7h-2v7h-7v2h7v7zm0-66h2v-7h7v-2h-7v-7h-2v7h-7v2h7v7zm0 22h2v-7h7v-2h-7v-7h-2v7h-7v2h7v7zm21.5-22h2v-7h7v-2h-7v-7h-2v7h-7v2h7v7zm103.8 0h-2v-7h-7v-2h7v-7h2v7h7v2h-7v7zm-43 88h-2v-7h-7v-2h7v-7h2v7h7v2h-7v7zm66 0h-2v-7h-7v-2h7v-7h2v7h7v2h-7v7zm-22 0h-2v-7h-7v-2h7v-7h2v7h7v2h-7v7zm0-22h-2v-7h-7v-2h7v-7h2v7h7v2h-7v7zm-22.5 0h-2v-7h-7v-2h7v-7h2v7h7v2h-7v7zm0-66h-2v-7h-7v-2h7v-7h2v7h7v2h-7v7zm0 22h-2v-7h-7v-2h7v-7h2v7h7v2h-7v7zm-21.5-22h-2v-7h-7v-2h7v-7h2v7h7v2h-7v7z"/></svg>