<svg width="460" height="143" viewBox="0 0 460 143" fill="none" xmlns="http://www.w3.org/2000/svg">
<g clip-path="url(#clip0_8144_152589)">
<path d="M50.1758 128.927C40.1605 128.292 30.5372 124.799 22.4456 118.863C14.3541 112.927 8.13342 104.796 4.52045 95.4334C0.907484 86.0709 0.0535855 75.869 2.05994 66.0362C4.0663 56.2034 8.84884 47.1515 15.841 39.953C22.8332 32.7544 31.7421 27.7107 41.5125 25.4193C51.2828 23.1278 61.5052 23.6847 70.9688 27.0239C80.4324 30.3631 88.7408 36.3447 94.9096 44.2602C101.079 52.1757 104.849 61.6934 105.776 71.686C105.922 73.281 107.264 76.03 112.996 76.03H159.996C164.119 76.03 168.061 76.511 171.861 69.977C175.661 63.443 193.49 37.833 206.768 16.821C220.046 -4.19098 247.845 -3.30998 260.051 16.821C272.257 36.952 288.059 63.366 288.059 63.366" stroke="#DBDEE5" stroke-width="2" stroke-linecap="round"/>
<path d="M53.9922 133.027C56.2013 133.027 57.9922 131.236 57.9922 129.027C57.9922 126.818 56.2013 125.027 53.9922 125.027C51.783 125.027 49.9922 126.818 49.9922 129.027C49.9922 131.236 51.783 133.027 53.9922 133.027Z" stroke="#DBDEE5" stroke-width="2"/>
<path d="M53.4922 108.027C70.8892 108.027 84.9922 93.9243 84.9922 76.5273C84.9922 59.1304 70.8892 45.0273 53.4922 45.0273C36.0952 45.0273 21.9922 59.1304 21.9922 76.5273C21.9922 93.9243 36.0952 108.027 53.4922 108.027Z" stroke="#DBDEE5" stroke-width="2"/>
<path d="M79.9922 59.0273C79.9922 59.0273 62.9512 71.6403 60.9922 73.0273C59.0332 74.4143 54.9922 77.6273 54.9922 82.0273V108.027" stroke="#DBDEE5" stroke-width="2"/>
<path d="M73.9922 53.0273C73.9922 53.0273 58.0522 64.4273 55.9922 66.0273C53.9322 67.6273 48.8922 68.1583 44.9922 65.0273C41.0922 61.8963 31.9922 54.0273 31.9922 54.0273" stroke="#DBDEE5" stroke-width="2"/>
<path d="M409.808 24.1289C419.633 24.7528 429.085 28.1268 437.084 33.8656C445.083 39.6045 451.308 47.4769 455.047 56.5842C458.786 65.6915 459.889 75.6667 458.23 85.3708C456.571 95.075 452.216 104.117 445.664 111.465C439.112 118.813 430.625 124.17 421.174 126.925C411.722 129.681 401.686 129.723 392.212 127.047C382.738 124.372 374.206 119.086 367.592 111.793C360.979 104.501 356.548 95.4958 354.808 85.8059C354.576 84.5559 354.708 77.0259 346.99 77.0259H309.992C301.713 77.0259 300.992 84.9339 303.069 88.6309C304.592 91.133 305.956 93.7292 307.151 96.4039C317.518 117.78 300.205 141.054 280.673 141.054H218.598" stroke="#DBDEE5" stroke-width="2" stroke-linecap="round"/>
<path d="M405.992 28.0273C408.201 28.0273 409.992 26.2365 409.992 24.0273C409.992 21.8182 408.201 20.0273 405.992 20.0273C403.783 20.0273 401.992 21.8182 401.992 24.0273C401.992 26.2365 403.783 28.0273 405.992 28.0273Z" stroke="#DBDEE5" stroke-width="2"/>
<path d="M406.492 108.027C423.889 108.027 437.992 93.9243 437.992 76.5273C437.992 59.1304 423.889 45.0273 406.492 45.0273C389.095 45.0273 374.992 59.1304 374.992 76.5273C374.992 93.9243 389.095 108.027 406.492 108.027Z" stroke="#DBDEE5" stroke-width="2"/>
<path d="M379.992 94.0273C379.992 94.0273 397.033 81.4143 398.992 80.0273C400.951 78.6403 404.992 75.4273 404.992 71.0273V45.0273" stroke="#DBDEE5" stroke-width="2"/>
<path d="M385.992 100.029C385.992 100.029 401.932 88.6285 403.992 87.0285C406.052 85.4285 411.092 84.8975 414.992 88.0285C418.892 91.1595 427.992 99.0285 427.992 99.0285" stroke="#DBDEE5" stroke-width="2"/>
<path d="M214.994 131.027H276.994C288.749 131.027 308.194 115.906 294.994 94.0269C281.794 72.1479 258.117 32.9639 250.994 21.0269C243.871 9.0899 225.65 6.52691 215.994 21.0269C206.338 35.5269 185.371 69.2209 170.994 93.0269C156.617 116.833 177.27 131.027 186.994 131.027H191.994" stroke="#FC9F0F" stroke-width="2"/>
<path d="M214.993 120.028H277.993C285.148 120.028 292.593 110.358 286.993 101.028C281.393 91.6976 245.076 31.0386 241.993 26.0276C238.91 21.0166 229.576 17.5956 223.993 27.0276C218.41 36.4596 183.788 89.9376 177.993 100.028C172.198 110.118 177.793 120.028 186.993 120.028H191.993" stroke="#FC9F0F" stroke-width="2"/>
<path d="M215.055 131.027C213.596 131.027 212.197 130.448 211.166 129.416C210.134 128.385 209.555 126.986 209.555 125.527C209.555 124.069 210.134 122.67 211.166 121.638C212.197 120.607 213.596 120.027 215.055 120.027" stroke="#FC9F0F" stroke-width="2"/>
<path d="M191.98 120.027C193.362 120.139 194.651 120.767 195.591 121.786C196.531 122.805 197.053 124.141 197.053 125.527C197.053 126.914 196.531 128.249 195.591 129.268C194.651 130.288 193.362 130.915 191.98 131.027" stroke="#FC9F0F" stroke-width="2"/>
<path d="M241.102 51.3047C241.102 46.8864 237.52 43.3047 233.102 43.3047C228.683 43.3047 225.102 46.8864 225.102 51.3047V75.3047C225.102 79.723 228.683 83.3047 233.102 83.3047C237.52 83.3047 241.102 79.723 241.102 75.3047V51.3047Z" fill="#FFE6B8"/>
<path d="M240.102 51.3047C240.102 47.4387 236.968 44.3047 233.102 44.3047C229.236 44.3047 226.102 47.4387 226.102 51.3047V75.3047C226.102 79.1707 229.236 82.3047 233.102 82.3047C236.968 82.3047 240.102 79.1707 240.102 75.3047V51.3047Z" stroke="#FC9F0F" stroke-width="2"/>
<path d="M241.102 95.3047C241.102 90.8864 237.52 87.3047 233.102 87.3047C228.683 87.3047 225.102 90.8864 225.102 95.3047C225.102 99.723 228.683 103.305 233.102 103.305C237.52 103.305 241.102 99.723 241.102 95.3047Z" fill="#FFE6B8"/>
<path d="M240.102 95.3047C240.102 91.4387 236.968 88.3047 233.102 88.3047C229.236 88.3047 226.102 91.4387 226.102 95.3047C226.102 99.1707 229.236 102.305 233.102 102.305C236.968 102.305 240.102 99.1707 240.102 95.3047Z" stroke="#FC9F0F" stroke-width="2"/>
<path d="M128.992 1.02734H126.992V60.0273H128.992V1.02734Z" fill="#DBDEE5"/>
<path d="M88.9922 1.02734H86.9922V20.0273H88.9922V1.02734Z" fill="#DBDEE5"/>
<path d="M139.992 7.02734H68.9922V9.02734H139.992V7.02734Z" fill="#DBDEE5"/>
<path d="M137.992 47.0273H112.992V49.0273H137.992V47.0273Z" fill="#DBDEE5"/>
<path d="M328.992 1.02734H326.992V60.0273H328.992V1.02734Z" fill="#DBDEE5"/>
<path d="M368.992 1.02734H366.992V20.0273H368.992V1.02734Z" fill="#DBDEE5"/>
<path d="M386.992 7.02734H315.992V9.02734H386.992V7.02734Z" fill="#DBDEE5"/>
<path d="M342.992 47.0273H317.992V49.0273H342.992V47.0273Z" fill="#DBDEE5"/>
<path d="M110.992 129.027H146.992V127.027H110.992V129.027Z" fill="#DBDEE5"/>
<path d="M126.992 135.027H128.992V109.027H126.992V135.027Z" fill="#DBDEE5"/>
<path d="M87.9922 129.027H97.9922V127.027H87.9922V129.027Z" fill="#DBDEE5"/>
<path d="M91.9922 133.027H93.9922V123.027H91.9922V133.027Z" fill="#DBDEE5"/>
</g>
<defs>
<clipPath id="clip0_8144_152589">
<rect width="459.982" height="141.662" fill="white" transform="translate(0 0.390625)"/>
</clipPath>
</defs>
</svg>
