<svg viewBox="0 0 358 202" fill="none" xmlns="http://www.w3.org/2000/svg"><path fill="#DBDEE5" d="M338 112.921v2h-76v-2zM298 72.92v2h-36v-2zM298 152.921v2h-26v-2z"/><path fill="#DBDEE5" d="M289 65.92v110h-2v-110zM330 91.92v28h-2v-28zM358 112.921v2h-10v-2z"/><path fill="#DBDEE5" d="M354 108.921v10h-2v-10zM20 114.921v-2h76v2zM60 74.92v-2h36v2zM60 154.921v-2h26v2z"/><path fill="#DBDEE5" d="M69 175.921v-110h2v110zM28 119.921v-28h2v28zM0 114.921v-2h10v2z"/><path fill="#DBDEE5" d="M4 118.921v-10h2v10z"/><path d="M257.378 89.374v94.521c0 8.489-3.807 13.064-12.295 13.064H112.907c-8.489 0-12.296-3.807-12.296-12.295v-95.29" stroke="#EEF3F5" stroke-width="10"/><path fill="#EEF3F5" d="M104.69 89.569h149.468v3.476H104.69zM243.73 64.368h10.428v4.345H243.73zM103.821 64.368h10.428v4.345h-10.428z"/><path d="M246.62 35.581c8.488 0 15.369 6.881 15.369 15.37v134.481c0 8.488-6.881 15.369-15.369 15.369H112.138c-8.488 0-15.369-6.881-15.369-15.369V50.95c0-8.488 6.881-15.369 15.369-15.369" stroke="#DBDEE5" stroke-width="2" stroke-linecap="round"/><path d="M254.304 65.55V186.2a7.684 7.684 0 0 1-7.684 7.684H111.37a7.685 7.685 0 0 1-7.685-7.684V65.55" stroke="#DBDEE5" stroke-width="2" stroke-linecap="round" stroke-dasharray="7 4"/><g clip-path="url(#clip0_921_17772)" stroke="#DBDEE5" stroke-width="2"><path d="M96 89.569h165.11M103.685 93.6h151.387"/></g><g clip-path="url(#clip1_921_17772)" fill="#DBDEE5"><path d="M96 64.783v1H115.275v-2H96.019h-.005-.002-.002-.002-.001H96l-.001 1zm147.858 1H261.22v-1-1h-.001-.001-.001-.001-.001-.001-.001-.001-.001-.003-.005-.002-.002-.002H243.858v2zM103.685 68.625v1H115.221v-2H103.718h-.005-.014-.003-.003-.001-.001-.001-.001-.001-.001-.002v1zm139.781 1H255.073v-1-1h-.001-.001-.001-.001-.002-.001-.002-.001-.001-.001-.001-.001-.001-.004-.001-.003-.003-.003-.005-.02-.007-.005-.019H243.466v2z"/></g><path fill="#E6EFF9" d="M123.808 13.966h113.839v4.345H123.808zM115.118 84.355h129.481V88.7H115.118z"/><path d="M123.665 17.906V8.685A7.685 7.685 0 0 1 131.35 1h98.363a7.685 7.685 0 0 1 7.685 7.685v9.221" stroke="#235B95" stroke-width="2"/><path d="M115.212 88.605V25.59a7.684 7.684 0 0 1 7.685-7.684h112.964a7.685 7.685 0 0 1 7.685 7.684v63.015" stroke="#235B95" stroke-width="2"/><ellipse cx="220.702" cy="61.761" rx="11.732" ry="11.297" stroke="#235B95" stroke-width="2"/><path d="M212.914 49.647a11.5 11.5 0 0 1-3.949-8.687c0-6.366 5.161-11.527 11.527-11.527s11.527 5.161 11.527 11.527c0 3.443-1.51 6.534-3.904 8.646M143.645 74.004V37.118a6.147 6.147 0 1 1 12.295 0v36.886" stroke="#235B95" stroke-width="2"/><rect x="129.421" y="30.578" width="6.824" height="34.98" rx="3.412" stroke="#235B95" stroke-width="2"/><path d="M103.821 89.57h151.206M134.423 93.6h89.911M244.599 64.368h18.249M96 64.368h18.249M244.599 68.713h10.428M103.821 68.713h10.428" stroke="#212225" stroke-width="2"/><circle cx="178.776" cy="145.332" r="37.552" stroke="#E6EFF9" stroke-width="6"/><circle cx="179.165" cy="144.926" r="39.715" stroke="#235B95" stroke-width="2"/><circle cx="179.173" cy="144.935" r="34.949" stroke="#235B95" stroke-width="2"/><g clip-path="url(#clip2_921_17772)" fill="#235B95"><path d="M139.45 143.755a1 1 0 0 0 0 2v-2zm3.966 2a1 1 0 1 0 0-2v2zm71.165-2a1 1 0 0 0 0 2v-2zm3.958 2a1 1 0 0 0 0-2v2zm-79.089-1v1H143.416v-2H139.566h-.036H139.521 139.497h-.002-.005-.005-.003-.003-.001-.003-.001-.003-.001-.001-.001-.006-.001-.001-.001-.002-.002-.001-.001-.001-.001-.001v1zm75.131 1H218.539v-1-1h-.001-.002-.001-.002-.002-.001-.003-.001-.001-.001-.001-.001-.004-.001-.001-.003-.001-.003-.003-.003-.003-.005-.002H218.482h-.002-.015-.007-.012H218.433h-.011H214.581v2zM179.994 105.211a1 1 0 0 0-2 0h2zm-2 3.966a1 1 0 1 0 2 0h-2zm2 71.165a1 1 0 0 0-2 0h2zm-2 3.958a1 1 0 0 0 2 0h-2zm1-79.089h-1V109.177h2v-.014-.014-.014-.014-.014-.014-.014-.014-.014-.014-.014-.014-.014-.014-.014-.013-.014-.014-.014-.014-.013-.014-.014-.014-.013-.014-.013-.014-.014-.013-.014-.013-.014-.013-.014-.013-.013-.014-.013-.014-.013-.013-.013-.014-.013-.013-.013-.014-.013-.013-.013-.013-.013-.013-.013-.013-.013-.013-.013-.013-.013-.013-.013-.013-.012-.013-.013-.013-.012-.013-.013-.012-.013-.013-.012-.013-.012-.013-.012-.013-.012-.013-.012-.013-.012-.012-.013-.012V108v-.012-.013-.012-.012-.012-.012-.013-.012-.012-.012-.012-.012-.012-.012-.012-.012-.012-.011-.012-.012-.012-.012-.011-.012-.012-.012-.011-.012-.011-.012-.012-.011-.012-.011-.012-.011-.012-.011-.011-.012-.011-.011-.012-.011-.011-.011-.012-.011-.011-.011-.011-.011-.011-.011-.011-.011-.011-.011-.011-.011-.011-.011-.01-.011-.011-.011-.01-.011-.011-.01-.011-.01-.011-.011-.01-.011-.01-.01-.011-.01-.011-.01-.01-.01-.011-.01-.01-.01V107v-.01-.01-.01-.01-.01-.01-.01-.01-.01-.01-.01-.009-.01-.01-.01-.01-.009-.01-.01-.009-.01-.01-.009-.01-.009-.01-.009-.01-.009-.009-.01-.009-.009-.01-.009-.009-.009-.01-.009-.009-.009-.009-.009-.009-.009-.009-.009-.009-.009-.009-.008-.009-.009-.009-.008-.009-.009-.008-.009-.009-.008-.009-.008-.009-.008-.009-.008-.008-.009-.008-.008-.009-.008-.008-.008-.008-.009-.008-.008-.008-.008-.008-.008-.008-.007-.008-.008-.008-.008-.008-.007-.008-.008-.007-.008-.008-.007-.008-.007-.008-.007-.008-.007-.007-.008-.007-.007-.007-.008-.007-.007-.007-.007-.007-.007-.007-.007-.007-.007-.007-.007-.007-.007-.007-.006-.007-.007-.007-.006-.007-.006-.007-.006-.007-.006-.007-.006-.007-.006-.006-.007-.006-.006-.006-.007-.006-.006-.006-.006-.006-.006-.006-.006-.006-.006-.006-.005-.006-.006-.006-.005-.006-.006-.005-.006-.005-.006-.005-.006-.005-.006-.005-.005-.006-.005-.005-.005-.006-.005-.005-.005-.005-.005-.005-.005-.005-.005-.005-.004-.005-.005-.005-.005-.004-.005-.004-.005-.005-.004-.005-.004-.005-.004-.004-.005-.004-.004-.004-.005-.004-.004-.004-.004-.004-.004-.004-.004-.004-.004-.004-.004-.004-.003-.004-.004-.003-.004-.004-.003-.004-.003-.004-.003-.004-.003-.003-.004-.003-.003-.003-.004-.003-.003-.003-.003-.003-.003-.003-.003-.003-.003-.003-.002-.003-.003-.002-.003-.003-.002-.003-.002-.003-.002-.003-.002-.003-.002-.002-.002-.003-.002-.002-.002-.002-.002-.002-.002-.002-.002-.002-.002-.002-.002-.001-.002-.002-.001-.002-.002-.001-.002-.001-.002-.001-.001-.002-.001-.001-.002-.001-.001-.001-.001-.001-.001-.001-.001-.001-.001-.001-.001-.001-.001-.001-.001-.001-.001-.001-.001-.001h-1zm-1 75.131V184.3h2v-.001-.001-.001-.001-.001-.001-.001-.001-.001-.001-.001-.001-.001-.001-.001-.001-.001-.001-.002-.001-.001-.001-.001-.002-.001-.001-.002-.001-.002-.001-.002-.001-.002-.002-.001-.002-.002-.002-.001-.002-.002-.002-.002-.002-.002-.002-.002-.002-.002-.003-.002-.002-.002-.003-.002-.002-.003-.002-.003-.002-.003-.003-.002-.003-.002-.003-.003-.003-.003-.002-.003-.003-.003-.003-.003-.003-.003-.003-.004-.003-.003-.003-.003-.004-.003-.003-.004-.003-.004-.003-.004-.003-.004-.004-.003-.004-.004-.003-.004-.004-.004-.004-.004-.004-.004-.004-.004-.004-.004-.004-.004-.004-.005-.004-.004-.005-.004-.004-.005-.004-.005-.004-.005-.004-.005-.005-.004-.005-.005-.004-.005-.005-.005-.005-.005-.005-.005-.005-.005-.005-.005-.005-.005-.005-.006-.005-.005-.005-.006-.005-.006-.005-.006-.005-.006-.005-.006-.005-.006-.006-.005-.006-.006-.006-.006-.005-.006-.006-.006-.006-.006-.006-.006-.006-.007-.006-.006-.006-.006-.007-.006-.006-.007-.006-.007-.006-.006-.007-.007-.006-.007-.006-.007-.007-.006-.007-.007-.007-.007-.006-.007-.007-.007-.007-.007-.007-.007-.007-.007-.008-.007-.007-.007-.008-.007-.007-.007-.008-.007-.008-.007-.008-.007-.008-.007-.008-.008-.007-.008-.008-.007-.008-.008-.008-.008-.007-.008-.008-.008-.008-.008-.008-.008-.009-.008-.008-.008-.008-.009-.008-.008-.008-.009-.008-.009-.008-.008-.009-.008-.009-.009-.008-.009-.008-.009-.009-.009-.008-.009-.009-.009-.009-.008-.009-.009-.009-.009-.009-.009-.009-.01-.009-.009-.009-.009-.009-.01-.009-.009-.01-.009-.009-.01-.009-.01-.009-.01-.009-.01-.009-.01-.01-.009-.01-.01-.01-.009-.01-.01-.01-.01-.01-.01-.01-.01-.01-.01-.01-.01-.01-.01-.01-.01-.011-.01-.01-.01-.011-.01-.01-.011-.01-.011-.01-.01-.011-.011-.01-.011-.01-.011-.011-.01-.011-.011-.01-.011-.011-.011-.011-.011-.01-.011-.011-.011-.011-.011-.011-.011-.012-.011-.011-.011-.011-.011-.012-.011V182v-.011-.012-.011-.012-.011-.011-.012-.011-.012-.011-.012-.011-.012-.012-.011-.012-.012-.011-.012-.012-.012-.011-.012-.012-.012-.012-.012-.012-.012-.012-.012-.012-.012-.012-.012-.012-.012-.012-.012-.013-.012-.012-.012-.013-.012-.012-.013-.012-.013-.012-.012-.013-.012-.013-.012-.013-.013-.012-.013-.013-.012-.013-.013-.012-.013-.013-.013-.013-.012-.013-.013-.013-.013-.013-.013-.013-.013-.013-.013-.013-.013-.013-.014-.013-.013-.013-.013-.014-.013-.013-.013-.014-.013-.014-.013-.013-.014-.013-.014-.013-.014-.013-.014-.014-.013-.014-.013-.014-.014-.013-.014-.014-.014-.014-.013-.014-.014-.014-.014-.014-.014-.014-.014-.014-.014-.014-.014-.014-.014-.014h-2zM145.248 124.117a1 1 0 0 0-1 1.732l1-1.732zm2.435 3.715a1 1 0 0 0 1-1.732l-1 1.732zm62.631 33.85a1 1 0 1 0-1 1.733l1-1.733zm2.427 3.711a1 1 0 1 0 1-1.732l-1 1.732zm-67.993-40.41l-.5.866.001.001.003.001a2.334 2.334 0 0 0 .058.034l.181.104.69.399 2.502 1.444 1-1.732-2.502-1.444-.69-.399-.181-.104-.046-.027a.097.097 0 0 1-.012-.007l-.003-.002h-.001l-.5.866zm64.566 38.432l2.496 1.441.689.398a16.984 16.984 0 0 1 .226.13l.012.007.003.002h.001l.5-.866.5-.866h-.001l-.003-.002-.012-.007a98.036 98.036 0 0 0-.226-.131l-.689-.397-2.496-1.442-1 1.733zM199.632 111.009a1 1 0 0 0-1.732-1l1.732 1zm-3.715 2.435a1 1 0 0 0 1.732 1l-1.732-1zm-33.85 62.63a1 1 0 0 0-1.732-1l1.732 1zm-3.711 2.428a1 1 0 0 0 1.732 1l-1.732-1zm40.41-67.993l-.866-.5v.001l-.002.003-.007.011-.027.047-.104.18-.399.691-1.444 2.502 1.732 1 1.445-2.502.398-.691.105-.18.026-.047.007-.011.002-.003v-.001l-.866-.5zm-38.431 64.565l-1.442 2.497-.397.689-.104.18-.027.046-.007.012-.002.003v.001l.866.5.866.5v-.001h.001l.001-.003.007-.012.027-.046.104-.18.397-.689 1.442-2.497-1.732-1zM160.088 110.009a1 1 0 1 0-1.732 1l1.732-1zm.251 4.435a1 1 0 0 0 1.732-1l-1.732 1zm37.315 60.63a1 1 0 0 0-1.732 1l1.732-1zm.246 4.428a1 1 0 0 0 1.732-1l-1.732 1zm-38.678-68.993l-.866.5v.001l.002.003.007.011.027.047.104.18.399.691 1.444 2.502 1.732-1-1.444-2.502-.399-.691-.104-.18-.027-.047-.007-.011-.001-.003-.001-.001-.866.5zm36.7 65.565l1.441 2.497.397.689a98.036 98.036 0 0 0 .131.226l.007.012.002.003v.001l.866-.5.866-.5v-.001l-.002-.003-.007-.012a812.31 812.31 0 0 1-.528-.915l-1.441-2.497-1.732 1zM213.741 125.849a1 1 0 0 0-1-1.732l1 1.732zm-4.435.251a1 1 0 0 0 1 1.732l-1-1.732zm-60.631 37.315a1 1 0 0 0-1-1.733l1 1.733zm-4.427.246a1 1 0 0 0 1 1.732l-1-1.732zm68.993-38.678l-.5-.866h-.001l-.003.002-.012.007-.046.027-.181.104-.69.399-2.502 1.444 1 1.732 2.502-1.444.69-.399.181-.104.046-.027.012-.007.003-.002h.001l-.5-.866zm-65.566 36.699l-2.496 1.442-.689.397-.18.105a.853.853 0 0 0-.046.026l-.012.007-.003.002h-.001l.5.866.5.866h.001l.003-.002.012-.007a10.574 10.574 0 0 1 .226-.13l.689-.398 2.496-1.441-1-1.733z"/></g><path d="M179.056 167.783a33.767 33.767 0 0 1-3.115-2.496 53.553 53.553 0 0 1-3.066-2.938 57.118 57.118 0 0 1-3.554-4.05 54.598 54.598 0 0 1-7.01-11.379 51.194 51.194 0 0 1-2.68-7.306 50.594 50.594 0 0 1-1.609-8.365c-.063-.583-.037-1.304.717-1.682a47.773 47.773 0 0 1 6.614-2.424 55.922 55.922 0 0 1 6.399-1.482 45.523 45.523 0 0 1 7.543-.661h1.41c2.528.01 5.051.232 7.543.661 2.16.368 4.297.863 6.399 1.482a47.786 47.786 0 0 1 6.615 2.424c.754.379.779 1.098.717 1.682a50.596 50.596 0 0 1-4.289 15.671 54.602 54.602 0 0 1-7.011 11.379 57.104 57.104 0 0 1-3.553 4.05 53.567 53.567 0 0 1-3.067 2.938 33.935 33.935 0 0 1-3.115 2.496 2.157 2.157 0 0 1-1.887 0h-.001zm.823-27.966c-.05.067-3.448 3.594-5.928 6.17-.855.89-1.608 1.67-2.089 2.17a6.001 6.001 0 0 0-1.747 3.568 5.22 5.22 0 0 0 .247 2.131 7.206 7.206 0 0 0 1.266 2.254 44.839 44.839 0 0 0 5.203 5.46c.776.697 1.59 1.348 2.44 1.951a1.62 1.62 0 0 0 1.459 0 27.218 27.218 0 0 0 2.44-1.951 44.915 44.915 0 0 0 5.203-5.46 7.183 7.183 0 0 0 1.265-2.254 5.22 5.22 0 0 0 .248-2.131 5.997 5.997 0 0 0-1.748-3.568l-1.8-1.87-.216-.225c-2.511-2.607-5.951-6.178-6.001-6.245a.144.144 0 0 0-.242 0zm.171-8.445c.017.026.039.061.071.105.047.066.76 1.207 1.748 2.786 2.369 3.788 6.333 10.127 7.375 11.67.771 1.14 1.745 1.796 2.671 1.796.9 0 2.201-.612 3.291-3.533a40.42 40.42 0 0 0 2.325-9.857c.05-.467.029-1.041-.573-1.344a38.352 38.352 0 0 0-5.283-1.936 44.762 44.762 0 0 0-5.112-1.184 36.313 36.313 0 0 0-6.024-.528h-1.079a36.334 36.334 0 0 0-6.025.528c-1.725.294-3.431.69-5.111 1.184a38.304 38.304 0 0 0-5.283 1.936c-.602.302-.622.877-.573 1.344a40.373 40.373 0 0 0 2.324 9.857c.602 1.612 1.662 3.533 3.292 3.533.926 0 1.9-.655 2.671-1.796 1.041-1.542 5.004-7.877 7.371-11.663l.003-.006c.988-1.579 1.702-2.72 1.749-2.786.031-.044.055-.08.07-.106.026-.04.038-.06.051-.06.013 0 .026.02.051.06zm-6.74 18.175l2.388-2.506h8.406l2.389 2.506H173.31zm4.156-4.3l2.451-2.537 2.45 2.537h-4.901z" fill="#235B95"/><defs><clipPath id="clip0_921_17772"><path fill="#fff" transform="translate(96 89.569)" d="M0 0h165.11v4.031H0z"/></clipPath><clipPath id="clip1_921_17772"><path fill="#fff" transform="translate(96 64.783)" d="M0 0h165.22v3.842H0z"/></clipPath><clipPath id="clip2_921_17772"><path fill="#fff" transform="translate(139.45 105.211)" d="M0 0h79.089v79.089H0z"/></clipPath></defs></svg>