<svg width="383" height="233" viewBox="0 0 383 233" fill="none" xmlns="http://www.w3.org/2000/svg"><g clip-path="url(#clip0_8144_152637)"><path d="M363 115.895v-2h-76v2h76zm-40-40.001v-2h-36v2h36zm0 80.001v-2h-26v2h26z" fill="#3C4249"/><path d="M314 176.895v-110h-2v110h2zm41-56v-28h-2v28h2zm28-5v-2h-10v2h10z" fill="#3C4249"/><path d="M379 119.895v-10h-2v10h2zm-359-6v2h76v-2H20zm40-40.001v2h36v-2H60zm0 80.001v2h26v-2H60z" fill="#3C4249"/><path d="M69 66.894v110.001h2v-110h-2zm-41 26v28.001h2v-28h-2zM0 113.895v2h10v-2H0z" fill="#3C4249"/><path d="M4 109.895v10h2v-10H4z" fill="#3C4249"/><path d="M281.707 103.668v108.77c0 9.768-4.381 15.033-14.149 15.033h-152.1c-9.768 0-14.149-4.381-14.149-14.149V103.668" stroke="#3C4249" stroke-width="10"/><path d="M278 103.895H106v4h172v-4zm0-29.001h-12v5h12v-5zm-161 0h-12v5h12v-5z" fill="#3C4249"/><path d="M269.324 41.766a17.688 17.688 0 0 1 17.686 17.686v154.755a17.69 17.69 0 0 1-5.18 12.506 17.69 17.69 0 0 1-12.506 5.18H114.569a17.69 17.69 0 0 1-17.686-17.686V59.452a17.686 17.686 0 0 1 17.686-17.686" stroke="#3C4249" stroke-width="2" stroke-linecap="round"/><path d="M96 103.895h190m-181.156 4.64h174.209" stroke="#3C4249" stroke-width="2"/><path d="M259 16.895H128v5h131v-5zm7 80.999H118v5.001h148v-5z" fill="#26372B"/><path d="M127.836 21.428V10.816a8.845 8.845 0 0 1 8.843-8.843h113.192a8.843 8.843 0 0 1 8.843 8.843v10.612" stroke="#235B95" stroke-width="2"/><path d="M118.102 102.906l.008-72.637a8.84 8.84 0 0 1 8.843-8.843h129.994a8.844 8.844 0 0 1 8.843 8.843l.035 72.628" stroke="#235B95" stroke-width="2"/><path d="M239.5 84.894c7.456 0 13.5-5.82 13.5-13s-6.044-13-13.5-13-13.5 5.82-13.5 13 6.044 13 13.5 13zm-8.959-26.941a13.264 13.264 0 1 1 17.493-.047M150.828 85.98V43.535a7.072 7.072 0 0 1 7.075-6.991 7.078 7.078 0 0 1 7.074 6.99v42.448m-26.589-49.974h-.001a3.926 3.926 0 0 0-3.926 3.926v32.402a3.926 3.926 0 0 0 3.926 3.926h.001a3.926 3.926 0 0 0 3.926-3.926V39.934a3.926 3.926 0 0 0-3.926-3.926z" stroke="#235B95" stroke-width="2"/><path d="M105 103.895h174m-138.785 4.636h103.464M267 74.894h21m-192 0h21m150 5h12m-174 0h12" stroke="#7E8A9C" stroke-width="2"/><path d="M191.71 210.823c23.869 0 43.218-19.35 43.218-43.218 0-23.869-19.349-43.218-43.218-43.218-23.868 0-43.218 19.349-43.218 43.218 0 23.868 19.35 43.218 43.218 43.218z" stroke="#26372B" stroke-width="6"/><path d="M191.702 213.299c25.241 0 45.702-20.462 45.702-45.702 0-25.241-20.461-45.702-45.702-45.702S146 142.356 146 167.597c0 25.24 20.461 45.702 45.702 45.702z" stroke="#235B95" stroke-width="2"/><path d="M191.71 207.823c22.212 0 40.218-18.006 40.218-40.218 0-22.212-18.006-40.218-40.218-40.218-22.212 0-40.218 18.006-40.218 40.218 0 22.212 18.006 40.218 40.218 40.218z" stroke="#235B95" stroke-width="2"/><path d="M232.457 167.402h4.554m-91.011 0h4.564H146zm45.508 40.95v4.554m0-91.011v4.564-4.564zm35.464 65.981l3.944 2.277m-78.818-45.505l3.953 2.282-3.953-2.282zm18.933 58.218l-2.277 3.943m45.505-78.817l-2.282 3.953 2.282-3.953zm-2.277 74.874l2.277 3.944m-45.505-78.818l2.282 3.953-2.282-3.953zm-12.712 59.884l-3.944 2.277m78.819-45.505l-3.953 2.282 3.953-2.282z" stroke="#235B95" stroke-width="2" stroke-linecap="round"/><path d="M191.781 193.309c-.291-.162-12.084-7.2-12.329-7.367-.245-.167-.451-.321-.451-.6v-5.263c0-.351.316-.474.6-.3s12.232 7.365 12.479 7.518c.247.153.3.286.3.451v5.263c0 .263-.14.382-.321.382a.605.605 0 0 1-.278-.084v0zm0-10.722c-.291-.162-12.084-7.2-12.329-7.367-.245-.167-.451-.321-.451-.6v-15.939a2.14 2.14 0 0 1 .585-1.529 2.15 2.15 0 0 1 1.496-.664h7.851c1.183 0 1.39.208 1.39 1.391v3.684c0 .094.09.226.172.178l11.148-6.523a.121.121 0 0 0 .061-.106.119.119 0 0 0-.061-.106l-11.148-6.524a.126.126 0 0 0-.06-.017.124.124 0 0 0-.06.015.116.116 0 0 0-.045.043.112.112 0 0 0-.019.059s.011 2.258.011 2.648c0 1.183-.207 1.39-1.39 1.39h-7.851a2.04 2.04 0 0 1-1.478-.586 2.016 2.016 0 0 1-.6-1.472v-5.567a2.066 2.066 0 0 1 .609-1.492 2.071 2.071 0 0 1 1.491-.608h15.79a12.33 12.33 0 1 1 0 24.659h-8.946a1.768 1.768 0 0 0-1.729 1.8v2.857a1.812 1.812 0 0 0 .934 1.6c.238.129 4.682 2.6 4.929 2.757.247.157.3.286.3.451v5.262c0 .264-.141.382-.321.382a.59.59 0 0 1-.279-.074v-.002z" fill="#26372B" stroke="#235B95" stroke-width="2"/><path d="M278.165 76.293V215.13a8.845 8.845 0 0 1-8.843 8.843H113.683a8.845 8.845 0 0 1-8.843-8.843V75.293" stroke="#7E8A9C" stroke-width="2" stroke-linecap="round" stroke-dasharray="7 4"/></g><defs><clipPath id="clip0_8144_152637"><path fill="#fff" transform="translate(0 .973)" d="M0 0h383v231.922H0z"/></clipPath></defs></svg>