<svg width="383" height="232" viewBox="0 0 383 232" fill="none" xmlns="http://www.w3.org/2000/svg"><g clip-path="url(#clip0_8144_152698)"><path d="M363 114.973v-2h-76v2h76zm-40-40v-2h-36v2h36zm0 80v-2h-26v2h26z" fill="#DBDEE5"/><path d="M314 175.973v-110h-2v110h2zm41-56v-28h-2v28h2zm28-5v-2h-10v2h10z" fill="#DBDEE5"/><path d="M379 118.973v-10h-2v10h2zm-359-6v2h76v-2H20zm40-40v2h36v-2H60zm0 80v2h26v-2H60z" fill="#DBDEE5"/><path d="M69 65.973v110h2v-110h-2zm-41 26v28h2v-28h-2zm-28 21v2h10v-2H0z" fill="#DBDEE5"/><path d="M4 108.973v10h2v-10H4z" fill="#DBDEE5"/><path d="M281.707 102.746v108.77c0 9.768-4.381 15.033-14.149 15.033h-152.1c-9.768 0-14.149-4.381-14.149-14.149V102.746" stroke="#F2F7FF" stroke-width="10"/><path d="M278 102.973H106v4h172v-4zm0-29h-12v5h12v-5zm-161 0h-12v5h12v-5z" fill="#F2F7FF"/><path d="M269.324 40.844A17.688 17.688 0 0 1 287.01 58.53v154.755a17.69 17.69 0 0 1-5.18 12.506 17.69 17.69 0 0 1-12.506 5.18H114.569a17.69 17.69 0 0 1-17.686-17.686V58.53a17.686 17.686 0 0 1 17.686-17.686" stroke="#DBDEE5" stroke-width="2" stroke-linecap="round"/><path d="M278.169 75.332v138.837a8.845 8.845 0 0 1-8.843 8.843H113.687a8.843 8.843 0 0 1-8.843-8.843V75.332" stroke="#DBDEE5" stroke-width="2" stroke-linecap="round" stroke-dasharray="7 4"/><path d="M96 102.973h190m-181.156 4.64h174.209M266.148 74.45h19.979M96 74.45h22.18H96zm169.698 4.421h13.356m-174.21 0h13.275-13.275z" stroke="#DBDEE5" stroke-width="2"/><path d="M259 15.973H128v5h131v-5zm8 81H118v5h149v-5z" fill="#E5EEFC"/><path d="M127.836 20.506V9.894a8.845 8.845 0 0 1 8.843-8.843h113.192a8.843 8.843 0 0 1 8.843 8.843v10.612" stroke="#235B95" stroke-width="2"/><path d="M118.109 101.861V29.347a8.844 8.844 0 0 1 8.843-8.843h129.994a8.837 8.837 0 0 1 6.253 2.59 8.838 8.838 0 0 1 2.59 6.253v72.514" stroke="#235B95" stroke-width="2"/><path d="M239.5 83.973c7.456 0 13.5-5.82 13.5-13s-6.044-13-13.5-13-13.5 5.82-13.5 13 6.044 13 13.5 13zm-8.959-26.943a13.264 13.264 0 1 1 17.493-.047m-97.206 28.076V42.612a7.072 7.072 0 0 1 7.075-6.99 7.078 7.078 0 0 1 7.074 6.99v42.447m-26.589-49.973h-.001a3.926 3.926 0 0 0-3.926 3.926v32.402a3.926 3.926 0 0 0 3.926 3.926h.001a3.926 3.926 0 0 0 3.926-3.926V39.012a3.926 3.926 0 0 0-3.926-3.926z" stroke="#235B95" stroke-width="2"/><path d="M105 102.973h174m-138.785 4.636h103.464M267 73.973h21m-192 0h21m150 5h12m-174 0h12" stroke="#212225" stroke-width="2"/><path d="M191.253 209.901c23.616 0 42.761-19.145 42.761-42.761 0-23.616-19.145-42.761-42.761-42.761-23.616 0-42.761 19.145-42.761 42.761 0 23.616 19.145 42.761 42.761 42.761z" stroke="#E5EEFC" stroke-width="6"/><path d="M191.702 212.377c25.241 0 45.702-20.462 45.702-45.702 0-25.241-20.461-45.702-45.702-45.702S146 141.434 146 166.675c0 25.24 20.461 45.702 45.702 45.702z" stroke="#235B95" stroke-width="2"/><path d="M191.71 206.901c22.212 0 40.218-18.006 40.218-40.218 0-22.212-18.006-40.218-40.218-40.218-22.212 0-40.218 18.006-40.218 40.218 0 22.212 18.006 40.218 40.218 40.218z" stroke="#235B95" stroke-width="2"/><path d="M232.457 166.48h4.554m-91.011 0h4.564H146zm45.508 40.95v4.554m0-91.011v4.564-4.564zm35.464 65.982l3.944 2.277m-78.818-45.505l3.953 2.282-3.953-2.282zm18.933 58.217l-2.277 3.943m45.505-78.817l-2.282 3.953 2.282-3.953zm-2.277 74.874l2.277 3.944m-45.505-78.818l2.282 3.953-2.282-3.953zm-12.712 59.885l-3.944 2.277m78.819-45.505l-3.953 2.282 3.953-2.282z" stroke="#235B95" stroke-width="2" stroke-linecap="round"/><path d="M191.781 192.387c-.291-.162-12.084-7.2-12.329-7.367-.245-.167-.451-.321-.451-.6v-5.263c0-.351.316-.474.6-.3s12.232 7.365 12.479 7.518c.247.153.3.286.3.451v5.263c0 .263-.14.382-.321.382a.594.594 0 0 1-.278-.084v0zm0-10.722c-.291-.162-12.084-7.2-12.329-7.367-.245-.167-.451-.321-.451-.6v-15.939a2.142 2.142 0 0 1 .585-1.528 2.137 2.137 0 0 1 1.496-.665h7.851c1.183 0 1.39.208 1.39 1.391v3.684c0 .094.09.226.172.178l11.148-6.523a.121.121 0 0 0 .061-.106.119.119 0 0 0-.061-.106l-11.148-6.524a.115.115 0 0 0-.06-.016.116.116 0 0 0-.105.057.112.112 0 0 0-.019.059s.011 2.258.011 2.648c0 1.183-.207 1.39-1.39 1.39h-7.851a2.022 2.022 0 0 1-1.929-1.261 2.016 2.016 0 0 1-.149-.797v-5.567a2.066 2.066 0 0 1 .609-1.491 2.066 2.066 0 0 1 1.491-.609h15.79a12.33 12.33 0 1 1 0 24.659h-8.946a1.767 1.767 0 0 0-1.729 1.8v2.857a1.812 1.812 0 0 0 .934 1.6c.238.129 4.682 2.6 4.929 2.757.247.157.3.286.3.451v5.262c0 .264-.141.382-.321.382a.59.59 0 0 1-.279-.074v-.002z" fill="#E5EEFC" stroke="#235B95" stroke-width="2"/></g><defs><clipPath id="clip0_8144_152698"><path fill="#fff" transform="translate(0 .05)" d="M0 0h383v231.921H0z"/></clipPath></defs></svg>