<svg viewBox="0 0 358 202" fill="none" xmlns="http://www.w3.org/2000/svg"><path fill="#3C4249" d="M338 112.921v2h-76v-2zM298 72.92v2h-36v-2zM298 152.921v2h-26v-2z"/><path fill="#3C4249" d="M289 65.92v110h-2v-110zM330 91.92v28h-2v-28zM358 112.921v2h-10v-2z"/><path fill="#3C4249" d="M354 108.921v10h-2v-10zM20 114.921v-2h76v2zM60 74.92v-2h36v2zM60 154.921v-2h26v2z"/><path fill="#3C4249" d="M69 175.921v-110h2v110zM28 119.921v-28h2v28zM0 114.921v-2h10v2z"/><path fill="#3C4249" d="M4 118.921v-10h2v10z"/><path d="M257.378 89.374v94.521c0 8.489-3.807 13.064-12.295 13.064H112.907c-8.489 0-12.296-3.807-12.296-12.295v-95.29" stroke="#3C4249" stroke-width="10"/><path fill="#3C4249" d="M104.689 90.568h149.468v3.476H104.689zM243.73 64.368h10.428v4.345H243.73zM103.821 64.368h10.428v4.345h-10.428z"/><path d="M246.62 35.581c8.488 0 15.369 6.881 15.369 15.37v134.481c0 8.488-6.881 15.369-15.369 15.369H112.138c-8.488 0-15.369-6.881-15.369-15.369V50.95c0-8.488 6.881-15.369 15.369-15.369" stroke="#3C4249" stroke-width="2" stroke-linecap="round"/><path d="M254.304 65.55V186.2a7.684 7.684 0 0 1-7.684 7.684H111.37a7.685 7.685 0 0 1-7.685-7.684V65.55" stroke="#7E8A9C" stroke-width="2" stroke-linecap="round" stroke-dasharray="7 4"/><path d="M179.007 179.889c20.368 0 36.88-16.512 36.88-36.88 0-20.369-16.512-36.881-36.88-36.881-20.368 0-36.88 16.512-36.88 36.881 0 20.368 16.512 36.88 36.88 36.88z" stroke="#26372B" stroke-width="6"/><path d="M179 182c21.539 0 39-17.461 39-39s-17.461-39-39-39-39 17.461-39 39 17.461 39 39 39z" stroke="#0D7ED6" stroke-width="2"/><path d="M179.007 177.329c18.954 0 34.32-15.366 34.32-34.32 0-18.955-15.366-34.321-34.32-34.321-18.955 0-34.32 15.366-34.32 34.321 0 18.954 15.365 34.32 34.32 34.32z" stroke="#0D7ED6" stroke-width="2"/><path d="M213.778 142.833h3.887m-77.665 0h3.895H140zM178.833 177.778v3.887m0-77.665v3.895V104zM209.097 160.306l3.366 1.943m-67.26-38.832l3.374 1.947-3.374-1.947zM161.36 173.098l-1.943 3.364m38.832-67.258l-1.947 3.373 1.947-3.373zM196.306 173.098l1.943 3.365m-38.832-67.259l1.948 3.373-1.948-3.373zM148.568 160.306l-3.366 1.943m67.26-38.832l-3.373 1.947 3.373-1.947z" stroke="#0D7ED6" stroke-width="2" stroke-linecap="round"/><path d="M178.056 167.783a33.767 33.767 0 0 1-3.115-2.496 53.553 53.553 0 0 1-3.066-2.938 57.118 57.118 0 0 1-3.554-4.05 54.598 54.598 0 0 1-7.01-11.379 51.194 51.194 0 0 1-2.68-7.306 50.594 50.594 0 0 1-1.609-8.365c-.063-.583-.037-1.304.717-1.682a47.773 47.773 0 0 1 6.614-2.424 55.922 55.922 0 0 1 6.399-1.482 45.523 45.523 0 0 1 7.543-.661h1.41c2.528.01 5.051.232 7.543.661 2.16.368 4.297.863 6.399 1.482a47.786 47.786 0 0 1 6.615 2.424c.754.379.779 1.098.717 1.682a50.596 50.596 0 0 1-4.289 15.671 54.602 54.602 0 0 1-7.011 11.379 57.104 57.104 0 0 1-3.553 4.05 53.567 53.567 0 0 1-3.067 2.938 33.935 33.935 0 0 1-3.115 2.496 2.157 2.157 0 0 1-1.887 0h-.001zm.823-27.966c-.05.067-3.448 3.594-5.928 6.17-.855.89-1.608 1.67-2.089 2.17a6.001 6.001 0 0 0-1.747 3.568 5.22 5.22 0 0 0 .247 2.131 7.206 7.206 0 0 0 1.266 2.254 44.839 44.839 0 0 0 5.203 5.46c.776.697 1.59 1.348 2.44 1.951a1.62 1.62 0 0 0 1.459 0 27.218 27.218 0 0 0 2.44-1.951 44.915 44.915 0 0 0 5.203-5.46 7.183 7.183 0 0 0 1.265-2.254 5.22 5.22 0 0 0 .248-2.131 5.997 5.997 0 0 0-1.748-3.568l-1.8-1.87-.216-.225c-2.511-2.607-5.951-6.178-6.001-6.245a.144.144 0 0 0-.242 0zm.171-8.445c.017.026.039.061.071.105.047.066.76 1.207 1.748 2.786 2.369 3.788 6.333 10.127 7.375 11.67.771 1.14 1.745 1.796 2.671 1.796.9 0 2.201-.612 3.291-3.533a40.42 40.42 0 0 0 2.325-9.857c.05-.467.029-1.041-.573-1.344a38.352 38.352 0 0 0-5.283-1.936 44.762 44.762 0 0 0-5.112-1.184 36.313 36.313 0 0 0-6.024-.528h-1.079a36.334 36.334 0 0 0-6.025.528c-1.725.294-3.431.69-5.111 1.184a38.304 38.304 0 0 0-5.283 1.936c-.602.302-.622.877-.573 1.344a40.373 40.373 0 0 0 2.324 9.857c.602 1.612 1.662 3.533 3.292 3.533.926 0 1.9-.655 2.671-1.796 1.041-1.542 5.004-7.877 7.371-11.663l.003-.006c.988-1.579 1.702-2.72 1.749-2.786.031-.044.055-.08.07-.106.026-.04.038-.06.051-.06.013 0 .026.02.051.06zm-6.74 18.175l2.388-2.506h8.406l2.389 2.506H172.31zm4.156-4.3l2.451-2.537 2.45 2.537h-4.901z" fill="#0D7ED6"/><g clip-path="url(#clip0_921_17910)"><path d="M103.685 68.625v1H115.221v-2H103.718h-.005-.014-.003-.003-.001-.001-.001-.001-.001-.001-.002v1zm139.781 1H255.073v-1-1h-.001-.001-.001-.001-.002-.001-.002-.001-.001-.001-.001-.001-.001-.004-.001-.003-.003-.003-.005-.02-.007-.005-.019H243.466v2z" fill="#7E8A9C"/></g><path fill="#26372B" d="M123.808 13.966h113.839v4.345H123.808zM115.118 84.355h129.481V88.7H115.118z"/><path d="M123.665 17.906V8.685A7.685 7.685 0 0 1 131.35 1h98.363a7.685 7.685 0 0 1 7.685 7.685v9.221" stroke="#0D7ED6" stroke-width="2"/><path d="M115.212 88.605V25.59a7.684 7.684 0 0 1 7.685-7.684h112.964a7.685 7.685 0 0 1 7.685 7.684v63.015" stroke="#0D7ED6" stroke-width="2"/><ellipse cx="220.702" cy="61.761" rx="11.732" ry="11.297" stroke="#0D7ED6" stroke-width="2"/><path d="M212.914 49.647a11.5 11.5 0 0 1-3.949-8.687c0-6.366 5.161-11.527 11.527-11.527s11.527 5.161 11.527 11.527c0 3.443-1.51 6.534-3.904 8.646M143.645 74.004V37.118a6.147 6.147 0 1 1 12.295 0v36.886" stroke="#0D7ED6" stroke-width="2"/><rect x="129.421" y="30.578" width="6.824" height="34.98" rx="3.412" stroke="#0D7ED6" stroke-width="2"/><path d="M103.821 89.57h151.206M134.423 93.6h89.911M244.599 64.368h18.249M96 64.368h18.249M244.599 68.713h10.428M103.821 68.713h10.428" stroke="#7E8A9C" stroke-width="2"/><defs><clipPath id="clip0_921_17910"><path fill="#fff" transform="translate(96 64.783)" d="M0 0h165.22v3.842H0z"/></clipPath></defs></svg>