<svg width="24" height="25" viewBox="0 0 24 25" fill="none" xmlns="http://www.w3.org/2000/svg">
<path fill-rule="evenodd" clip-rule="evenodd" d="M12 23.5C18.0751 23.5 23 18.5751 23 12.5C23 6.42487 18.0751 1.5 12 1.5C5.92487 1.5 1 6.42487 1 12.5C1 18.5751 5.92487 23.5 12 23.5Z" stroke="#DE5846" stroke-width="2" stroke-linecap="round" stroke-linejoin="round"/>
<path fill-rule="evenodd" clip-rule="evenodd" d="M17.1825 14.5747L15.1116 12.5008L17.1825 10.426C17.7551 9.85323 17.7551 8.92483 17.1825 8.35209L16.149 7.31858C15.8739 7.04332 15.5008 6.88867 15.1116 6.88867C14.7225 6.88867 14.3493 7.04332 14.0742 7.31858L12.0003 9.38951L9.92645 7.31858C9.65137 7.04332 9.27817 6.88867 8.88903 6.88867C8.49988 6.88867 8.12668 7.04332 7.8516 7.31858L6.81809 8.35209C6.24553 8.92483 6.24553 9.85323 6.81809 10.426L8.88903 12.5008L6.81809 14.5747C6.24553 15.1474 6.24553 16.0758 6.81809 16.6485L7.8516 17.683C8.12668 17.9583 8.49988 18.1129 8.88903 18.1129C9.27817 18.1129 9.65137 17.9583 9.92645 17.683L12.0003 15.6121L14.0742 17.683C14.3493 17.9583 14.7225 18.1129 15.1116 18.1129C15.5008 18.1129 15.8739 17.9583 16.149 17.683L17.1855 16.6456C17.7553 16.0724 17.754 15.1463 17.1825 14.5747Z" fill="#5B1B1B" stroke="#DE5846" stroke-width="2" stroke-linecap="round" stroke-linejoin="round"/>
</svg>
