<svg width="24" height="25" viewBox="0 0 24 25" fill="none" xmlns="http://www.w3.org/2000/svg">
<path fill-rule="evenodd" clip-rule="evenodd" d="M12 23.5C18.0751 23.5 23 18.5751 23 12.5C23 6.42487 18.0751 1.5 12 1.5C5.92487 1.5 1 6.42487 1 12.5C1 18.5751 5.92487 23.5 12 23.5Z" stroke="#DE5846" stroke-width="2" stroke-linecap="round" stroke-linejoin="round"/>
<path fill-rule="evenodd" clip-rule="evenodd" d="M17.1845 14.5747L15.1136 12.5008L17.1845 10.426C17.7571 9.85323 17.7571 8.92483 17.1845 8.35209L16.151 7.31858C15.8759 7.04332 15.5027 6.88867 15.1136 6.88867C14.7244 6.88867 14.3512 7.04332 14.0761 7.31858L12.0023 9.38951L9.9284 7.31858C9.65332 7.04332 9.28013 6.88867 8.89098 6.88867C8.50183 6.88867 8.12864 7.04332 7.85356 7.31858L6.82005 8.35209C6.24748 8.92483 6.24748 9.85323 6.82005 10.426L8.89098 12.5008L6.82005 14.5747C6.24748 15.1474 6.24748 16.0758 6.82005 16.6485L7.85356 17.683C8.12864 17.9583 8.50183 18.1129 8.89098 18.1129C9.28013 18.1129 9.65332 17.9583 9.9284 17.683L12.0023 15.6121L14.0761 17.683C14.3512 17.9583 14.7244 18.1129 15.1136 18.1129C15.5027 18.1129 15.8759 17.9583 16.151 17.683L17.1874 16.6456C17.7572 16.0724 17.7559 15.1463 17.1845 14.5747Z" fill="#FFE0DA" stroke="#DE5846" stroke-width="2" stroke-linecap="round" stroke-linejoin="round"/>
</svg>
