<svg width="548" height="143" viewBox="0 0 548 143" fill="none" xmlns="http://www.w3.org/2000/svg">
  <g clip-path="url(#clip0_13279_83813)">
    <path
      d="M49.1837 137.533C21.7338 135.822 0 113.017 0 85.1357C0 56.1408 23.5051 32.6357 52.5 32.6357C79.8618 32.6357 102.335 53.5675 104.78 80.2921C104.925 81.8869 106.268 84.6357 112 84.6357C117.732 84.6357 209 84.6357 209 84.6357"
      stroke="#3C4249" stroke-width="2" />
    <circle cx="53" cy="137.636" r="4" stroke="#3C4249" stroke-width="2" />
    <circle cx="52.5" cy="85.1357" r="31.5" stroke="#3C4249" stroke-width="2" />
    <path
      d="M79.0001 67.6357C79.0001 67.6357 61.9587 80.2484 60 81.6357C58.0413 83.023 54 86.2318 54 90.6357C54 95.0396 54 116.636 54 116.636"
      stroke="#3C4249" stroke-width="2" />
    <path
      d="M72.9999 61.6357C72.9999 61.6357 57.0596 73.0339 54.9999 74.6357C52.9402 76.2376 47.8967 76.7665 43.9999 73.6357C40.1032 70.5049 31 62.6358 31 62.6358"
      stroke="#3C4249" stroke-width="2" />
    <path
      d="M498.816 32.7383C526.266 34.4493 548 57.2541 548 85.1352C548 114.13 524.495 137.635 495.5 137.635C468.138 137.635 445.665 116.703 443.221 89.9791C443.075 88.384 441.732 85.6352 436 85.6352C430.268 85.6352 343 85.6352 343 85.6352"
      stroke="#3C4249" stroke-width="2" />
    <circle cx="495" cy="32.6357" r="4" stroke="#3C4249" stroke-width="2" />
    <circle cx="495.5" cy="85.1357" r="31.5" stroke="#3C4249" stroke-width="2" />
    <path
      d="M469 102.636C469 102.636 486.041 90.023 488 88.6357C489.959 87.2484 494 84.0396 494 79.6357C494 75.2318 494 53.6357 494 53.6357"
      stroke="#3C4249" stroke-width="2" />
    <path
      d="M475 108.636C475 108.636 490.94 97.2373 493 95.6357C495.06 94.0338 500.103 93.5048 504 96.6356C507.897 99.7664 517 107.636 517 107.636"
      stroke="#3C4249" stroke-width="2" />
    <path
      d="M226.18 103.168C233.535 123.28 252.841 137.636 275.501 137.636C302.428 137.636 324.62 117.365 327.649 91.2506C327.881 89.2445 331.745 85.6357 335.001 85.6357C338.257 85.6357 343.001 85.6357 343.001 85.6357"
      stroke="#3C4249" stroke-width="2" />
    <path
      d="M325.129 67.1039C317.755 46.9913 298.397 32.6357 275.678 32.6357C248.68 32.6357 226.43 52.9068 223.393 79.0209C223.159 81.0269 219.286 84.6357 216.021 84.6357C212.756 84.6357 208 84.6357 208 84.6357"
      stroke="#3C4249" stroke-width="2" />
    <circle cx="326" cy="71.6357" r="4" stroke="#3C4249" stroke-width="2" />
    <circle cx="225" cy="99.6357" r="4" stroke="#3C4249" stroke-width="2" />
    <circle cx="276.668" cy="85.6357" r="31.5" stroke="#289548" stroke-width="2" />
    <path
      d="M281.403 86.7256L281.402 86.7251C280.912 86.2621 280.795 85.988 280.795 85.6107C280.795 85.2398 280.905 84.9802 281.412 84.4868C281.697 84.2111 282.064 83.883 282.479 83.5118C283.468 82.627 284.732 81.497 285.809 80.247C287.371 78.4344 288.78 76.1265 288.78 73.3729V72.9712C288.78 71.8812 288.469 70.9061 287.757 70.2069C287.048 69.5109 286.083 69.2256 285.052 69.2256H268.796C267.776 69.2256 266.84 69.5144 266.162 70.1961C265.484 70.877 265.201 71.811 265.201 72.8204V73.3729C265.201 76.1267 266.611 78.4346 268.175 80.2476C269.263 81.5087 270.538 82.6435 271.535 83.5312C271.943 83.8942 272.304 84.2159 272.588 84.488C273.094 84.9806 273.203 85.2401 273.203 85.6107C273.203 85.988 273.086 86.2621 272.596 86.7252L272.596 86.7256C272.347 86.9611 272.045 87.2324 271.709 87.5348C270.683 88.4574 269.335 89.6703 268.169 91.0452C266.614 92.8797 265.201 95.2004 265.201 97.8651V98.451C265.201 99.4604 265.484 100.394 266.162 101.075C266.84 101.757 267.776 102.046 268.796 102.046H285.052C286.083 102.046 287.048 101.761 287.757 101.065C288.469 100.365 288.78 99.3903 288.78 98.3004V97.8671C288.789 95.2016 287.38 92.8802 285.828 91.0458C284.663 89.6694 283.313 88.4556 282.287 87.5328C281.952 87.2311 281.651 86.9606 281.403 86.7256Z"
      stroke="#289548" stroke-width="2" />
    <path
      d="M269.57 73.6357H284.43C285.054 73.6357 285.152 74.1225 284.791 74.7879C283.315 77.4166 278.345 81.6357 277 81.6357C275.655 81.6357 270.685 77.4491 269.209 74.7879C268.848 74.1225 268.946 73.6357 269.57 73.6357Z"
      fill="#26372B" stroke="#289548" stroke-width="2" stroke-linejoin="round" />
    <path fill-rule="evenodd" clip-rule="evenodd"
      d="M410.001 135.636V128.636H372V135.636H370V128.636H355V126.636H370V108.636H372V126.636H410.001V118.636H412.001V126.636H422V128.636H412.001V135.636H410.001ZM170 135.635V128.635H132.001V135.635H130V128.635H120V126.635H130V114.635H132.001V126.635H170V116.635H172V126.635H190V128.635H172V135.635H170ZM130 104.636V100.636H126V98.6362H130V94.6357H132V98.6362H136V100.636H132V104.636H130ZM410 59.6352V48.6354H400V46.6357H410V8.63583H372V19.6357H370V8.63583H359V6.63513H370V0.635742H372V6.63513H410V0.635742H412V6.63513H450V0.635742H452V6.63513H460V8.63583H452V29.6355H450V8.63583H412V46.6357H428V48.6354H412V59.6352H410ZM130 59.6352V48.6354H116V46.6357H130V8.63583H91.9998V19.6357H90V8.63583H72V6.63513H90V0.635742H91.9998V6.63513H130V0.635742H132V6.63513H143V8.63583H132V46.6357H141V48.6354H132V59.6352H130ZM210 26.6358V8.63583H192V6.63513H210V0.635742H212.001V6.63513H228V8.63583H212.001V26.6358H210ZM475.001 12.6356V8.63604H471V6.63534H475.001V2.63574H477V6.63534H481V8.63604H477V12.6356H475.001ZM245 12.6356V8.63604H241V6.63534H245V2.63574H246.999V6.63534H251V8.63604H246.999V12.6356H245Z"
      fill="#3C4249" />
  </g>
  <defs>
    <clipPath id="clip0_13279_83813">
      <rect width="548" height="142" fill="white" transform="translate(0 0.635742)" />
    </clipPath>
  </defs>
</svg>