<svg viewBox="0 0 548 142" fill="none" xmlns="http://www.w3.org/2000/svg">
<path d="M101.255 64.349C96.6327 52.8552 88.0582 43.3896 77.0759 37.6568C66.0937 31.9239 53.4254 30.3006 41.3525 33.079C32.3392 35.1527 24.0421 39.5928 17.3165 45.9416C10.591 52.2904 5.68046 60.3181 3.09116 69.197C0.501846 78.0759 0.327481 87.4847 2.58604 96.4535C4.84459 105.422 9.45434 113.626 15.94 120.22C22.4257 126.814 30.5526 131.558 39.4829 133.964C48.4131 136.371 57.8236 136.351 66.744 133.909C75.6644 131.467 83.772 126.689 90.2309 120.069C96.6898 113.45 101.266 105.227 103.488 96.249C104.475 92.249 104.719 83.756 112.998 83.756H160.998" stroke="#637282" stroke-width="2" stroke-linecap="round"/>
<path d="M53.5 116C70.897 116 85 101.897 85 84.5C85 67.103 70.897 53 53.5 53C36.103 53 22 67.103 22 84.5C22 101.897 36.103 116 53.5 116Z" stroke="#3C4249" stroke-width="2"/>
<path d="M80 67C80 67 62.96 79.613 61 81C59.041 82.387 55 85.596 55 90V116M74 61C74 61 58.06 72.398 56 74C53.94 75.602 48.897 76.13 45 73C41.103 69.87 32 62 32 62" stroke="#3C4249" stroke-width="2"/>
<path d="M166 88.76C167.326 88.76 168.598 88.2332 169.536 87.2955C170.473 86.3579 171 85.0861 171 83.76C171 82.4339 170.473 81.1622 169.536 80.2245C168.598 79.2868 167.326 78.76 166 78.76C164.674 78.76 163.402 79.2868 162.464 80.2245C161.527 81.1622 161 82.4339 161 83.76C161 85.0861 161.527 86.3579 162.464 87.2955C163.402 88.2332 164.674 88.76 166 88.76V88.76Z" stroke="#637282" stroke-width="2"/>
<path d="M446.744 65.349C451.367 53.8554 459.942 44.3899 470.924 38.657C481.906 32.9241 494.575 31.3005 506.648 34.0784C518.721 36.8564 529.406 43.8534 536.778 53.8096C544.15 63.7658 547.726 76.027 546.861 88.3853C545.996 100.744 540.747 112.387 532.059 121.219C523.372 130.051 511.816 135.491 499.474 136.56C487.132 137.629 474.813 134.256 464.737 127.049C454.66 119.842 447.488 109.275 444.511 97.249C443.524 93.249 443.28 84.756 435.001 84.756H387" stroke="#637282" stroke-width="2" stroke-linecap="round"/>
<path d="M382 89.76C383.326 89.76 384.598 89.2332 385.536 88.2955C386.473 87.3579 387 86.0861 387 84.76C387 83.4339 386.473 82.1622 385.536 81.2245C384.598 80.2868 383.326 79.76 382 79.76C380.674 79.76 379.402 80.2868 378.464 81.2245C377.527 82.1622 377 83.4339 377 84.76C377 86.0861 377.527 87.3579 378.464 88.2955C379.402 89.2332 380.674 89.76 382 89.76Z" stroke="#637282" stroke-width="2"/>
<path d="M495.5 116C512.897 116 527 101.897 527 84.5C527 67.103 512.897 53 495.5 53C478.103 53 464 67.103 464 84.5C464 101.897 478.103 116 495.5 116Z" stroke="#3C4249" stroke-width="2"/>
<path d="M469 102C469 102 486.041 89.387 488 88C489.959 86.613 494 83.404 494 79V53M475 108.002C475 108.002 490.94 96.604 493 95.002C495.06 93.4 500.103 92.871 504 96.002C507.897 99.132 517 107.002 517 107.002" stroke="#3C4249" stroke-width="2"/>
<path fill-rule="evenodd" clip-rule="evenodd" d="M410.001 135V128H372V135H370V128H355V126H370V108H372V126H410.001V118H412V126H422V128H412V135H410.001ZM170 135V128H132V135H130V128H120V126H130V113.999H132V126H170V116H172V126H190V128H172V135H170ZM130 104V100H126V98H130V94H132V98H136V100H132V104H130ZM410.001 59V48H400V46H410.001V8H372V19H370V8H359V6H370V0H372V6H410.001V0H412V6H450V0H452V6H460V8H452V29H450V8H412V46H428.001V48H412V59H410.001ZM130 59V48H116V46H130V8H92V19H90V8H72V6H90V0H92V6H130V0H132V6H143V8H132V46H141V48H132V59H130ZM210 26V8H192V6H210V0H212.001V6H228V8H212.001V26H210ZM475 12V8H471V6H475V2H477V6H481V8H477V12H475ZM245 12V8H241V6H245V2H247V6H251V8H247V12H245Z" fill="#3C4249"/>
<path d="M237 96.76C237 96.76 246.395 106.234 247 106.76C247.129 106.896 247.284 107.004 247.456 107.079C247.628 107.153 247.813 107.191 248 107.191C248.187 107.191 248.372 107.153 248.544 107.079C248.716 107.004 248.871 106.896 249 106.76C251.043 104.995 251.609 104.528 251 103.76C250.193 102.742 242.567 95.33 242 94.76C241.79 94.5704 241.623 94.339 241.508 94.0806C241.393 93.8222 241.334 93.5427 241.334 93.26C241.334 92.9773 241.393 92.6977 241.508 92.4394C241.623 92.181 241.79 91.9496 242 91.76C243.172 90.534 279.224 55.5 280 54.76C280.195 54.5592 280.428 54.3996 280.686 54.2906C280.943 54.1815 281.22 54.1254 281.5 54.1254C281.78 54.1254 282.057 54.1815 282.314 54.2906C282.572 54.3996 282.805 54.5592 283 54.76C284.025 55.71 292 63.76 292 63.76" stroke="#235B95" stroke-width="2" stroke-linecap="round" stroke-linejoin="round" stroke-dasharray="4 4"/>
<path d="M245.001 110.76C244.101 109.896 232.501 98.02 232.001 97.76C231.5 97.5 230.67 97.296 230.001 98.76C229.332 100.224 222.094 116.728 221.503 118C220.295 120.793 224 123.52 226.001 122.76C228.001 122 245.135 114.084 246.001 113.76C247.112 113.278 248.128 112.6 249.001 111.76C249.983 110.845 294.182 65.53 295.001 64.76C295.82 63.99 296.595 62.592 296.001 61.76C295.407 60.928 283.722 49.513 283.001 48.76C282.452 48.2649 281.739 47.9909 281.001 47.9909C280.262 47.9909 279.549 48.2649 279.001 48.76C277.787 50.043 233.001 94.76 233.001 94.76" stroke="#637282" stroke-width="2" stroke-linecap="round"/>
<path d="M218.248 125.841C218.073 126.041 217.985 126.301 218.002 126.566C218.02 126.831 218.142 127.078 218.341 127.252C218.541 127.427 218.802 127.516 219.066 127.498C219.331 127.481 219.578 127.359 219.753 127.159L218.248 125.841ZM223.253 123.159C223.416 122.958 223.494 122.701 223.472 122.444C223.45 122.186 223.329 121.946 223.135 121.776C222.94 121.605 222.687 121.517 222.428 121.529C222.169 121.541 221.926 121.653 221.748 121.841L223.253 123.159ZM219.753 127.159L223.253 123.159L221.748 121.841L218.248 125.841L219.753 127.159Z" fill="#637282"/>
<path d="M318.799 7.93701C319.379 7.36301 319.791 6.95801 319.999 6.76001C320.442 6.27238 320.982 5.88285 321.585 5.61643C322.188 5.35001 322.84 5.2126 323.499 5.21301C324.158 5.21272 324.81 5.35019 325.412 5.6166C326.015 5.88301 326.555 6.27248 326.999 6.76001C328.718 8.47501 334.156 13.831 336.999 16.76C337.504 17.1928 337.909 17.7297 338.187 18.3338C338.465 18.938 338.608 19.595 338.608 20.26C338.608 20.925 338.465 21.5821 338.187 22.1862C337.909 22.7904 337.504 23.3272 336.999 23.76C335.66 25.046 305.344 56.703 302.999 58.76C301.314 60.238 300 59.5 298.999 58.76C298 58 285.498 45.52 284.999 44.76C284.5 44 284 43 284.999 41.76C285.998 40.52 304.484 22.23 313.771 12.951C314.012 12.7681 314.211 12.5358 314.356 12.2697C314.5 12.0035 314.586 11.7096 314.607 11.4077C314.629 11.1057 314.586 10.8026 314.481 10.5186C314.376 10.2347 314.212 9.97636 313.999 9.76101C313.055 8.70588 312.054 7.70432 310.999 6.76101C310.711 6.44863 310.333 6.23381 309.917 6.14652C309.502 6.05922 309.069 6.10379 308.68 6.27401C308.422 6.38701 308.19 6.55301 307.999 6.76001C306.727 7.97101 267.047 47.734 265.999 48.76C264.951 49.786 265.465 50.234 265.999 50.76C266.533 51.286 267.999 52.76 267.999 52.76" stroke="#637282" stroke-width="2" stroke-linecap="round"/>
<path d="M192 127H354" stroke="#637282" stroke-width="2"/>
</svg>
