<svg viewBox="0 0 548 142" fill="none" xmlns="http://www.w3.org/2000/svg">
<path d="M101.255 64.3486C96.6327 52.8548 88.0582 43.3892 77.0759 37.6564C66.0937 31.9235 53.4254 30.3002 41.3525 33.0786C32.3392 35.1523 24.0421 39.5924 17.3165 45.9412C10.591 52.29 5.68046 60.3177 3.09116 69.1966C0.501845 78.0755 0.32748 87.4843 2.58604 96.4531C4.84459 105.422 9.45434 113.626 15.94 120.22C22.4257 126.814 30.5526 131.558 39.4829 133.964C48.4131 136.371 57.8236 136.351 66.744 133.909C75.6644 131.467 83.772 126.689 90.2309 120.069C96.6898 113.45 101.266 105.227 103.488 96.2486C104.475 92.2486 104.719 83.7556 112.998 83.7556H160.998" stroke="#637282" stroke-width="2" stroke-linecap="round"/>
<path d="M53.5 116C70.897 116 85 101.897 85 84.5C85 67.103 70.897 53 53.5 53C36.103 53 22 67.103 22 84.5C22 101.897 36.103 116 53.5 116Z" stroke="#3C4249" stroke-width="2"/>
<path d="M80 67C80 67 62.96 79.613 61 81C59.041 82.387 55 85.596 55 90V116M74 61C74 61 58.06 72.398 56 74C53.94 75.602 48.897 76.13 45 73C41.103 69.87 32 62 32 62" stroke="#3C4249" stroke-width="2"/>
<path d="M166 88.7598C167.326 88.7598 168.598 88.233 169.536 87.2953C170.473 86.3577 171 85.0859 171 83.7598C171 82.4337 170.473 81.162 169.536 80.2243C168.598 79.2866 167.326 78.7598 166 78.7598C164.674 78.7598 163.402 79.2866 162.464 80.2243C161.527 81.162 161 82.4337 161 83.7598C161 85.0859 161.527 86.3577 162.464 87.2953C163.402 88.233 164.674 88.7598 166 88.7598Z" stroke="#637282" stroke-width="2"/>
<path d="M446.744 65.3487C451.367 53.8551 459.942 44.3896 470.924 38.6567C481.906 32.9238 494.575 31.3002 506.648 34.0781C518.721 36.8561 529.406 43.8531 536.778 53.8093C544.15 63.7655 547.726 76.0267 546.861 88.385C545.996 100.744 540.747 112.387 532.059 121.219C523.372 130.051 511.816 135.491 499.474 136.56C487.132 137.629 474.813 134.256 464.737 127.049C454.66 119.842 447.488 109.275 444.511 97.2487C443.524 93.2487 443.28 84.7557 435.001 84.7557H387" stroke="#637282" stroke-width="2" stroke-linecap="round"/>
<path d="M382 89.7598C383.326 89.7598 384.598 89.233 385.536 88.2953C386.473 87.3577 387 86.0859 387 84.7598C387 83.4337 386.473 82.162 385.536 81.2243C384.598 80.2866 383.326 79.7598 382 79.7598C380.674 79.7598 379.402 80.2866 378.464 81.2243C377.527 82.162 377 83.4337 377 84.7598C377 86.0859 377.527 87.3577 378.464 88.2953C379.402 89.233 380.674 89.7598 382 89.7598Z" stroke="#637282" stroke-width="2"/>
<path d="M495.5 116C512.897 116 527 101.897 527 84.5C527 67.103 512.897 53 495.5 53C478.103 53 464 67.103 464 84.5C464 101.897 478.103 116 495.5 116Z" stroke="#3C4249" stroke-width="2"/>
<path d="M469 102C469 102 486.041 89.387 488 88C489.959 86.613 494 83.404 494 79V53M475 108.002C475 108.002 490.94 96.604 493 95.002C495.06 93.4 500.103 92.871 504 96.002C507.897 99.132 517 107.002 517 107.002" stroke="#3C4249" stroke-width="2"/>
<path fill-rule="evenodd" clip-rule="evenodd" d="M410.001 135V128H372V135H370V128H355V126H370V108H372V126H410.001V118H412V126H422V128H412V135H410.001ZM170 135V128H132V135H130V128H120V126H130V113.999H132V126H170V116H172V126H190V128H172V135H170ZM130 104V100H126V98H130V94H132V98H136V100H132V104H130ZM410.001 59V48H400V46H410.001V8H372V19H370V8H359V6H370V0H372V6H410.001V0H412V6H450V0H452V6H460V8H452V29H450V8H412V46H428.001V48H412V59H410.001ZM130 59V48H116V46H130V8H92V19H90V8H72V6H90V0H92V6H130V0H132V6H143V8H132V46H141V48H132V59H130ZM210 26V8H192V6H210V0H212.001V6H228V8H212.001V26H210ZM475 12V8H471V6H475V2H477V6H481V8H477V12H475ZM245 12V8H241V6H245V2H247V6H251V8H247V12H245Z" fill="#3C4249"/>
<path d="M237 96.7596C237 96.7596 246.395 106.234 247 106.76C247.129 106.896 247.284 107.004 247.456 107.079C247.628 107.153 247.813 107.191 248 107.191C248.187 107.191 248.372 107.153 248.544 107.079C248.716 107.004 248.871 106.896 249 106.76C251.043 104.995 251.609 104.528 251 103.76C250.193 102.742 242.567 95.3296 242 94.7596C241.79 94.57 241.623 94.3386 241.508 94.0802C241.393 93.8218 241.334 93.5423 241.334 93.2596C241.334 92.9769 241.393 92.6973 241.508 92.439C241.623 92.1806 241.79 91.9492 242 91.7596C243.172 90.5336 279.224 55.4996 280 54.7596C280.195 54.5588 280.428 54.3992 280.686 54.2902C280.943 54.1811 281.22 54.125 281.5 54.125C281.78 54.125 282.057 54.1811 282.314 54.2902C282.572 54.3992 282.805 54.5588 283 54.7596C284.025 55.7096 292 63.7596 292 63.7596" stroke="#0D7ED6" stroke-width="2" stroke-linecap="round" stroke-linejoin="round" stroke-dasharray="4 4"/>
<path d="M245.001 110.759C244.101 109.895 232.501 98.0193 232.001 97.7593C231.5 97.4993 230.67 97.2953 230.001 98.7593C229.332 100.223 222.094 116.727 221.503 117.999C220.295 120.792 224 123.519 226.001 122.759C228.001 121.999 245.135 114.083 246.001 113.759C247.112 113.277 248.128 112.599 249.001 111.759C249.983 110.844 294.182 65.5293 295.001 64.7593C295.82 63.9893 296.595 62.5913 296.001 61.7593C295.407 60.9273 283.722 49.5123 283.001 48.7593C282.452 48.2642 281.739 47.9902 281.001 47.9902C280.262 47.9902 279.549 48.2642 279.001 48.7593C277.787 50.0423 233.001 94.7593 233.001 94.7593" stroke="#637282" stroke-width="2" stroke-linecap="round"/>
<path d="M218.248 125.84C218.073 126.04 217.985 126.3 218.002 126.565C218.02 126.83 218.142 127.077 218.341 127.251C218.541 127.426 218.802 127.515 219.066 127.497C219.331 127.48 219.578 127.358 219.753 127.158L218.248 125.84ZM223.253 123.158C223.416 122.957 223.494 122.7 223.472 122.443C223.45 122.185 223.329 121.945 223.135 121.775C222.94 121.604 222.687 121.516 222.428 121.528C222.169 121.54 221.926 121.652 221.748 121.84L223.253 123.158ZM219.753 127.158L223.253 123.158L221.748 121.84L218.248 125.84L219.753 127.158Z" fill="#637282"/>
<path d="M318.799 7.93689C319.379 7.36289 319.791 6.95789 319.999 6.75989C320.442 6.27226 320.982 5.88273 321.585 5.61631C322.188 5.34989 322.84 5.21248 323.499 5.21289C324.158 5.2126 324.81 5.35007 325.412 5.61648C326.015 5.88289 326.555 6.27236 326.999 6.75989C328.718 8.47489 334.156 13.8309 336.999 16.7599C337.504 17.1927 337.909 17.7296 338.187 18.3337C338.465 18.9379 338.608 19.5949 338.608 20.2599C338.608 20.9249 338.465 21.582 338.187 22.1861C337.909 22.7903 337.504 23.3271 336.999 23.7599C335.66 25.0459 305.344 56.7029 302.999 58.7599C301.314 60.2379 300 59.4999 298.999 58.7599C298 57.9999 285.498 45.5199 284.999 44.7599C284.5 43.9999 284 42.9999 284.999 41.7599C285.998 40.5199 304.484 22.2299 313.771 12.9509C314.012 12.768 314.211 12.5357 314.356 12.2696C314.5 12.0034 314.586 11.7095 314.607 11.4076C314.629 11.1056 314.586 10.8025 314.481 10.5185C314.376 10.2346 314.212 9.97624 313.999 9.76089C313.055 8.70576 312.054 7.7042 310.999 6.76089C310.711 6.44851 310.333 6.23369 309.917 6.1464C309.502 6.0591 309.069 6.10367 308.68 6.27389C308.422 6.38689 308.19 6.55289 307.999 6.75989C306.727 7.97089 267.047 47.7339 265.999 48.7599C264.951 49.7859 265.465 50.2339 265.999 50.7599C266.533 51.2859 267.999 52.7599 267.999 52.7599" stroke="#637282" stroke-width="2" stroke-linecap="round"/>
<path d="M192 127H354" stroke="#637282" stroke-width="2"/>
</svg>
