<svg width="550" height="142" viewBox="0 0 550 142" fill="none" xmlns="http://www.w3.org/2000/svg">
<g clip-path="url(#clip0_675_13463)">
<path d="M50.1758 136.9C40.1605 136.265 30.5372 132.772 22.4456 126.836C14.3541 120.9 8.13342 112.769 4.52045 103.406C0.907484 94.044 0.0535855 83.8421 2.05994 74.0092C4.0663 64.1764 8.84884 55.1246 15.841 47.926C22.8332 40.7274 31.7421 35.6837 41.5125 33.3923C51.2828 31.1008 61.5052 31.6577 70.9688 34.9969C80.4324 38.3361 88.7408 44.3177 94.9096 52.2332C101.079 60.1487 104.849 69.6664 105.776 79.659C105.922 81.254 107.264 84.003 112.996 84.003H209.996" stroke="#3C4249" stroke-width="2"/>
<path d="M53.9922 141C56.2013 141 57.9922 139.209 57.9922 137C57.9922 134.791 56.2013 133 53.9922 133C51.783 133 49.9922 134.791 49.9922 137C49.9922 139.209 51.783 141 53.9922 141Z" stroke="#3C4249" stroke-width="2"/>
<path d="M53.4922 116C70.8892 116 84.9922 101.897 84.9922 84.5C84.9922 67.103 70.8892 53 53.4922 53C36.0952 53 21.9922 67.103 21.9922 84.5C21.9922 101.897 36.0952 116 53.4922 116Z" stroke="#3C4249" stroke-width="2"/>
<path d="M79.9922 67C79.9922 67 62.9512 79.613 60.9922 81C59.0332 82.387 54.9922 85.6 54.9922 90V116" stroke="#3C4249" stroke-width="2"/>
<path d="M73.9922 61C73.9922 61 58.0522 72.4 55.9922 74C53.9322 75.6 48.8922 76.131 44.9922 73C41.0922 69.869 31.9922 62 31.9922 62" stroke="#3C4249" stroke-width="2"/>
<path d="M499.808 32.1C509.823 32.7354 519.447 36.228 527.538 42.1641C535.63 48.1002 541.851 56.231 545.464 65.5935C549.077 74.9561 549.93 85.1579 547.924 94.9908C545.918 104.824 541.135 113.875 534.143 121.074C527.151 128.273 518.242 133.316 508.472 135.608C498.701 137.899 488.479 137.342 479.015 134.003C469.552 130.664 461.243 124.682 455.074 116.767C448.906 108.851 445.135 99.3336 444.208 89.341C444.062 87.741 442.72 84.997 436.987 84.997H343.992" stroke="#3C4249" stroke-width="2"/>
<path d="M495.992 36C498.201 36 499.992 34.2091 499.992 32C499.992 29.7909 498.201 28 495.992 28C493.783 28 491.992 29.7909 491.992 32C491.992 34.2091 493.783 36 495.992 36Z" stroke="#3C4249" stroke-width="2"/>
<path d="M496.492 116C513.889 116 527.992 101.897 527.992 84.5C527.992 67.103 513.889 53 496.492 53C479.095 53 464.992 67.103 464.992 84.5C464.992 101.897 479.095 116 496.492 116Z" stroke="#3C4249" stroke-width="2"/>
<path d="M469.992 102C469.992 102 487.033 89.387 488.992 88C490.951 86.613 494.992 83.4 494.992 79V53" stroke="#3C4249" stroke-width="2"/>
<path d="M475.992 108C475.992 108 491.932 96.6 493.992 95C496.052 93.4 501.092 92.869 504.992 96C508.892 99.131 517.992 107 517.992 107" stroke="#3C4249" stroke-width="2"/>
<path d="M227.172 102.532C231.231 113.624 238.91 123.023 248.97 129.212C259.029 135.401 270.882 138.018 282.612 136.641C294.342 135.263 305.266 129.971 313.618 121.62C321.97 113.268 327.262 102.345 328.641 90.615C328.874 88.609 332.741 85 335.993 85H343.993" stroke="#3C4249" stroke-width="2"/>
<path d="M326.121 66.468C322.033 55.3711 314.329 45.9727 304.251 39.7854C294.173 33.5981 282.305 30.9818 270.56 32.3576C258.814 33.7335 247.873 39.0215 239.497 47.3704C231.121 55.7194 225.799 66.6437 224.385 78.385C224.152 80.391 220.278 84 217.013 84H208.992" stroke="#3C4249" stroke-width="2"/>
<path d="M326.992 75C329.201 75 330.992 73.2091 330.992 71C330.992 68.7909 329.201 67 326.992 67C324.783 67 322.992 68.7909 322.992 71C322.992 73.2091 324.783 75 326.992 75Z" stroke="#3C4249" stroke-width="2"/>
<path d="M225.992 103C228.201 103 229.992 101.209 229.992 99C229.992 96.7909 228.201 95 225.992 95C223.783 95 221.992 96.7909 221.992 99C221.992 101.209 223.783 103 225.992 103Z" stroke="#3C4249" stroke-width="2"/>
<path d="M277.492 116.5C294.889 116.5 308.992 102.397 308.992 85C308.992 67.603 294.889 53.5 277.492 53.5C260.095 53.5 245.992 67.603 245.992 85C245.992 102.397 260.095 116.5 277.492 116.5Z" stroke="#235B95" stroke-width="2"/>
<path d="M287.929 76.5L275.742 88.5L270.055 82.9L265.992 86.9L275.742 96.5L291.992 80.5L287.929 76.5Z" fill="#073769" stroke="#235B95" stroke-width="2" stroke-linejoin="round"/>
<path d="M277.492 112.5C292.68 112.5 304.992 100.188 304.992 85C304.992 69.8122 292.68 57.5 277.492 57.5C262.304 57.5 249.992 69.8122 249.992 85C249.992 100.188 262.304 112.5 277.492 112.5Z" stroke="#235B95" stroke-width="2"/>
<path d="M410.992 135V128H372.992V135H370.992V128H355.992V126H370.992V108H372.992V126H410.992V118H412.992V126H422.992V128H412.992V135H410.992ZM170.992 135V128H132.992V135H130.992V128H120.992V126H130.992V114H132.992V126H170.992V116H172.992V126H190.992V128H172.992V135H170.992ZM130.992 104V100H126.992V98H130.992V94H132.992V98H136.992V100H132.992V104H130.992ZM410.992 59V48H400.992V46H410.992V8H372.992V19H370.992V8H359.992V6H370.992V0H372.992V6H410.992V0H412.992V6H450.992V0H452.992V6H460.992V8H452.992V29H450.992V8H412.992V46H428.992V48H412.992V59H410.992ZM130.992 59V48H116.992V46H130.992V8H92.9922V19H90.9922V8H72.9922V6H90.9922V0H92.9922V6H130.992V0H132.992V6H143.992V8H132.992V46H141.992V48H132.992V59H130.992ZM210.992 26V8H192.992V6H210.992V0H212.992V6H228.992V8H212.992V26H210.992ZM475.992 12V8H471.992V6H475.992V2H477.992V6H481.992V8H477.992V12H475.992ZM245.992 12V8H241.992V6H245.992V2H247.992V6H251.992V8H247.992V12H245.992Z" fill="#3C4249"/>
</g>
<defs>
<clipPath id="clip0_675_13463">
<rect width="549.984" height="142" fill="white"/>
</clipPath>
</defs>
</svg>
