<svg viewBox="0 0 548 142" fill="none" xmlns="http://www.w3.org/2000/svg"><g clip-path="url(#clip0)"><path d="M101.255 64.349a51.997 51.997 0 0 0-59.903-31.27 52 52 0 1 0 62.136 63.17c.987-4 1.231-12.493 9.51-12.493h48" stroke="#637282" stroke-width="2" stroke-linecap="round"/><circle cx="53.5" cy="84.5" r="31.5" stroke="#3C4249" stroke-width="2"/><path d="M80 67S62.96 79.613 61 81c-1.959 1.387-6 4.596-6 9v26m19-55S58.06 72.398 56 74c-2.06 1.602-7.103 2.13-11-1-3.897-3.13-13-11-13-11" stroke="#3C4249" stroke-width="2"/><path d="M166 88.76a5 5 0 1 0 0-10 5 5 0 0 0 0 10z" stroke="#637282" stroke-width="2"/><path d="M446.744 65.349a52 52 0 1 1-2.233 31.9c-.987-4-1.231-12.493-9.51-12.493H387" stroke="#637282" stroke-width="2" stroke-linecap="round"/><path d="M382 89.76a5 5 0 1 0 0-10 5 5 0 0 0 0 10z" stroke="#637282" stroke-width="2"/><circle cx="495.5" cy="84.5" r="31.5" stroke="#3C4249" stroke-width="2"/><path d="M469 102s17.041-12.613 19-14c1.959-1.387 6-4.596 6-9V53m-19 55.002s15.94-11.398 18-13c2.06-1.602 7.103-2.131 11 1 3.897 3.13 13 11 13 11" stroke="#3C4249" stroke-width="2"/><path fill-rule="evenodd" clip-rule="evenodd" d="M410.001 135v-7H372v7h-2v-7h-15v-2h15v-18h2v18h38.001v-8H412v8h10v2h-10v7h-1.999zM170 135v-7h-38v7h-2v-7h-10v-2h10v-12.001h2V126h38v-10h2v10h18v2h-18v7h-2zm-40-31v-4h-4v-2h4v-4h2v4h4v2h-4v4h-2zm280.001-45V48H400v-2h10.001V8H372v11h-2V8h-11V6h11V0h2v6h38.001V0H412v6h38V0h2v6h8v2h-8v21h-2V8h-38v38h16.001v2H412v11h-1.999zM130 59V48h-14v-2h14V8H92v11h-2V8H72V6h18V0h2v6h38V0h2v6h11v2h-11v38h9v2h-9v11h-2zm80-33V8h-18V6h18V0h2.001v6H228v2h-15.999v18H210zm265-14V8h-4V6h4V2h2v4h4v2h-4v4h-2zm-230 0V8h-4V6h4V2h2v4h4v2h-4v4h-2z" fill="#3C4249"/><path d="M237 96.76s9.395 9.474 10 10a1.376 1.376 0 0 0 2 0c2.043-1.765 2.609-2.232 2-3-.807-1.018-8.433-8.43-9-9a2.022 2.022 0 0 1 0-3c1.172-1.226 37.224-36.26 38-37a2.09 2.09 0 0 1 3 0c1.025.95 9 9 9 9" stroke="#289548" stroke-width="2" stroke-linecap="round" stroke-linejoin="round" stroke-dasharray="4 4"/><path d="M245 110.76c-.9-.864-12.5-12.74-13-13-.501-.26-1.331-.464-2 1s-7.907 17.968-8.498 19.24c-1.208 2.793 2.497 5.52 4.498 4.76 2-.76 19.134-8.676 20-9a10.16 10.16 0 0 0 3-2c.982-.915 45.181-46.23 46-47 .819-.77 1.594-2.168 1-3-.594-.832-12.279-12.247-13-13a2.985 2.985 0 0 0-4 0c-1.214 1.283-46 46-46 46" stroke="#637282" stroke-width="2" stroke-linecap="round"/><path d="M218.248 125.841a1 1 0 0 0 1.505 1.318l-1.505-1.318zm5.005-2.682a1.001 1.001 0 0 0-1.505-1.318l1.505 1.318zm-3.5 4l3.5-4-1.505-1.318-3.5 4 1.505 1.318z" fill="#637282"/><path d="M318.799 7.937c.58-.574.992-.979 1.2-1.177a4.726 4.726 0 0 1 3.5-1.547 4.728 4.728 0 0 1 3.5 1.547c1.719 1.715 7.157 7.071 10 10a4.61 4.61 0 0 1 0 7c-1.339 1.286-31.655 32.943-34 35-1.685 1.478-2.999.74-4 0-.999-.76-13.501-13.24-14-14-.499-.76-.999-1.76 0-3s19.485-19.53 28.772-28.809a2.127 2.127 0 0 0 .228-3.19 37.968 37.968 0 0 0-3-3 2.041 2.041 0 0 0-2.319-.487c-.258.113-.49.279-.681.486-1.272 1.211-40.952 40.974-42 42-1.048 1.026-.534 1.474 0 2s2 2 2 2" stroke="#637282" stroke-width="2" stroke-linecap="round"/><path d="M192 127h162" stroke="#637282" stroke-width="2"/></g><defs><clipPath id="clip0"><path fill="#fff" d="M0 0h548v142H0z"/></clipPath></defs></svg>