<svg viewBox="0 0 548 142" fill="none" xmlns="http://www.w3.org/2000/svg">
<g clip-path="url(#clip0_675_13448)">
<path d="M101.3 64.3C96.7002 52.8 88.1002 43.3 77.1002 37.6C66.1002 31.9 53.4002 30.2 41.4002 33C29.3002 35.8 18.6002 42.8 11.3002 52.7C3.80015 62.8 0.300152 75 1.10015 87.4C2.00015 99.8 7.20015 111.4 15.9002 120.2C24.6002 129 36.1002 134.5 48.5002 135.5C60.9002 136.5 73.2001 133.2 83.2001 126C93.3001 118.8 100.4 108.2 103.4 96.2C104.4 92.2 104.6 83.7 112.9 83.7H160.9" stroke="#DBDEE5" stroke-width="2" stroke-linecap="round"/>
<path d="M53.5 116C70.897 116 85 101.897 85 84.5C85 67.103 70.897 53 53.5 53C36.103 53 22 67.103 22 84.5C22 101.897 36.103 116 53.5 116Z" stroke="#DBDEE5" stroke-width="2"/>
<path d="M80 67C80 67 63 79.6 61 81C59 82.4 55 85.6 55 90V116M74 61C74 61 58.1 72.4 56 74C53.9 75.6 48.9 76.1 45 73C41.1 69.9 32 62 32 62M166 88.8C168.8 88.8 171 86.6 171 83.8C171 81 168.8 78.8 166 78.8C163.2 78.8 161 81 161 83.8C161 86.5 163.2 88.8 166 88.8Z" stroke="#DBDEE5" stroke-width="2"/>
<path d="M446.7 65.3C451.3 53.8 459.9 44.3 470.9 38.6C481.9 32.9 494.6 31.2 506.6 34C518.7 36.8 529.4 43.8 536.7 53.7C544 63.6 547.6 75.9 546.8 88.3C545.9 100.7 540.7 112.3 532 121.1C523.3 129.9 511.8 135.4 499.4 136.4C487.1 137.5 474.7 134.1 464.7 126.9C454.6 119.7 447.5 109.1 444.5 97.1C443.5 93.1 443.3 84.6 435 84.6H387" stroke="#DBDEE5" stroke-width="2" stroke-linecap="round"/>
<path d="M382 89.8C384.8 89.8 387 87.6 387 84.8C387 82 384.8 79.8 382 79.8C379.2 79.8 377 82 377 84.8C377 87.5 379.2 89.8 382 89.8Z" stroke="#DBDEE5" stroke-width="2"/>
<path d="M495.5 116C512.897 116 527 101.897 527 84.5C527 67.103 512.897 53 495.5 53C478.103 53 464 67.103 464 84.5C464 101.897 478.103 116 495.5 116Z" stroke="#DBDEE5" stroke-width="2"/>
<path d="M469 102C469 102 486 89.4 488 88C490 86.6 494 83.4 494 79V53M475 108C475 108 490.9 96.6 493 95C495.1 93.4 500.1 92.9 504 96C507.9 99.1 517 107 517 107" stroke="#DBDEE5" stroke-width="2"/>
<path fill-rule="evenodd" clip-rule="evenodd" d="M410 135V128H372V135H370V128H355V126H370V108H372V126H410V118H412V126H422V128H412V135H410ZM170 135V128H132V135H130V128H120V126H130V114H132V126H170V116H172V126H190V128H172V135H170ZM130 104V100H126V98H130V94H132V98H136V100H132V104H130ZM410 59V48H400V46H410V8H372V19H370V8H359V6H370V0H372V6H410V0H412V6H450V0H452V6H460V8H452V29H450V8H412V46H428V48H412V59H410ZM130 59V48H116V46H130V8H92V19H90V8H72V6H90V0H92V6H130V0H132V6H143V8H132V46H141V48H132V59H130ZM210 26V8H192V6H210V0H212V6H228V8H212V26H210ZM475 12V8H471V6H475V2H477V6H481V8H477V12H475ZM245 12V8H241V6H245V2H247V6H251V8H247V12H245Z" fill="#DBDEE5"/>
<path d="M237 96.8C237 96.8 246.4 106.3 247 106.8C247.1 106.9 247.3 107 247.5 107.1C247.7 107.2 247.9 107.2 248 107.2C248.1 107.2 248.4 107.2 248.5 107.1C248.7 107 248.8 106.9 249 106.8C251 105 251.6 104.6 251 103.8C250.2 102.8 242.6 95.4 242 94.8C241.8 94.6 241.6 94.4 241.5 94.1C241.4 93.8 241.3 93.6 241.3 93.3C241.3 93 241.4 92.7 241.5 92.5C241.6 92.2 241.8 92 242 91.8C243.2 90.6 279.2 55.5 280 54.8C280.2 54.6 280.4 54.4 280.7 54.3C281 54.2 281.2 54.1 281.5 54.1C281.8 54.1 282.1 54.2 282.3 54.3C282.6 54.4 282.8 54.6 283 54.8C284 55.7 292 63.8 292 63.8" stroke="#235B95" stroke-width="2" stroke-linecap="round" stroke-linejoin="round" stroke-dasharray="4 4"/>
<path d="M245 110.8C244.1 109.9 232.5 98.1 232 97.8C231.5 97.5 230.7 97.3 230 98.8C229.3 100.3 222.1 116.8 221.5 118C220.3 120.8 224 123.5 226 122.8C228 122 245.1 114.1 246 113.8C247.1 113.3 248.1 112.6 249 111.8C250 110.9 294.2 65.6 295 64.8C295.8 64 296.6 62.6 296 61.8C295.4 61 283.7 49.6 283 48.8C282.5 48.3 281.7 48 281 48C280.3 48 279.5 48.3 279 48.8C277.8 50.1 233 94.8 233 94.8" stroke="#212225" stroke-width="2" stroke-linecap="round"/>
<path d="M218.2 125.8C217.8 126.2 217.9 126.8 218.3 127.2C218.7 127.6 219.3 127.5 219.7 127.1L218.2 125.8V125.8ZM223.3 123.2C223.7 122.8 223.6 122.2 223.2 121.8C222.8 121.4 222.2 121.5 221.8 121.9L223.3 123.2V123.2ZM219.8 127.2L223.3 123.2L221.8 121.9L218.3 125.9L219.8 127.2Z" fill="#212225"/>
<path d="M318.801 7.90001L320.001 6.70001C320.401 6.20001 321.001 5.80001 321.601 5.60001C322.201 5.30001 322.901 5.20001 323.501 5.20001C324.101 5.20001 324.801 5.30001 325.401 5.60001C326.001 5.90001 326.501 6.30001 327.001 6.70001C328.701 8.40001 334.201 13.8 337.001 16.7C337.501 17.1 337.901 17.7 338.201 18.3C338.501 18.9 338.601 19.6 338.601 20.2C338.601 20.9 338.501 21.5 338.201 22.1C337.901 22.7 337.501 23.2 337.001 23.7C335.701 25 305.301 56.6 303.001 58.7C301.301 60.2 300.001 59.4 299.001 58.7C298.001 57.9 285.501 45.5 285.001 44.7C284.501 43.9 284.001 42.9 285.001 41.7C286.001 40.5 304.501 22.2 313.801 12.9C314.001 12.7 314.201 12.5 314.401 12.2L314.701 11.3C314.701 11 314.701 10.7 314.601 10.4C314.501 10.1 314.301 9.90001 314.101 9.60001C313.201 8.50001 312.201 7.50001 311.101 6.60001C310.901 6.40001 310.701 6.20001 310.401 6.10001C310.101 6.00001 309.901 5.90001 309.601 5.90001C309.301 5.90001 309.001 6.00001 308.801 6.10001C308.501 6.20001 308.301 6.40001 308.101 6.60001C306.801 7.80001 267.101 47.6 266.101 48.6C265.101 49.6 265.601 50.1 266.101 50.6L268.101 52.6" stroke="#212225" stroke-width="2" stroke-linecap="round"/>
<path d="M192 127H354" stroke="#212225" stroke-width="2"/>
</g>
<defs>
<clipPath id="clip0_675_13448">
<rect width="548" height="142" fill="white"/>
</clipPath>
</defs>
</svg>
