<svg version="1.1" id="arrow-rotate-left" xmlns="http://www.w3.org/2000/svg" x="0" y="0" viewBox="0 0 20 20" xml:space="preserve"><path fill="currentColor" d="M10.01 20c1.407 0 2.81-.296 4.127-.883a9.766 9.766 0 0 0 5.232-5.576C21.29 8.323 18.675 2.538 13.54.645 9.827-.715 5.824.11 3.049 2.793v-.87a1.129 1.129 0 1 0-2.26 0V5.52a1.13 1.13 0 0 0 .282.743 1.123 1.123 0 0 0 .775.382c.027.001.044 0 .08.002h3.587a1.129 1.129 0 1 0 0-2.259H4.65c2.147-2.05 5.237-2.674 8.11-1.622 3.965 1.462 5.98 5.946 4.49 9.995a7.521 7.521 0 0 1-4.033 4.294 7.86 7.86 0 0 1-5.96.191 7.656 7.656 0 0 1-4.31-3.998 1.129 1.129 0 1 0-2.056.938 9.94 9.94 0 0 0 5.588 5.18A10.18 10.18 0 0 0 10.01 20z"/></svg>