<svg viewBox="0 0 24 24" fill="none" xmlns="http://www.w3.org/2000/svg">
<path d="M14.4016 14.3984L12.1146 16.7502C12.0998 16.7655 12.0822 16.7776 12.0628 16.7859C12.0434 16.7942 12.0226 16.7984 12.0016 16.7984C11.9806 16.7984 11.9598 16.7942 11.9404 16.7859C11.921 16.7776 11.9033 16.7655 11.8885 16.7502L9.60156 14.3984" stroke="currentColor" stroke-width="1.6" stroke-linecap="round" stroke-linejoin="round"/>
<path d="M9.60234 9.60156L11.8893 7.24978C11.9041 7.23449 11.9217 7.22237 11.9411 7.21409C11.9605 7.20582 11.9813 7.20156 12.0023 7.20156C12.0233 7.20156 12.0441 7.20582 12.0635 7.21409C12.0829 7.22237 12.1006 7.23449 12.1154 7.24978L14.4023 9.60156" stroke="currentColor" stroke-width="1.6" stroke-linecap="round" stroke-linejoin="round"/>
</svg>
