<svg id="migration-pending-banner-light" xmlns="http://www.w3.org/2000/svg" xml:space="preserve" viewBox="0 0 500 122"><g fill="none" stroke-linecap="round" stroke-linejoin="round" stroke-width="1.5"><path stroke="#DBDEE5" d="m150.704 72.89 7.527-11.892-7.527-11.887c-.767-1.213-.145-3.111 1.022-3.111h4.36a2.48 2.48 0 0 1 2.042 1.273l7.902 12.483a2.436 2.436 0 0 1 0 2.47l-7.893 12.501A2.48 2.48 0 0 1 156.095 76h-4.369c-1.167 0-1.789-1.898-1.022-3.11zm20 0 7.527-11.892-7.527-11.887c-.767-1.213-.145-3.111 1.022-3.111h4.36a2.48 2.48 0 0 1 2.042 1.273l7.902 12.483a2.436 2.436 0 0 1 0 2.47l-7.893 12.501A2.48 2.48 0 0 1 176.095 76h-4.369c-1.167 0-1.789-1.898-1.022-3.11zm20 0 7.527-11.892-7.527-11.887c-.767-1.213-.145-3.111 1.022-3.111h4.36a2.48 2.48 0 0 1 2.042 1.273l7.902 12.483a2.436 2.436 0 0 1 0 2.47l-7.893 12.501A2.48 2.48 0 0 1 196.095 76h-4.369c-1.167 0-1.789-1.898-1.022-3.11z"/><path stroke="#E5E5FF" d="m210.704 72.89 7.527-11.892-7.527-11.887c-.767-1.213-.145-3.111 1.022-3.111h4.36a2.48 2.48 0 0 1 2.042 1.273l7.902 12.483a2.436 2.436 0 0 1 0 2.47l-7.893 12.501A2.48 2.48 0 0 1 216.095 76h-4.369c-1.167 0-1.789-1.898-1.022-3.11z"/><path stroke="#D6D5FF" d="m230.704 72.89 7.527-11.892-7.527-11.887c-.767-1.213-.145-3.111 1.022-3.111h4.36a2.48 2.48 0 0 1 2.042 1.273l7.902 12.483a2.436 2.436 0 0 1 0 2.47l-7.893 12.501A2.48 2.48 0 0 1 236.095 76h-4.369c-1.167 0-1.789-1.898-1.022-3.11z"/><path stroke="#9C9AFF" d="m250.704 72.89 7.527-11.892-7.527-11.887c-.767-1.213-.145-3.111 1.022-3.111h4.36a2.48 2.48 0 0 1 2.042 1.273l7.902 12.483a2.436 2.436 0 0 1 0 2.47l-7.893 12.501A2.48 2.48 0 0 1 256.095 76h-4.369c-1.167 0-1.789-1.898-1.022-3.11z"/><path stroke="#6E6CEF" d="m270.704 72.89 7.527-11.892-7.527-11.887c-.767-1.213-.145-3.111 1.022-3.111h4.36a2.48 2.48 0 0 1 2.042 1.273l7.902 12.483a2.436 2.436 0 0 1 0 2.47l-7.893 12.501A2.48 2.48 0 0 1 276.095 76h-4.369c-1.167 0-1.789-1.898-1.022-3.11h0z"/><path stroke="#5B59DC" d="m290.704 72.89 7.527-11.892-7.527-11.887c-.767-1.213-.145-3.111 1.022-3.111h4.36a2.48 2.48 0 0 1 2.042 1.273l7.902 12.483a2.436 2.436 0 0 1 0 2.47l-7.893 12.501A2.48 2.48 0 0 1 296.095 76h-4.369c-1.167 0-1.789-1.898-1.022-3.11h0z"/><path stroke="#5452CE" d="m310.704 72.89 7.527-11.892-7.527-11.887c-.767-1.213-.145-3.111 1.022-3.111h4.36a2.48 2.48 0 0 1 2.042 1.273l7.902 12.483a2.436 2.436 0 0 1 0 2.47l-7.893 12.501A2.48 2.48 0 0 1 316.095 76h-4.369c-1.167 0-1.789-1.898-1.022-3.11h0z"/><path stroke="#DBDEE5" d="m330.704 72.89 7.527-11.892-7.527-11.887c-.767-1.213-.145-3.111 1.022-3.111h4.36a2.48 2.48 0 0 1 2.042 1.273l7.902 12.483a2.436 2.436 0 0 1 0 2.47l-7.893 12.501A2.48 2.48 0 0 1 336.095 76h-4.369c-1.167 0-1.789-1.898-1.022-3.11h0zm20 0 7.527-11.892-7.527-11.887c-.767-1.213-.145-3.111 1.022-3.111h4.36a2.48 2.48 0 0 1 2.042 1.273l7.902 12.483a2.436 2.436 0 0 1 0 2.47l-7.893 12.501A2.48 2.48 0 0 1 356.095 76h-4.369c-1.167 0-1.789-1.898-1.022-3.11h0zM137.538 74.638l9-13.636-9-13.637m232 27.273 9-13.636-9-13.637"/></g><path fill="#F5F5FF" stroke="#5452CE" stroke-width="1.407" d="M441.038 4.464a12 12 0 0 1 12 0L493 27.536a12 12 0 0 1 6 10.392v46.144c0 4.287-2.288 8.248-6 10.392l-39.962 23.072a12.003 12.003 0 0 1-12 0l-39.962-23.072a12.002 12.002 0 0 1-6-10.392V37.928c0-4.287 2.288-8.248 6-10.392l39.962-23.072z"/><path fill="#D6D5FF" fill-rule="evenodd" d="m447.112 48.265-34.074 35.858L447.112 29l33.827 55.123-33.827-35.858zm-15.352 24.35 5.445-5.754h19.72l5.445 5.754h-30.61zm9.323-9.76 6.024-6.17 5.94 6.17h-11.964z" clip-rule="evenodd"/><path fill="#5452CE" d="m447.112 48.265.728-.686a1.001 1.001 0 0 0-1.453-.003l.725.69zm-34.074 35.858-.851-.526a1.001 1.001 0 0 0 1.576 1.215l-.725-.69v.001zM447.112 29l.853-.523a1.001 1.001 0 0 0-1.703-.003l.85.526zm33.827 55.123-.728.686a1 1 0 0 0 1.58-1.21l-.852.524zM431.76 72.615l-.726-.688a1 1 0 0 0 .726 1.688v-1zm5.445-5.754v-1c-.274 0-.537.113-.726.312l.726.688zm19.72 0 .726-.688a1 1 0 0 0-.726-.312v1zm5.445 5.754v1a1 1 0 0 0 .727-1.688l-.727.688zm-21.287-9.76-.716-.698a1 1 0 0 0 .716 1.7v-1.002zm6.024-6.17.72-.694a1 1 0 0 0-1.436-.005l.716.7zm5.94 6.17v1a1 1 0 0 0 .72-1.693l-.72.694zm-6.66-15.279-34.074 35.858 1.45 1.378 34.074-35.858-1.45-1.378zm-32.498 37.072 34.074-55.122-1.701-1.052-34.075 55.123 1.702 1.052zm32.371-55.125 33.826 55.123 1.705-1.046-33.826-55.123-1.705 1.046zm35.406 53.913L447.84 47.58l-1.455 1.373 33.826 35.857 1.455-1.373zm-49.18-10.134 5.446-5.754-1.453-1.375-5.445 5.754 1.452 1.375zm4.719-5.44h19.72v-2h-19.72v2zm18.994-.314 5.445 5.754 1.453-1.375-5.446-5.754-1.452 1.375zm6.171 4.067h-30.61v2h30.61v-2zm-20.572-8.06 6.024-6.172-1.431-1.397-6.024 6.171 1.431 1.398zm4.588-6.177 5.94 6.171 1.441-1.387-5.94-6.17-1.441 1.386zm6.661 4.478h-11.964v2h11.964v-2z"/><path fill="none" stroke="#D6D5FF" stroke-width="1.407" d="M443.038 8.31a8 8 0 0 1 8 0l39.631 22.88a8 8 0 0 1 4 6.93v45.76c0 2.858-1.524 5.5-4 6.928l-39.631 22.883a8 8 0 0 1-8 0L403.407 90.81a7.998 7.998 0 0 1-4-6.928v-45.76c0-2.859 1.524-5.5 4-6.929L443.038 8.31v.001z"/><circle cx="61" cy="61" r="60" fill="#FFF5F2" stroke="#DE5846" stroke-width="2"/><circle cx="61" cy="61" r="54" fill="none" stroke="#FEB8AE" stroke-width="2"/><path fill="#FFE0DA" fill-rule="evenodd" d="M61.074 52.265 27 88.123 61.074 33l33.827 55.123-33.827-35.858zm-15.352 24.35 5.445-5.754h19.72l5.445 5.754h-30.61zm9.323-9.76 6.024-6.17 5.94 6.17H55.045z" clip-rule="evenodd"/><path fill="#DE5846" d="m61.074 52.265.728-.686a1 1 0 0 0-1.453-.003l.725.69v-.001zM27 88.123l-.85-.526a1 1 0 0 0 1.575 1.215l-.725-.69v.001zM61.074 33l.853-.523a1 1 0 0 0-1.703-.003l.85.526zm33.827 55.123-.728.686a1 1 0 0 0 1.58-1.21l-.852.524zM45.72 76.615l-.725-.688a1 1 0 0 0 .726 1.688v-1h-.001zm5.446-5.754v-1a1 1 0 0 0-.726.312l.726.688zm19.72 0 .726-.688a1 1 0 0 0-.726-.312v1zm5.445 5.754v1a1 1 0 0 0 .727-1.688l-.727.688zm-21.287-9.76-.716-.698a1 1 0 0 0 .716 1.699v-1.001zm6.024-6.17.72-.694a1 1 0 0 0-1.436-.005l.716.699zm5.94 6.17v1a1 1 0 0 0 .72-1.693l-.72.694v-.001zm-6.66-15.279L26.275 87.434l1.45 1.378 34.074-35.858-1.45-1.378h-.001zM27.851 88.648l34.074-55.122-1.701-1.052-34.075 55.123 1.702 1.052v-.001zm32.371-55.125 33.826 55.123 1.705-1.046-33.826-55.123-1.705 1.046zm35.406 53.913L61.802 51.58l-1.455 1.373L94.173 88.81l1.455-1.373v-.001zm-49.18-10.134 5.446-5.754-1.453-1.375-5.446 5.754 1.453 1.375zm4.72-5.441h19.719v-2h-19.72v2h.001zm18.993-.313 5.445 5.754 1.453-1.375-5.446-5.754-1.452 1.375zm6.171 4.067h-30.61v2h30.61v-2zm-20.571-8.06 6.023-6.172-1.43-1.397-6.025 6.171 1.431 1.398h.001zm4.587-6.177 5.94 6.171 1.441-1.387-5.94-6.17-1.44 1.386h-.001zm6.66 4.478H55.046v2H67.01v-2h-.002z"/></svg>
