<svg xmlns="http://www.w3.org/2000/svg" viewBox="0 0 242.5 31.5"><clipPath id="arrowsClipPath" clipPathUnits="objectBoundingBox" transform="scale(.00412 .03175)"><path d="M54.94 31.5a2 2 0 0 1-1.74-1.12 3.17 3.17 0 0 1 .08-3.14l.64.4-.64-.4 7.28-11.49-7.28-11.49a3.17 3.17 0 0 1-.08-3.14A2 2 0 0 1 54.94 0h4.36A3.24 3.24 0 0 1 62 1.66l7.88 12.44a3.25 3.25 0 0 1 0 3.26L62 29.88a3.19 3.19 0 0 1-2.63 1.62zm4.32-30h-4.32c-.2 0-.35.21-.42.34a1.7 1.7 0 0 0 0 1.62l7.53 11.89a.77.77 0 0 1 0 .8L54.55 28a1.7 1.7 0 0 0 0 1.62c.07.13.22.34.42.34h4.37a1.69 1.69 0 0 0 1.38-.89l7.92-12.53a1.68 1.68 0 0 0 0-1.69L60.71 2.42a1.76 1.76 0 0 0-1.45-.92zm-24.32 30a2 2 0 0 1-1.74-1.12 3.17 3.17 0 0 1 .08-3.14l.64.4-.64-.4 7.28-11.49-7.28-11.49a3.17 3.17 0 0 1-.08-3.14A2 2 0 0 1 34.94 0h4.36A3.24 3.24 0 0 1 42 1.66l7.88 12.44a3.25 3.25 0 0 1 0 3.26L42 29.88a3.19 3.19 0 0 1-2.63 1.62zm4.32-30h-4.32c-.2 0-.35.21-.42.34a1.7 1.7 0 0 0 0 1.62l7.53 11.89a.77.77 0 0 1 0 .8L34.55 28a1.7 1.7 0 0 0 0 1.62c.07.13.22.34.42.34h4.37a1.69 1.69 0 0 0 1.38-.89l7.92-12.53a1.68 1.68 0 0 0 0-1.69L40.71 2.42a1.76 1.76 0 0 0-1.45-.92zm-24.32 30a2 2 0 0 1-1.74-1.12 3.17 3.17 0 0 1 .08-3.14l.64.4-.64-.4 7.28-11.49-7.28-11.49a3.17 3.17 0 0 1-.08-3.14A2 2 0 0 1 14.94 0h4.36A3.24 3.24 0 0 1 22 1.66l7.88 12.44a3.25 3.25 0 0 1 0 3.26L22 29.88a3.19 3.19 0 0 1-2.63 1.62zm4.32-30h-4.32c-.2 0-.35.21-.42.34a1.7 1.7 0 0 0 0 1.62l7.53 11.89a.77.77 0 0 1 0 .8L14.55 28a1.7 1.7 0 0 0 0 1.62c.07.13.22.34.42.34h4.37a1.69 1.69 0 0 0 1.38-.89l7.92-12.53a1.68 1.68 0 0 0 0-1.69L20.71 2.42a1.76 1.76 0 0 0-1.45-.92zm55.68 30a2 2 0 0 1-1.74-1.12 3.17 3.17 0 0 1 .08-3.14l.64.4-.64-.4 7.28-11.49-7.28-11.49a3.17 3.17 0 0 1-.08-3.14A2 2 0 0 1 74.94 0h4.36A3.24 3.24 0 0 1 82 1.66l7.88 12.44a3.25 3.25 0 0 1 0 3.26L82 29.88a3.19 3.19 0 0 1-2.63 1.62zm4.32-30h-4.32c-.2 0-.35.21-.42.34a1.7 1.7 0 0 0 0 1.62l7.53 11.89a.77.77 0 0 1 0 .8L74.55 28a1.7 1.7 0 0 0 0 1.62c.07.13.22.34.42.34h4.37a1.69 1.69 0 0 0 1.38-.89l7.92-12.53a1.68 1.68 0 0 0 0-1.69L80.71 2.42a1.76 1.76 0 0 0-1.45-.92zm15.68 30a2 2 0 0 1-1.74-1.12 3.17 3.17 0 0 1 .08-3.14l.64.4-.64-.4 7.28-11.49-7.28-11.49a3.17 3.17 0 0 1-.08-3.14A2 2 0 0 1 94.94 0h4.36a3.24 3.24 0 0 1 2.7 1.66l7.88 12.44a3.25 3.25 0 0 1 0 3.26L102 29.88a3.19 3.19 0 0 1-2.63 1.62zm4.32-30h-4.32c-.2 0-.35.21-.42.34a1.7 1.7 0 0 0 0 1.62l7.53 11.89a.77.77 0 0 1 0 .8L94.55 28a1.7 1.7 0 0 0 0 1.62c.07.13.22.34.42.34h4.37a1.69 1.69 0 0 0 1.38-.89l7.92-12.53a1.68 1.68 0 0 0 0-1.69l-7.93-12.43a1.76 1.76 0 0 0-1.45-.92zm15.68 30a2 2 0 0 1-1.74-1.12 3.17 3.17 0 0 1 .08-3.14l7.28-11.49-7.28-11.49a3.17 3.17 0 0 1-.08-3.14A2 2 0 0 1 114.94 0h4.36a3.24 3.24 0 0 1 2.7 1.66l7.88 12.44a3.25 3.25 0 0 1 0 3.26L122 29.88a3.19 3.19 0 0 1-2.64 1.62zm-.39-3.5a1.7 1.7 0 0 0 0 1.62c.07.13.22.34.42.34h4.37a1.69 1.69 0 0 0 1.38-.89l7.92-12.53a1.68 1.68 0 0 0 0-1.69l-7.93-12.43a1.76 1.76 0 0 0-1.45-.92h-4.32c-.2 0-.35.21-.42.34a1.7 1.7 0 0 0 0 1.62l7.53 11.89a.77.77 0 0 1 0 .8zm20.39 3.5a2 2 0 0 1-1.73-1.12 3.14 3.14 0 0 1 .07-3.14l7.28-11.49-7.28-11.49a3.14 3.14 0 0 1-.07-3.14A2 2 0 0 1 134.94 0h4.36a3.24 3.24 0 0 1 2.7 1.66l7.88 12.44a3.25 3.25 0 0 1 0 3.26L142 29.88a3.19 3.19 0 0 1-2.64 1.62zm-.39-3.5a1.7 1.7 0 0 0 0 1.62c.07.13.22.34.42.34h4.37a1.69 1.69 0 0 0 1.38-.89l7.92-12.53a1.68 1.68 0 0 0 0-1.69l-7.93-12.43a1.76 1.76 0 0 0-1.45-.92h-4.32c-.2 0-.35.21-.42.34a1.7 1.7 0 0 0 0 1.62l7.53 11.89a.77.77 0 0 1 0 .8zm20.39 3.5a2 2 0 0 1-1.73-1.12 3.14 3.14 0 0 1 .07-3.14l7.28-11.49-7.28-11.49a3.14 3.14 0 0 1-.07-3.14A2 2 0 0 1 154.94 0h4.36a3.24 3.24 0 0 1 2.7 1.66l7.88 12.44a3.25 3.25 0 0 1 0 3.26L162 29.88a3.19 3.19 0 0 1-2.64 1.62zm-.39-3.5a1.7 1.7 0 0 0 0 1.62c.07.13.22.34.42.34h4.37a1.69 1.69 0 0 0 1.38-.89l7.92-12.53a1.68 1.68 0 0 0 0-1.69l-7.93-12.43a1.76 1.76 0 0 0-1.45-.92h-4.32c-.2 0-.35.21-.42.34a1.7 1.7 0 0 0 0 1.62l7.53 11.89a.77.77 0 0 1 0 .8zm20.39 3.5a2 2 0 0 1-1.73-1.12 3.14 3.14 0 0 1 .07-3.14l7.28-11.49-7.28-11.49a3.14 3.14 0 0 1-.07-3.14A2 2 0 0 1 174.94 0h4.36a3.24 3.24 0 0 1 2.7 1.66l7.88 12.44a3.25 3.25 0 0 1 0 3.26L182 29.88a3.19 3.19 0 0 1-2.64 1.62zm-.39-3.5a1.7 1.7 0 0 0 0 1.62c.07.13.22.34.42.34h4.37a1.69 1.69 0 0 0 1.38-.89l7.92-12.53a1.68 1.68 0 0 0 0-1.69l-7.93-12.43a1.76 1.76 0 0 0-1.45-.92h-4.32c-.2 0-.35.21-.42.34a1.7 1.7 0 0 0 0 1.62l7.53 11.89a.77.77 0 0 1 0 .8zm40.39 3.5a2 2 0 0 1-1.73-1.12 3.14 3.14 0 0 1 .07-3.14l7.28-11.49-7.28-11.49a3.14 3.14 0 0 1-.07-3.14A2 2 0 0 1 214.94 0h4.36a3.24 3.24 0 0 1 2.7 1.66l7.88 12.44a3.25 3.25 0 0 1 0 3.26L222 29.88a3.19 3.19 0 0 1-2.64 1.62zm-.39-3.5a1.7 1.7 0 0 0 0 1.62c.07.13.22.34.42.34h4.37a1.69 1.69 0 0 0 1.38-.89l7.92-12.53a1.68 1.68 0 0 0 0-1.69l-7.93-12.43a1.76 1.76 0 0 0-1.45-.92h-4.32c-.2 0-.35.21-.42.34a1.7 1.7 0 0 0 0 1.62l7.53 11.89a.77.77 0 0 1 0 .8zm-19.61 3.5a2 2 0 0 1-1.73-1.12 3.14 3.14 0 0 1 .07-3.14l7.28-11.49-7.28-11.49a3.14 3.14 0 0 1-.07-3.14A2 2 0 0 1 194.94 0h4.36a3.24 3.24 0 0 1 2.7 1.66l7.88 12.44a3.25 3.25 0 0 1 0 3.26L202 29.88a3.19 3.19 0 0 1-2.64 1.62zm-.39-3.5a1.7 1.7 0 0 0 0 1.62c.07.13.22.34.42.34h4.37a1.69 1.69 0 0 0 1.38-.89l7.92-12.53a1.68 1.68 0 0 0 0-1.69l-7.93-12.43a1.76 1.76 0 0 0-1.45-.92h-4.32c-.2 0-.35.21-.42.34a1.7 1.7 0 0 0 0 1.62l7.53 11.89a.77.77 0 0 1 0 .8zm38.2 2.1a.69.69 0 0 1-.41-.13.75.75 0 0 1-.22-1l8.73-13.22-8.73-13.22a.75.75 0 0 1 1.26-.83l9 13.64a.78.78 0 0 1 0 .83l-9 13.63a.77.77 0 0 1-.63.34zm-232 0a.69.69 0 0 1-.41-.1.75.75 0 0 1-.22-1l8.73-13.25L.12 2.53a.76.76 0 0 1 .22-1 .75.75 0 0 1 1 .21l9 13.64a.78.78 0 0 1 0 .83l-9 13.63a.77.77 0 0 1-.59.3z"/></clipPath></svg>