<svg id="migration-success-banner-dark" xmlns="http://www.w3.org/2000/svg" width="296" height="130" fill="none"><path stroke="#5452CE" stroke-linecap="round" stroke-width="2" d="M212.493 110.842c.219-6.433 5.089-19.718 22.812-21.396m-13.38-6.503c2.266-3.776 4.694-12.88-3.729-19.09M283.336 7c19.531 16.362 12.284 38.197-12.944 26.431-25.228-11.766-6.137-24.753 13.385-.21m3.509 6.294c2.852 8.18-4.825 21.816-26.321 13.845-21.496-7.972-6.361-28.949 15.354-.63m2.632 5.664c4.385 9.86-.658 21.816-24.347 15.313-23.689-6.502-9.432-31.675 12.722-1.887m3.729 6.083c2.266 6.922 1.14 19.844-21.496 16.152"/><ellipse stroke="#6E6CEF" stroke-width="2" rx="3.071" ry="2.937" transform="matrix(-1 0 0 1 254.388 107.696)"/><ellipse stroke="#6E6CEF" stroke-width="2" rx="3.071" ry="2.937" transform="matrix(-1 0 0 1 233.468 67.697)"/><ellipse stroke="#6E6CEF" stroke-width="2" rx="2.614" ry="2.5" transform="matrix(-1 0 0 1 247.514 120.5)"/><ellipse stroke="#DE5846" stroke-width="2" rx="2.614" ry="2.5" transform="matrix(-1 0 0 1 285.163 85.5)"/><ellipse stroke="#DE5846" stroke-width="2" rx="4.183" ry="4" transform="matrix(-1 0 0 1 229.216 111)"/><path stroke="#DE5846" stroke-linecap="round" stroke-width="2" d="M83.503 110.842c-.22-6.433-5.089-19.718-22.813-21.396m13.38-6.503c-2.266-3.776-4.694-12.88 3.73-19.09M12.665 7C-6.867 23.362.379 45.197 25.61 33.431c25.23-11.766 6.138-24.753-13.386-.21m-3.51 6.294C5.863 47.695 13.54 61.33 35.038 53.36c21.498-7.972 6.362-28.949-15.355-.63m-2.633 5.664c-4.385 9.86.658 21.816 24.35 15.313 23.69-6.502 9.432-31.675-12.723-1.887m-3.73 6.083c-2.266 6.922-1.14 19.844 21.498 16.152"/><ellipse cx="41.624" cy="107.697" stroke="#B01E20" stroke-width="2" rx="3.071" ry="2.937"/><ellipse cx="62.545" cy="67.697" stroke="#B01E20" stroke-width="2" rx="3.071" ry="2.937"/><ellipse cx="48.492" cy="120.5" stroke="#B01E20" stroke-width="2" rx="2.614" ry="2.5"/><ellipse cx="10.842" cy="85.5" stroke="#5452CE" stroke-width="2" rx="2.614" ry="2.5"/><ellipse cx="66.791" cy="111" stroke="#5452CE" stroke-width="2" rx="4.183" ry="4"/><path fill="#212052" stroke="#9C9AFF" stroke-width="1.407" d="M142.002 10.097a12 12 0 0 1 12 0l38.548 22.255a12 12 0 0 1 6 10.393v44.51a12 12 0 0 1-6 10.393l-38.548 22.255a11.998 11.998 0 0 1-12 0l-38.547-22.255a12 12 0 0 1-6-10.392V42.745a12 12 0 0 1 6-10.393l38.547-22.255z"/><path fill="#363383" fill-rule="evenodd" d="M147.712 51.923L112.186 89.31l35.526-57.472L182.98 89.31l-35.268-37.386zM131.7 77.31l5.678-6h20.56l5.677 6H131.7zm9.726-10.174l6.281-6.434 6.193 6.434h-12.474z" clip-rule="evenodd"/><path fill="#9C9AFF" d="M147.712 51.923l.728-.686a1.001 1.001 0 0 0-1.453-.003l.725.69zM112.186 89.31l-.851-.526a1 1 0 0 0 1.575 1.215l-.724-.689zm35.526-57.472l.852-.523a.998.998 0 0 0-1.702-.003l.85.526zM182.98 89.31l-.727.686a1 1 0 0 0 1.579-1.21l-.852.524zm-51.28-12l-.726-.687a.999.999 0 0 0 .726 1.687v-1zm5.678-6v-1c-.275 0-.538.114-.727.313l.727.688zm20.56 0l.726-.687a1 1 0 0 0-.726-.312v1zm5.677 6v1a1 1 0 0 0 .727-1.687l-.727.687zm-22.189-10.174l-.715-.699a1 1 0 0 0 .715 1.699v-1zm6.281-6.434l.72-.694a.999.999 0 0 0-1.436-.005l.716.699zm6.193 6.434v1a1 1 0 0 0 .721-1.694l-.721.694zm-6.913-15.902L111.461 88.62l1.449 1.378 35.527-37.386-1.45-1.378zm-33.951 38.6l35.527-57.471-1.701-1.052-35.527 57.472 1.701 1.052zM146.86 32.36l35.268 57.472 1.704-1.046-35.268-57.472-1.704 1.046zm36.847 56.263L148.44 51.237l-1.455 1.372 35.268 37.386 1.454-1.372zm-51.281-10.626l5.678-5.999-1.453-1.375-5.677 6 1.452 1.374zm4.952-5.686h20.56v-2h-20.56v2zm19.833-.313l5.678 6 1.453-1.375-5.678-6-1.453 1.375zm6.404 4.312H131.7v2h31.915v-2zm-21.473-8.476l6.28-6.434-1.431-1.397-6.28 6.434 1.431 1.397zm4.844-6.439l6.194 6.434 1.441-1.387-6.194-6.434-1.441 1.387zm6.914 4.74h-12.474v2H153.9v-2z"/><path stroke="#4745B0" stroke-width="1.407" d="M141.002 4.041a14 14 0 0 1 14 0l42.292 24.418a14 14 0 0 1 7 12.124v48.834a14 14 0 0 1-7 12.124l-42.292 24.418a14.004 14.004 0 0 1-14 0L98.71 101.541a14 14 0 0 1-7-12.124V40.583a14 14 0 0 1 7-12.124L141.002 4.04z"/><path stroke="#4745B0" stroke-width="1.407" d="M144.002 15.575a8 8 0 0 1 8 0l36.804 21.249a8 8 0 0 1 4 6.928v42.497a8 8 0 0 1-4 6.928l-36.804 21.249a8 8 0 0 1-8 0l-36.803-21.249a7.998 7.998 0 0 1-4-6.928V43.752a8 8 0 0 1 4-6.928l36.803-21.249z"/></svg>