<svg id="migration-success-banner-light" xmlns="http://www.w3.org/2000/svg" width="298" height="130" fill="none"><path fill="#F5F5FF" stroke="#5452CE" stroke-width="1.407" d="M143 8.464a12 12 0 0 1 12 0l39.962 23.072a12 12 0 0 1 6 10.392v46.144c0 4.287-2.288 8.248-6 10.392L155 121.536a12.003 12.003 0 0 1-12 0l-39.962-23.072a12 12 0 0 1-6-10.392V41.928a12 12 0 0 1 6-10.392L143 8.464z"/><path fill="#D6D5FF" fill-rule="evenodd" d="M149.074 52.265L115 88.123 149.074 33l33.827 55.123-33.827-35.858zm-15.352 24.35l5.445-5.754h19.72l5.445 5.754h-30.61zm9.323-9.76l6.024-6.17 5.94 6.17h-11.964z" clip-rule="evenodd"/><path fill="#5452CE" d="M149.074 52.265l.728-.686a1.001 1.001 0 0 0-1.453-.003l.725.69zM115 88.123l-.851-.526a1.001 1.001 0 0 0 1.576 1.215l-.725-.69zM149.074 33l.853-.523a1.001 1.001 0 0 0-1.703-.003l.85.526zm33.827 55.123l-.728.686a1 1 0 0 0 1.58-1.21l-.852.524zm-49.179-11.508l-.726-.688a1 1 0 0 0 .726 1.688v-1zm5.445-5.754v-1c-.274 0-.537.113-.726.312l.726.688zm19.72 0l.726-.688a1 1 0 0 0-.726-.312v1zm5.445 5.754v1a1 1 0 0 0 .727-1.688l-.727.688zm-21.287-9.76l-.716-.698a1 1 0 0 0 .716 1.699v-1zm6.024-6.17l.72-.694a1 1 0 0 0-1.436-.005l.716.699zm5.94 6.17v1a1 1 0 0 0 .72-1.693l-.72.694zm-6.66-15.279l-34.074 35.858 1.45 1.378 34.074-35.858-1.45-1.378zm-32.498 37.072l34.074-55.122-1.701-1.052-34.075 55.123 1.702 1.052zm32.371-55.125l33.826 55.123 1.705-1.046-33.826-55.123-1.705 1.046zm35.406 53.913L149.802 51.58l-1.455 1.373 33.826 35.857 1.455-1.373zm-49.18-10.134l5.446-5.754-1.453-1.375-5.445 5.754 1.452 1.375zm4.719-5.441h19.72v-2h-19.72v2zm18.994-.313l5.445 5.754 1.453-1.375-5.446-5.754-1.452 1.375zm6.171 4.067h-30.61v2h30.61v-2zm-20.572-8.06l6.024-6.172-1.431-1.397-6.024 6.171 1.431 1.398zm4.588-6.177l5.94 6.171 1.441-1.387-5.94-6.17-1.441 1.386zm6.661 4.478h-11.964v2h11.964v-2z"/><path stroke="#D6D5FF" stroke-width="1.407" d="M142 4.041a14 14 0 0 1 14 0l42.292 24.418a14 14 0 0 1 7 12.124v48.834a14 14 0 0 1-7 12.124L156 125.959a14.004 14.004 0 0 1-14 0l-42.292-24.418a14 14 0 0 1-7-12.124V40.583a14 14 0 0 1 7-12.124L142 4.04z"/><path stroke="#D6D5FF" stroke-width="1.407" d="M145 12.31a8 8 0 0 1 8 0l39.631 22.88a8 8 0 0 1 4 6.929V87.88c0 2.858-1.524 5.5-4 6.928L153 117.691a8 8 0 0 1-8 0l-39.631-22.882a7.998 7.998 0 0 1-4-6.928V42.12c0-2.858 1.524-5.5 4-6.928L145 12.309z"/><path stroke="#5452CE" stroke-linecap="round" stroke-width="2" d="M214 110.842c.219-6.433 5.089-19.718 22.812-21.396m-13.38-6.503c2.266-3.776 4.694-12.88-3.729-19.09M284.846 7c19.53 16.362 12.284 38.197-12.944 26.431-25.228-11.766-6.137-24.753 13.384-.21m3.51 6.294c2.851 8.18-4.826 21.816-26.321 13.845-21.496-7.972-6.361-28.949 15.354-.63m2.632 5.664c4.385 9.86-.658 21.816-24.347 15.313-23.689-6.502-9.432-31.675 12.722-1.887m3.729 6.083c2.266 6.922 1.14 19.844-21.496 16.152"/><ellipse stroke="#6E6CEF" stroke-width="2" rx="3.071" ry="2.937" transform="matrix(-1 0 0 1 255.898 107.696)"/><ellipse stroke="#6E6CEF" stroke-width="2" rx="3.071" ry="2.937" transform="matrix(-1 0 0 1 234.98 67.697)"/><ellipse stroke="#6E6CEF" stroke-width="2" rx="2.614" ry="2.5" transform="matrix(-1 0 0 1 249.032 120.5)"/><ellipse stroke="#DE5846" stroke-width="2" rx="2.614" ry="2.5" transform="matrix(-1 0 0 1 286.671 85.5)"/><ellipse stroke="#DE5846" stroke-width="2" rx="4.183" ry="4" transform="matrix(-1 0 0 1 230.728 111)"/><path stroke="#DE5846" stroke-linecap="round" stroke-width="2" d="M84 110.842c-.22-6.433-5.09-19.718-22.815-21.396m13.382-6.503c-2.267-3.776-4.695-12.88 3.729-19.09M13.155 7C-6.377 23.362.87 45.197 26.1 33.431c25.23-11.766 6.138-24.753-13.386-.21m-3.51 6.294c-2.851 8.18 4.827 21.816 26.324 13.845 21.498-7.972 6.362-28.949-15.355-.63m-2.632 5.664c-4.386 9.86.658 21.816 24.349 15.313 23.691-6.502 9.432-31.675-12.723-1.887m-3.73 6.083c-2.266 6.922-1.14 19.844 21.498 16.152"/><ellipse cx="42.114" cy="107.697" stroke="#FEB8AE" stroke-width="2" rx="3.071" ry="2.937"/><ellipse cx="63.03" cy="67.697" stroke="#FEB8AE" stroke-width="2" rx="3.071" ry="2.937"/><ellipse cx="48.976" cy="120.5" stroke="#FEB8AE" stroke-width="2" rx="2.614" ry="2.5"/><ellipse cx="11.331" cy="85.5" stroke="#5452CE" stroke-width="2" rx="2.614" ry="2.5"/><ellipse cx="67.281" cy="111" stroke="#5452CE" stroke-width="2" rx="4.183" ry="4"/></svg>