<svg viewBox="0 0 43 41" fill="none" xmlns="http://www.w3.org/2000/svg">
	<path d="M14.9969 40.0414C11.8576 39.0737 8.99486 37.37 6.64716 35.0721C4.29947 32.7742 2.53473 29.9486 1.5 26.8307L1 34.5M27.9787 1C30.8583 2.03604 33.4712 3.69974 35.6282 5.87058C37.7852 8.04142 39.4322 10.665 40.4497 13.5511L41.5 6.5" stroke="#7E8A9C" stroke-width="2"/>
	<path d="M15.4652 26.7986C22.3291 26.7986 27.8933 21.2343 27.8933 14.3705C27.8933 7.50664 22.3291 1.94238 15.4652 1.94238C8.60136 1.94238 3.03711 7.50664 3.03711 14.3705C3.03711 21.2343 8.60136 26.7986 15.4652 26.7986Z" stroke="#7E8A9C" stroke-width="2"/>
	<path d="M27.8929 14.3706C30.351 14.3706 32.7539 15.0995 34.7976 16.4651C36.8414 17.8307 38.4344 19.7718 39.375 22.0427C40.3157 24.3136 40.5618 26.8125 40.0822 29.2233C39.6027 31.6341 38.4191 33.8486 36.6809 35.5867C34.9428 37.3248 32.7284 38.5085 30.3175 38.988C27.9067 39.4675 25.4079 39.2214 23.1369 38.2808C20.866 37.3401 18.925 35.7472 17.5593 33.7034C16.1937 31.6596 15.4648 29.2568 15.4648 26.7987" stroke="#7E8A9C" stroke-width="2"/>
	<path d="M15.465 22.0845C19.7253 22.0845 23.179 18.6308 23.179 14.3705C23.179 10.1102 19.7253 6.65649 15.465 6.65649C11.2047 6.65649 7.75098 10.1102 7.75098 14.3705C7.75098 18.6308 11.2047 22.0845 15.465 22.0845Z" fill="#3C4249"/>
</svg>
