<svg version="1.1" id="Layer_1" xmlns="http://www.w3.org/2000/svg" x="0" y="0" viewBox="0 0 48 48" xml:space="preserve"><path fill="none" stroke="#212225" stroke-width="2" d="M16.898 46.172a23.422 23.422 0 0 1-15.33-15.005L1 39.877M31.642 1.829a23.43 23.43 0 0 1 14.165 14.256L47 8.075M17.43 31.13c7.795 0 14.115-6.32 14.115-14.115 0-7.796-6.32-14.116-14.116-14.116-7.796 0-14.116 6.32-14.116 14.116 0 7.796 6.32 14.115 14.116 14.115zm14.115-14.115A14.116 14.116 0 1 1 17.43 31.13"/><path fill="#A5ADB9" d="M17.43 25.776a8.762 8.762 0 1 0 0-17.523 8.762 8.762 0 0 0 0 17.523z"/></svg>