<svg viewBox="0 0 50 39" fill="none" xmlns="http://www.w3.org/2000/svg">
	<path d="M45.5715 24.6824V31.3371C45.5715 32.8944 44.9523 34.3879 43.85 35.4891C42.7477 36.5903 41.2528 37.209 39.694 37.209H6.87756C5.31874 37.209 3.82378 36.5903 2.72152 35.4891C1.61927 34.3879 1 32.8944 1 31.3371V12.2537C1 10.6964 1.61927 9.20283 2.72152 8.10165C3.82378 7.00047 5.31874 6.38184 6.87756 6.38184H39.694C41.2528 6.38184 42.7477 7.00047 43.85 8.10165C44.9523 9.20283 45.5715 10.6964 45.5715 12.2537V17.4013" stroke="#7E8A9C" stroke-width="2"/>
	<path d="M1 11.2757V6.87183C1 5.31453 1.61927 3.821 2.72152 2.71982C3.82378 1.61863 5.31874 1 6.87756 1H33.8164C35.3752 1 36.8702 1.61863 37.9724 2.71982C39.0747 3.821 39.694 5.31453 39.694 6.87183" stroke="#7E8A9C" stroke-width="2"/>
	<path d="M35.2852 17.1475H47.5301C47.9198 17.1475 48.2935 17.3021 48.5691 17.5774C48.8447 17.8527 48.9995 18.2261 48.9995 18.6154V23.5086C48.9995 23.898 48.8447 24.2714 48.5691 24.5467C48.2935 24.8219 47.9198 24.9766 47.5301 24.9766H35.2852C35.0194 25.0055 34.7505 24.9767 34.4969 24.8923C34.2434 24.8078 34.011 24.6697 33.8158 24.4873C33.3945 24.1496 30.7026 21.7168 30.3872 21.5514C30.0718 21.386 30.1217 20.7337 30.3872 20.5727C30.6527 20.4117 33.5111 17.8991 33.8158 17.6368C34.0147 17.46 34.2475 17.3254 34.5001 17.2413C34.7527 17.1572 35.0198 17.1253 35.2852 17.1475Z" stroke="#7E8A9C" stroke-width="2"/>
	<path d="M16.6728 30.8479C21.5419 30.8479 25.4891 26.9046 25.4891 22.0402C25.4891 17.1758 21.5419 13.2324 16.6728 13.2324C11.8037 13.2324 7.85645 17.1758 7.85645 22.0402C7.85645 26.9046 11.8037 30.8479 16.6728 30.8479Z" fill="#3C4249"/>
	<path d="M33.8164 12.7437H42.6328" stroke="#3C4249" stroke-width="2"/>
	<path d="M33.8164 30.3599H42.6328" stroke="#3C4249" stroke-width="2"/>
</svg>
