<svg viewBox="0 0 291 373" fill="none" xmlns="http://www.w3.org/2000/svg">
<path d="M267 372.801V345.801H229V372.801H227V345.801H221V343.801H227V305.801H209V303.801H227V300.801H229V303.801H267V265.801H249V263.801H267V240.801H269V263.801H289V265.801H269V303.801H279V305.801H269V343.801H291V345.801H269V372.801H267ZM267 343.801V305.801H229V343.801H267ZM227 290.801V286.801H223V284.801H227V280.801H229V284.801H233V286.801H229V290.801H227ZM267 230.801V226.801H263V224.801H267V220.801H269V224.801H273V226.801H269V230.801H267Z" fill="#3C4249"/>
<path d="M24 372.801V345.801H62V372.801H64V345.801H70V343.801H64V305.801H82V303.801H64V300.801H62V303.801H24V265.801H42V263.801H24V240.801H22V263.801H2V265.801H22V303.801H12V305.801H22V343.801H0V345.801H22V372.801H24ZM24 343.801V305.801H62V343.801H24ZM64 290.801V286.801H68V284.801H64V280.801H62V284.801H58V286.801H62V290.801H64ZM24 230.801V226.801H28V224.801H24V220.801H22V224.801H18V226.801H22V230.801H24Z" fill="#3C4249"/>
<path d="M147 309.801V249.801" stroke="#3C4249" stroke-width="2"/>
<path d="M147 206.801V146.801" stroke="#3C4249" stroke-width="2"/>
<path d="M206.271 361.141H251.451" stroke="#3C4249" stroke-width="2"/>
<path d="M39.8008 361.141H84.9808" stroke="#3C4249" stroke-width="2"/>
<path d="M206.271 345.061H227.321" stroke="#3C4249" stroke-width="2"/>
<path d="M63.9316 345.061H84.9816" stroke="#3C4249" stroke-width="2"/>
<path d="M199.887 341.681C201.136 341.561 202.324 341.086 203.311 340.311C204.286 339.462 205.201 338.547 206.05 337.572V360.172C205.744 361.502 205.025 362.7 203.996 363.596C202.728 364.467 201.345 365.159 199.888 365.651L199.887 341.681ZM86.9008 363.593C85.8714 362.697 85.152 361.499 84.8457 360.169V337.569C85.6945 338.544 86.6097 339.459 87.5847 340.308C88.5717 341.082 89.7599 341.558 91.0087 341.678V365.645C89.5512 365.154 88.1687 364.463 86.9008 363.593Z" fill="#3C4249"/>
<path d="M181.929 310.673H186.351C189.712 310.673 193.536 311.936 194.703 314.112C195.87 316.288 203.364 329.72 204.529 331.799C205.574 333.761 206.081 335.964 206.001 338.186V359.311C206.001 361.853 203.501 365.211 198.14 365.211H92.5137C87.1567 365.211 84.6527 361.858 84.6527 359.311V338.186C84.5728 335.965 85.0813 333.762 86.1267 331.801C87.2917 329.723 94.7857 316.29 95.9527 314.114C97.1197 311.938 100.945 310.675 104.305 310.675H108.727" stroke="#7E8A9C" stroke-width="2"/>
<path d="M159.48 310.871H131.41" stroke="#7E8A9C" stroke-width="2"/>
<path d="M129.411 307.441H110.811C109.706 307.441 108.811 308.336 108.811 309.441V310.921C108.811 312.025 109.706 312.921 110.811 312.921H129.411C130.515 312.921 131.411 312.025 131.411 310.921V309.441C131.411 308.336 130.515 307.441 129.411 307.441Z" stroke="#7E8A9C" stroke-width="2"/>
<path d="M117.03 307.443L104.701 258.825C104.701 258.645 104.736 258.467 104.805 258.301C104.874 258.134 104.975 257.983 105.102 257.856C105.229 257.729 105.38 257.628 105.547 257.559C105.713 257.49 105.891 257.455 106.071 257.455H107.441C107.805 257.455 108.153 257.599 108.41 257.856C108.667 258.113 108.811 258.462 108.811 258.825L123.876 307.443" stroke="#7E8A9C" stroke-width="2"/>
<path d="M175.213 307.443L187.539 258.825C187.539 258.645 187.504 258.467 187.435 258.301C187.366 258.134 187.265 257.983 187.138 257.856C187.011 257.729 186.86 257.628 186.694 257.559C186.527 257.49 186.349 257.455 186.169 257.455H184.8C184.437 257.455 184.088 257.599 183.831 257.856C183.575 258.113 183.43 258.462 183.43 258.825L168.365 307.443" stroke="#7E8A9C" stroke-width="2"/>
<path d="M180.08 307.441H161.48C160.376 307.441 159.48 308.336 159.48 309.441V310.921C159.48 312.025 160.376 312.921 161.48 312.921H180.08C181.185 312.921 182.08 312.025 182.08 310.921V309.441C182.08 308.336 181.185 307.441 180.08 307.441Z" stroke="#7E8A9C" stroke-width="2"/>
<path d="M206 335.238C206 337.78 203.5 341.138 198.139 341.138H92.5134C87.1564 341.138 84.6523 337.784 84.6523 335.238" stroke="#7E8A9C" stroke-width="2"/>
<path d="M178.59 353.351C178.59 352.376 178.879 351.423 179.421 350.612C179.962 349.801 180.732 349.169 181.633 348.796C182.534 348.422 183.525 348.324 184.482 348.515C185.438 348.705 186.316 349.174 187.006 349.864C187.696 350.553 188.165 351.431 188.356 352.388C188.546 353.344 188.448 354.335 188.075 355.236C187.702 356.137 187.07 356.907 186.259 357.449C185.449 357.991 184.495 358.28 183.52 358.28C182.213 358.28 180.959 357.761 180.035 356.836C179.11 355.912 178.591 354.658 178.59 353.351ZM101.9 353.351C101.9 352.376 102.189 351.422 102.731 350.612C103.272 349.801 104.042 349.169 104.943 348.795C105.844 348.422 106.836 348.324 107.792 348.515C108.748 348.705 109.627 349.174 110.316 349.864C111.006 350.553 111.476 351.432 111.666 352.388C111.856 353.345 111.758 354.336 111.385 355.237C111.012 356.138 110.38 356.908 109.569 357.449C108.758 357.991 107.804 358.28 106.829 358.28C105.522 358.28 104.269 357.76 103.344 356.836C102.42 355.912 101.901 354.658 101.9 353.351ZM162.91 354.011C162.91 353.469 163.071 352.939 163.372 352.489C163.673 352.038 164.101 351.687 164.602 351.479C165.102 351.272 165.653 351.218 166.185 351.324C166.716 351.429 167.205 351.69 167.588 352.073C167.971 352.457 168.232 352.945 168.338 353.476C168.443 354.008 168.389 354.559 168.182 355.059C167.974 355.56 167.623 355.988 167.173 356.289C166.722 356.59 166.192 356.751 165.65 356.751C164.924 356.751 164.227 356.462 163.713 355.948C163.199 355.435 162.91 354.738 162.91 354.011ZM149.21 354.011C149.21 353.469 149.371 352.939 149.672 352.489C149.973 352.038 150.401 351.687 150.902 351.479C151.402 351.272 151.953 351.218 152.485 351.324C153.016 351.429 153.505 351.69 153.888 352.073C154.271 352.457 154.532 352.945 154.638 353.476C154.743 354.008 154.689 354.559 154.482 355.059C154.274 355.56 153.923 355.988 153.473 356.289C153.022 356.59 152.492 356.751 151.95 356.751C151.224 356.751 150.527 356.462 150.013 355.948C149.499 355.435 149.21 354.738 149.21 354.011ZM135.52 354.011C135.52 353.469 135.681 352.939 135.982 352.489C136.283 352.038 136.711 351.687 137.212 351.479C137.712 351.272 138.263 351.218 138.795 351.324C139.326 351.429 139.815 351.69 140.198 352.073C140.581 352.457 140.842 352.945 140.948 353.476C141.053 354.008 140.999 354.559 140.792 355.059C140.584 355.56 140.233 355.988 139.783 356.289C139.332 356.59 138.802 356.751 138.26 356.751C137.534 356.751 136.837 356.462 136.323 355.948C135.809 355.435 135.52 354.738 135.52 354.011ZM121.82 354.011C121.82 353.469 121.981 352.939 122.282 352.489C122.583 352.038 123.011 351.687 123.512 351.479C124.013 351.272 124.563 351.218 125.095 351.324C125.626 351.429 126.115 351.69 126.498 352.073C126.881 352.457 127.142 352.945 127.248 353.476C127.353 354.008 127.299 354.559 127.092 355.059C126.884 355.56 126.533 355.988 126.083 356.289C125.632 356.59 125.102 356.751 124.56 356.751C123.834 356.751 123.137 356.462 122.623 355.948C122.109 355.435 121.82 354.738 121.82 354.011Z" stroke="#3C4249" stroke-width="2"/>
<path d="M100.59 334.151H117.71" stroke="#3C4249" stroke-width="2"/>
<path d="M125.93 334.151H143.05" stroke="#3C4249" stroke-width="2"/>
<path d="M151.27 334.151H168.39" stroke="#3C4249" stroke-width="2"/>
<path d="M176.6 334.151H193.72" stroke="#3C4249" stroke-width="2"/>
<path d="M103.33 328.671H119.08" stroke="#3C4249" stroke-width="2"/>
<path d="M127.301 328.671H143.051" stroke="#3C4249" stroke-width="2"/>
<path d="M151.27 328.671H167.02" stroke="#3C4249" stroke-width="2"/>
<path d="M175.23 328.671H190.98" stroke="#3C4249" stroke-width="2"/>
<path d="M106.07 323.191H120.45" stroke="#3C4249" stroke-width="2"/>
<path d="M128.67 323.191H143.05" stroke="#3C4249" stroke-width="2"/>
<path d="M151.27 323.191H165.65" stroke="#3C4249" stroke-width="2"/>
<path d="M173.859 323.191H188.239" stroke="#3C4249" stroke-width="2"/>
<path d="M108.811 317.711H121.821" stroke="#3C4249" stroke-width="2"/>
<path d="M130.039 317.711H143.049" stroke="#3C4249" stroke-width="2"/>
<path d="M151.27 317.711H164.28" stroke="#3C4249" stroke-width="2"/>
<path d="M172.5 317.711H185.51" stroke="#3C4249" stroke-width="2"/>
<path d="M147.672 162.641C191.203 162.641 226.492 127.352 226.492 83.821C226.492 40.2899 191.203 5.00098 147.672 5.00098C104.14 5.00098 68.8516 40.2899 68.8516 83.821C68.8516 127.352 104.14 162.641 147.672 162.641Z" stroke="#1A486B" stroke-width="10" stroke-linecap="round"/>
<path d="M147.672 157.641C188.441 157.641 221.492 124.591 221.492 83.821C221.492 43.0513 188.441 10.001 147.672 10.001C106.902 10.001 73.8516 43.0513 73.8516 83.821C73.8516 124.591 106.902 157.641 147.672 157.641Z" stroke="#0D7ED6" stroke-width="2" stroke-linecap="round"/>
<path d="M147.038 11.2832C177.01 11.6962 201.306 44.9022 201.306 85.4502C201.306 125.998 177.006 158.536 147.038 158.123C117.07 157.71 92.7695 124.505 92.7695 83.9562C92.7695 43.4072 117.066 10.8702 147.038 11.2832Z" stroke="#0D7ED6" stroke-width="2" stroke-linecap="round"/>
<path d="M121.562 83.9819C121.562 43.4479 132.897 10.5879 146.878 10.5879C160.859 10.5879 172.191 43.4479 172.191 83.9819H121.562ZM169.165 118.814C164.887 141.776 156.511 157.375 146.878 157.375C137.317 157.375 128.995 142.009 124.688 119.33L169.165 118.814Z" stroke="#0D7ED6" stroke-width="2" stroke-linecap="round"/>
<path d="M146.867 119.128V157.354V119.128ZM146.867 10.5654V43.2444V10.5654Z" stroke="#0D7ED6" stroke-width="2" stroke-linecap="round"/>
<path d="M220.421 83.94C220.01 113.984 186.971 138.34 146.621 138.34C106.271 138.34 73.9015 113.985 74.3125 83.94C74.7235 53.895 107.762 29.54 148.112 29.54C188.462 29.54 220.832 53.901 220.421 83.94Z" stroke="#0D7ED6" stroke-width="2" stroke-linecap="round"/>
<path d="M158.836 58.6768C194.071 60.4828 221.114 71.0338 221.114 83.7768C221.114 93.0298 206.861 101.126 185.568 105.559L158.836 58.6768ZM109.38 105.301C88.7666 100.816 75.0586 92.8538 75.0586 83.7788C75.0586 71.3368 100.83 60.9858 134.836 58.8208L109.38 105.301Z" stroke="#0D7ED6" stroke-width="2" stroke-linecap="round"/>
<path d="M121.669 83.7695H75.0801H121.669ZM221.134 83.7695H172.507H221.134Z" stroke="#0D7ED6" stroke-width="2" stroke-linecap="round"/>
<path d="M143.69 45.7099C144.026 45.1115 144.515 44.6134 145.108 44.2667C145.7 43.9201 146.374 43.7373 147.06 43.7373C147.746 43.7373 148.42 43.9201 149.013 44.2667C149.605 44.6134 150.094 45.1115 150.43 45.7099L188.388 112.342C188.732 112.938 188.914 113.614 188.916 114.302C188.918 114.991 188.74 115.668 188.399 116.266C188.058 116.864 187.567 117.362 186.974 117.712C186.381 118.061 185.706 118.249 185.018 118.257H109.101C108.413 118.249 107.739 118.061 107.145 117.712C106.552 117.362 106.061 116.864 105.72 116.266C105.38 115.668 105.201 114.991 105.203 114.302C105.205 113.614 105.387 112.938 105.731 112.342L143.69 45.7099Z" stroke="#0D7ED6" stroke-width="2"/>
<path d="M144.723 57.2248C144.976 56.7739 145.345 56.3985 145.792 56.1372C146.238 55.876 146.746 55.7383 147.264 55.7383C147.781 55.7383 148.289 55.876 148.736 56.1372C149.182 56.3985 149.551 56.7739 149.805 57.2248L178.428 107.47C178.687 107.919 178.825 108.429 178.826 108.948C178.828 109.467 178.693 109.978 178.436 110.429C178.18 110.88 177.809 111.256 177.362 111.52C176.914 111.783 176.406 111.925 175.887 111.931H118.641C118.122 111.925 117.613 111.783 117.166 111.52C116.718 111.256 116.348 110.88 116.091 110.429C115.834 109.978 115.7 109.467 115.701 108.948C115.703 108.429 115.84 107.919 116.1 107.47L144.723 57.2248Z" stroke="#FC9F0F" stroke-width="2" stroke-linecap="round" stroke-dasharray="4 4"/>
<path d="M151.789 74.6363C151.789 72.0235 149.671 69.9053 147.059 69.9053C144.446 69.9053 142.328 72.0235 142.328 74.6363V88.8273C142.328 91.4402 144.446 93.5583 147.059 93.5583C149.671 93.5583 151.789 91.4402 151.789 88.8273V74.6363Z" fill="#5B1B1B"/>
<path d="M150.789 74.6363C150.789 72.5758 149.119 70.9053 147.059 70.9053C144.998 70.9053 143.328 72.5758 143.328 74.6363V88.8273C143.328 90.8879 144.998 92.5583 147.059 92.5583C149.119 92.5583 150.789 90.8879 150.789 88.8273V74.6363Z" stroke="#FC9F0F" stroke-width="2"/>
<path d="M151.789 100.654C151.789 98.0417 149.671 95.9238 147.059 95.9238C144.446 95.9238 142.328 98.0417 142.328 100.654C142.328 103.267 144.446 105.385 147.059 105.385C149.671 105.385 151.789 103.267 151.789 100.654Z" fill="#5B1B1B"/>
<path d="M150.789 100.654C150.789 98.594 149.119 96.9238 147.059 96.9238C144.998 96.9238 143.328 98.594 143.328 100.654C143.328 102.715 144.998 104.385 147.059 104.385C149.119 104.385 150.789 102.715 150.789 100.654Z" stroke="#FC9F0F" stroke-width="2"/>
<path d="M150.824 234.57L147.001 230.747L143.178 234.57C142.719 235.029 142.096 235.287 141.447 235.287C140.798 235.287 140.176 235.029 139.717 234.57C139.258 234.111 139 233.489 139 232.839C139 232.19 139.258 231.568 139.717 231.109L143.54 227.286L139.748 223.494C139.518 223.267 139.335 222.997 139.21 222.7C139.085 222.402 139.021 222.083 139.02 221.76C139.018 221.438 139.081 221.118 139.204 220.819C139.327 220.521 139.508 220.25 139.736 220.022C139.965 219.794 140.236 219.613 140.534 219.49C140.833 219.367 141.152 219.304 141.475 219.305C141.798 219.306 142.117 219.371 142.415 219.496C142.712 219.622 142.982 219.804 143.209 220.034L147.001 223.826L150.793 220.034C151.019 219.804 151.289 219.622 151.587 219.496C151.884 219.371 152.204 219.306 152.526 219.305C152.849 219.304 153.169 219.367 153.467 219.49C153.766 219.613 154.037 219.794 154.265 220.022C154.493 220.25 154.674 220.521 154.797 220.819C154.92 221.118 154.983 221.438 154.982 221.76C154.981 222.083 154.916 222.402 154.791 222.7C154.666 222.997 154.484 223.267 154.254 223.494L150.462 227.286L154.285 231.109C154.521 231.334 154.71 231.604 154.84 231.904C154.971 232.203 155.04 232.525 155.044 232.852C155.048 233.178 154.986 233.502 154.863 233.804C154.74 234.107 154.558 234.381 154.327 234.612C154.096 234.843 153.821 235.025 153.519 235.148C153.217 235.271 152.893 235.333 152.566 235.329C152.24 235.325 151.918 235.256 151.618 235.126C151.319 234.995 151.049 234.806 150.824 234.57Z" fill="#5B1B1B" stroke="#FC9F0F" stroke-width="2"/>
<path d="M147 248.801C158.874 248.801 168.5 239.175 168.5 227.301C168.5 215.427 158.874 205.801 147 205.801C135.126 205.801 125.5 215.427 125.5 227.301C125.5 239.175 135.126 248.801 147 248.801Z" stroke="#3C4249" stroke-width="2"/>
</svg>
