<svg width="291" height="373" viewBox="0 0 291 373" fill="none" xmlns="http://www.w3.org/2000/svg">
<g clip-path="url(#clip0_675_23573)">
<path d="M267 372.8V345.8H229V372.8H227V345.8H221V343.8H227V305.8H209V303.8H227V300.8H229V303.8H267V265.8H249V263.8H267V240.8H269V263.8H289V265.8H269V303.8H279V305.8H269V343.8H291V345.8H269V372.8H267ZM267 343.8V305.8H229V343.8H267ZM227 290.8V286.8H223V284.8H227V280.8H229V284.8H233V286.8H229V290.8H227ZM267 230.8V226.8H263V224.8H267V220.8H269V224.8H273V226.8H269V230.8H267Z" fill="#DBDEE5"/>
<path d="M24 372.8V345.8H62V372.8H64V345.8H70V343.8H64L64 305.8H82V303.8H64V300.8H62V303.8H24L24 265.8H42V263.8H24V240.8H22V263.8H2V265.8H22L22 303.8H12V305.8H22L22 343.8H0V345.8H22V372.8H24ZM24 343.8L24 305.8H62L62 343.8H24ZM64 290.8V286.8H68V284.8H64V280.8H62V284.8H58V286.8H62V290.8H64ZM24 230.8L24 226.8H28V224.8H24V220.8H22V224.8H18V226.8H22L22 230.8H24Z" fill="#DBDEE5"/>
<path d="M150.449 236.069L146.626 232.246L142.803 236.069C142.344 236.528 141.721 236.786 141.072 236.786C140.423 236.786 139.801 236.528 139.342 236.069C138.883 235.61 138.625 234.988 138.625 234.339C138.625 233.689 138.883 233.067 139.342 232.608L143.165 228.785L139.373 224.993C139.143 224.766 138.96 224.496 138.835 224.199C138.71 223.901 138.646 223.582 138.645 223.259C138.643 222.937 138.706 222.617 138.829 222.318C138.952 222.02 139.133 221.749 139.361 221.521C139.59 221.293 139.861 221.112 140.159 220.989C140.458 220.866 140.777 220.803 141.1 220.804C141.423 220.805 141.742 220.87 142.04 220.995C142.337 221.121 142.607 221.303 142.834 221.533L146.626 225.325L150.418 221.533C150.644 221.303 150.914 221.121 151.212 220.995C151.509 220.87 151.829 220.805 152.151 220.804C152.474 220.803 152.794 220.866 153.092 220.989C153.391 221.112 153.662 221.293 153.89 221.521C154.118 221.749 154.299 222.02 154.422 222.318C154.545 222.617 154.608 222.937 154.607 223.259C154.606 223.582 154.541 223.901 154.416 224.199C154.291 224.496 154.109 224.766 153.879 224.993L150.087 228.785L153.91 232.608C154.146 232.833 154.335 233.103 154.465 233.403C154.596 233.702 154.665 234.024 154.669 234.351C154.673 234.677 154.611 235.001 154.488 235.303C154.365 235.606 154.183 235.88 153.952 236.111C153.721 236.342 153.446 236.524 153.144 236.647C152.842 236.77 152.518 236.832 152.191 236.828C151.865 236.824 151.543 236.755 151.243 236.625C150.944 236.494 150.674 236.305 150.449 236.069Z" fill="#FFE6B8" stroke="#FC9F0F" stroke-width="2"/>
<path d="M146.625 250.3C158.499 250.3 168.125 240.674 168.125 228.8C168.125 216.926 158.499 207.3 146.625 207.3C134.751 207.3 125.125 216.926 125.125 228.8C125.125 240.674 134.751 250.3 146.625 250.3Z" stroke="#DBDEE5" stroke-width="2"/>
<path d="M147 309.8V249.8" stroke="#DBDEE5" stroke-width="2"/>
<path d="M147 206.8V146.8" stroke="#DBDEE5" stroke-width="2"/>
<path d="M206.271 361.14H251.451" stroke="#DBDEE5" stroke-width="2"/>
<path d="M39.8008 361.14H84.9808" stroke="#DBDEE5" stroke-width="2"/>
<path d="M206.271 345.06H227.321" stroke="#DBDEE5" stroke-width="2"/>
<path d="M63.9316 345.06H84.9816" stroke="#DBDEE5" stroke-width="2"/>
<path d="M199.887 341.68C201.136 341.56 202.324 341.085 203.311 340.31C204.286 339.461 205.201 338.546 206.05 337.571V360.171C205.744 361.501 205.025 362.699 203.996 363.595C202.728 364.466 201.345 365.158 199.888 365.65L199.887 341.68ZM86.9008 363.592C85.8714 362.696 85.152 361.498 84.8457 360.168V337.568C85.6945 338.543 86.6097 339.458 87.5847 340.307C88.5717 341.081 89.7599 341.557 91.0087 341.677V365.644C89.5512 365.153 88.1687 364.462 86.9008 363.592V363.592Z" fill="#EEF3F5"/>
<path d="M181.929 310.672H186.351C189.712 310.672 193.536 311.935 194.703 314.111C195.87 316.287 203.364 329.719 204.529 331.798C205.574 333.76 206.081 335.963 206.001 338.185V359.31C206.001 361.852 203.501 365.21 198.14 365.21H92.5137C87.1567 365.21 84.6527 361.857 84.6527 359.31V338.185C84.5728 335.964 85.0813 333.761 86.1267 331.8C87.2917 329.722 94.7857 316.289 95.9527 314.113C97.1197 311.937 100.945 310.674 104.305 310.674H108.727" stroke="#212225" stroke-width="2"/>
<path d="M159.48 310.87H131.41" stroke="#212225" stroke-width="2"/>
<path d="M129.411 307.44H110.811C109.706 307.44 108.811 308.335 108.811 309.44V310.92C108.811 312.025 109.706 312.92 110.811 312.92H129.411C130.515 312.92 131.411 312.025 131.411 310.92V309.44C131.411 308.335 130.515 307.44 129.411 307.44Z" stroke="#212225" stroke-width="2"/>
<path d="M117.03 307.442L104.701 258.824C104.701 258.644 104.736 258.466 104.805 258.3C104.874 258.133 104.975 257.982 105.102 257.855C105.229 257.728 105.38 257.627 105.547 257.558C105.713 257.489 105.891 257.454 106.071 257.454H107.441C107.805 257.454 108.153 257.598 108.41 257.855C108.667 258.112 108.811 258.461 108.811 258.824L123.876 307.442" stroke="#212225" stroke-width="2"/>
<path d="M175.213 307.442L187.539 258.824C187.539 258.644 187.504 258.466 187.435 258.3C187.366 258.133 187.265 257.982 187.138 257.855C187.011 257.728 186.86 257.627 186.694 257.558C186.527 257.489 186.349 257.454 186.169 257.454H184.8C184.437 257.454 184.088 257.598 183.831 257.855C183.575 258.112 183.43 258.461 183.43 258.824L168.365 307.442" stroke="#212225" stroke-width="2"/>
<path d="M180.08 307.44H161.48C160.376 307.44 159.48 308.335 159.48 309.44V310.92C159.48 312.025 160.376 312.92 161.48 312.92H180.08C181.185 312.92 182.08 312.025 182.08 310.92V309.44C182.08 308.335 181.185 307.44 180.08 307.44Z" stroke="#212225" stroke-width="2"/>
<path d="M206 335.237C206 337.779 203.5 341.137 198.139 341.137H92.5134C87.1564 341.137 84.6523 337.783 84.6523 335.237" stroke="#212225" stroke-width="2"/>
<path d="M178.59 353.35C178.59 352.375 178.879 351.422 179.421 350.611C179.962 349.8 180.732 349.168 181.633 348.795C182.534 348.421 183.525 348.323 184.482 348.514C185.438 348.704 186.316 349.173 187.006 349.863C187.696 350.552 188.165 351.43 188.356 352.387C188.546 353.343 188.448 354.334 188.075 355.235C187.702 356.136 187.07 356.906 186.259 357.448C185.449 357.99 184.495 358.279 183.52 358.279C182.213 358.279 180.959 357.76 180.035 356.835C179.11 355.911 178.591 354.657 178.59 353.35V353.35ZM101.9 353.35C101.9 352.375 102.189 351.422 102.731 350.611C103.272 349.8 104.042 349.168 104.943 348.794C105.844 348.421 106.836 348.323 107.792 348.514C108.748 348.704 109.627 349.173 110.316 349.863C111.006 350.552 111.476 351.431 111.666 352.387C111.856 353.344 111.758 354.335 111.385 355.236C111.012 356.137 110.38 356.907 109.569 357.449C108.758 357.99 107.804 358.279 106.829 358.279C105.522 358.279 104.269 357.759 103.344 356.835C102.42 355.911 101.901 354.657 101.9 353.35ZM162.91 354.01C162.91 353.468 163.071 352.938 163.372 352.488C163.673 352.037 164.101 351.686 164.602 351.479C165.102 351.271 165.653 351.217 166.185 351.323C166.716 351.428 167.205 351.689 167.588 352.072C167.971 352.456 168.232 352.944 168.338 353.475C168.443 354.007 168.389 354.558 168.182 355.059C167.974 355.559 167.623 355.987 167.173 356.288C166.722 356.589 166.192 356.75 165.65 356.75C164.924 356.75 164.227 356.461 163.713 355.947C163.199 355.434 162.91 354.737 162.91 354.01V354.01ZM149.21 354.01C149.21 353.468 149.371 352.938 149.672 352.488C149.973 352.037 150.401 351.686 150.902 351.479C151.402 351.271 151.953 351.217 152.485 351.323C153.016 351.428 153.505 351.689 153.888 352.072C154.271 352.456 154.532 352.944 154.638 353.475C154.743 354.007 154.689 354.558 154.482 355.059C154.274 355.559 153.923 355.987 153.473 356.288C153.022 356.589 152.492 356.75 151.95 356.75C151.224 356.75 150.527 356.461 150.013 355.947C149.499 355.434 149.21 354.737 149.21 354.01V354.01ZM135.52 354.01C135.52 353.468 135.681 352.938 135.982 352.488C136.283 352.037 136.711 351.686 137.212 351.479C137.712 351.271 138.263 351.217 138.795 351.323C139.326 351.428 139.815 351.689 140.198 352.072C140.581 352.456 140.842 352.944 140.948 353.475C141.053 354.007 140.999 354.558 140.792 355.059C140.584 355.559 140.233 355.987 139.783 356.288C139.332 356.589 138.802 356.75 138.26 356.75C137.534 356.75 136.837 356.461 136.323 355.947C135.809 355.434 135.52 354.737 135.52 354.01V354.01ZM121.82 354.01C121.82 353.468 121.981 352.938 122.282 352.488C122.583 352.037 123.011 351.686 123.512 351.479C124.013 351.271 124.563 351.217 125.095 351.323C125.626 351.428 126.115 351.689 126.498 352.072C126.881 352.456 127.142 352.944 127.248 353.475C127.353 354.007 127.299 354.558 127.092 355.059C126.884 355.559 126.533 355.987 126.083 356.288C125.632 356.589 125.102 356.75 124.56 356.75C123.834 356.75 123.137 356.461 122.623 355.947C122.109 355.434 121.82 354.737 121.82 354.01V354.01Z" stroke="#DBDEE5" stroke-width="2"/>
<path d="M100.59 334.15H117.71" stroke="#DBDEE5" stroke-width="2"/>
<path d="M125.93 334.15H143.05" stroke="#DBDEE5" stroke-width="2"/>
<path d="M151.27 334.15H168.39" stroke="#DBDEE5" stroke-width="2"/>
<path d="M176.6 334.15H193.72" stroke="#DBDEE5" stroke-width="2"/>
<path d="M103.33 328.67H119.08" stroke="#DBDEE5" stroke-width="2"/>
<path d="M127.301 328.67H143.051" stroke="#DBDEE5" stroke-width="2"/>
<path d="M151.27 328.67H167.02" stroke="#DBDEE5" stroke-width="2"/>
<path d="M175.23 328.67H190.98" stroke="#DBDEE5" stroke-width="2"/>
<path d="M106.07 323.19H120.45" stroke="#DBDEE5" stroke-width="2"/>
<path d="M128.67 323.19H143.05" stroke="#DBDEE5" stroke-width="2"/>
<path d="M151.27 323.19H165.65" stroke="#DBDEE5" stroke-width="2"/>
<path d="M173.859 323.19H188.239" stroke="#DBDEE5" stroke-width="2"/>
<path d="M108.811 317.71H121.821" stroke="#DBDEE5" stroke-width="2"/>
<path d="M130.039 317.71H143.049" stroke="#DBDEE5" stroke-width="2"/>
<path d="M151.27 317.71H164.28" stroke="#DBDEE5" stroke-width="2"/>
<path d="M172.5 317.71H185.51" stroke="#DBDEE5" stroke-width="2"/>
<path d="M147.672 162.64C191.203 162.64 226.492 127.351 226.492 83.82C226.492 40.2889 191.203 5 147.672 5C104.14 5 68.8516 40.2889 68.8516 83.82C68.8516 127.351 104.14 162.64 147.672 162.64Z" stroke="#E6EFF9" stroke-width="10" stroke-linecap="round"/>
<path d="M147.672 157.64C188.441 157.64 221.492 124.59 221.492 83.82C221.492 43.0503 188.441 10 147.672 10C106.902 10 73.8516 43.0503 73.8516 83.82C73.8516 124.59 106.902 157.64 147.672 157.64Z" stroke="#235B95" stroke-width="2" stroke-linecap="round"/>
<path d="M147.038 11.282C177.01 11.695 201.306 44.901 201.306 85.449C201.306 125.997 177.006 158.535 147.038 158.122C117.07 157.709 92.7695 124.504 92.7695 83.955C92.7695 43.406 117.066 10.869 147.038 11.282Z" stroke="#235B95" stroke-width="2" stroke-linecap="round"/>
<path d="M121.562 83.981C121.562 43.447 132.896 10.587 146.877 10.587C160.858 10.587 172.191 43.447 172.191 83.981M169.164 118.813C164.886 141.775 156.51 157.374 146.877 157.374C137.316 157.374 128.994 142.008 124.687 119.329L169.164 118.813Z" stroke="#235B95" stroke-width="2" stroke-linecap="round"/>
<path d="M146.867 119.127V157.353M146.867 10.5649V43.2439V10.5649Z" stroke="#235B95" stroke-width="2" stroke-linecap="round"/>
<path d="M220.421 83.9391C220.01 113.983 186.971 138.339 146.621 138.339C106.271 138.339 73.9015 113.984 74.3125 83.9391C74.7235 53.8941 107.762 29.5391 148.112 29.5391C188.462 29.5391 220.832 53.9001 220.421 83.9391Z" stroke="#235B95" stroke-width="2" stroke-linecap="round"/>
<path d="M158.836 58.676C194.071 60.482 221.114 71.033 221.114 83.776C221.114 93.029 206.861 101.125 185.568 105.558M109.38 105.3C88.7666 100.815 75.0586 92.853 75.0586 83.778C75.0586 71.336 100.83 60.985 134.836 58.82L109.38 105.3Z" stroke="#235B95" stroke-width="2" stroke-linecap="round"/>
<path d="M121.669 83.769H75.0801M221.134 83.769H172.507H221.134Z" stroke="#235B95" stroke-width="2" stroke-linecap="round"/>
<path d="M143.69 45.709C144.026 45.1106 144.515 44.6125 145.108 44.2659C145.7 43.9192 146.374 43.7365 147.06 43.7365C147.746 43.7365 148.42 43.9192 149.013 44.2659C149.605 44.6125 150.094 45.1106 150.43 45.709L188.388 112.341C188.732 112.937 188.914 113.613 188.916 114.301C188.918 114.99 188.74 115.667 188.399 116.265C188.058 116.863 187.567 117.361 186.974 117.711C186.381 118.06 185.706 118.248 185.018 118.256H109.101C108.413 118.248 107.739 118.06 107.145 117.711C106.552 117.361 106.061 116.863 105.72 116.265C105.38 115.667 105.201 114.99 105.203 114.301C105.205 113.613 105.387 112.937 105.731 112.341L143.69 45.709Z" stroke="#235B95" stroke-width="2"/>
<path d="M144.723 57.224C144.976 56.773 145.345 56.3976 145.792 56.1364C146.238 55.8751 146.746 55.7374 147.264 55.7374C147.781 55.7374 148.289 55.8751 148.736 56.1364C149.182 56.3976 149.551 56.773 149.805 57.224L178.428 107.469C178.687 107.919 178.825 108.428 178.826 108.947C178.828 109.467 178.693 109.977 178.436 110.428C178.18 110.879 177.809 111.255 177.362 111.519C176.914 111.782 176.406 111.924 175.887 111.93H118.641C118.122 111.924 117.613 111.782 117.166 111.519C116.718 111.255 116.348 110.879 116.091 110.428C115.834 109.977 115.7 109.467 115.701 108.947C115.703 108.428 115.84 107.919 116.1 107.469L144.723 57.224Z" stroke="#FC9F0F" stroke-width="2" stroke-linecap="round" stroke-dasharray="4 4"/>
<path d="M151.789 74.6351C151.789 72.0222 149.671 69.9041 147.059 69.9041C144.446 69.9041 142.328 72.0222 142.328 74.6351V88.8261C142.328 91.4389 144.446 93.5571 147.059 93.5571C149.671 93.5571 151.789 91.4389 151.789 88.8261V74.6351Z" fill="#FFE6B8"/>
<path d="M150.789 74.6351C150.789 72.5745 149.119 70.9041 147.059 70.9041C144.998 70.9041 143.328 72.5745 143.328 74.6351V88.8261C143.328 90.8866 144.998 92.5571 147.059 92.5571C149.119 92.5571 150.789 90.8866 150.789 88.8261V74.6351Z" stroke="#FC9F0F" stroke-width="2"/>
<path d="M151.789 100.653C151.789 98.0409 149.671 95.923 147.059 95.923C144.446 95.923 142.328 98.0409 142.328 100.653C142.328 103.266 144.446 105.384 147.059 105.384C149.671 105.384 151.789 103.266 151.789 100.653Z" fill="#FFE6B8"/>
<path d="M150.789 100.653C150.789 98.5932 149.119 96.923 147.059 96.923C144.998 96.923 143.328 98.5932 143.328 100.653C143.328 102.714 144.998 104.384 147.059 104.384C149.119 104.384 150.789 102.714 150.789 100.653Z" stroke="#FC9F0F" stroke-width="2"/>
</g>
<defs>
<clipPath id="clip0_675_23573">
<rect width="291" height="372.8" fill="white"/>
</clipPath>
</defs>
</svg>
