<svg width="320" height="230" viewBox="0 0 320 230" fill="none" xmlns="http://www.w3.org/2000/svg">
<path d="M145.999 127.155V116.336C145.999 116.336 144.407 108.485 137.843 108.282C131.278 108.079 108.812 108.282 108.812 108.282C108.812 108.282 110.255 110.873 110.239 112.245C110.224 113.616 110.239 127.155 110.239 127.155H145.999Z" fill="#283C64"/>
<path d="M249.467 224.215H272.161C272.161 224.215 272.388 218.049 270.918 216.203C269.447 214.357 267.147 210.854 265.59 210.738C264.032 210.623 260.431 209.148 260.431 209.148H258.076V167.875C258.076 167.875 254.396 174.979 249.197 177.242C243.998 179.506 239.098 179.309 239.098 179.309C239.098 179.309 239.61 188.785 238.289 192.109C236.968 195.434 232.916 203.189 232.073 204.438C231.23 205.686 231.46 206.281 233.399 206.32C235.339 206.359 239.425 207.063 242.358 208.885C245.292 210.707 249.102 213.848 249.467 217.248C249.831 220.648 250.236 221.281 250.186 221.791C250.136 222.301 249.467 224.215 249.467 224.215L249.467 224.215Z" fill="#192652"/>
<path d="M258.247 86.2752C258.247 86.2752 257.545 75.7167 260.541 71.7948C263.537 67.8729 272.419 57.66 273.033 52.2323C273.647 46.8046 274.937 40.2596 273.033 37.578C271.129 34.8963 267.499 35.4276 266.594 35.5643C265.69 35.701 269.804 44.4686 262.976 54.2792C256.148 64.0897 244.738 69.2811 243.722 69.742C242.707 70.203 240.559 71.4061 243.722 72.3065C246.885 73.2069 252.302 77.0135 254.085 80.0135C255.867 83.0135 258.247 86.2752 258.247 86.2752V86.2752Z" fill="#192652"/>
<path d="M195.296 224.246H85.8438" stroke="#283C64" stroke-width="2" stroke-linecap="round"/>
<path d="M273.324 39.5322C272.487 42.1377 269.093 38.4033 269.153 35.9853C269.214 33.5674 274.161 36.9267 273.324 39.5322V39.5322Z" fill="#2079EE"/>
<path d="M156 126.154C170.291 106.611 197 89.5559 197 57.1539C197 24.7519 209.474 19.4149 216 16.1539C217.433 15.4376 221.45 6.11129 222 4.15389C222.55 2.19649 225.566 0.491492 228 4.15389C230.178 7.43129 233 12.1539 233 12.1539C233 12.1539 257.327 12.1849 266 35.1539C266.396 36.2032 270.644 35.0134 272 36.1539C273.356 37.2944 278.216 51.4125 265 66.1539C261.826 69.6948 258 72.4508 258 88.1539C258 103.857 258 209.154 258 209.154C258 209.154 272 208.885 272 222.154C272 222.945 272 223.154 272 223.154M272 223.154H256M272 223.154H290" stroke="#2079EE" stroke-width="2" stroke-linecap="round"/>
<path d="M220.242 147.586C231.813 155.729 238.999 168.93 238.999 184.154C238.999 193.149 235.658 198.917 231.112 205.947" stroke="#2079EE" stroke-width="2" stroke-linecap="round"/>
<path d="M230.998 206.156C237.704 206.156 248.201 208.448 249.998 220.156C250.166 221.249 249.998 223.156 249.998 223.156L222.023 223.248" stroke="#2079EE" stroke-width="2" stroke-linecap="round"/>
<path d="M266.114 35.3867C266.114 35.3867 274.44 59.9336 235 73.1523" stroke="#2079EE" stroke-width="2" stroke-linecap="round"/>
<path d="M214.895 16.8691C214.895 16.8691 220.456 15.4555 223 13.1562" stroke="#2079EE" stroke-width="2" stroke-linecap="round"/>
<path d="M258 86.1523C258 86.1523 252.986 74.1554 241 71.1523" stroke="#2079EE" stroke-width="2" stroke-linecap="round"/>
<path d="M202.636 126.979C199.931 123.05 197.95 115.167 199.999 109.156" stroke="#2079EE" stroke-width="2" stroke-linecap="round"/>
<path d="M254.89 32.5556C254.89 32.5556 252.286 30.3563 246.832 32.5556" stroke="#2079EE" stroke-width="2" stroke-linecap="round"/>
<path d="M239 179.582C239 179.582 254.492 179.119 258.004 166.492" stroke="#2079EE" stroke-width="2" stroke-linecap="round"/>
<path d="M110 127.152H210C215.523 127.152 220 131.629 220 137.152V214.152" stroke="#283C64" stroke-width="2"/>
<path d="M53 128.152V112.152C53 106.629 57.4771 102.152 63 102.152H100C105.523 102.152 110 106.629 110 112.152V128.152" stroke="#283C64" stroke-width="2"/>
<path d="M109 108.152H136C141.523 108.152 146 112.63 146 118.152V128.152" stroke="#283C64" stroke-width="2"/>
<path d="M110 126.152C109.448 126.152 109 126.6 109 127.152C109 127.705 109.448 128.152 110 128.152V126.152ZM219 163.152C219 163.705 219.448 164.152 220 164.152C220.552 164.152 221 163.705 221 163.152H219ZM52 214.152C52 214.705 52.4477 215.152 53 215.152C53.5523 215.152 54 214.705 54 214.152H52ZM54 128.152C54 127.6 53.5523 127.152 53 127.152C52.4477 127.152 52 127.6 52 128.152H54ZM110 128.152H210V126.152H110V128.152ZM210 128.152C214.971 128.152 219 132.182 219 137.152H221C221 131.077 216.075 126.152 210 126.152V128.152ZM219 137.152V163.152H221V137.152H219ZM54 214.152V128.152H52V214.152H54Z" fill="#283C64"/>
<mask id="path-19-inside-1_24270_88073" fill="white">
<path fill-rule="evenodd" clip-rule="evenodd" d="M168 172.153V168.152H172V172.153H168ZM160 172.153V168.152H164V172.153H160ZM112 172.153V168.152H116V172.153H112ZM104 172.153V168.152H108V172.153H104ZM164 168.152V164.152H168V168.152H164ZM108 168.152V164.152H112V168.152H108ZM168 164.153V160.152H172V164.153H168ZM160 164.153V160.152H164V164.153H160ZM112 164.153V160.152H116V164.153H112ZM104 164.153V160.152H108V164.153H104Z"/>
</mask>
<path d="M168 172.153H166V174.153H168V172.153ZM168 168.152V166.152H166V168.152H168ZM172 168.152H174V166.152H172V168.152ZM172 172.153V174.153H174V172.153H172ZM160 172.153H158V174.153H160V172.153ZM160 168.152V166.152H158V168.152H160ZM164 168.152H166V166.152H164V168.152ZM164 172.153V174.153H166V172.153H164ZM112 172.153H110V174.153H112V172.153ZM112 168.152V166.152H110V168.152H112ZM116 168.152H118V166.152H116V168.152ZM116 172.153V174.153H118V172.153H116ZM104 172.153H102V174.153H104V172.153ZM104 168.152V166.152H102V168.152H104ZM108 168.152H110V166.152H108V168.152ZM108 172.153V174.153H110V172.153H108ZM164 168.152H162V170.152H164V168.152ZM164 164.152V162.152H162V164.152H164ZM168 164.152H170V162.152H168V164.152ZM168 168.152V170.152H170V168.152H168ZM108 168.152H106V170.152H108V168.152ZM108 164.152V162.152H106V164.152H108ZM112 164.152H114V162.152H112V164.152ZM112 168.152V170.152H114V168.152H112ZM168 164.153H166V166.153H168V164.153ZM168 160.152V158.152H166V160.152H168ZM172 160.152H174V158.152H172V160.152ZM172 164.153V166.153H174V164.153H172ZM160 164.153H158V166.153H160V164.153ZM160 160.152V158.152H158V160.152H160ZM164 160.152H166V158.152H164V160.152ZM164 164.153V166.153H166V164.153H164ZM112 164.153H110V166.153H112V164.153ZM112 160.152V158.152H110V160.152H112ZM116 160.152H118V158.152H116V160.152ZM116 164.153V166.153H118V164.153H116ZM104 164.153H102V166.153H104V164.153ZM104 160.152V158.152H102V160.152H104ZM108 160.152H110V158.152H108V160.152ZM108 164.153V166.153H110V164.153H108ZM170 172.153V168.152H166V172.153H170ZM168 170.152H172V166.152H168V170.152ZM170 168.152V172.153H174V168.152H170ZM172 170.153H168V174.153H172V170.153ZM162 172.153V168.152H158V172.153H162ZM160 170.152H164V166.152H160V170.152ZM162 168.152V172.153H166V168.152H162ZM164 170.153H160V174.153H164V170.153ZM114 172.153V168.152H110V172.153H114ZM112 170.152H116V166.152H112V170.152ZM114 168.152V172.153H118V168.152H114ZM116 170.153H112V174.153H116V170.153ZM106 172.153V168.152H102V172.153H106ZM104 170.152H108V166.152H104V170.152ZM106 168.152V172.153H110V168.152H106ZM108 170.153H104V174.153H108V170.153ZM166 168.152V164.152H162V168.152H166ZM164 166.152H168V162.152H164V166.152ZM166 164.152V168.152H170V164.152H166ZM168 166.152H164V170.152H168V166.152ZM110 168.152V164.152H106V168.152H110ZM108 166.152H112V162.152H108V166.152ZM110 164.152V168.152H114V164.152H110ZM112 166.152H108V170.152H112V166.152ZM170 164.153V160.152H166V164.153H170ZM168 162.152H172V158.152H168V162.152ZM170 160.152V164.153H174V160.152H170ZM172 162.153H168V166.153H172V162.153ZM162 164.153V160.152H158V164.153H162ZM160 162.152H164V158.152H160V162.152ZM162 160.152V164.153H166V160.152H162ZM164 162.153H160V166.153H164V162.153ZM114 164.153V160.152H110V164.153H114ZM112 162.152H116V158.152H112V162.152ZM114 160.152V164.153H118V160.152H114ZM116 162.153H112V166.153H116V162.153ZM106 164.153V160.152H102V164.153H106ZM104 162.152H108V158.152H104V162.152ZM106 160.152V164.153H110V160.152H106ZM108 162.153H104V166.153H108V162.153Z" fill="#2079EE" mask="url(#path-19-inside-1_24270_88073)"/>
<path d="M127 191.152H151" stroke="#2079EE" stroke-width="2"/>
<path d="M69.6173 207.152H102.5C107.194 207.152 111 210.958 111 215.652C111 220.347 107.194 224.152 102.5 224.152H49.5C44.8055 224.152 41 220.347 41 215.652C41 210.958 44.8055 207.152 49.5 207.152H52.0867" stroke="#2079EE" stroke-width="2"/>
<path d="M267 122L283 122M275 130L275 114M267 100L283 100M275 108L275 92M289 100L305 100M297 108L297 92M267 78L283 78M275 86L275 70M289 78L305 78M297 86L297 70M289 56L305 56M297 64L297 48M289 34L305 34M297 42L297 26M96 90L112 90M104 98L104 82M30 178L46 178M38 186L38 170M8 156L24 156M16 164L16 148M30 156L46 156M38 164L38 148M8 134L24 134M16 142L16 126M30 134L46 134M38 142L38 126M8.00001 112L24 112M16 120L16 104M30 112L46 112M38 120L38 104M30 90L46 90M38 98L38 82M52 90L68 90M60 98L60 82M52 68L68 68M60 76L60 60M74 68L90 68M82 76L82 60M267 170L283 170M275 178L275 162M267 148L283 148M275 156L275 140M74 90L90 90M82 98L82 82" stroke="#283C64" stroke-width="2"/>
</svg>
