<svg viewBox="0 0 342 272" fill="none" xmlns="http://www.w3.org/2000/svg">
<g clip-path="url(#clip0_675_23634)">
<path d="M152 126.163V115.345C152 115.345 150.408 107.493 143.844 107.29C137.28 107.087 114.814 107.29 114.814 107.29C114.814 107.29 116.256 109.882 116.241 111.253C116.226 112.624 116.241 126.163 116.241 126.163H152Z" fill="#EEF3F5"/>
<path d="M255.466 223.224H278.16C278.16 223.224 278.388 217.058 276.917 215.212C275.446 213.366 273.146 209.862 271.589 209.747C269.82 209.393 268.092 208.86 266.431 208.157H264.076V166.884C264.076 166.884 260.396 173.984 255.197 176.251C252.006 177.619 248.569 178.322 245.097 178.317C245.097 178.317 245.609 187.794 244.287 191.117C242.446 195.339 240.371 199.455 238.071 203.445C237.228 204.693 237.458 205.289 239.397 205.328C242.543 205.469 245.612 206.347 248.356 207.892C251.29 209.714 255.1 212.855 255.464 216.255C255.828 219.655 256.234 220.288 256.184 220.798C255.993 221.62 255.753 222.43 255.466 223.224V223.224Z" fill="#DBDEE5"/>
<path d="M264.246 85.2819C264.246 85.2819 263.546 74.723 266.54 70.802C269.534 66.881 278.418 56.6669 279.032 51.2399C279.646 45.8129 280.932 39.2669 279.032 36.5859C277.132 33.9049 273.498 34.4359 272.594 34.5719C271.69 34.7079 275.804 43.4719 268.976 53.2869C262.148 63.1019 250.738 68.287 249.722 68.75C248.706 69.213 246.559 70.4139 249.722 71.3139C252.885 72.2139 258.302 76.0209 260.084 79.0209C261.866 82.0209 264.246 85.2819 264.246 85.2819V85.2819Z" fill="#DBDEE5"/>
<path d="M64 271.163V251.163H26V261.163H24V251.163H0V249.163H24V211.163H0V209.163H24V191.163H26V209.163H29V211.163H26V249.163H64V231.163H66V249.163H89V251.163H66V271.163H64ZM103 255.163V251.163H99V249.163H103V245.163H105V249.163H109V251.163H105V255.163H103ZM314 242.163V223.163H227V242.163H225V223.163H220V221.163H225V182.163H227V221.163H314V182.163H310V180.163H314V142.163H310V140.163H314V117.163H316V140.163H322V142.163H316V180.163H342V182.163H316V221.163H342V223.163H316V242.163H314ZM295 186.163V182.163H291V180.163H295V176.163H297V180.163H301V182.163H297V186.163H295ZM24 185.163V181.163H20V179.163H24V175.163H26V179.163H30V181.163H26V185.163H24ZM314 107.163V103.163H310V101.163H314V97.163H316V101.163H320V103.163H316V107.163H314Z" fill="#DBDEE5"/>
<path d="M201.294 223.255H91.8418" stroke="#DBDEE5" stroke-width="2" stroke-linecap="round"/>
<path d="M279.32 38.542C278.483 41.142 275.089 37.413 275.149 34.995C275.209 32.577 280.157 35.936 279.32 38.542Z" fill="#235B95"/>
<path d="M162 125.163C176.291 105.62 203 88.563 203 56.163C203 23.763 215.474 18.424 222 15.163C223.433 14.447 227.45 5.12 228 3.163C228.55 1.206 231.566 -0.499002 234 3.163C236.178 6.44 239 11.163 239 11.163C239 11.163 263.327 11.194 272 34.163C272.4 35.212 276.644 34.022 278 35.163C279.356 36.304 284.216 50.422 271 65.163C267.826 68.704 264 71.463 264 87.163V208.163C264 208.163 278 207.894 278 221.163V222.163H262" stroke="#212225" stroke-width="2" stroke-linecap="round"/>
<path d="M226.242 146.595C232.1 150.712 236.868 156.192 240.136 162.563C243.404 168.934 245.073 176.004 244.999 183.163C244.999 192.157 241.658 197.926 237.112 204.956" stroke="#212225" stroke-width="2" stroke-linecap="round"/>
<path d="M237 205.163C243.706 205.163 254.2 207.455 256 219.163C256.091 220.161 256.091 221.165 256 222.163L228.025 222.255" stroke="#212225" stroke-width="2" stroke-linecap="round"/>
<path d="M272.114 34.397C272.114 34.397 280.44 58.944 241 72.163" stroke="#212225" stroke-width="2" stroke-linecap="round"/>
<path d="M220.9 15.876C220.9 15.876 226.456 14.463 229 12.163" stroke="#212225" stroke-width="2" stroke-linecap="round"/>
<path d="M264 85.163C264 85.163 258.986 73.163 247 70.163" stroke="#212225" stroke-width="2" stroke-linecap="round"/>
<path d="M208.636 125.985C205.931 122.056 203.949 114.174 205.999 108.163" stroke="#212225" stroke-width="2" stroke-linecap="round"/>
<path d="M260.89 31.563C260.89 31.563 258.29 29.363 252.832 31.563" stroke="#212225" stroke-width="2" stroke-linecap="round"/>
<path d="M245 178.591C245 178.591 260.492 178.128 264 165.501" stroke="#212225" stroke-width="2" stroke-linecap="round"/>
<path d="M116 126.163H216C218.652 126.163 221.196 127.217 223.071 129.092C224.946 130.967 226 133.511 226 136.163V213.163" stroke="#DBDEE5" stroke-width="2"/>
<path d="M59 127.163V111.163C59 108.511 60.0536 105.967 61.929 104.092C63.8043 102.217 66.3478 101.163 69 101.163H106C108.652 101.163 111.196 102.217 113.071 104.092C114.946 105.967 116 108.511 116 111.163V127.163" stroke="#DBDEE5" stroke-width="2"/>
<path d="M115 107.163H142C144.652 107.163 147.196 108.217 149.071 110.092C150.946 111.967 152 114.511 152 117.163V127.163" stroke="#DBDEE5" stroke-width="2"/>
<path d="M116 126.163H216C218.652 126.163 221.196 127.217 223.071 129.092C224.946 130.967 226 133.511 226 136.163V162.163M59 213.163V127.163" stroke="#DBDEE5" stroke-width="2" stroke-linecap="round"/>
<path d="M178 171.163H174V167.163H178V171.163ZM170 171.163H166V167.163H170V171.163ZM122 171.163H118V167.163H122V171.163ZM114 171.163H110V167.163H114V171.163ZM174 167.163H170V163.163H174V167.163ZM118 167.163H114V163.163H118V167.163ZM178 163.163H174V159.163H178V163.163ZM170 163.163H166V159.163H170V163.163ZM122 163.163H118V159.163H122V163.163ZM114 163.163H110V159.163H114V163.163Z" fill="#212225"/>
<path d="M133 190.163H157" stroke="#212225" stroke-width="2"/>
<path d="M75.617 206.163H108.5C110.754 206.163 112.916 207.058 114.51 208.653C116.104 210.247 117 212.409 117 214.663C117 216.917 116.104 219.079 114.51 220.673C112.916 222.267 110.754 223.163 108.5 223.163H55.5C53.2457 223.163 51.0836 222.267 49.4896 220.673C47.8955 219.079 47 216.917 47 214.663C47 212.409 47.8955 210.247 49.4896 208.653C51.0836 207.058 53.2457 206.163 55.5 206.163H58.087" stroke="#212225" stroke-width="2"/>
</g>
<defs>
<clipPath id="clip0_675_23634">
<rect width="342" height="271.163" fill="white"/>
</clipPath>
</defs>
</svg>
