<svg viewBox="0 0 342 273" fill="none" xmlns="http://www.w3.org/2000/svg">
<g clip-path="url(#clip0_791_17129)">
<path d="M152 126.662V115.844C152 115.844 150.408 107.992 143.844 107.789C137.28 107.586 114.814 107.789 114.814 107.789C114.814 107.789 116.256 110.381 116.241 111.752C116.226 113.123 116.241 126.662 116.241 126.662H152Z" fill="#3C4249"/>
<path d="M255.466 223.724H278.16C278.16 223.724 278.388 217.558 276.917 215.712C275.446 213.866 273.146 210.362 271.589 210.247C269.82 209.893 268.092 209.36 266.431 208.657H264.076V167.384C264.076 167.384 260.396 174.484 255.197 176.751C252.006 178.119 248.569 178.822 245.097 178.817C245.097 178.817 245.609 188.294 244.287 191.617C242.446 195.839 240.371 199.955 238.071 203.945C237.228 205.193 237.458 205.789 239.397 205.828C242.543 205.969 245.612 206.847 248.356 208.392C251.29 210.214 255.1 213.355 255.464 216.755C255.828 220.155 256.234 220.788 256.184 221.298C255.993 222.12 255.753 222.93 255.466 223.724Z" fill="#3C4249"/>
<path d="M264.246 85.7816C264.246 85.7816 263.546 75.2226 266.54 71.3016C269.534 67.3806 278.418 57.1666 279.032 51.7396C279.646 46.3126 280.932 39.7666 279.032 37.0856C277.132 34.4046 273.498 34.9356 272.594 35.0716C271.69 35.2076 275.804 43.9716 268.976 53.7866C262.148 63.6016 250.738 68.7866 249.722 69.2496C248.706 69.7126 246.559 70.9136 249.722 71.8136C252.885 72.7136 258.302 76.5206 260.084 79.5206C261.866 82.5206 264.246 85.7816 264.246 85.7816Z" fill="#3C4249"/>
<path d="M64 271.662V251.662H26V261.662H24V251.662H0V249.662H24V211.662H0V209.662H24V191.662H26V209.662H29V211.662H26V249.662H64V231.662H66V249.662H89V251.662H66V271.662H64ZM103 255.662V251.662H99V249.662H103V245.662H105V249.662H109V251.662H105V255.662H103ZM314 242.662V223.662H227V242.662H225V223.662H220V221.662H225V182.662H227V221.662H314V182.662H310V180.662H314V142.662H310V140.662H314V117.662H316V140.662H322V142.662H316V180.662H342V182.662H316V221.662H342V223.662H316V242.662H314ZM295 186.662V182.662H291V180.662H295V176.662H297V180.662H301V182.662H297V186.662H295ZM24 185.662V181.662H20V179.662H24V175.662H26V179.662H30V181.662H26V185.662H24ZM314 107.662V103.662H310V101.662H314V97.6621H316V101.662H320V103.662H316V107.662H314Z" fill="#3C4249"/>
<path d="M201.294 223.754H91.8418" stroke="#3C4249" stroke-width="2" stroke-linecap="round"/>
<path d="M279.32 39.0412C278.483 41.6412 275.089 37.9122 275.149 35.4942C275.209 33.0762 280.157 36.4352 279.32 39.0412Z" fill="#0D7ED6"/>
<path d="M162 125.662C176.291 106.119 203 89.0624 203 56.6624C203 24.2624 215.474 18.9234 222 15.6624C223.433 14.9464 227.45 5.61939 228 3.66239C228.55 1.70539 231.566 0.000387669 234 3.66239C236.178 6.93939 239 11.6624 239 11.6624C239 11.6624 263.327 11.6934 272 34.6624C272.4 35.7114 276.644 34.5214 278 35.6624C279.356 36.8034 284.216 50.9214 271 65.6624C267.826 69.2034 264 71.9624 264 87.6624V208.662C264 208.662 278 208.393 278 221.662V222.662H262" stroke="#7E8A9C" stroke-width="2" stroke-linecap="round"/>
<path d="M226.242 147.095C232.1 151.212 236.868 156.692 240.136 163.063C243.404 169.434 245.073 176.504 244.999 183.663C244.999 192.657 241.658 198.426 237.112 205.456" stroke="#7E8A9C" stroke-width="2" stroke-linecap="round"/>
<path d="M237 205.662C243.706 205.662 254.2 207.954 256 219.662C256.091 220.66 256.091 221.664 256 222.662L228.025 222.754" stroke="#7E8A9C" stroke-width="2" stroke-linecap="round"/>
<path d="M272.114 34.8965C272.114 34.8965 280.44 59.4435 241 72.6625" stroke="#7E8A9C" stroke-width="2" stroke-linecap="round"/>
<path d="M220.9 16.3751C220.9 16.3751 226.456 14.9621 229 12.6621" stroke="#7E8A9C" stroke-width="2" stroke-linecap="round"/>
<path d="M264 85.6621C264 85.6621 258.986 73.6621 247 70.6621" stroke="#7E8A9C" stroke-width="2" stroke-linecap="round"/>
<path d="M208.636 126.484C205.931 122.555 203.949 114.673 205.999 108.662" stroke="#7E8A9C" stroke-width="2" stroke-linecap="round"/>
<path d="M260.89 32.0627C260.89 32.0627 258.29 29.8627 252.832 32.0627" stroke="#7E8A9C" stroke-width="2" stroke-linecap="round"/>
<path d="M245 179.09C245 179.09 260.492 178.627 264 166" stroke="#7E8A9C" stroke-width="2" stroke-linecap="round"/>
<path d="M116 126.662H216C218.652 126.662 221.196 127.716 223.071 129.591C224.946 131.466 226 134.01 226 136.662V213.662" stroke="#3C4249" stroke-width="2"/>
<path d="M59 127.662V111.662C59 109.01 60.0536 106.466 61.929 104.591C63.8043 102.716 66.3478 101.662 69 101.662H106C108.652 101.662 111.196 102.716 113.071 104.591C114.946 106.466 116 109.01 116 111.662V127.662" stroke="#3C4249" stroke-width="2"/>
<path d="M115 107.662H142C144.652 107.662 147.196 108.716 149.071 110.591C150.946 112.466 152 115.01 152 117.662V127.662" stroke="#3C4249" stroke-width="2"/>
<path d="M116 126.662H216C218.652 126.662 221.196 127.716 223.071 129.591C224.946 131.466 226 134.01 226 136.662V162.662M59 213.662V127.662" stroke="#3C4249" stroke-width="2" stroke-linecap="round"/>
<path d="M178 171.662H174V167.662H178V171.662ZM170 171.662H166V167.662H170V171.662ZM122 171.662H118V167.662H122V171.662ZM114 171.662H110V167.662H114V171.662ZM174 167.662H170V163.662H174V167.662ZM118 167.662H114V163.662H118V167.662ZM178 163.662H174V159.662H178V163.662ZM170 163.662H166V159.662H170V163.662ZM122 163.662H118V159.662H122V163.662ZM114 163.662H110V159.662H114V163.662Z" fill="#7E8A9C"/>
<path d="M133 190.662H157" stroke="#7E8A9C" stroke-width="2"/>
<path d="M75.617 206.662H108.5C110.754 206.662 112.916 207.558 114.51 209.152C116.104 210.746 117 212.908 117 215.162C117 217.416 116.104 219.578 114.51 221.172C112.916 222.766 110.754 223.662 108.5 223.662H55.5C53.2457 223.662 51.0836 222.766 49.4896 221.172C47.8955 219.578 47 217.416 47 215.162C47 212.908 47.8955 210.746 49.4896 209.152C51.0836 207.558 53.2457 206.662 55.5 206.662H58.087" stroke="#7E8A9C" stroke-width="2"/>
</g>
<defs>
<clipPath id="clip0_791_17129">
<rect width="342" height="272" fill="white" transform="translate(0 0.5)"/>
</clipPath>
</defs>
</svg>
