<svg width="24" height="25" viewBox="0 0 24 25" fill="none" xmlns="http://www.w3.org/2000/svg">
<g id="hourglass-bottomhalf-fill-svgrepo-com 1">
<path id="Vector" d="M4.52904 5.15875C4.5234 6.89999 5.44226 8.3842 6.39544 9.51044C7.11425 10.3598 7.95773 11.1183 8.57452 11.673C8.76967 11.8486 8.94213 12.0037 9.08076 12.1348L9.08125 12.1352C9.22044 12.2667 9.27264 12.3428 9.29426 12.3839C9.30808 12.4103 9.32034 12.4405 9.32034 12.5131C9.32034 12.5842 9.30876 12.611 9.29562 12.6359C9.27301 12.6787 9.21869 12.7572 9.07149 12.9004C8.91885 13.0482 8.712 13.2332 8.47271 13.4473C7.87421 13.9826 7.07274 14.6995 6.40872 15.4702C5.44624 16.5873 4.52903 18.063 4.52903 19.8558L4.52903 20.0968C4.52903 20.8251 4.73833 21.5257 5.26276 22.0407C5.78393 22.5526 6.47689 22.7441 7.16631 22.7441L16.9196 22.7441C17.605 22.7441 18.2809 22.5491 18.7836 22.044C19.2855 21.5397 19.4766 20.8652 19.4766 20.1872L19.4766 19.8558C19.4766 18.0629 18.5593 16.587 17.5952 15.4696C16.9239 14.6917 16.1169 13.9731 15.5142 13.4364C15.2793 13.2273 15.0754 13.0457 14.9227 12.8991C14.7766 12.7567 14.7225 12.6786 14.7 12.6359C14.6868 12.6111 14.6752 12.5842 14.6752 12.5131C14.6752 12.4405 14.6875 12.4103 14.7013 12.3839C14.7229 12.3427 14.7751 12.2666 14.9143 12.1352L14.9148 12.1348C15.0537 12.0033 15.2267 11.8478 15.4224 11.6718C16.039 11.1173 16.8819 10.3593 17.6009 9.51097C18.5554 8.3847 19.4766 6.90105 19.4766 5.16044L19.4766 4.80889C19.4766 4.13096 19.2855 3.45639 18.7836 2.9521C18.2809 2.44699 17.605 2.25197 16.9196 2.25197L7.16631 2.25197C6.4769 2.25197 5.78394 2.4435 5.26276 2.95537C4.73834 3.47043 4.52904 4.17093 4.52904 4.89927L4.52904 5.15875ZM4.52904 5.15875C4.52904 5.1581 4.52904 5.15745 4.52904 5.15681L5.52904 5.16044L4.52904 5.16044L4.52904 5.15875Z" stroke="currentColor" stroke-width="2"/>
<path id="Vector_2" d="M16.459 22.7031L7.54258 22.7031C7.16861 22.7031 7.10957 22.411 7.32607 22.0118C8.21182 20.4346 11.1938 17.9031 12.0008 17.9031C12.8078 17.9031 15.7897 20.4151 16.6755 22.0118C16.892 22.411 16.8329 22.7031 16.459 22.7031Z" fill="transparent" stroke="currentColor" stroke-width="2" stroke-linejoin="round"/>
</g>
</svg>
