<svg viewBox="0 0 24 25" fill="none" xmlns="http://www.w3.org/2000/svg">
<g id="Frame 9844">
<g id="ledger &#208;&#186;&#208;&#190;&#208;&#191;&#208;&#184;&#209;&#143;">
<path fill-rule="evenodd" clip-rule="evenodd" d="M17.5 23.5001V18.0009H22.9994V19.3757C22.9994 21.6538 21.1531 23.5001 18.8748 23.5001H17.5ZM9.25018 23.5V18.0008H14.7509V23.5H9.25018ZM5.12584 23.5C2.84757 23.5 1 21.6537 1 19.3757V18.0008H6.50067V23.5H5.12584ZM9.25018 15.2492V1.5H18.8754C21.1537 1.5 23 3.34756 23 5.62561V15.2492H9.25018ZM1 15.2491V9.74995H6.50067V15.2491H1ZM1 7.00046V5.62561C1 3.34756 2.84757 1.5 5.12584 1.5H6.50067V7.00046H1Z" fill="currentColor"/>
<path d="M17.5 23.5001H16.5C16.5 24.0524 16.9477 24.5001 17.5 24.5001V23.5001ZM17.5 18.0009V17.0009C16.9477 17.0009 16.5 17.4486 16.5 18.0009H17.5ZM22.9994 18.0009H23.9994C23.9994 17.4486 23.5517 17.0009 22.9994 17.0009V18.0009ZM9.25018 23.5H8.25018C8.25018 24.0523 8.6979 24.5 9.25018 24.5V23.5ZM9.25018 18.0008V17.0008C8.6979 17.0008 8.25018 17.4485 8.25018 18.0008H9.25018ZM14.7509 18.0008H15.7509C15.7509 17.4485 15.3031 17.0008 14.7509 17.0008V18.0008ZM14.7509 23.5V24.5C15.3031 24.5 15.7509 24.0523 15.7509 23.5H14.7509ZM1 18.0008V17.0008C0.447715 17.0008 0 17.4485 0 18.0008H1ZM6.50067 18.0008H7.50067C7.50067 17.4485 7.05296 17.0008 6.50067 17.0008V18.0008ZM6.50067 23.5V24.5C7.05296 24.5 7.50067 24.0523 7.50067 23.5H6.50067ZM9.25018 15.2492H8.25018C8.25018 15.8015 8.6979 16.2492 9.25018 16.2492V15.2492ZM9.25018 1.5V0.5C8.6979 0.5 8.25018 0.947715 8.25018 1.5H9.25018ZM23 15.2492V16.2492C23.5523 16.2492 24 15.8015 24 15.2492H23ZM1 15.2491H0C0 15.8014 0.447715 16.2491 1 16.2491L1 15.2491ZM1 9.74995V8.74995C0.447715 8.74995 0 9.19766 0 9.74995H1ZM6.50067 9.74995H7.50067C7.50067 9.19766 7.05296 8.74995 6.50067 8.74995V9.74995ZM6.50067 15.2491V16.2491C7.05296 16.2491 7.50067 15.8014 7.50067 15.2491H6.50067ZM1 7.00046H0C0 7.55274 0.447715 8.00046 1 8.00046L1 7.00046ZM6.50067 1.5H7.50067C7.50067 0.947715 7.05296 0.5 6.50067 0.5V1.5ZM6.50067 7.00046V8.00046C7.05296 8.00046 7.50067 7.55274 7.50067 7.00046H6.50067ZM18.5 23.5001V18.0009H16.5V23.5001H18.5ZM17.5 19.0009H22.9994V17.0009H17.5V19.0009ZM21.9994 18.0009V19.3757H23.9994V18.0009H21.9994ZM21.9994 19.3757C21.9994 21.1015 20.6009 22.5001 18.8748 22.5001V24.5001C21.7053 24.5001 23.9994 22.2061 23.9994 19.3757H21.9994ZM18.8748 22.5001H17.5V24.5001H18.8748V22.5001ZM10.2502 23.5V18.0008H8.25018V23.5H10.2502ZM9.25018 19.0008H14.7509V17.0008H9.25018V19.0008ZM13.7509 18.0008V23.5H15.7509V18.0008H13.7509ZM14.7509 22.5H9.25018V24.5H14.7509V22.5ZM5.12584 22.5C3.39942 22.5 2 21.101 2 19.3757H0C0 22.2064 2.29573 24.5 5.12584 24.5V22.5ZM2 19.3757V18.0008H0V19.3757H2ZM1 19.0008H6.50067V17.0008H1V19.0008ZM5.50067 18.0008V23.5H7.50067V18.0008H5.50067ZM6.50067 22.5H5.12584V24.5H6.50067V22.5ZM10.2502 15.2492V1.5H8.25018V15.2492H10.2502ZM9.25018 2.5H18.8754V0.5H9.25018V2.5ZM18.8754 2.5C20.601 2.5 22 3.89948 22 5.62561H24C24 2.79563 21.7063 0.5 18.8754 0.5V2.5ZM22 5.62561V15.2492H24V5.62561H22ZM23 14.2492H9.25018V16.2492H23V14.2492ZM2 15.2491V9.74995H0V15.2491H2ZM1 10.7499H6.50067V8.74995H1V10.7499ZM5.50067 9.74995V15.2491H7.50067V9.74995H5.50067ZM6.50067 14.2491H1V16.2491H6.50067V14.2491ZM2 7.00046V5.62561H0V7.00046H2ZM2 5.62561C2 3.89988 3.39982 2.5 5.12584 2.5V0.5C2.29533 0.5 0 2.79523 0 5.62561H2ZM5.12584 2.5H6.50067V0.5H5.12584V2.5ZM5.50067 1.5V7.00046H7.50067V1.5H5.50067ZM6.50067 6.00046H1V8.00046H6.50067V6.00046Z" fill="transparent"/>
</g>
</g>
</svg>
