<svg version="1.1" id="magistrate" xmlns="http://www.w3.org/2000/svg" x="0" y="0" viewBox="0 0 20 20" xml:space="preserve"><g fill="none" stroke="currentColor" stroke-width="2" stroke-linecap="round"><path stroke-linejoin="round" d="M3.279 5.558a2.279 2.279 0 1 0 0-4.558 2.279 2.279 0 0 0 0 4.558zM3.279 19a2.279 2.279 0 1 0 0-4.558 2.279 2.279 0 0 0 0 4.558zM16.721 5.558a2.279 2.279 0 1 0 0-4.558 2.279 2.279 0 0 0 0 4.558zM16.721 19a2.279 2.279 0 1 0 0-4.558 2.279 2.279 0 0 0 0 4.558zM10.139 12.298a2.279 2.279 0 1 0 0-4.557 2.279 2.279 0 0 0 0 4.557z"/><path d="M15.109 4.889l-1.545 1.546M15.004 15.224l-1.437-1.436M6.459 13.548l-1.565 1.566M6.454 6.683L4.771 5.001"/></g></svg>