<svg xmlns="http://www.w3.org/2000/svg" viewBox="0 0 21 21" fill="none">
	<path d="M18.9229 12.5C19.0762 11.731 19.2143 11.0386 19.318 10.5188C19.365 10.28 19.3028 10.0327 19.1484 9.84458C18.994 9.65645 18.7636 9.54717 18.5203 9.54664H8.88203C8.49537 9.54594 8.16243 9.2736 8.0851 8.89474L7.85938 7.76127C7.78205 7.38241 7.44911 7.11007 7.06244 7.10938H1.80982C1.56703 7.11088 1.33756 7.22057 1.18392 7.40857C1.03028 7.59656 0.968466 7.84328 1.01533 8.08151L3.12827 18.6788C3.20561 19.0577 3.53855 19.33 3.92521 19.3307H6.78776" stroke="#4082F1" stroke-width="2" stroke-linecap="round" stroke-linejoin="round"/>
	<path d="M4.05469 4.66689L4.07098 1.81486C4.07098 1.36483 4.43581 1 4.88585 1H15.4481C15.8982 1 16.263 1.36483 16.263 1.81486L16.2801 7.11149" stroke="#4082F1" stroke-width="2" stroke-linecap="round" stroke-linejoin="round"/>
	<path d="M6.51562 3.4375L13.2285 3.44402" stroke="#4082F1" stroke-width="2" stroke-linecap="round" stroke-linejoin="round"/>
	<path d="M10.168 5.88867H13.2237" stroke="#4082F1" stroke-width="2" stroke-linecap="round" stroke-linejoin="round"/>
	<path fill-rule="evenodd" clip-rule="evenodd" d="M7.91797 16.0875C7.91797 16.0875 10.0662 12.8652 13.2884 12.8652C16.5107 12.8652 18.6589 16.0875 18.6589 16.0875C18.6589 16.0875 16.5107 19.3098 13.2884 19.3098C10.0662 19.3098 7.91797 16.0875 7.91797 16.0875Z" fill="#213B87" stroke="#4082F1" stroke-width="2" stroke-linecap="round" stroke-linejoin="round"/>
	<path d="M12.5352 17.1912C13.1473 17.6098 13.9827 17.4528 14.4013 16.8407C14.8198 16.2286 14.6629 15.3931 14.0508 14.9746" stroke="#4082F1" stroke-width="2" stroke-linecap="round" stroke-linejoin="round"/>
</svg>
