<svg width="24" height="24" viewBox="0 0 24 24" fill="none" xmlns="http://www.w3.org/2000/svg">
<g clip-path="url(#clip0_18982_45415)">
<path fill-rule="evenodd" clip-rule="evenodd" d="M18.8821 8.44457H13.7264C13.0146 8.44457 12.4375 7.8675 12.4375 7.15565V2" fill="#26372B"/>
<path d="M18.8821 8.44457H13.7264C13.0146 8.44457 12.4375 7.8675 12.4375 7.15565V2" stroke="#289548" stroke-width="2" stroke-linecap="round" stroke-linejoin="round"/>
<path d="M7.99174 21.3337H3.41391C2.70207 21.3337 2.125 20.7566 2.125 20.0448V3.28891C2.125 2.57707 2.70207 2 3.41391 2H12.5472C12.8891 1.99985 13.217 2.13554 13.4588 2.37722L18.5037 7.42289C18.7451 7.66452 18.8808 7.99212 18.8809 8.33372" stroke="#289548" stroke-width="2" stroke-linecap="round"/>
<path fill-rule="evenodd" clip-rule="evenodd" d="M9.02802 16.6916C8.71518 16.6034 8.49639 16.3215 8.4885 15.9965C8.48061 15.6716 8.68545 15.3794 8.99364 15.2761L18.994 12.0145C19.1276 11.971 19.2743 12.0059 19.3739 12.105C19.4735 12.2041 19.5092 12.3506 19.4664 12.4844L16.2073 22.4898C16.1044 22.7985 15.812 23.0039 15.4867 22.9959C15.1613 22.9879 14.8793 22.7683 14.7918 22.4549L13.6727 17.8057L9.02802 16.6916Z" fill="#26372B" stroke="#289548" stroke-width="2" stroke-linecap="round" stroke-linejoin="round"/>
</g>
<defs>
<clipPath id="clip0_18982_45415">
<rect width="24" height="24" fill="white" transform="translate(24 24) rotate(-180)"/>
</clipPath>
</defs>
</svg>
