<svg viewBox="0 0 24 24" fill="none" xmlns="http://www.w3.org/2000/svg">
	<g clip-path="url(#clip0_13642_31070)">
		<path fill-rule="evenodd" clip-rule="evenodd" d="M18.8821 8.44457H13.7264C13.0146 8.44457 12.4375 7.8675 12.4375 7.15565V2" fill="#1A486B"/>
		<path d="M18.8821 8.44457H13.7264C13.0146 8.44457 12.4375 7.8675 12.4375 7.15565V2" stroke="#0D7ED6" stroke-width="2" stroke-linecap="round" stroke-linejoin="round"/>
		<path d="M7.99174 21.3337H3.41391C2.70207 21.3337 2.125 20.7566 2.125 20.0448V3.28891C2.125 2.57707 2.70207 2 3.41391 2H12.5472C12.8891 1.99985 13.217 2.13554 13.4588 2.37722L18.5037 7.42289C18.7451 7.66452 18.8808 7.99212 18.8809 8.33372" stroke="#0D7ED6" stroke-width="2" stroke-linecap="round"/>
		<path fill-rule="evenodd" clip-rule="evenodd" d="M9.02802 16.6926C8.71518 16.6043 8.49639 16.3225 8.4885 15.9975C8.48061 15.6725 8.68545 15.3804 8.99364 15.2771L18.994 12.0155C19.1276 11.972 19.2743 12.0069 19.3739 12.106C19.4735 12.2051 19.5092 12.3516 19.4664 12.4854L16.2073 22.4907C16.1044 22.7995 15.812 23.0049 15.4867 22.9968C15.1613 22.9888 14.8793 22.7693 14.7918 22.4559L13.6727 17.8067L9.02802 16.6926Z" fill="#1A486B" stroke="#0D7ED6" stroke-width="2" stroke-linecap="round" stroke-linejoin="round"/>
	</g>
	<defs>
		<clipPath id="clip0_13642_31070">
			<rect width="24" height="24" fill="white" transform="translate(24 24) rotate(-180)"/>
		</clipPath>
	</defs>
</svg>
