<svg xmlns="http://www.w3.org/2000/svg" viewBox="0 0 21 21" fill="none">
	<path fill-rule="evenodd" clip-rule="evenodd" d="M19.318 10.5197C19.365 10.281 19.3028 10.0337 19.1484 9.84555C18.994 9.65743 18.7636 9.54815 18.5203 9.54761H8.88203C8.49537 9.54692 8.16243 9.27458 8.0851 8.89572L7.85938 7.76224C7.78205 7.38339 7.44911 7.11105 7.06244 7.11035H1.80982C1.56703 7.11186 1.33756 7.22155 1.18392 7.40954C1.03028 7.59754 0.968466 7.84426 1.01533 8.08249L3.12827 18.6798C3.20561 19.0587 3.53855 19.331 3.92521 19.3317H16.8954C17.2821 19.331 17.615 19.0587 17.6924 18.6798C18.0256 17.0036 18.922 12.5039 19.318 10.5197Z" fill="#192652" stroke="#4082F1" stroke-width="2" stroke-linecap="round" stroke-linejoin="round"/>
	<path d="M4.05322 4.66689L4.06952 1.81486C4.06952 1.36483 4.43435 1 4.88438 1H15.4467C15.8967 1 16.2615 1.36483 16.2615 1.81486L16.2786 7.11149" stroke="#4082F1" stroke-width="2" stroke-linecap="round" stroke-linejoin="round"/>
	<path d="M6.51416 3.43848L13.227 3.445" stroke="#4082F1" stroke-width="2" stroke-linecap="round" stroke-linejoin="round"/>
	<path d="M10.1665 5.88965H13.2222" stroke="#4082F1" stroke-width="2" stroke-linecap="round" stroke-linejoin="round"/>
</svg>
