<svg width="24" height="25" viewBox="0 0 24 25" fill="none" xmlns="http://www.w3.org/2000/svg">
<g clip-path="url(#clip0_23574_108430)">
<path fill-rule="evenodd" clip-rule="evenodd" d="M18.8821 8.94457H13.7264C13.0146 8.94457 12.4375 8.3675 12.4375 7.65565V2.5" fill="#192652"/>
<path d="M18.8821 8.94457H13.7264C13.0146 8.94457 12.4375 8.3675 12.4375 7.65565V2.5" stroke="#2079EE" stroke-width="2" stroke-linecap="round" stroke-linejoin="round"/>
<path d="M7.99174 21.8337H3.41391C2.70207 21.8337 2.125 21.2566 2.125 20.5448V3.78891C2.125 3.07707 2.70207 2.5 3.41391 2.5H12.5472C12.8891 2.49985 13.217 2.63554 13.4588 2.87722L18.5037 7.92289C18.7451 8.16452 18.8808 8.49212 18.8809 8.83372" stroke="#2079EE" stroke-width="2" stroke-linecap="round" stroke-linejoin="round"/>
<path fill-rule="evenodd" clip-rule="evenodd" d="M9.02802 17.1916C8.71518 17.1034 8.49639 16.8215 8.4885 16.4965C8.48061 16.1716 8.68545 15.8794 8.99364 15.7761L18.994 12.5145C19.1276 12.471 19.2743 12.5059 19.3739 12.605C19.4735 12.7041 19.5092 12.8506 19.4664 12.9844L16.2073 22.9898C16.1044 23.2985 15.812 23.5039 15.4867 23.4959C15.1613 23.4879 14.8793 23.2683 14.7918 22.9549L13.6727 18.3057L9.02802 17.1916Z" fill="#192652" stroke="#2079EE" stroke-width="2" stroke-linecap="round" stroke-linejoin="round"/>
</g>
<defs>
<clipPath id="clip0_23574_108430">
<rect width="24" height="24" fill="white" transform="translate(24 24.5) rotate(-180)"/>
</clipPath>
</defs>
</svg>
