<svg version="1.1" xmlns="http://www.w3.org/2000/svg" x="0" y="0" viewBox="0 0 20 20" xml:space="preserve"><path fill="none" stroke="currentColor" stroke-width="2" stroke-linecap="round" stroke-linejoin="round" d="M6.4 9.3c0-.7.5-1.2 1.1-1.2h10.3c.7 0 1.1.5 1.1 1.2v8.2c0 .7-.5 1.2-1.1 1.2H7.4c-.7 0-1.1-.6-1.1-1.2l.1-8.2z"/><path fill="none" stroke="currentColor" stroke-width="2" stroke-linecap="round" stroke-linejoin="round" d="M13.1 11.8c.3 0 .5.2.5.5s-.2.5-.5.5-.5-.2-.5-.5c0-.2.2-.5.5-.5M1 8.2v-3c.1-2.2 2-4 4.3-3.8C7.3 1.5 9 3.2 9 5.2v2.9"/></svg>