<svg version="1.0" xmlns="http://www.w3.org/2000/svg" width="933.333" height="933.333" viewBox="0 0 700 700" preserveAspectRatio="xMidYMid meet"><g fill="#000" stroke="none"><path d="M303.9 1.4c-.2.2-5.6.7-11.9 1.1-6.3.3-12.6.8-14 1-2.3.3-9.2 1.1-18.5 2-4.6.4-25.8 3.4-29.5 4.1-1.4.2-4.7.7-7.5 1-2.7.3-5.3.8-5.6 1-.4.2-2.4.6-4.5 1-2.2.3-8.4 1.5-13.9 2.6-5.5 1-11.1 2.1-12.5 2.4-19.5 3.8-68.2 16.8-93.3 25C78.8 47.1 53.2 56.2 49.5 58c-1.1.5-5.6 2.3-10 4.1-4.4 1.7-9.3 3.7-11 4.4C9 75.2 7.4 76.3 4 83c-1.8 3.4-1.9 5.3-1.5 15.2.2 6.2.6 12.4.9 13.8.5 2.8 2.3 15.5 3.1 21.5.2 2.2.7 5.1 1 6.5.3 1.4.8 4.7 1.1 7.5.4 2.7.8 5.3 1 5.6.2.4.6 2.4 1 4.5 2 13.5 12.1 58.2 15.5 68.9.5 1.6 2.3 7.9 4 13.8C46.3 298 75.9 366.5 109.5 424c11.9 20.4 30.4 49.2 40.9 63.8 8.3 11.4 31.2 41.8 32.6 43.2.3.3 5 5.9 10.5 12.5s11 13.1 12.2 14.5c1.2 1.4 3.1 3.6 4.3 5 12 13.9 47.6 50.4 64 65.6 31.8 29.2 59.4 50.7 68.3 53 8.5 2.1 21.1.4 25.4-3.5 1-.9 4.3-3.4 7.3-5.5 5.6-4 27.2-21 30-23.7.9-.8 5.4-4.8 10-8.9 17.7-15.5 50.1-47.4 65.6-64.5 60.7-66.9 108.7-138.2 146.1-217 18.1-38.2 30.7-71.2 45.9-120.7 5.2-17 17.2-68.9 18.9-82.3.4-2.8.9-5.3 1.1-5.6.1-.3.6-2.8.9-5.5.4-2.7.8-5.6 1-6.4.2-.8.7-3.8 1-6.5.3-2.8.9-6.3 1.2-8 .3-1.6.7-4.6.9-6.5.2-1.9.6-5.5.9-7.9 2.3-17.1 1-25.9-4.6-31.7-6.4-6.6-63.3-28.9-104.4-40.9-12.3-3.6-33.6-9.6-35.8-10-1-.2-2.7-.7-3.7-1-1-.3-2.7-.8-3.7-1-1-.2-5.6-1.2-10.3-2.4-15.1-3.5-43-9.2-52-10.5-1.9-.3-5.7-1-8.5-1.5-2.7-.5-7.4-1.3-10.4-1.6-2.9-.3-5.6-.7-6-.9-.3-.2-3.5-.7-7.1-1-3.6-.4-7.8-.8-9.5-1.1-4.8-.7-11.4-1.4-20-2.1-4.4-.3-9.6-.8-11.5-1.1-4.2-.6-106.5-1.5-107.1-.9zm83.1 69c7.4.4 14.9.9 16.5 1 1.7.2 6.4.7 10.5 1.1 8.4.8 9.6 1 21.3 2.5 13.8 1.9 14.7 2 31.2 5.1 40.3 7.6 83.2 19.5 118.8 33 7.1 2.7 14.3 5.5 16 6.3 1.8.8 7 3.1 11.7 5.1 17.8 7.7 18.5 10.3 12.5 51-.3 2.2-.8 5.1-1 6.5-.3 1.4-.8 4.2-1.1 6.4-.3 2.1-.8 4.8-1 6-.2 1.1-.7 3.7-1 5.6-.4 2.9-6.5 30.7-7.8 36-5.3 20.8-13.7 48-21.6 69.5-6.6 18.1-17.3 36-26.7 44.5-14.6 13.3-31.1 14.5-47.9 3.4-10.2-6.8-19.5-19-42.8-56.1-2.7-4.3-7.6-12.1-11-17.4-3.4-5.2-6.6-10.4-7.3-11.5-.6-1-10.5-16.8-21.9-34.9-11.4-18.2-29-46.3-39.2-62.5-10.1-16.2-19.5-31.1-20.7-33-1.3-1.9-6.9-10.8-12.5-19.7-5.6-9-10.5-16.5-10.9-16.7-.7-.4-22.7 34.3-88.1 138.9-7.3 11.5-14.2 22.6-15.4 24.5-1.3 1.9-8.3 12.9-15.6 24.5-25.3 39.9-32.1 49.8-39 56.6-16.3 15.9-34.4 19.2-49.7 9.2-18.4-12.1-32.6-39.9-48.8-95.8-6.1-21.1-13.8-54.4-16-69-.4-2.2-1.3-8.1-2-13-6.4-41.8-5.8-44.9 10.4-52.2 20.3-9 42.9-17.6 65.6-24.6 16.6-5.2 56.9-15.7 66.5-17.3 1.4-.3 3.3-.7 4.3-1 1-.3 3-.7 4.5-.9 1.5-.3 3.8-.7 5.2-1 1.4-.3 3.9-.8 5.5-1 6.1-1.1 14.1-2.5 16.2-2.9 1.2-.3 4.6-.7 7.5-1 2.9-.4 6.2-.8 7.3-1 2.7-.5 11.6-1.5 19-2.2 3.3-.2 7.6-.7 9.5-.9 1.9-.2 10-.7 18-1.1 8-.3 14.6-.7 14.7-.8.5-.4 45 .2 56.3.8zM356.9 240c2.5 2.7 12.5 13.1 22.1 23.1 9.6 10 19.7 20.5 22.4 23.3 2.6 2.8 10.3 10.8 17 17.7 68.2 70.7 66.9 69.3 72 76.4 17.6 24.4 22.1 54.6 12.1 81-5.4 14.5-11.6 24.2-27.2 42.9-16 19.1-30.9 35.1-50.6 54.3-15.1 14.7-16.5 16-23.8 22.3-3.5 3-7.5 6.5-8.9 7.8-1.4 1.2-5.8 4.8-9.9 8-4 3.1-9.4 7.4-12 9.5-8.3 6.7-13.4 8.4-24.3 7.8-10.3-.5-72.6-55.6-104.2-92.2-1.6-1.9-5.7-6.6-9.1-10.4-8.3-9.4-20.7-25.2-23.2-29.5-5.3-9.1-8.3-15.1-10.6-21.6-9-25.2-5-53.8 10.7-77.2 5.6-8.3 5.8-8.5 32.5-36.1 12-12.4 23.8-24.6 26.1-27.1 2.3-2.5 14-14.6 26-27 28.2-29.2 41.3-42.9 49.1-51.2 3.5-3.8 7-6.8 7.8-6.8.7 0 3.4 2.2 6 5z"/><path d="M347.8 282.9c-.1.5-6.3 7.2-13.7 14.8-7.3 7.6-15.6 16.1-18.4 19l-5 5.2 38.8.1h38.9l-3.9-4.2c-12.8-13.5-35-35.8-35.6-35.8-.4 0-.9.4-1.1.9zm-74.6 77.4c-5.4 5.5-10.4 10.8-11.2 11.7-.8.9-5.1 5.3-9.4 9.8l-7.9 8.2H454l-10.9-11.3c-5.9-6.1-14.4-15-18.9-19.7l-8-8.5-66.7-.1h-66.7l-9.6 9.9z"/></g></svg>