<svg version="1.0" xmlns="http://www.w3.org/2000/svg" width="933.333" height="933.333" viewBox="0 0 700 700" preserveAspectRatio="xMidYMid meet"><path d="M151.9 1.5c-6.4 2-14 9.1-17 15.7-2.3 5.3-2.3 5.3-2.4 51.3-.1 32.6.2 47.5 1 51.2 2 8.6 8.7 16.1 17.3 19.3 5.2 2 7.4 2 71.5 1.8 64.4-.3 66.3-.4 68.9-2.3 4.9-3.6 5.3-6.1 5.3-32.2.1-13.4.4-24.5.7-24.9.4-.3 22.4 12.1 49 27.6 26.6 15.6 50.7 29.6 53.7 31.2 2.9 1.7 8.9 5.2 13.3 7.9s8.1 4.9 8.4 4.9c.9 0 37 21.3 38.4 22.7 1.7 1.7.9 2.4-8.6 7.8-10.1 5.7-25.9 14.9-35.7 20.7-5.3 3.2-10.2 5.8-10.7 5.8-.6 0-1 .4-1 1 0 .5-.4 1-.8 1-.7 0-13.1 6.9-18.2 10.1-2.8 1.7-70.2 40.9-70.5 40.9-.1 0-4 2.2-8.5 5-4.6 2.7-8.6 4.7-8.9 4.4-.3-.3-.6-15.2-.6-33.2 0-30.5-.2-32.9-2-35.9-3.9-6.6-1.3-6.4-75.2-6.1l-66.9.3-5.4 3.3c-6.8 4.1-11.5 10.2-13.3 17-1 4-1.3 29.1-1.2 124.4 0 108.8.1 119.6 1.6 121.8 1 1.5 24.1 15.9 55 34.4 29.4 17.5 54.6 32.7 56.1 33.7s3 1.9 3.2 1.9c.3 0 3.7 2 7.6 4.5 3.9 2.5 7.2 4.5 7.5 4.5.3 0 4.5 2.4 9.3 5.3 14.3 8.8 40.5 24.3 43.9 26.1 3.7 1.8 7.6.9 8.7-2 .4-1 .7-19.6.7-41.3v-39.4l-2.3-2.3c-1.3-1.2-5-3.6-8.3-5.4-7.9-4.3-11.6-6.3-26.5-14.7-6.9-3.8-15.2-8.5-18.5-10.3-3.3-1.8-7.3-4-9-5-1.6-1-5.2-3-8-4.5-7.8-4.2-11.3-7.3-13.8-11.8-2.1-4-2.2-5.5-2.5-29.5-.3-20.5 0-26.3 1.2-30.6 2-6.9 8-13.7 15.2-17.2l5.6-2.7 73.2-.3c40.2-.2 74.2-.5 75.6-.7 1.4-.3 4.8-.8 7.5-1.1 26.4-3.3 57.1-16.3 81.5-34.5 9.3-6.9 26.9-24.4 33.3-33.1 2.7-3.6 5.5-7.3 6.3-8.3.8-.9 1.4-1.9 1.4-2.2 0-.2 1.3-2.3 2.9-4.7 2.6-4 8.7-15.5 12.5-23.8 3.1-7 8.8-25.7 10.6-35 2.5-13 3.2-19.7 3.5-32.1 1-62.1-29.5-119.1-82-153.4-18.6-12.2-44.9-22.4-66.3-26-2.3-.4-5.4-.9-7-1.2C410.7 1 352.6.6 283 .4 174.6.1 155.8.3 151.9 1.5zm-18.2 502.7c-1.2 1.9-1.4 9.8-1.3 42.6l.1 40.4 2.7 2.3c2.1 1.8 84.9 51.9 94.3 57.1 1.1.6 7.9 4.6 15 8.9 7.2 4.3 13.9 8.3 15 8.9 1.1.6 13.7 8.1 28 16.7 29.6 17.8 31.7 18.9 34.3 18.9 4.2 0 4.3-1.1 4.3-43.6l.1-40.9-2.7-2.1c-1.4-1.1-5.6-3.9-9.3-6.1-3.7-2.2-30.8-18.5-60.2-36.3-29.4-17.7-54.8-33-56.5-34-1.6-1-15.4-9.2-30.6-18.4-15.2-9.1-28.6-16.6-29.7-16.6-1.2 0-2.8 1-3.5 2.2z" fill="#000"/></svg>