<svg width="593" height="699" viewBox="0 0 593 699" fill="none" xmlns="http://www.w3.org/2000/svg">
	<path d="M1461.17 489.117L1391.67 419.4L1461.17 349.682L1530.68 419.4L1461.17 489.117Z"
		fill="url(#paint0_linear_24270_71176)" />
	<path d="M1600.73 349.5L1670.24 279.782L1739.75 349.5L1670.24 419.218L1600.73 349.5Z"
		fill="url(#paint1_linear_24270_71176)" />
	<path d="M1530.68 559.2L1461.17 489.482L1391.67 559.2H1530.68Z" fill="url(#paint2_linear_24270_71176)" />
	<path d="M1530.86 419.218L1600.37 349.5L1530.86 279.782V419.218Z" fill="url(#paint3_linear_24270_71176)" />
	<path d="M1809.62 279.782L1740.11 349.5L1809.62 419.218V279.782Z" fill="url(#paint4_linear_24270_71176)" />
	<path d="M1670.24 559.018L1739.75 489.3L1670.24 419.582V559.018Z" fill="url(#paint5_linear_24270_71176)" />
	<path d="M1670.06 559.2L1600.55 489.482L1531.05 559.2H1670.06Z" fill="url(#paint6_linear_24270_71176)" />
	<path d="M1670.06 279.6L1600.55 209.883L1531.05 279.6H1670.06Z" fill="url(#paint7_linear_24270_71176)" />
	<path d="M1948.82 419.4L1879.31 349.683L1809.8 419.4H1948.82Z" fill="url(#paint8_linear_24270_71176)" />
	<path d="M1948.82 139.8L1879.31 70.0827L1809.8 139.8L1948.82 139.8Z" fill="url(#paint9_linear_24270_71176)" />
	<path d="M1809.44 699L1739.93 629.282L1670.42 699H1809.44Z" fill="url(#paint10_linear_24270_71176)" />
	<path d="M1670.24 0.182489L1600.74 69.9002L1670.24 139.618V0.182489Z" fill="url(#paint11_linear_24270_71176)" />
	<path d="M1949 139.982L1879.49 209.7L1949 279.418V139.982Z" fill="url(#paint12_linear_24270_71176)" />
	<path d="M1531.05 419.4L1600.55 489.117L1670.06 419.4L1531.05 419.4Z" fill="url(#paint13_linear_24270_71176)" />
	<path d="M1531.05 139.8L1600.55 209.518L1670.06 139.8L1531.05 139.8Z" fill="url(#paint14_linear_24270_71176)" />
	<path d="M1809.8 279.6L1879.31 349.317L1948.82 279.6L1809.8 279.6Z" fill="url(#paint15_linear_24270_71176)" />
	<path d="M1809.8 0L1879.31 69.7177L1948.82 1.21842e-05L1809.8 0Z" fill="url(#paint16_linear_24270_71176)" />
	<path d="M1670.42 559.2L1739.93 628.917L1809.44 559.2H1670.42Z" fill="url(#paint17_linear_24270_71176)" />
	<path d="M1530.86 139.618L1600.37 69.9002L1530.86 0.182477V139.618Z" fill="url(#paint18_linear_24270_71176)" />
	<path d="M1809.62 279.418L1879.13 209.7L1809.62 139.982V279.418Z" fill="url(#paint19_linear_24270_71176)" />
	<path d="M1391.49 698.817L1460.99 629.1L1391.49 559.382V698.817Z" fill="url(#paint20_linear_24270_71176)" />
	<path d="M1670.24 559.382L1600.73 629.1L1670.24 698.817V559.382Z" fill="url(#paint21_linear_24270_71176)" />
	<path d="M1949 419.582L1879.49 489.3L1949 559.018V419.582Z" fill="url(#paint22_linear_24270_71176)" />
	<path d="M1530.86 698.817L1461.36 629.099L1530.86 559.382L1600.37 629.099L1530.86 698.817Z"
		fill="url(#paint23_linear_24270_71176)" />
	<path d="M1879.31 698.817L1809.8 629.099L1879.31 559.382L1948.82 629.099L1879.31 698.817Z"
		fill="url(#paint24_linear_24270_71176)" />
	<path d="M1809.62 559.017L1740.11 489.3L1809.62 419.582L1879.13 489.3L1809.62 559.017Z"
		fill="url(#paint25_linear_24270_71176)" />
	<path d="M1461.17 279.418L1391.67 209.7L1461.17 139.982L1530.68 209.7L1461.17 279.418Z"
		fill="url(#paint26_linear_24270_71176)" />
	<path d="M1739.93 279.418L1670.42 209.7L1739.93 139.982L1809.44 209.7L1739.93 279.418Z"
		fill="url(#paint27_linear_24270_71176)" />
	<path d="M1461.17 139.618L1391.67 69.8999L1461.17 0.182186L1530.68 69.8999L1461.17 139.618Z"
		fill="url(#paint28_linear_24270_71176)" />
	<path d="M1739.93 139.618L1670.42 69.8999L1739.93 0.182211L1809.44 69.8999L1739.93 139.618Z"
		fill="url(#paint29_linear_24270_71176)" />
	<path d="M1391.67 279.6L1461.17 349.317L1530.68 279.6H1391.67Z" fill="url(#paint30_linear_24270_71176)" />
	<path d="M1321.61 209.884L1391.12 279.601L1321.61 349.319L1252.11 279.601L1321.61 209.884Z"
		fill="url(#paint31_linear_24270_71176)" />
	<path d="M1182.05 349.501L1112.55 419.219L1043.04 349.501L1112.55 279.783L1182.05 349.501Z"
		fill="url(#paint32_linear_24270_71176)" />
	<path d="M1252.11 139.801L1321.61 209.519L1391.12 139.801L1252.11 139.801Z"
		fill="url(#paint33_linear_24270_71176)" />
	<path d="M1251.93 279.783L1182.42 349.501L1251.93 419.219V279.783Z" fill="url(#paint34_linear_24270_71176)" />
	<path d="M973.167 419.219L1042.67 349.501L973.167 279.783L973.167 419.219Z"
		fill="url(#paint35_linear_24270_71176)" />
	<path d="M1112.55 139.984L1043.04 209.701L1112.55 279.419V139.984Z" fill="url(#paint36_linear_24270_71176)" />
	<path d="M1112.73 139.801L1182.23 209.519L1251.74 139.801H1112.73Z" fill="url(#paint37_linear_24270_71176)" />
	<path d="M1112.73 419.401L1182.23 489.118L1251.74 419.401H1112.73Z" fill="url(#paint38_linear_24270_71176)" />
	<path d="M973.349 0.00112136L1042.86 69.7188L1112.36 0.00113355L973.349 0.00112136Z"
		fill="url(#paint39_linear_24270_71176)" />
	<path d="M1112.55 698.819L1182.05 629.101L1112.55 559.383V698.819Z" fill="url(#paint40_linear_24270_71176)" />
	<path d="M1251.74 279.601L1182.23 209.884L1112.73 279.601L1251.74 279.601Z"
		fill="url(#paint41_linear_24270_71176)" />
	<path d="M1251.74 559.201L1182.23 489.484L1112.73 559.201L1251.74 559.201Z"
		fill="url(#paint42_linear_24270_71176)" />
	<path d="M1112.36 139.802L1042.86 70.0839L973.349 139.802L1112.36 139.802Z"
		fill="url(#paint43_linear_24270_71176)" />
	<path d="M1251.92 559.383L1182.42 629.101L1251.92 698.819V559.383Z" fill="url(#paint44_linear_24270_71176)" />
	<path d="M1391.3 0.183716L1321.8 69.9014L1391.3 139.619V0.183716Z" fill="url(#paint45_linear_24270_71176)" />
	<path d="M1112.55 139.619L1182.05 69.9013L1112.55 0.183635V139.619Z" fill="url(#paint46_linear_24270_71176)" />
	<path d="M1251.92 0.183988L1321.43 69.9017L1251.92 139.619L1182.42 69.9016L1251.92 0.183988Z"
		fill="url(#paint47_linear_24270_71176)" />
	<path d="M1321.61 419.584L1391.12 489.301L1321.61 559.019L1252.11 489.301L1321.61 419.584Z"
		fill="url(#paint48_linear_24270_71176)" />
	<path d="M1042.86 419.584L1112.36 489.301L1042.86 559.019L973.349 489.301L1042.86 419.584Z"
		fill="url(#paint49_linear_24270_71176)" />
	<path d="M1321.61 559.383L1391.12 629.101L1321.61 698.819L1252.11 629.101L1321.61 559.383Z"
		fill="url(#paint50_linear_24270_71176)" />
	<path d="M1042.86 559.383L1112.36 629.101L1042.86 698.819L973.349 629.101L1042.86 559.383Z"
		fill="url(#paint51_linear_24270_71176)" />
	<path d="M1391.12 419.401L1321.61 349.684L1252.11 419.401L1391.12 419.401Z"
		fill="url(#paint52_linear_24270_71176)" />
	<path d="M488.008 489.117L418.5 419.4L488.008 349.682L557.516 419.4L488.008 489.117Z"
		fill="url(#paint53_linear_24270_71176)" />
	<path d="M627.568 349.5L697.076 279.782L766.583 349.5L697.076 419.218L627.568 349.5Z"
		fill="url(#paint54_linear_24270_71176)" />
	<path d="M557.516 559.2L488.008 489.482L418.5 559.2H557.516Z" fill="url(#paint55_linear_24270_71176)" />
	<path d="M557.696 419.218L627.204 349.5L557.696 279.782V419.218Z" fill="url(#paint56_linear_24270_71176)" />
	<path d="M836.454 279.782L766.947 349.5L836.454 419.218L836.454 279.782Z" fill="url(#paint57_linear_24270_71176)" />
	<path d="M697.076 559.018L766.583 489.3L697.076 419.582V559.018Z" fill="url(#paint58_linear_24270_71176)" />
	<path d="M696.894 559.2L627.387 489.482L557.879 559.2H696.894Z" fill="url(#paint59_linear_24270_71176)" />
	<path d="M696.894 279.6L627.387 209.883L557.879 279.6H696.894Z" fill="url(#paint60_linear_24270_71176)" />
	<path d="M975.652 419.4L906.144 349.683L836.637 419.4H975.652Z" fill="url(#paint61_linear_24270_71176)" />
	<path d="M975.652 139.8L906.144 70.0827L836.637 139.8L975.652 139.8Z" fill="url(#paint62_linear_24270_71176)" />
	<path d="M836.273 699L766.766 629.282L697.258 699H836.273Z" fill="url(#paint63_linear_24270_71176)" />
	<path d="M697.076 0.182489L627.569 69.9002L697.076 139.618V0.182489Z" fill="url(#paint64_linear_24270_71176)" />
	<path d="M975.833 139.982L906.325 209.7L975.833 279.418V139.982Z" fill="url(#paint65_linear_24270_71176)" />
	<path d="M557.879 419.4L627.387 489.117L696.894 419.4L557.879 419.4Z" fill="url(#paint66_linear_24270_71176)" />
	<path d="M557.879 139.8L627.387 209.518L696.894 139.8L557.879 139.8Z" fill="url(#paint67_linear_24270_71176)" />
	<path d="M836.637 279.6L906.144 349.317L975.652 279.6L836.637 279.6Z" fill="url(#paint68_linear_24270_71176)" />
	<path d="M836.637 0L906.144 69.7177L975.652 1.21842e-05L836.637 0Z" fill="url(#paint69_linear_24270_71176)" />
	<path d="M697.258 559.2L766.766 628.917L836.273 559.2H697.258Z" fill="url(#paint70_linear_24270_71176)" />
	<path d="M557.697 139.618L627.205 69.9002L557.697 0.182477V139.618Z" fill="url(#paint71_linear_24270_71176)" />
	<path d="M836.454 279.418L905.962 209.7L836.454 139.982V279.418Z" fill="url(#paint72_linear_24270_71176)" />
	<path d="M418.318 698.817L487.826 629.1L418.318 559.382V698.817Z" fill="url(#paint73_linear_24270_71176)" />
	<path d="M697.076 559.382L627.568 629.1L697.076 698.817L697.076 559.382Z" fill="url(#paint74_linear_24270_71176)" />
	<path d="M975.833 419.582L906.325 489.3L975.833 559.018V419.582Z" fill="url(#paint75_linear_24270_71176)" />
	<path d="M557.697 698.817L488.19 629.099L557.697 559.382L627.205 629.099L557.697 698.817Z"
		fill="url(#paint76_linear_24270_71176)" />
	<path d="M906.144 698.817L836.637 629.099L906.144 559.382L975.652 629.099L906.144 698.817Z"
		fill="url(#paint77_linear_24270_71176)" />
	<path d="M836.455 559.017L766.947 489.3L836.455 419.582L905.962 489.3L836.455 559.017Z"
		fill="url(#paint78_linear_24270_71176)" />
	<path d="M488.008 279.418L418.5 209.7L488.008 139.982L557.516 209.7L488.008 279.418Z"
		fill="url(#paint79_linear_24270_71176)" />
	<path d="M766.766 279.418L697.258 209.7L766.766 139.982L836.273 209.7L766.766 279.418Z"
		fill="url(#paint80_linear_24270_71176)" />
	<path d="M488.008 139.618L418.5 69.8999L488.008 0.182186L557.516 69.8999L488.008 139.618Z"
		fill="url(#paint81_linear_24270_71176)" />
	<path d="M766.766 139.618L697.258 69.8999L766.766 0.182211L836.273 69.8999L766.766 139.618Z"
		fill="url(#paint82_linear_24270_71176)" />
	<path d="M418.5 279.6L488.008 349.317L557.516 279.6H418.5Z" fill="url(#paint83_linear_24270_71176)" />
	<path d="M348.447 209.884L417.954 279.601L348.447 349.319L278.939 279.601L348.447 209.884Z"
		fill="url(#paint84_linear_24270_71176)" />
	<path d="M208.887 349.501L139.379 419.219L69.8715 349.501L139.379 279.783L208.887 349.501Z"
		fill="url(#paint85_linear_24270_71176)" />
	<path d="M278.939 139.801L348.447 209.519L417.954 139.801L278.939 139.801Z"
		fill="url(#paint86_linear_24270_71176)" />
	<path d="M278.758 279.783L209.251 349.501L278.758 419.219L278.758 279.783Z"
		fill="url(#paint87_linear_24270_71176)" />
	<path d="M0.000441553 419.219L69.5081 349.501L0.000453712 279.783L0.000441553 419.219Z"
		fill="url(#paint88_linear_24270_71176)" />
	<path d="M139.379 139.984L69.8713 209.701L139.379 279.419L139.379 139.984Z"
		fill="url(#paint89_linear_24270_71176)" />
	<path d="M139.56 139.801L209.068 209.519L278.576 139.801H139.56Z" fill="url(#paint90_linear_24270_71176)" />
	<path d="M139.56 419.401L209.068 489.118L278.576 419.401H139.56Z" fill="url(#paint91_linear_24270_71176)" />
	<path d="M0.181749 0.00112136L69.6894 69.7188L139.197 0.00113355L0.181749 0.00112136Z"
		fill="url(#paint92_linear_24270_71176)" />
	<path d="M139.378 698.819L208.886 629.101L139.378 559.383L139.378 698.819Z"
		fill="url(#paint93_linear_24270_71176)" />
	<path d="M278.576 279.601L209.068 209.884L139.56 279.601L278.576 279.601Z"
		fill="url(#paint94_linear_24270_71176)" />
	<path d="M278.576 559.201L209.068 489.484L139.56 559.201L278.576 559.201Z"
		fill="url(#paint95_linear_24270_71176)" />
	<path d="M139.197 139.802L69.6894 70.0839L0.181737 139.802L139.197 139.802Z"
		fill="url(#paint96_linear_24270_71176)" />
	<path d="M278.758 559.383L209.25 629.101L278.758 698.819L278.758 559.383Z"
		fill="url(#paint97_linear_24270_71176)" />
	<path d="M418.136 0.183716L348.629 69.9014L418.136 139.619V0.183716Z" fill="url(#paint98_linear_24270_71176)" />
	<path d="M139.379 139.619L208.887 69.9013L139.379 0.183635L139.379 139.619Z"
		fill="url(#paint99_linear_24270_71176)" />
	<path d="M278.757 0.183988L348.265 69.9017L278.757 139.619L209.25 69.9016L278.757 0.183988Z"
		fill="url(#paint100_linear_24270_71176)" />
	<path d="M348.447 419.584L417.954 489.301L348.447 559.019L278.939 489.301L348.447 419.584Z"
		fill="url(#paint101_linear_24270_71176)" />
	<path d="M69.6893 419.584L139.197 489.301L69.6893 559.019L0.181706 489.301L69.6893 419.584Z"
		fill="url(#paint102_linear_24270_71176)" />
	<path d="M348.447 559.383L417.954 629.101L348.447 698.819L278.939 629.101L348.447 559.383Z"
		fill="url(#paint103_linear_24270_71176)" />
	<path d="M69.6893 559.383L139.197 629.101L69.6893 698.819L0.181694 629.101L69.6893 559.383Z"
		fill="url(#paint104_linear_24270_71176)" />
	<path d="M417.954 419.401L348.447 349.684L278.939 419.401L417.954 419.401Z"
		fill="url(#paint105_linear_24270_71176)" />
	<defs>
		<linearGradient id="paint0_linear_24270_71176" x1="507.5" y1="-73.5" x2="507.91" y2="710"
			gradientUnits="userSpaceOnUse">
			<stop stop-color="#253355" />
			<stop offset="1" stop-color="#283C64" />
		</linearGradient>
		<linearGradient id="paint1_linear_24270_71176" x1="507.5" y1="-73.5" x2="507.91" y2="710"
			gradientUnits="userSpaceOnUse">
			<stop stop-color="#253355" />
			<stop offset="1" stop-color="#283C64" />
		</linearGradient>
		<linearGradient id="paint2_linear_24270_71176" x1="507.5" y1="-73.5" x2="507.91" y2="710"
			gradientUnits="userSpaceOnUse">
			<stop stop-color="#253355" />
			<stop offset="1" stop-color="#283C64" />
		</linearGradient>
		<linearGradient id="paint3_linear_24270_71176" x1="507.5" y1="-73.5" x2="507.91" y2="710"
			gradientUnits="userSpaceOnUse">
			<stop stop-color="#253355" />
			<stop offset="1" stop-color="#283C64" />
		</linearGradient>
		<linearGradient id="paint4_linear_24270_71176" x1="507.5" y1="-73.5" x2="507.91" y2="710"
			gradientUnits="userSpaceOnUse">
			<stop stop-color="#253355" />
			<stop offset="1" stop-color="#283C64" />
		</linearGradient>
		<linearGradient id="paint5_linear_24270_71176" x1="507.5" y1="-73.5" x2="507.91" y2="710"
			gradientUnits="userSpaceOnUse">
			<stop stop-color="#253355" />
			<stop offset="1" stop-color="#283C64" />
		</linearGradient>
		<linearGradient id="paint6_linear_24270_71176" x1="507.5" y1="-73.5" x2="507.91" y2="710"
			gradientUnits="userSpaceOnUse">
			<stop stop-color="#253355" />
			<stop offset="1" stop-color="#283C64" />
		</linearGradient>
		<linearGradient id="paint7_linear_24270_71176" x1="507.5" y1="-73.5" x2="507.91" y2="710"
			gradientUnits="userSpaceOnUse">
			<stop stop-color="#253355" />
			<stop offset="1" stop-color="#283C64" />
		</linearGradient>
		<linearGradient id="paint8_linear_24270_71176" x1="507.5" y1="-73.5" x2="507.91" y2="710"
			gradientUnits="userSpaceOnUse">
			<stop stop-color="#253355" />
			<stop offset="1" stop-color="#283C64" />
		</linearGradient>
		<linearGradient id="paint9_linear_24270_71176" x1="507.5" y1="-73.5" x2="507.91" y2="710"
			gradientUnits="userSpaceOnUse">
			<stop stop-color="#253355" />
			<stop offset="1" stop-color="#283C64" />
		</linearGradient>
		<linearGradient id="paint10_linear_24270_71176" x1="507.5" y1="-73.5" x2="507.91" y2="710"
			gradientUnits="userSpaceOnUse">
			<stop stop-color="#253355" />
			<stop offset="1" stop-color="#283C64" />
		</linearGradient>
		<linearGradient id="paint11_linear_24270_71176" x1="507.5" y1="-73.5" x2="507.91" y2="710"
			gradientUnits="userSpaceOnUse">
			<stop stop-color="#253355" />
			<stop offset="1" stop-color="#283C64" />
		</linearGradient>
		<linearGradient id="paint12_linear_24270_71176" x1="507.5" y1="-73.5" x2="507.91" y2="710"
			gradientUnits="userSpaceOnUse">
			<stop stop-color="#253355" />
			<stop offset="1" stop-color="#283C64" />
		</linearGradient>
		<linearGradient id="paint13_linear_24270_71176" x1="507.5" y1="-73.5" x2="507.91" y2="710"
			gradientUnits="userSpaceOnUse">
			<stop stop-color="#253355" />
			<stop offset="1" stop-color="#283C64" />
		</linearGradient>
		<linearGradient id="paint14_linear_24270_71176" x1="507.5" y1="-73.5" x2="507.91" y2="710"
			gradientUnits="userSpaceOnUse">
			<stop stop-color="#253355" />
			<stop offset="1" stop-color="#283C64" />
		</linearGradient>
		<linearGradient id="paint15_linear_24270_71176" x1="507.5" y1="-73.5" x2="507.91" y2="710"
			gradientUnits="userSpaceOnUse">
			<stop stop-color="#253355" />
			<stop offset="1" stop-color="#283C64" />
		</linearGradient>
		<linearGradient id="paint16_linear_24270_71176" x1="507.5" y1="-73.5" x2="507.91" y2="710"
			gradientUnits="userSpaceOnUse">
			<stop stop-color="#253355" />
			<stop offset="1" stop-color="#283C64" />
		</linearGradient>
		<linearGradient id="paint17_linear_24270_71176" x1="507.5" y1="-73.5" x2="507.91" y2="710"
			gradientUnits="userSpaceOnUse">
			<stop stop-color="#253355" />
			<stop offset="1" stop-color="#283C64" />
		</linearGradient>
		<linearGradient id="paint18_linear_24270_71176" x1="507.5" y1="-73.5" x2="507.91" y2="710"
			gradientUnits="userSpaceOnUse">
			<stop stop-color="#253355" />
			<stop offset="1" stop-color="#283C64" />
		</linearGradient>
		<linearGradient id="paint19_linear_24270_71176" x1="507.5" y1="-73.5" x2="507.91" y2="710"
			gradientUnits="userSpaceOnUse">
			<stop stop-color="#253355" />
			<stop offset="1" stop-color="#283C64" />
		</linearGradient>
		<linearGradient id="paint20_linear_24270_71176" x1="507.5" y1="-73.5" x2="507.91" y2="710"
			gradientUnits="userSpaceOnUse">
			<stop stop-color="#253355" />
			<stop offset="1" stop-color="#283C64" />
		</linearGradient>
		<linearGradient id="paint21_linear_24270_71176" x1="507.5" y1="-73.5" x2="507.91" y2="710"
			gradientUnits="userSpaceOnUse">
			<stop stop-color="#253355" />
			<stop offset="1" stop-color="#283C64" />
		</linearGradient>
		<linearGradient id="paint22_linear_24270_71176" x1="507.5" y1="-73.5" x2="507.91" y2="710"
			gradientUnits="userSpaceOnUse">
			<stop stop-color="#253355" />
			<stop offset="1" stop-color="#283C64" />
		</linearGradient>
		<linearGradient id="paint23_linear_24270_71176" x1="507.5" y1="-73.5" x2="507.91" y2="710"
			gradientUnits="userSpaceOnUse">
			<stop stop-color="#253355" />
			<stop offset="1" stop-color="#283C64" />
		</linearGradient>
		<linearGradient id="paint24_linear_24270_71176" x1="507.5" y1="-73.5" x2="507.91" y2="710"
			gradientUnits="userSpaceOnUse">
			<stop stop-color="#253355" />
			<stop offset="1" stop-color="#283C64" />
		</linearGradient>
		<linearGradient id="paint25_linear_24270_71176" x1="507.5" y1="-73.5" x2="507.91" y2="710"
			gradientUnits="userSpaceOnUse">
			<stop stop-color="#253355" />
			<stop offset="1" stop-color="#283C64" />
		</linearGradient>
		<linearGradient id="paint26_linear_24270_71176" x1="507.5" y1="-73.5" x2="507.91" y2="710"
			gradientUnits="userSpaceOnUse">
			<stop stop-color="#253355" />
			<stop offset="1" stop-color="#283C64" />
		</linearGradient>
		<linearGradient id="paint27_linear_24270_71176" x1="507.5" y1="-73.5" x2="507.91" y2="710"
			gradientUnits="userSpaceOnUse">
			<stop stop-color="#253355" />
			<stop offset="1" stop-color="#283C64" />
		</linearGradient>
		<linearGradient id="paint28_linear_24270_71176" x1="507.5" y1="-73.5" x2="507.91" y2="710"
			gradientUnits="userSpaceOnUse">
			<stop stop-color="#253355" />
			<stop offset="1" stop-color="#283C64" />
		</linearGradient>
		<linearGradient id="paint29_linear_24270_71176" x1="507.5" y1="-73.5" x2="507.91" y2="710"
			gradientUnits="userSpaceOnUse">
			<stop stop-color="#253355" />
			<stop offset="1" stop-color="#283C64" />
		</linearGradient>
		<linearGradient id="paint30_linear_24270_71176" x1="507.5" y1="-73.5" x2="507.91" y2="710"
			gradientUnits="userSpaceOnUse">
			<stop stop-color="#253355" />
			<stop offset="1" stop-color="#283C64" />
		</linearGradient>
		<linearGradient id="paint31_linear_24270_71176" x1="507.5" y1="-73.5" x2="507.91" y2="710"
			gradientUnits="userSpaceOnUse">
			<stop stop-color="#253355" />
			<stop offset="1" stop-color="#283C64" />
		</linearGradient>
		<linearGradient id="paint32_linear_24270_71176" x1="507.5" y1="-73.5" x2="507.91" y2="710"
			gradientUnits="userSpaceOnUse">
			<stop stop-color="#253355" />
			<stop offset="1" stop-color="#283C64" />
		</linearGradient>
		<linearGradient id="paint33_linear_24270_71176" x1="507.5" y1="-73.5" x2="507.91" y2="710"
			gradientUnits="userSpaceOnUse">
			<stop stop-color="#253355" />
			<stop offset="1" stop-color="#283C64" />
		</linearGradient>
		<linearGradient id="paint34_linear_24270_71176" x1="507.5" y1="-73.5" x2="507.91" y2="710"
			gradientUnits="userSpaceOnUse">
			<stop stop-color="#253355" />
			<stop offset="1" stop-color="#283C64" />
		</linearGradient>
		<linearGradient id="paint35_linear_24270_71176" x1="507.5" y1="-73.5" x2="507.91" y2="710"
			gradientUnits="userSpaceOnUse">
			<stop stop-color="#253355" />
			<stop offset="1" stop-color="#283C64" />
		</linearGradient>
		<linearGradient id="paint36_linear_24270_71176" x1="507.5" y1="-73.5" x2="507.91" y2="710"
			gradientUnits="userSpaceOnUse">
			<stop stop-color="#253355" />
			<stop offset="1" stop-color="#283C64" />
		</linearGradient>
		<linearGradient id="paint37_linear_24270_71176" x1="507.5" y1="-73.5" x2="507.91" y2="710"
			gradientUnits="userSpaceOnUse">
			<stop stop-color="#253355" />
			<stop offset="1" stop-color="#283C64" />
		</linearGradient>
		<linearGradient id="paint38_linear_24270_71176" x1="507.5" y1="-73.5" x2="507.91" y2="710"
			gradientUnits="userSpaceOnUse">
			<stop stop-color="#253355" />
			<stop offset="1" stop-color="#283C64" />
		</linearGradient>
		<linearGradient id="paint39_linear_24270_71176" x1="507.5" y1="-73.5" x2="507.91" y2="710"
			gradientUnits="userSpaceOnUse">
			<stop stop-color="#253355" />
			<stop offset="1" stop-color="#283C64" />
		</linearGradient>
		<linearGradient id="paint40_linear_24270_71176" x1="507.5" y1="-73.5" x2="507.91" y2="710"
			gradientUnits="userSpaceOnUse">
			<stop stop-color="#253355" />
			<stop offset="1" stop-color="#283C64" />
		</linearGradient>
		<linearGradient id="paint41_linear_24270_71176" x1="507.5" y1="-73.5" x2="507.91" y2="710"
			gradientUnits="userSpaceOnUse">
			<stop stop-color="#253355" />
			<stop offset="1" stop-color="#283C64" />
		</linearGradient>
		<linearGradient id="paint42_linear_24270_71176" x1="507.5" y1="-73.5" x2="507.91" y2="710"
			gradientUnits="userSpaceOnUse">
			<stop stop-color="#253355" />
			<stop offset="1" stop-color="#283C64" />
		</linearGradient>
		<linearGradient id="paint43_linear_24270_71176" x1="507.5" y1="-73.5" x2="507.91" y2="710"
			gradientUnits="userSpaceOnUse">
			<stop stop-color="#253355" />
			<stop offset="1" stop-color="#283C64" />
		</linearGradient>
		<linearGradient id="paint44_linear_24270_71176" x1="507.5" y1="-73.5" x2="507.91" y2="710"
			gradientUnits="userSpaceOnUse">
			<stop stop-color="#253355" />
			<stop offset="1" stop-color="#283C64" />
		</linearGradient>
		<linearGradient id="paint45_linear_24270_71176" x1="507.5" y1="-73.5" x2="507.91" y2="710"
			gradientUnits="userSpaceOnUse">
			<stop stop-color="#253355" />
			<stop offset="1" stop-color="#283C64" />
		</linearGradient>
		<linearGradient id="paint46_linear_24270_71176" x1="507.5" y1="-73.5" x2="507.91" y2="710"
			gradientUnits="userSpaceOnUse">
			<stop stop-color="#253355" />
			<stop offset="1" stop-color="#283C64" />
		</linearGradient>
		<linearGradient id="paint47_linear_24270_71176" x1="507.5" y1="-73.5" x2="507.91" y2="710"
			gradientUnits="userSpaceOnUse">
			<stop stop-color="#253355" />
			<stop offset="1" stop-color="#283C64" />
		</linearGradient>
		<linearGradient id="paint48_linear_24270_71176" x1="507.5" y1="-73.5" x2="507.91" y2="710"
			gradientUnits="userSpaceOnUse">
			<stop stop-color="#253355" />
			<stop offset="1" stop-color="#283C64" />
		</linearGradient>
		<linearGradient id="paint49_linear_24270_71176" x1="507.5" y1="-73.5" x2="507.91" y2="710"
			gradientUnits="userSpaceOnUse">
			<stop stop-color="#253355" />
			<stop offset="1" stop-color="#283C64" />
		</linearGradient>
		<linearGradient id="paint50_linear_24270_71176" x1="507.5" y1="-73.5" x2="507.91" y2="710"
			gradientUnits="userSpaceOnUse">
			<stop stop-color="#253355" />
			<stop offset="1" stop-color="#283C64" />
		</linearGradient>
		<linearGradient id="paint51_linear_24270_71176" x1="507.5" y1="-73.5" x2="507.91" y2="710"
			gradientUnits="userSpaceOnUse">
			<stop stop-color="#253355" />
			<stop offset="1" stop-color="#283C64" />
		</linearGradient>
		<linearGradient id="paint52_linear_24270_71176" x1="507.5" y1="-73.5" x2="507.91" y2="710"
			gradientUnits="userSpaceOnUse">
			<stop stop-color="#253355" />
			<stop offset="1" stop-color="#283C64" />
		</linearGradient>
		<linearGradient id="paint53_linear_24270_71176" x1="507.5" y1="-73.5" x2="507.91" y2="710"
			gradientUnits="userSpaceOnUse">
			<stop stop-color="#253355" />
			<stop offset="1" stop-color="#283C64" />
		</linearGradient>
		<linearGradient id="paint54_linear_24270_71176" x1="507.5" y1="-73.5" x2="507.91" y2="710"
			gradientUnits="userSpaceOnUse">
			<stop stop-color="#253355" />
			<stop offset="1" stop-color="#283C64" />
		</linearGradient>
		<linearGradient id="paint55_linear_24270_71176" x1="507.5" y1="-73.5" x2="507.91" y2="710"
			gradientUnits="userSpaceOnUse">
			<stop stop-color="#253355" />
			<stop offset="1" stop-color="#283C64" />
		</linearGradient>
		<linearGradient id="paint56_linear_24270_71176" x1="507.5" y1="-73.5" x2="507.91" y2="710"
			gradientUnits="userSpaceOnUse">
			<stop stop-color="#253355" />
			<stop offset="1" stop-color="#283C64" />
		</linearGradient>
		<linearGradient id="paint57_linear_24270_71176" x1="507.5" y1="-73.5" x2="507.91" y2="710"
			gradientUnits="userSpaceOnUse">
			<stop stop-color="#253355" />
			<stop offset="1" stop-color="#283C64" />
		</linearGradient>
		<linearGradient id="paint58_linear_24270_71176" x1="507.5" y1="-73.5" x2="507.91" y2="710"
			gradientUnits="userSpaceOnUse">
			<stop stop-color="#253355" />
			<stop offset="1" stop-color="#283C64" />
		</linearGradient>
		<linearGradient id="paint59_linear_24270_71176" x1="507.5" y1="-73.5" x2="507.91" y2="710"
			gradientUnits="userSpaceOnUse">
			<stop stop-color="#253355" />
			<stop offset="1" stop-color="#283C64" />
		</linearGradient>
		<linearGradient id="paint60_linear_24270_71176" x1="507.5" y1="-73.5" x2="507.91" y2="710"
			gradientUnits="userSpaceOnUse">
			<stop stop-color="#253355" />
			<stop offset="1" stop-color="#283C64" />
		</linearGradient>
		<linearGradient id="paint61_linear_24270_71176" x1="507.5" y1="-73.5" x2="507.91" y2="710"
			gradientUnits="userSpaceOnUse">
			<stop stop-color="#253355" />
			<stop offset="1" stop-color="#283C64" />
		</linearGradient>
		<linearGradient id="paint62_linear_24270_71176" x1="507.5" y1="-73.5" x2="507.91" y2="710"
			gradientUnits="userSpaceOnUse">
			<stop stop-color="#253355" />
			<stop offset="1" stop-color="#283C64" />
		</linearGradient>
		<linearGradient id="paint63_linear_24270_71176" x1="507.5" y1="-73.5" x2="507.91" y2="710"
			gradientUnits="userSpaceOnUse">
			<stop stop-color="#253355" />
			<stop offset="1" stop-color="#283C64" />
		</linearGradient>
		<linearGradient id="paint64_linear_24270_71176" x1="507.5" y1="-73.5" x2="507.91" y2="710"
			gradientUnits="userSpaceOnUse">
			<stop stop-color="#253355" />
			<stop offset="1" stop-color="#283C64" />
		</linearGradient>
		<linearGradient id="paint65_linear_24270_71176" x1="507.5" y1="-73.5" x2="507.91" y2="710"
			gradientUnits="userSpaceOnUse">
			<stop stop-color="#253355" />
			<stop offset="1" stop-color="#283C64" />
		</linearGradient>
		<linearGradient id="paint66_linear_24270_71176" x1="507.5" y1="-73.5" x2="507.91" y2="710"
			gradientUnits="userSpaceOnUse">
			<stop stop-color="#253355" />
			<stop offset="1" stop-color="#283C64" />
		</linearGradient>
		<linearGradient id="paint67_linear_24270_71176" x1="507.5" y1="-73.5" x2="507.91" y2="710"
			gradientUnits="userSpaceOnUse">
			<stop stop-color="#253355" />
			<stop offset="1" stop-color="#283C64" />
		</linearGradient>
		<linearGradient id="paint68_linear_24270_71176" x1="507.5" y1="-73.5" x2="507.91" y2="710"
			gradientUnits="userSpaceOnUse">
			<stop stop-color="#253355" />
			<stop offset="1" stop-color="#283C64" />
		</linearGradient>
		<linearGradient id="paint69_linear_24270_71176" x1="507.5" y1="-73.5" x2="507.91" y2="710"
			gradientUnits="userSpaceOnUse">
			<stop stop-color="#253355" />
			<stop offset="1" stop-color="#283C64" />
		</linearGradient>
		<linearGradient id="paint70_linear_24270_71176" x1="507.5" y1="-73.5" x2="507.91" y2="710"
			gradientUnits="userSpaceOnUse">
			<stop stop-color="#253355" />
			<stop offset="1" stop-color="#283C64" />
		</linearGradient>
		<linearGradient id="paint71_linear_24270_71176" x1="507.5" y1="-73.5" x2="507.91" y2="710"
			gradientUnits="userSpaceOnUse">
			<stop stop-color="#253355" />
			<stop offset="1" stop-color="#283C64" />
		</linearGradient>
		<linearGradient id="paint72_linear_24270_71176" x1="507.5" y1="-73.5" x2="507.91" y2="710"
			gradientUnits="userSpaceOnUse">
			<stop stop-color="#253355" />
			<stop offset="1" stop-color="#283C64" />
		</linearGradient>
		<linearGradient id="paint73_linear_24270_71176" x1="507.5" y1="-73.5" x2="507.91" y2="710"
			gradientUnits="userSpaceOnUse">
			<stop stop-color="#253355" />
			<stop offset="1" stop-color="#283C64" />
		</linearGradient>
		<linearGradient id="paint74_linear_24270_71176" x1="507.5" y1="-73.5" x2="507.91" y2="710"
			gradientUnits="userSpaceOnUse">
			<stop stop-color="#253355" />
			<stop offset="1" stop-color="#283C64" />
		</linearGradient>
		<linearGradient id="paint75_linear_24270_71176" x1="507.5" y1="-73.5" x2="507.91" y2="710"
			gradientUnits="userSpaceOnUse">
			<stop stop-color="#253355" />
			<stop offset="1" stop-color="#283C64" />
		</linearGradient>
		<linearGradient id="paint76_linear_24270_71176" x1="507.5" y1="-73.5" x2="507.91" y2="710"
			gradientUnits="userSpaceOnUse">
			<stop stop-color="#253355" />
			<stop offset="1" stop-color="#283C64" />
		</linearGradient>
		<linearGradient id="paint77_linear_24270_71176" x1="507.5" y1="-73.5" x2="507.91" y2="710"
			gradientUnits="userSpaceOnUse">
			<stop stop-color="#253355" />
			<stop offset="1" stop-color="#283C64" />
		</linearGradient>
		<linearGradient id="paint78_linear_24270_71176" x1="507.5" y1="-73.5" x2="507.91" y2="710"
			gradientUnits="userSpaceOnUse">
			<stop stop-color="#253355" />
			<stop offset="1" stop-color="#283C64" />
		</linearGradient>
		<linearGradient id="paint79_linear_24270_71176" x1="507.5" y1="-73.5" x2="507.91" y2="710"
			gradientUnits="userSpaceOnUse">
			<stop stop-color="#253355" />
			<stop offset="1" stop-color="#283C64" />
		</linearGradient>
		<linearGradient id="paint80_linear_24270_71176" x1="507.5" y1="-73.5" x2="507.91" y2="710"
			gradientUnits="userSpaceOnUse">
			<stop stop-color="#253355" />
			<stop offset="1" stop-color="#283C64" />
		</linearGradient>
		<linearGradient id="paint81_linear_24270_71176" x1="507.5" y1="-73.5" x2="507.91" y2="710"
			gradientUnits="userSpaceOnUse">
			<stop stop-color="#253355" />
			<stop offset="1" stop-color="#283C64" />
		</linearGradient>
		<linearGradient id="paint82_linear_24270_71176" x1="507.5" y1="-73.5" x2="507.91" y2="710"
			gradientUnits="userSpaceOnUse">
			<stop stop-color="#253355" />
			<stop offset="1" stop-color="#283C64" />
		</linearGradient>
		<linearGradient id="paint83_linear_24270_71176" x1="507.5" y1="-73.5" x2="507.91" y2="710"
			gradientUnits="userSpaceOnUse">
			<stop stop-color="#253355" />
			<stop offset="1" stop-color="#283C64" />
		</linearGradient>
		<linearGradient id="paint84_linear_24270_71176" x1="507.5" y1="-73.5" x2="507.91" y2="710"
			gradientUnits="userSpaceOnUse">
			<stop stop-color="#253355" />
			<stop offset="1" stop-color="#283C64" />
		</linearGradient>
		<linearGradient id="paint85_linear_24270_71176" x1="507.5" y1="-73.5" x2="507.91" y2="710"
			gradientUnits="userSpaceOnUse">
			<stop stop-color="#253355" />
			<stop offset="1" stop-color="#283C64" />
		</linearGradient>
		<linearGradient id="paint86_linear_24270_71176" x1="507.5" y1="-73.5" x2="507.91" y2="710"
			gradientUnits="userSpaceOnUse">
			<stop stop-color="#253355" />
			<stop offset="1" stop-color="#283C64" />
		</linearGradient>
		<linearGradient id="paint87_linear_24270_71176" x1="507.5" y1="-73.5" x2="507.91" y2="710"
			gradientUnits="userSpaceOnUse">
			<stop stop-color="#253355" />
			<stop offset="1" stop-color="#283C64" />
		</linearGradient>
		<linearGradient id="paint88_linear_24270_71176" x1="507.5" y1="-73.5" x2="507.91" y2="710"
			gradientUnits="userSpaceOnUse">
			<stop stop-color="#253355" />
			<stop offset="1" stop-color="#283C64" />
		</linearGradient>
		<linearGradient id="paint89_linear_24270_71176" x1="507.5" y1="-73.5" x2="507.91" y2="710"
			gradientUnits="userSpaceOnUse">
			<stop stop-color="#253355" />
			<stop offset="1" stop-color="#283C64" />
		</linearGradient>
		<linearGradient id="paint90_linear_24270_71176" x1="507.5" y1="-73.5" x2="507.91" y2="710"
			gradientUnits="userSpaceOnUse">
			<stop stop-color="#253355" />
			<stop offset="1" stop-color="#283C64" />
		</linearGradient>
		<linearGradient id="paint91_linear_24270_71176" x1="507.5" y1="-73.5" x2="507.91" y2="710"
			gradientUnits="userSpaceOnUse">
			<stop stop-color="#253355" />
			<stop offset="1" stop-color="#283C64" />
		</linearGradient>
		<linearGradient id="paint92_linear_24270_71176" x1="507.5" y1="-73.5" x2="507.91" y2="710"
			gradientUnits="userSpaceOnUse">
			<stop stop-color="#253355" />
			<stop offset="1" stop-color="#283C64" />
		</linearGradient>
		<linearGradient id="paint93_linear_24270_71176" x1="507.5" y1="-73.5" x2="507.91" y2="710"
			gradientUnits="userSpaceOnUse">
			<stop stop-color="#253355" />
			<stop offset="1" stop-color="#283C64" />
		</linearGradient>
		<linearGradient id="paint94_linear_24270_71176" x1="507.5" y1="-73.5" x2="507.91" y2="710"
			gradientUnits="userSpaceOnUse">
			<stop stop-color="#253355" />
			<stop offset="1" stop-color="#283C64" />
		</linearGradient>
		<linearGradient id="paint95_linear_24270_71176" x1="507.5" y1="-73.5" x2="507.91" y2="710"
			gradientUnits="userSpaceOnUse">
			<stop stop-color="#253355" />
			<stop offset="1" stop-color="#283C64" />
		</linearGradient>
		<linearGradient id="paint96_linear_24270_71176" x1="507.5" y1="-73.5" x2="507.91" y2="710"
			gradientUnits="userSpaceOnUse">
			<stop stop-color="#253355" />
			<stop offset="1" stop-color="#283C64" />
		</linearGradient>
		<linearGradient id="paint97_linear_24270_71176" x1="507.5" y1="-73.5" x2="507.91" y2="710"
			gradientUnits="userSpaceOnUse">
			<stop stop-color="#253355" />
			<stop offset="1" stop-color="#283C64" />
		</linearGradient>
		<linearGradient id="paint98_linear_24270_71176" x1="507.5" y1="-73.5" x2="507.91" y2="710"
			gradientUnits="userSpaceOnUse">
			<stop stop-color="#253355" />
			<stop offset="1" stop-color="#283C64" />
		</linearGradient>
		<linearGradient id="paint99_linear_24270_71176" x1="507.5" y1="-73.5" x2="507.91" y2="710"
			gradientUnits="userSpaceOnUse">
			<stop stop-color="#253355" />
			<stop offset="1" stop-color="#283C64" />
		</linearGradient>
		<linearGradient id="paint100_linear_24270_71176" x1="507.5" y1="-73.5" x2="507.91" y2="710"
			gradientUnits="userSpaceOnUse">
			<stop stop-color="#253355" />
			<stop offset="1" stop-color="#283C64" />
		</linearGradient>
		<linearGradient id="paint101_linear_24270_71176" x1="507.5" y1="-73.5" x2="507.91" y2="710"
			gradientUnits="userSpaceOnUse">
			<stop stop-color="#253355" />
			<stop offset="1" stop-color="#283C64" />
		</linearGradient>
		<linearGradient id="paint102_linear_24270_71176" x1="507.5" y1="-73.5" x2="507.91" y2="710"
			gradientUnits="userSpaceOnUse">
			<stop stop-color="#253355" />
			<stop offset="1" stop-color="#283C64" />
		</linearGradient>
		<linearGradient id="paint103_linear_24270_71176" x1="507.5" y1="-73.5" x2="507.91" y2="710"
			gradientUnits="userSpaceOnUse">
			<stop stop-color="#253355" />
			<stop offset="1" stop-color="#283C64" />
		</linearGradient>
		<linearGradient id="paint104_linear_24270_71176" x1="507.5" y1="-73.5" x2="507.91" y2="710"
			gradientUnits="userSpaceOnUse">
			<stop stop-color="#253355" />
			<stop offset="1" stop-color="#283C64" />
		</linearGradient>
		<linearGradient id="paint105_linear_24270_71176" x1="507.5" y1="-73.5" x2="507.91" y2="710"
			gradientUnits="userSpaceOnUse">
			<stop stop-color="#253355" />
			<stop offset="1" stop-color="#283C64" />
		</linearGradient>
	</defs>
</svg>