<svg width="594" height="700" viewBox="0 0 594 700" fill="none" xmlns="http://www.w3.org/2000/svg">
<mask id="mask0_14670_7141" style="mask-type:alpha" maskUnits="userSpaceOnUse" x="0" y="0" width="594" height="699">
<rect x="0.5" y="0.5" width="593" height="698" fill="#F2F6FA" stroke="#E6EFF9"/>
</mask>
<g mask="url(#mask0_14670_7141)">
<path d="M1462.17 489.117L1392.67 419.4L1462.17 349.682L1531.68 419.4L1462.17 489.117Z" fill="url(#paint0_linear_14670_7141)"/>
<path d="M1601.73 349.5L1671.24 279.782L1740.75 349.5L1671.24 419.218L1601.73 349.5Z" fill="url(#paint1_linear_14670_7141)"/>
<path d="M1531.68 559.2L1462.17 489.482L1392.67 559.2H1531.68Z" fill="url(#paint2_linear_14670_7141)"/>
<path d="M1531.86 419.218L1601.37 349.5L1531.86 279.782V419.218Z" fill="url(#paint3_linear_14670_7141)"/>
<path d="M1810.62 279.782L1741.11 349.5L1810.62 419.218V279.782Z" fill="url(#paint4_linear_14670_7141)"/>
<path d="M1671.24 559.018L1740.75 489.3L1671.24 419.582V559.018Z" fill="url(#paint5_linear_14670_7141)"/>
<path d="M1671.06 559.2L1601.55 489.482L1532.05 559.2H1671.06Z" fill="url(#paint6_linear_14670_7141)"/>
<path d="M1671.06 279.6L1601.55 209.883L1532.05 279.6L1671.06 279.6Z" fill="url(#paint7_linear_14670_7141)"/>
<path d="M1949.82 419.4L1880.31 349.683L1810.8 419.4H1949.82Z" fill="url(#paint8_linear_14670_7141)"/>
<path d="M1949.82 139.8L1880.31 70.0827L1810.8 139.8L1949.82 139.8Z" fill="url(#paint9_linear_14670_7141)"/>
<path d="M1810.44 699L1740.93 629.282L1671.42 699H1810.44Z" fill="url(#paint10_linear_14670_7141)"/>
<path d="M1671.24 0.182489L1601.74 69.9002L1671.24 139.618V0.182489Z" fill="url(#paint11_linear_14670_7141)"/>
<path d="M1950 139.982L1880.49 209.7L1950 279.418V139.982Z" fill="url(#paint12_linear_14670_7141)"/>
<path d="M1532.05 419.4L1601.55 489.117L1671.06 419.4L1532.05 419.4Z" fill="url(#paint13_linear_14670_7141)"/>
<path d="M1532.05 139.8L1601.55 209.518L1671.06 139.8L1532.05 139.8Z" fill="url(#paint14_linear_14670_7141)"/>
<path d="M1810.8 279.6L1880.31 349.317L1949.82 279.6L1810.8 279.6Z" fill="url(#paint15_linear_14670_7141)"/>
<path d="M1810.8 0L1880.31 69.7177L1949.82 1.21842e-05L1810.8 0Z" fill="url(#paint16_linear_14670_7141)"/>
<path d="M1671.42 559.2L1740.93 628.917L1810.44 559.2H1671.42Z" fill="url(#paint17_linear_14670_7141)"/>
<path d="M1531.86 139.618L1601.37 69.9002L1531.86 0.182477V139.618Z" fill="url(#paint18_linear_14670_7141)"/>
<path d="M1810.62 279.418L1880.13 209.7L1810.62 139.982V279.418Z" fill="url(#paint19_linear_14670_7141)"/>
<path d="M1392.49 698.817L1461.99 629.1L1392.49 559.382V698.817Z" fill="url(#paint20_linear_14670_7141)"/>
<path d="M1671.24 559.382L1601.73 629.1L1671.24 698.817V559.382Z" fill="url(#paint21_linear_14670_7141)"/>
<path d="M1950 419.582L1880.49 489.3L1950 559.018V419.582Z" fill="url(#paint22_linear_14670_7141)"/>
<path d="M1531.86 698.817L1462.36 629.099L1531.86 559.382L1601.37 629.099L1531.86 698.817Z" fill="url(#paint23_linear_14670_7141)"/>
<path d="M1880.31 698.817L1810.8 629.1L1880.31 559.382L1949.82 629.1L1880.31 698.817Z" fill="url(#paint24_linear_14670_7141)"/>
<path d="M1810.62 559.017L1741.11 489.3L1810.62 419.582L1880.13 489.3L1810.62 559.017Z" fill="url(#paint25_linear_14670_7141)"/>
<path d="M1462.17 279.417L1392.67 209.7L1462.17 139.982L1531.68 209.7L1462.17 279.417Z" fill="url(#paint26_linear_14670_7141)"/>
<path d="M1740.93 279.418L1671.42 209.7L1740.93 139.982L1810.44 209.7L1740.93 279.418Z" fill="url(#paint27_linear_14670_7141)"/>
<path d="M1462.17 139.618L1392.67 69.8999L1462.17 0.182186L1531.68 69.8999L1462.17 139.618Z" fill="url(#paint28_linear_14670_7141)"/>
<path d="M1740.93 139.618L1671.42 69.8999L1740.93 0.18221L1810.44 69.8999L1740.93 139.618Z" fill="url(#paint29_linear_14670_7141)"/>
<path d="M1392.67 279.6L1462.17 349.317L1531.68 279.6H1392.67Z" fill="url(#paint30_linear_14670_7141)"/>
<path d="M1322.61 209.884L1392.12 279.601L1322.61 349.319L1253.11 279.601L1322.61 209.884Z" fill="url(#paint31_linear_14670_7141)"/>
<path d="M1183.05 349.501L1113.55 419.219L1044.04 349.501L1113.55 279.783L1183.05 349.501Z" fill="url(#paint32_linear_14670_7141)"/>
<path d="M1253.11 139.801L1322.61 209.519L1392.12 139.801L1253.11 139.801Z" fill="url(#paint33_linear_14670_7141)"/>
<path d="M1252.93 279.783L1183.42 349.501L1252.93 419.219V279.783Z" fill="url(#paint34_linear_14670_7141)"/>
<path d="M974.167 419.219L1043.67 349.501L974.167 279.783L974.167 419.219Z" fill="url(#paint35_linear_14670_7141)"/>
<path d="M1113.55 139.984L1044.04 209.701L1113.55 279.419V139.984Z" fill="url(#paint36_linear_14670_7141)"/>
<path d="M1113.73 139.801L1183.23 209.519L1252.74 139.801L1113.73 139.801Z" fill="url(#paint37_linear_14670_7141)"/>
<path d="M1113.73 419.401L1183.23 489.119L1252.74 419.401H1113.73Z" fill="url(#paint38_linear_14670_7141)"/>
<path d="M974.349 0.00112136L1043.86 69.7188L1113.36 0.00113355L974.349 0.00112136Z" fill="url(#paint39_linear_14670_7141)"/>
<path d="M1113.55 698.819L1183.05 629.101L1113.55 559.383V698.819Z" fill="url(#paint40_linear_14670_7141)"/>
<path d="M1252.74 279.601L1183.23 209.884L1113.73 279.601L1252.74 279.601Z" fill="url(#paint41_linear_14670_7141)"/>
<path d="M1252.74 559.201L1183.23 489.484L1113.73 559.201L1252.74 559.201Z" fill="url(#paint42_linear_14670_7141)"/>
<path d="M1113.36 139.802L1043.86 70.0839L974.349 139.802L1113.36 139.802Z" fill="url(#paint43_linear_14670_7141)"/>
<path d="M1252.92 559.383L1183.42 629.101L1252.92 698.819V559.383Z" fill="url(#paint44_linear_14670_7141)"/>
<path d="M1392.3 0.183716L1322.8 69.9014L1392.3 139.619V0.183716Z" fill="url(#paint45_linear_14670_7141)"/>
<path d="M1113.55 139.619L1183.05 69.9013L1113.55 0.183635V139.619Z" fill="url(#paint46_linear_14670_7141)"/>
<path d="M1252.92 0.183988L1322.43 69.9017L1252.92 139.619L1183.42 69.9016L1252.92 0.183988Z" fill="url(#paint47_linear_14670_7141)"/>
<path d="M1322.61 419.584L1392.12 489.301L1322.61 559.019L1253.11 489.301L1322.61 419.584Z" fill="url(#paint48_linear_14670_7141)"/>
<path d="M1043.86 419.584L1113.36 489.301L1043.86 559.019L974.348 489.301L1043.86 419.584Z" fill="url(#paint49_linear_14670_7141)"/>
<path d="M1322.61 559.384L1392.12 629.101L1322.61 698.819L1253.11 629.101L1322.61 559.384Z" fill="url(#paint50_linear_14670_7141)"/>
<path d="M1043.86 559.383L1113.36 629.101L1043.86 698.819L974.348 629.101L1043.86 559.383Z" fill="url(#paint51_linear_14670_7141)"/>
<path d="M1392.12 419.401L1322.61 349.684L1253.11 419.401L1392.12 419.401Z" fill="url(#paint52_linear_14670_7141)"/>
<path d="M489.008 489.117L419.5 419.4L489.008 349.682L558.516 419.4L489.008 489.117Z" fill="url(#paint53_linear_14670_7141)"/>
<path d="M628.568 349.5L698.076 279.782L767.583 349.5L698.076 419.218L628.568 349.5Z" fill="url(#paint54_linear_14670_7141)"/>
<path d="M558.516 559.2L489.008 489.482L419.5 559.2H558.516Z" fill="url(#paint55_linear_14670_7141)"/>
<path d="M558.696 419.218L628.204 349.5L558.696 279.782V419.218Z" fill="url(#paint56_linear_14670_7141)"/>
<path d="M837.454 279.782L767.947 349.5L837.454 419.218L837.454 279.782Z" fill="url(#paint57_linear_14670_7141)"/>
<path d="M698.076 559.018L767.583 489.3L698.076 419.582V559.018Z" fill="url(#paint58_linear_14670_7141)"/>
<path d="M697.894 559.2L628.387 489.482L558.879 559.2H697.894Z" fill="url(#paint59_linear_14670_7141)"/>
<path d="M697.894 279.6L628.387 209.883L558.879 279.6L697.894 279.6Z" fill="url(#paint60_linear_14670_7141)"/>
<path d="M976.652 419.4L907.144 349.683L837.637 419.4H976.652Z" fill="url(#paint61_linear_14670_7141)"/>
<path d="M976.652 139.8L907.144 70.0827L837.637 139.8L976.652 139.8Z" fill="url(#paint62_linear_14670_7141)"/>
<path d="M837.273 699L767.766 629.282L698.258 699H837.273Z" fill="url(#paint63_linear_14670_7141)"/>
<path d="M698.076 0.182489L628.569 69.9002L698.076 139.618V0.182489Z" fill="url(#paint64_linear_14670_7141)"/>
<path d="M976.833 139.982L907.325 209.7L976.833 279.418V139.982Z" fill="url(#paint65_linear_14670_7141)"/>
<path d="M558.879 419.4L628.387 489.117L697.894 419.4L558.879 419.4Z" fill="url(#paint66_linear_14670_7141)"/>
<path d="M558.879 139.8L628.387 209.518L697.894 139.8L558.879 139.8Z" fill="url(#paint67_linear_14670_7141)"/>
<path d="M837.637 279.6L907.144 349.317L976.652 279.6L837.637 279.6Z" fill="url(#paint68_linear_14670_7141)"/>
<path d="M837.637 0L907.144 69.7177L976.652 1.21842e-05L837.637 0Z" fill="url(#paint69_linear_14670_7141)"/>
<path d="M698.258 559.2L767.766 628.917L837.273 559.2H698.258Z" fill="url(#paint70_linear_14670_7141)"/>
<path d="M558.697 139.618L628.205 69.9002L558.697 0.182477V139.618Z" fill="url(#paint71_linear_14670_7141)"/>
<path d="M837.454 279.418L906.962 209.7L837.454 139.982V279.418Z" fill="url(#paint72_linear_14670_7141)"/>
<path d="M419.318 698.817L488.826 629.1L419.318 559.382V698.817Z" fill="url(#paint73_linear_14670_7141)"/>
<path d="M698.076 559.382L628.568 629.1L698.076 698.817L698.076 559.382Z" fill="url(#paint74_linear_14670_7141)"/>
<path d="M976.833 419.582L907.325 489.3L976.833 559.018V419.582Z" fill="url(#paint75_linear_14670_7141)"/>
<path d="M558.697 698.817L489.19 629.099L558.697 559.382L628.205 629.099L558.697 698.817Z" fill="url(#paint76_linear_14670_7141)"/>
<path d="M907.144 698.817L837.637 629.1L907.144 559.382L976.652 629.1L907.144 698.817Z" fill="url(#paint77_linear_14670_7141)"/>
<path d="M837.455 559.017L767.947 489.3L837.455 419.582L906.962 489.3L837.455 559.017Z" fill="url(#paint78_linear_14670_7141)"/>
<path d="M489.008 279.417L419.5 209.7L489.008 139.982L558.516 209.7L489.008 279.417Z" fill="url(#paint79_linear_14670_7141)"/>
<path d="M767.766 279.418L698.258 209.7L767.766 139.982L837.273 209.7L767.766 279.418Z" fill="url(#paint80_linear_14670_7141)"/>
<path d="M489.008 139.618L419.5 69.8999L489.008 0.182186L558.516 69.8999L489.008 139.618Z" fill="url(#paint81_linear_14670_7141)"/>
<path d="M767.766 139.618L698.258 69.8999L767.766 0.18221L837.273 69.8999L767.766 139.618Z" fill="url(#paint82_linear_14670_7141)"/>
<path d="M419.5 279.6L489.008 349.317L558.516 279.6H419.5Z" fill="url(#paint83_linear_14670_7141)"/>
<path d="M349.447 209.884L418.954 279.601L349.447 349.319L279.939 279.601L349.447 209.884Z" fill="url(#paint84_linear_14670_7141)"/>
<path d="M209.887 349.501L140.379 419.219L70.8715 349.501L140.379 279.783L209.887 349.501Z" fill="url(#paint85_linear_14670_7141)"/>
<path d="M279.939 139.801L349.447 209.519L418.954 139.801L279.939 139.801Z" fill="url(#paint86_linear_14670_7141)"/>
<path d="M279.758 279.783L210.251 349.501L279.758 419.219L279.758 279.783Z" fill="url(#paint87_linear_14670_7141)"/>
<path d="M1.00044 419.219L70.5081 349.501L1.00045 279.783L1.00044 419.219Z" fill="url(#paint88_linear_14670_7141)"/>
<path d="M140.379 139.984L70.8713 209.701L140.379 279.419L140.379 139.984Z" fill="url(#paint89_linear_14670_7141)"/>
<path d="M140.56 139.801L210.068 209.519L279.576 139.801L140.56 139.801Z" fill="url(#paint90_linear_14670_7141)"/>
<path d="M140.56 419.401L210.068 489.119L279.576 419.401H140.56Z" fill="url(#paint91_linear_14670_7141)"/>
<path d="M1.18175 0.00112136L70.6894 69.7188L140.197 0.00113355L1.18175 0.00112136Z" fill="url(#paint92_linear_14670_7141)"/>
<path d="M140.378 698.819L209.886 629.101L140.378 559.383L140.378 698.819Z" fill="url(#paint93_linear_14670_7141)"/>
<path d="M279.576 279.601L210.068 209.884L140.56 279.601L279.576 279.601Z" fill="url(#paint94_linear_14670_7141)"/>
<path d="M279.576 559.201L210.068 489.484L140.56 559.201L279.576 559.201Z" fill="url(#paint95_linear_14670_7141)"/>
<path d="M140.197 139.802L70.6894 70.0839L1.18174 139.802L140.197 139.802Z" fill="url(#paint96_linear_14670_7141)"/>
<path d="M279.758 559.383L210.25 629.101L279.758 698.819L279.758 559.383Z" fill="url(#paint97_linear_14670_7141)"/>
<path d="M419.136 0.183716L349.629 69.9014L419.136 139.619V0.183716Z" fill="url(#paint98_linear_14670_7141)"/>
<path d="M140.379 139.619L209.887 69.9013L140.379 0.183635L140.379 139.619Z" fill="url(#paint99_linear_14670_7141)"/>
<path d="M279.757 0.183988L349.265 69.9017L279.757 139.619L210.25 69.9016L279.757 0.183988Z" fill="url(#paint100_linear_14670_7141)"/>
<path d="M349.447 419.584L418.954 489.301L349.447 559.019L279.939 489.301L349.447 419.584Z" fill="url(#paint101_linear_14670_7141)"/>
<path d="M70.6893 419.584L140.197 489.301L70.6893 559.019L1.18171 489.301L70.6893 419.584Z" fill="url(#paint102_linear_14670_7141)"/>
<path d="M349.447 559.384L418.954 629.101L349.447 698.819L279.939 629.101L349.447 559.384Z" fill="url(#paint103_linear_14670_7141)"/>
<path d="M70.6893 559.383L140.197 629.101L70.6893 698.819L1.18169 629.101L70.6893 559.383Z" fill="url(#paint104_linear_14670_7141)"/>
<path d="M418.954 419.401L349.447 349.684L279.939 419.401L418.954 419.401Z" fill="url(#paint105_linear_14670_7141)"/>
</g>
<defs>
<linearGradient id="paint0_linear_14670_7141" x1="508.5" y1="3.5199e-08" x2="508.872" y2="710" gradientUnits="userSpaceOnUse">
<stop stop-color="#F2F6FA"/>
<stop offset="1" stop-color="#CADCEF"/>
</linearGradient>
<linearGradient id="paint1_linear_14670_7141" x1="508.5" y1="3.5199e-08" x2="508.872" y2="710" gradientUnits="userSpaceOnUse">
<stop stop-color="#F2F6FA"/>
<stop offset="1" stop-color="#CADCEF"/>
</linearGradient>
<linearGradient id="paint2_linear_14670_7141" x1="508.5" y1="3.5199e-08" x2="508.872" y2="710" gradientUnits="userSpaceOnUse">
<stop stop-color="#F2F6FA"/>
<stop offset="1" stop-color="#CADCEF"/>
</linearGradient>
<linearGradient id="paint3_linear_14670_7141" x1="508.5" y1="3.5199e-08" x2="508.872" y2="710" gradientUnits="userSpaceOnUse">
<stop stop-color="#F2F6FA"/>
<stop offset="1" stop-color="#CADCEF"/>
</linearGradient>
<linearGradient id="paint4_linear_14670_7141" x1="508.5" y1="3.5199e-08" x2="508.872" y2="710" gradientUnits="userSpaceOnUse">
<stop stop-color="#F2F6FA"/>
<stop offset="1" stop-color="#CADCEF"/>
</linearGradient>
<linearGradient id="paint5_linear_14670_7141" x1="508.5" y1="3.5199e-08" x2="508.872" y2="710" gradientUnits="userSpaceOnUse">
<stop stop-color="#F2F6FA"/>
<stop offset="1" stop-color="#CADCEF"/>
</linearGradient>
<linearGradient id="paint6_linear_14670_7141" x1="508.5" y1="3.5199e-08" x2="508.872" y2="710" gradientUnits="userSpaceOnUse">
<stop stop-color="#F2F6FA"/>
<stop offset="1" stop-color="#CADCEF"/>
</linearGradient>
<linearGradient id="paint7_linear_14670_7141" x1="508.5" y1="3.5199e-08" x2="508.872" y2="710" gradientUnits="userSpaceOnUse">
<stop stop-color="#F2F6FA"/>
<stop offset="1" stop-color="#CADCEF"/>
</linearGradient>
<linearGradient id="paint8_linear_14670_7141" x1="508.5" y1="3.5199e-08" x2="508.872" y2="710" gradientUnits="userSpaceOnUse">
<stop stop-color="#F2F6FA"/>
<stop offset="1" stop-color="#CADCEF"/>
</linearGradient>
<linearGradient id="paint9_linear_14670_7141" x1="508.5" y1="3.5199e-08" x2="508.872" y2="710" gradientUnits="userSpaceOnUse">
<stop stop-color="#F2F6FA"/>
<stop offset="1" stop-color="#CADCEF"/>
</linearGradient>
<linearGradient id="paint10_linear_14670_7141" x1="508.5" y1="3.5199e-08" x2="508.872" y2="710" gradientUnits="userSpaceOnUse">
<stop stop-color="#F2F6FA"/>
<stop offset="1" stop-color="#CADCEF"/>
</linearGradient>
<linearGradient id="paint11_linear_14670_7141" x1="508.5" y1="3.5199e-08" x2="508.872" y2="710" gradientUnits="userSpaceOnUse">
<stop stop-color="#F2F6FA"/>
<stop offset="1" stop-color="#CADCEF"/>
</linearGradient>
<linearGradient id="paint12_linear_14670_7141" x1="508.5" y1="3.5199e-08" x2="508.872" y2="710" gradientUnits="userSpaceOnUse">
<stop stop-color="#F2F6FA"/>
<stop offset="1" stop-color="#CADCEF"/>
</linearGradient>
<linearGradient id="paint13_linear_14670_7141" x1="508.5" y1="3.5199e-08" x2="508.872" y2="710" gradientUnits="userSpaceOnUse">
<stop stop-color="#F2F6FA"/>
<stop offset="1" stop-color="#CADCEF"/>
</linearGradient>
<linearGradient id="paint14_linear_14670_7141" x1="508.5" y1="3.5199e-08" x2="508.872" y2="710" gradientUnits="userSpaceOnUse">
<stop stop-color="#F2F6FA"/>
<stop offset="1" stop-color="#CADCEF"/>
</linearGradient>
<linearGradient id="paint15_linear_14670_7141" x1="508.5" y1="3.5199e-08" x2="508.872" y2="710" gradientUnits="userSpaceOnUse">
<stop stop-color="#F2F6FA"/>
<stop offset="1" stop-color="#CADCEF"/>
</linearGradient>
<linearGradient id="paint16_linear_14670_7141" x1="508.5" y1="3.5199e-08" x2="508.872" y2="710" gradientUnits="userSpaceOnUse">
<stop stop-color="#F2F6FA"/>
<stop offset="1" stop-color="#CADCEF"/>
</linearGradient>
<linearGradient id="paint17_linear_14670_7141" x1="508.5" y1="3.5199e-08" x2="508.872" y2="710" gradientUnits="userSpaceOnUse">
<stop stop-color="#F2F6FA"/>
<stop offset="1" stop-color="#CADCEF"/>
</linearGradient>
<linearGradient id="paint18_linear_14670_7141" x1="508.5" y1="3.5199e-08" x2="508.872" y2="710" gradientUnits="userSpaceOnUse">
<stop stop-color="#F2F6FA"/>
<stop offset="1" stop-color="#CADCEF"/>
</linearGradient>
<linearGradient id="paint19_linear_14670_7141" x1="508.5" y1="3.5199e-08" x2="508.872" y2="710" gradientUnits="userSpaceOnUse">
<stop stop-color="#F2F6FA"/>
<stop offset="1" stop-color="#CADCEF"/>
</linearGradient>
<linearGradient id="paint20_linear_14670_7141" x1="508.5" y1="3.5199e-08" x2="508.872" y2="710" gradientUnits="userSpaceOnUse">
<stop stop-color="#F2F6FA"/>
<stop offset="1" stop-color="#CADCEF"/>
</linearGradient>
<linearGradient id="paint21_linear_14670_7141" x1="508.5" y1="3.5199e-08" x2="508.872" y2="710" gradientUnits="userSpaceOnUse">
<stop stop-color="#F2F6FA"/>
<stop offset="1" stop-color="#CADCEF"/>
</linearGradient>
<linearGradient id="paint22_linear_14670_7141" x1="508.5" y1="3.5199e-08" x2="508.872" y2="710" gradientUnits="userSpaceOnUse">
<stop stop-color="#F2F6FA"/>
<stop offset="1" stop-color="#CADCEF"/>
</linearGradient>
<linearGradient id="paint23_linear_14670_7141" x1="508.5" y1="3.5199e-08" x2="508.872" y2="710" gradientUnits="userSpaceOnUse">
<stop stop-color="#F2F6FA"/>
<stop offset="1" stop-color="#CADCEF"/>
</linearGradient>
<linearGradient id="paint24_linear_14670_7141" x1="508.5" y1="3.5199e-08" x2="508.872" y2="710" gradientUnits="userSpaceOnUse">
<stop stop-color="#F2F6FA"/>
<stop offset="1" stop-color="#CADCEF"/>
</linearGradient>
<linearGradient id="paint25_linear_14670_7141" x1="508.5" y1="3.5199e-08" x2="508.872" y2="710" gradientUnits="userSpaceOnUse">
<stop stop-color="#F2F6FA"/>
<stop offset="1" stop-color="#CADCEF"/>
</linearGradient>
<linearGradient id="paint26_linear_14670_7141" x1="508.5" y1="3.5199e-08" x2="508.872" y2="710" gradientUnits="userSpaceOnUse">
<stop stop-color="#F2F6FA"/>
<stop offset="1" stop-color="#CADCEF"/>
</linearGradient>
<linearGradient id="paint27_linear_14670_7141" x1="508.5" y1="3.5199e-08" x2="508.872" y2="710" gradientUnits="userSpaceOnUse">
<stop stop-color="#F2F6FA"/>
<stop offset="1" stop-color="#CADCEF"/>
</linearGradient>
<linearGradient id="paint28_linear_14670_7141" x1="508.5" y1="3.5199e-08" x2="508.872" y2="710" gradientUnits="userSpaceOnUse">
<stop stop-color="#F2F6FA"/>
<stop offset="1" stop-color="#CADCEF"/>
</linearGradient>
<linearGradient id="paint29_linear_14670_7141" x1="508.5" y1="3.5199e-08" x2="508.872" y2="710" gradientUnits="userSpaceOnUse">
<stop stop-color="#F2F6FA"/>
<stop offset="1" stop-color="#CADCEF"/>
</linearGradient>
<linearGradient id="paint30_linear_14670_7141" x1="508.5" y1="3.5199e-08" x2="508.872" y2="710" gradientUnits="userSpaceOnUse">
<stop stop-color="#F2F6FA"/>
<stop offset="1" stop-color="#CADCEF"/>
</linearGradient>
<linearGradient id="paint31_linear_14670_7141" x1="508.5" y1="3.5199e-08" x2="508.872" y2="710" gradientUnits="userSpaceOnUse">
<stop stop-color="#F2F6FA"/>
<stop offset="1" stop-color="#CADCEF"/>
</linearGradient>
<linearGradient id="paint32_linear_14670_7141" x1="508.5" y1="3.5199e-08" x2="508.872" y2="710" gradientUnits="userSpaceOnUse">
<stop stop-color="#F2F6FA"/>
<stop offset="1" stop-color="#CADCEF"/>
</linearGradient>
<linearGradient id="paint33_linear_14670_7141" x1="508.5" y1="3.5199e-08" x2="508.872" y2="710" gradientUnits="userSpaceOnUse">
<stop stop-color="#F2F6FA"/>
<stop offset="1" stop-color="#CADCEF"/>
</linearGradient>
<linearGradient id="paint34_linear_14670_7141" x1="508.5" y1="3.5199e-08" x2="508.872" y2="710" gradientUnits="userSpaceOnUse">
<stop stop-color="#F2F6FA"/>
<stop offset="1" stop-color="#CADCEF"/>
</linearGradient>
<linearGradient id="paint35_linear_14670_7141" x1="508.5" y1="3.5199e-08" x2="508.872" y2="710" gradientUnits="userSpaceOnUse">
<stop stop-color="#F2F6FA"/>
<stop offset="1" stop-color="#CADCEF"/>
</linearGradient>
<linearGradient id="paint36_linear_14670_7141" x1="508.5" y1="3.5199e-08" x2="508.872" y2="710" gradientUnits="userSpaceOnUse">
<stop stop-color="#F2F6FA"/>
<stop offset="1" stop-color="#CADCEF"/>
</linearGradient>
<linearGradient id="paint37_linear_14670_7141" x1="508.5" y1="3.5199e-08" x2="508.872" y2="710" gradientUnits="userSpaceOnUse">
<stop stop-color="#F2F6FA"/>
<stop offset="1" stop-color="#CADCEF"/>
</linearGradient>
<linearGradient id="paint38_linear_14670_7141" x1="508.5" y1="3.5199e-08" x2="508.872" y2="710" gradientUnits="userSpaceOnUse">
<stop stop-color="#F2F6FA"/>
<stop offset="1" stop-color="#CADCEF"/>
</linearGradient>
<linearGradient id="paint39_linear_14670_7141" x1="508.5" y1="3.5199e-08" x2="508.872" y2="710" gradientUnits="userSpaceOnUse">
<stop stop-color="#F2F6FA"/>
<stop offset="1" stop-color="#CADCEF"/>
</linearGradient>
<linearGradient id="paint40_linear_14670_7141" x1="508.5" y1="3.5199e-08" x2="508.872" y2="710" gradientUnits="userSpaceOnUse">
<stop stop-color="#F2F6FA"/>
<stop offset="1" stop-color="#CADCEF"/>
</linearGradient>
<linearGradient id="paint41_linear_14670_7141" x1="508.5" y1="3.5199e-08" x2="508.872" y2="710" gradientUnits="userSpaceOnUse">
<stop stop-color="#F2F6FA"/>
<stop offset="1" stop-color="#CADCEF"/>
</linearGradient>
<linearGradient id="paint42_linear_14670_7141" x1="508.5" y1="3.5199e-08" x2="508.872" y2="710" gradientUnits="userSpaceOnUse">
<stop stop-color="#F2F6FA"/>
<stop offset="1" stop-color="#CADCEF"/>
</linearGradient>
<linearGradient id="paint43_linear_14670_7141" x1="508.5" y1="3.5199e-08" x2="508.872" y2="710" gradientUnits="userSpaceOnUse">
<stop stop-color="#F2F6FA"/>
<stop offset="1" stop-color="#CADCEF"/>
</linearGradient>
<linearGradient id="paint44_linear_14670_7141" x1="508.5" y1="3.5199e-08" x2="508.872" y2="710" gradientUnits="userSpaceOnUse">
<stop stop-color="#F2F6FA"/>
<stop offset="1" stop-color="#CADCEF"/>
</linearGradient>
<linearGradient id="paint45_linear_14670_7141" x1="508.5" y1="3.5199e-08" x2="508.872" y2="710" gradientUnits="userSpaceOnUse">
<stop stop-color="#F2F6FA"/>
<stop offset="1" stop-color="#CADCEF"/>
</linearGradient>
<linearGradient id="paint46_linear_14670_7141" x1="508.5" y1="3.5199e-08" x2="508.872" y2="710" gradientUnits="userSpaceOnUse">
<stop stop-color="#F2F6FA"/>
<stop offset="1" stop-color="#CADCEF"/>
</linearGradient>
<linearGradient id="paint47_linear_14670_7141" x1="508.5" y1="3.5199e-08" x2="508.872" y2="710" gradientUnits="userSpaceOnUse">
<stop stop-color="#F2F6FA"/>
<stop offset="1" stop-color="#CADCEF"/>
</linearGradient>
<linearGradient id="paint48_linear_14670_7141" x1="508.5" y1="3.5199e-08" x2="508.872" y2="710" gradientUnits="userSpaceOnUse">
<stop stop-color="#F2F6FA"/>
<stop offset="1" stop-color="#CADCEF"/>
</linearGradient>
<linearGradient id="paint49_linear_14670_7141" x1="508.5" y1="3.5199e-08" x2="508.872" y2="710" gradientUnits="userSpaceOnUse">
<stop stop-color="#F2F6FA"/>
<stop offset="1" stop-color="#CADCEF"/>
</linearGradient>
<linearGradient id="paint50_linear_14670_7141" x1="508.5" y1="3.5199e-08" x2="508.872" y2="710" gradientUnits="userSpaceOnUse">
<stop stop-color="#F2F6FA"/>
<stop offset="1" stop-color="#CADCEF"/>
</linearGradient>
<linearGradient id="paint51_linear_14670_7141" x1="508.5" y1="3.5199e-08" x2="508.872" y2="710" gradientUnits="userSpaceOnUse">
<stop stop-color="#F2F6FA"/>
<stop offset="1" stop-color="#CADCEF"/>
</linearGradient>
<linearGradient id="paint52_linear_14670_7141" x1="508.5" y1="3.5199e-08" x2="508.872" y2="710" gradientUnits="userSpaceOnUse">
<stop stop-color="#F2F6FA"/>
<stop offset="1" stop-color="#CADCEF"/>
</linearGradient>
<linearGradient id="paint53_linear_14670_7141" x1="508.5" y1="3.5199e-08" x2="508.872" y2="710" gradientUnits="userSpaceOnUse">
<stop stop-color="#F2F6FA"/>
<stop offset="1" stop-color="#CADCEF"/>
</linearGradient>
<linearGradient id="paint54_linear_14670_7141" x1="508.5" y1="3.5199e-08" x2="508.872" y2="710" gradientUnits="userSpaceOnUse">
<stop stop-color="#F2F6FA"/>
<stop offset="1" stop-color="#CADCEF"/>
</linearGradient>
<linearGradient id="paint55_linear_14670_7141" x1="508.5" y1="3.5199e-08" x2="508.872" y2="710" gradientUnits="userSpaceOnUse">
<stop stop-color="#F2F6FA"/>
<stop offset="1" stop-color="#CADCEF"/>
</linearGradient>
<linearGradient id="paint56_linear_14670_7141" x1="508.5" y1="3.5199e-08" x2="508.872" y2="710" gradientUnits="userSpaceOnUse">
<stop stop-color="#F2F6FA"/>
<stop offset="1" stop-color="#CADCEF"/>
</linearGradient>
<linearGradient id="paint57_linear_14670_7141" x1="508.5" y1="3.5199e-08" x2="508.872" y2="710" gradientUnits="userSpaceOnUse">
<stop stop-color="#F2F6FA"/>
<stop offset="1" stop-color="#CADCEF"/>
</linearGradient>
<linearGradient id="paint58_linear_14670_7141" x1="508.5" y1="3.5199e-08" x2="508.872" y2="710" gradientUnits="userSpaceOnUse">
<stop stop-color="#F2F6FA"/>
<stop offset="1" stop-color="#CADCEF"/>
</linearGradient>
<linearGradient id="paint59_linear_14670_7141" x1="508.5" y1="3.5199e-08" x2="508.872" y2="710" gradientUnits="userSpaceOnUse">
<stop stop-color="#F2F6FA"/>
<stop offset="1" stop-color="#CADCEF"/>
</linearGradient>
<linearGradient id="paint60_linear_14670_7141" x1="508.5" y1="3.5199e-08" x2="508.872" y2="710" gradientUnits="userSpaceOnUse">
<stop stop-color="#F2F6FA"/>
<stop offset="1" stop-color="#CADCEF"/>
</linearGradient>
<linearGradient id="paint61_linear_14670_7141" x1="508.5" y1="3.5199e-08" x2="508.872" y2="710" gradientUnits="userSpaceOnUse">
<stop stop-color="#F2F6FA"/>
<stop offset="1" stop-color="#CADCEF"/>
</linearGradient>
<linearGradient id="paint62_linear_14670_7141" x1="508.5" y1="3.5199e-08" x2="508.872" y2="710" gradientUnits="userSpaceOnUse">
<stop stop-color="#F2F6FA"/>
<stop offset="1" stop-color="#CADCEF"/>
</linearGradient>
<linearGradient id="paint63_linear_14670_7141" x1="508.5" y1="3.5199e-08" x2="508.872" y2="710" gradientUnits="userSpaceOnUse">
<stop stop-color="#F2F6FA"/>
<stop offset="1" stop-color="#CADCEF"/>
</linearGradient>
<linearGradient id="paint64_linear_14670_7141" x1="508.5" y1="3.5199e-08" x2="508.872" y2="710" gradientUnits="userSpaceOnUse">
<stop stop-color="#F2F6FA"/>
<stop offset="1" stop-color="#CADCEF"/>
</linearGradient>
<linearGradient id="paint65_linear_14670_7141" x1="508.5" y1="3.5199e-08" x2="508.872" y2="710" gradientUnits="userSpaceOnUse">
<stop stop-color="#F2F6FA"/>
<stop offset="1" stop-color="#CADCEF"/>
</linearGradient>
<linearGradient id="paint66_linear_14670_7141" x1="508.5" y1="3.5199e-08" x2="508.872" y2="710" gradientUnits="userSpaceOnUse">
<stop stop-color="#F2F6FA"/>
<stop offset="1" stop-color="#CADCEF"/>
</linearGradient>
<linearGradient id="paint67_linear_14670_7141" x1="508.5" y1="3.5199e-08" x2="508.872" y2="710" gradientUnits="userSpaceOnUse">
<stop stop-color="#F2F6FA"/>
<stop offset="1" stop-color="#CADCEF"/>
</linearGradient>
<linearGradient id="paint68_linear_14670_7141" x1="508.5" y1="3.5199e-08" x2="508.872" y2="710" gradientUnits="userSpaceOnUse">
<stop stop-color="#F2F6FA"/>
<stop offset="1" stop-color="#CADCEF"/>
</linearGradient>
<linearGradient id="paint69_linear_14670_7141" x1="508.5" y1="3.5199e-08" x2="508.872" y2="710" gradientUnits="userSpaceOnUse">
<stop stop-color="#F2F6FA"/>
<stop offset="1" stop-color="#CADCEF"/>
</linearGradient>
<linearGradient id="paint70_linear_14670_7141" x1="508.5" y1="3.5199e-08" x2="508.872" y2="710" gradientUnits="userSpaceOnUse">
<stop stop-color="#F2F6FA"/>
<stop offset="1" stop-color="#CADCEF"/>
</linearGradient>
<linearGradient id="paint71_linear_14670_7141" x1="508.5" y1="3.5199e-08" x2="508.872" y2="710" gradientUnits="userSpaceOnUse">
<stop stop-color="#F2F6FA"/>
<stop offset="1" stop-color="#CADCEF"/>
</linearGradient>
<linearGradient id="paint72_linear_14670_7141" x1="508.5" y1="3.5199e-08" x2="508.872" y2="710" gradientUnits="userSpaceOnUse">
<stop stop-color="#F2F6FA"/>
<stop offset="1" stop-color="#CADCEF"/>
</linearGradient>
<linearGradient id="paint73_linear_14670_7141" x1="508.5" y1="3.5199e-08" x2="508.872" y2="710" gradientUnits="userSpaceOnUse">
<stop stop-color="#F2F6FA"/>
<stop offset="1" stop-color="#CADCEF"/>
</linearGradient>
<linearGradient id="paint74_linear_14670_7141" x1="508.5" y1="3.5199e-08" x2="508.872" y2="710" gradientUnits="userSpaceOnUse">
<stop stop-color="#F2F6FA"/>
<stop offset="1" stop-color="#CADCEF"/>
</linearGradient>
<linearGradient id="paint75_linear_14670_7141" x1="508.5" y1="3.5199e-08" x2="508.872" y2="710" gradientUnits="userSpaceOnUse">
<stop stop-color="#F2F6FA"/>
<stop offset="1" stop-color="#CADCEF"/>
</linearGradient>
<linearGradient id="paint76_linear_14670_7141" x1="508.5" y1="3.5199e-08" x2="508.872" y2="710" gradientUnits="userSpaceOnUse">
<stop stop-color="#F2F6FA"/>
<stop offset="1" stop-color="#CADCEF"/>
</linearGradient>
<linearGradient id="paint77_linear_14670_7141" x1="508.5" y1="3.5199e-08" x2="508.872" y2="710" gradientUnits="userSpaceOnUse">
<stop stop-color="#F2F6FA"/>
<stop offset="1" stop-color="#CADCEF"/>
</linearGradient>
<linearGradient id="paint78_linear_14670_7141" x1="508.5" y1="3.5199e-08" x2="508.872" y2="710" gradientUnits="userSpaceOnUse">
<stop stop-color="#F2F6FA"/>
<stop offset="1" stop-color="#CADCEF"/>
</linearGradient>
<linearGradient id="paint79_linear_14670_7141" x1="508.5" y1="3.5199e-08" x2="508.872" y2="710" gradientUnits="userSpaceOnUse">
<stop stop-color="#F2F6FA"/>
<stop offset="1" stop-color="#CADCEF"/>
</linearGradient>
<linearGradient id="paint80_linear_14670_7141" x1="508.5" y1="3.5199e-08" x2="508.872" y2="710" gradientUnits="userSpaceOnUse">
<stop stop-color="#F2F6FA"/>
<stop offset="1" stop-color="#CADCEF"/>
</linearGradient>
<linearGradient id="paint81_linear_14670_7141" x1="508.5" y1="3.5199e-08" x2="508.872" y2="710" gradientUnits="userSpaceOnUse">
<stop stop-color="#F2F6FA"/>
<stop offset="1" stop-color="#CADCEF"/>
</linearGradient>
<linearGradient id="paint82_linear_14670_7141" x1="508.5" y1="3.5199e-08" x2="508.872" y2="710" gradientUnits="userSpaceOnUse">
<stop stop-color="#F2F6FA"/>
<stop offset="1" stop-color="#CADCEF"/>
</linearGradient>
<linearGradient id="paint83_linear_14670_7141" x1="508.5" y1="3.5199e-08" x2="508.872" y2="710" gradientUnits="userSpaceOnUse">
<stop stop-color="#F2F6FA"/>
<stop offset="1" stop-color="#CADCEF"/>
</linearGradient>
<linearGradient id="paint84_linear_14670_7141" x1="508.5" y1="3.5199e-08" x2="508.872" y2="710" gradientUnits="userSpaceOnUse">
<stop stop-color="#F2F6FA"/>
<stop offset="1" stop-color="#CADCEF"/>
</linearGradient>
<linearGradient id="paint85_linear_14670_7141" x1="508.5" y1="3.5199e-08" x2="508.872" y2="710" gradientUnits="userSpaceOnUse">
<stop stop-color="#F2F6FA"/>
<stop offset="1" stop-color="#CADCEF"/>
</linearGradient>
<linearGradient id="paint86_linear_14670_7141" x1="508.5" y1="3.5199e-08" x2="508.872" y2="710" gradientUnits="userSpaceOnUse">
<stop stop-color="#F2F6FA"/>
<stop offset="1" stop-color="#CADCEF"/>
</linearGradient>
<linearGradient id="paint87_linear_14670_7141" x1="508.5" y1="3.5199e-08" x2="508.872" y2="710" gradientUnits="userSpaceOnUse">
<stop stop-color="#F2F6FA"/>
<stop offset="1" stop-color="#CADCEF"/>
</linearGradient>
<linearGradient id="paint88_linear_14670_7141" x1="508.5" y1="3.5199e-08" x2="508.872" y2="710" gradientUnits="userSpaceOnUse">
<stop stop-color="#F2F6FA"/>
<stop offset="1" stop-color="#CADCEF"/>
</linearGradient>
<linearGradient id="paint89_linear_14670_7141" x1="508.5" y1="3.5199e-08" x2="508.872" y2="710" gradientUnits="userSpaceOnUse">
<stop stop-color="#F2F6FA"/>
<stop offset="1" stop-color="#CADCEF"/>
</linearGradient>
<linearGradient id="paint90_linear_14670_7141" x1="508.5" y1="3.5199e-08" x2="508.872" y2="710" gradientUnits="userSpaceOnUse">
<stop stop-color="#F2F6FA"/>
<stop offset="1" stop-color="#CADCEF"/>
</linearGradient>
<linearGradient id="paint91_linear_14670_7141" x1="508.5" y1="3.5199e-08" x2="508.872" y2="710" gradientUnits="userSpaceOnUse">
<stop stop-color="#F2F6FA"/>
<stop offset="1" stop-color="#CADCEF"/>
</linearGradient>
<linearGradient id="paint92_linear_14670_7141" x1="508.5" y1="3.5199e-08" x2="508.872" y2="710" gradientUnits="userSpaceOnUse">
<stop stop-color="#F2F6FA"/>
<stop offset="1" stop-color="#CADCEF"/>
</linearGradient>
<linearGradient id="paint93_linear_14670_7141" x1="508.5" y1="3.5199e-08" x2="508.872" y2="710" gradientUnits="userSpaceOnUse">
<stop stop-color="#F2F6FA"/>
<stop offset="1" stop-color="#CADCEF"/>
</linearGradient>
<linearGradient id="paint94_linear_14670_7141" x1="508.5" y1="3.5199e-08" x2="508.872" y2="710" gradientUnits="userSpaceOnUse">
<stop stop-color="#F2F6FA"/>
<stop offset="1" stop-color="#CADCEF"/>
</linearGradient>
<linearGradient id="paint95_linear_14670_7141" x1="508.5" y1="3.5199e-08" x2="508.872" y2="710" gradientUnits="userSpaceOnUse">
<stop stop-color="#F2F6FA"/>
<stop offset="1" stop-color="#CADCEF"/>
</linearGradient>
<linearGradient id="paint96_linear_14670_7141" x1="508.5" y1="3.5199e-08" x2="508.872" y2="710" gradientUnits="userSpaceOnUse">
<stop stop-color="#F2F6FA"/>
<stop offset="1" stop-color="#CADCEF"/>
</linearGradient>
<linearGradient id="paint97_linear_14670_7141" x1="508.5" y1="3.5199e-08" x2="508.872" y2="710" gradientUnits="userSpaceOnUse">
<stop stop-color="#F2F6FA"/>
<stop offset="1" stop-color="#CADCEF"/>
</linearGradient>
<linearGradient id="paint98_linear_14670_7141" x1="508.5" y1="3.5199e-08" x2="508.872" y2="710" gradientUnits="userSpaceOnUse">
<stop stop-color="#F2F6FA"/>
<stop offset="1" stop-color="#CADCEF"/>
</linearGradient>
<linearGradient id="paint99_linear_14670_7141" x1="508.5" y1="3.5199e-08" x2="508.872" y2="710" gradientUnits="userSpaceOnUse">
<stop stop-color="#F2F6FA"/>
<stop offset="1" stop-color="#CADCEF"/>
</linearGradient>
<linearGradient id="paint100_linear_14670_7141" x1="508.5" y1="3.5199e-08" x2="508.872" y2="710" gradientUnits="userSpaceOnUse">
<stop stop-color="#F2F6FA"/>
<stop offset="1" stop-color="#CADCEF"/>
</linearGradient>
<linearGradient id="paint101_linear_14670_7141" x1="508.5" y1="3.5199e-08" x2="508.872" y2="710" gradientUnits="userSpaceOnUse">
<stop stop-color="#F2F6FA"/>
<stop offset="1" stop-color="#CADCEF"/>
</linearGradient>
<linearGradient id="paint102_linear_14670_7141" x1="508.5" y1="3.5199e-08" x2="508.872" y2="710" gradientUnits="userSpaceOnUse">
<stop stop-color="#F2F6FA"/>
<stop offset="1" stop-color="#CADCEF"/>
</linearGradient>
<linearGradient id="paint103_linear_14670_7141" x1="508.5" y1="3.5199e-08" x2="508.872" y2="710" gradientUnits="userSpaceOnUse">
<stop stop-color="#F2F6FA"/>
<stop offset="1" stop-color="#CADCEF"/>
</linearGradient>
<linearGradient id="paint104_linear_14670_7141" x1="508.5" y1="3.5199e-08" x2="508.872" y2="710" gradientUnits="userSpaceOnUse">
<stop stop-color="#F2F6FA"/>
<stop offset="1" stop-color="#CADCEF"/>
</linearGradient>
<linearGradient id="paint105_linear_14670_7141" x1="508.5" y1="3.5199e-08" x2="508.872" y2="710" gradientUnits="userSpaceOnUse">
<stop stop-color="#F2F6FA"/>
<stop offset="1" stop-color="#CADCEF"/>
</linearGradient>
</defs>
</svg>
