<svg version="1.1" id="bpl" xmlns="http://www.w3.org/2000/svg" x="0" y="0" viewBox="0 0 694.064 484.099" xml:space="preserve"><path fill="currentColor" d="M229.998 484.094c-1.9-.1-137.069-.112-138.62-.22a2.631 2.631 0 0 1-2-3.464c.67-1.173 76.874-134.551 77.413-135.915.539-1.364 1.4-2.1 3.464-2 2.064.1 136.6.279 139.985.586s5.171 1.528 4.232 3.33c-.939 1.802-76.265 130.869-77.546 133.683-1.236 2.715-4.766 4.006-6.72 4.006-.071 0-.14-.002-.208-.006zM75.352 478.58c-.973-1.685-73.435-138.854-74.5-140.7s-1.1-3.241-.267-4.464c.833-1.223 73.6-129.552 74.779-131.282s3.494-1.948 4.464-.268l80 138.564c.947 1.641.453 2.507-.232 3.6S83.959 473.818 83.45 474.946c-.426.943-5.122 4.028-7.218 4.028a.935.935 0 0 1-.881-.394h.001zm94.655-144.742c-2.153 0-5.677-2.389-8-6-2.323-3.611-71.9-126.9-73-129s1.273-4 3-4h41a8.167 8.167 0 0 1 7 4c1.093 1.823 60.579 107 63 111s5.625 7 11 7h84c4.32 0 8.9-.121 11 3a103.281 103.281 0 0 1 6 10c1.745 3.388-.814 4-5 4h-140zm54-25c-2.944 0-4.579-2.176-3-6 1.579-3.824 69.309-119 70-121s2.777-4 5-4h147c2.848 0 3.458 4.283 2 7s-67.507 115.018-69 118-4.626 7-9 7-140.057-1-143-1zm-15-7c-1.091-1.714-75.2-131.484-77-134s-1.036-6.4 0-8 68.13-119.712 69-121a2.631 2.631 0 0 1 4 0c.68 1.167 78.088 133.851 79 135s1.121 2.259 0 4-68.043 119.225-70 122c-1.29 1.829-2.578 2.861-3.618 2.861a1.615 1.615 0 0 1-1.382-.861zm251.888-26.556c-2.086-.153-3.434-2.051-2.464-3.732.97-1.681 77.629-131.071 78.576-132.712s4.713-2.048 6-2 146.763 0 148 0c2.154 0 1.973 3.315 1 5s-75.535 127.853-76.6 129.7c-1.065 1.847-2.254 2.575-3.731 2.464-.73-.056-36.982.293-73.755.643-34.2.325-68.843.65-75.791.65a41.618 41.618 0 0 1-1.235-.013zm-12.888-8.444v-1s-16.99-30.671-19-34-1.533-4.819 0-7 24.794-43.748 27-47 1.752-9.18 0-12-44.8-75.428-47-79-1.765-5.591 0-8 36.121-65.04 39.52-70.943a3.723 3.723 0 0 1 6.48-.057c1.151 2.126 69.763 121.379 72 125s.125 8.1-1 10-70.69 119.815-72 122c-.911 1.52-2.669 2.888-4.2 2.888a2.211 2.211 0 0 1-1.8-.888zm-156-98c-1.894 0-2.4-.861-3-2s-75.278-130.995-76-132-.946-3 1-3h151c2.129 0 3.358.665 4 2s76.09 129.117 77 131-.06 4-2 4h-152zm242-40.914c-.948-1.841-69.561-119.5-70.986-122.586s-.262-5.243 1.768-5.33c.9-.039 29.887.076 62.278.191 41.044.146 87.548.292 89.269.125 3.078-.3 6.063 2.3 6.928 4s69.938 119.823 70.619 121.22a2.63 2.63 0 0 1-2 3.464c-1.351.006-152.962.7-154.413.916a4.64 4.64 0 0 1-.679.054c-1.119 0-1.995-.513-2.784-2.054z"/></svg>