<svg xmlns="http://www.w3.org/2000/svg" viewBox="0 0 20 20" fill="none">
	<path fill-rule="evenodd" clip-rule="evenodd" d="M4 9.99844C4 9.99844 6.4 6.39844 10 6.39844C13.6 6.39844 16 9.99844 16 9.99844C16 9.99844 13.6 13.5984 10 13.5984C6.4 13.5984 4 9.99844 4 9.99844Z" stroke="currentColor" stroke-width="2" stroke-linecap="round" stroke-linejoin="round"/>
	<path fill-rule="evenodd" clip-rule="evenodd" d="M8.5 10C8.5 9.17157 9.17157 8.5 10 8.5V8.5C10.8284 8.5 11.5 9.17157 11.5 10V10C11.5 10.8284 10.8284 11.5 10 11.5V11.5C9.17157 11.5 8.5 10.8284 8.5 10V10Z" stroke="currentColor" stroke-width="2" stroke-linecap="round" stroke-linejoin="round"/>
	<path d="M1 4V2.2C1 1.53726 1.53726 1 2.2 1H4" stroke="currentColor" stroke-width="2" stroke-linecap="round" stroke-linejoin="round"/>
	<path d="M19 4V2.2C19 1.53726 18.4627 1 17.8 1H16" stroke="currentColor" stroke-width="2" stroke-linecap="round" stroke-linejoin="round"/>
	<path d="M1 16V17.8C1 18.4627 1.53726 19 2.2 19H4" stroke="currentColor" stroke-width="2" stroke-linecap="round" stroke-linejoin="round"/>
	<path d="M19 16V17.8C19 18.4627 18.4627 19 17.8 19H16" stroke="currentColor" stroke-width="2" stroke-linecap="round" stroke-linejoin="round"/>
</svg>
