<svg viewBox="0 0 20 21" fill="none" xmlns="http://www.w3.org/2000/svg"><path clip-rule="evenodd" d="M1 5.836a1.5 1.5 0 0 1 1.5-1.5h15a1.5 1.5 0 0 1 1.5 1.5v12.6a1.5 1.5 0 0 1-1.5 1.5h-15a1.5 1.5 0 0 1-1.5-1.5v-12.6z" stroke="currentColor" stroke-width="2" stroke-linecap="round" stroke-linejoin="round"/><path d="M1 9.135h18M5.8 6.136v-4.2M14.2 6.136v-4.2M4.9 12.135a.3.3 0 1 0 0 .6.3.3 0 0 0 0-.6M4.9 16.336a.3.3 0 1 0 0 .6.3.3 0 0 0 0-.6M10 12.135a.3.3 0 1 0 0 .6.3.3 0 0 0 0-.6M10 16.336a.3.3 0 1 0 0 .6.3.3 0 0 0 0-.6M15.1 12.135a.3.3 0 1 0 0 .6.3.3 0 0 0 0-.6M15.1 16.336a.3.3 0 1 0 0 .6.3.3 0 0 0 0-.6" stroke="currentColor" stroke-width="2" stroke-linecap="round" stroke-linejoin="round"/></svg>
