<svg version="1.1" id="categories" xmlns="http://www.w3.org/2000/svg" x="0" y="0" viewBox="0 0 20 20" xml:space="preserve"><g fill="none" stroke="currentColor" stroke-width="2"><path d="M2 1h4.3c.7 0 1.2.5 1.2 1.1v4.3c-.1.6-.5 1-1.1 1H2c-.6 0-1-.4-1-1V2c0-.6.4-1 1-1zM2 11.7h4.3c.6 0 1.1.5 1.1 1.1V17c0 .6-.5 1.1-1.1 1.1H2c-.6 0-1-.5-1-1.1v-4.2c0-.6.4-1.1 1-1.1zM12.8 1H17c.6 0 1.1.5 1.1 1.1v4.3c0 .5-.5.9-1.1.9h-4.2c-.6 0-1.1-.4-1.1-1V2c0-.6.5-1 1.1-1zM15.8 11.4l2.9 2.9c.4.4.4 1.1 0 1.6l-2.9 2.9c-.4.4-1.1.4-1.5-.1l-2.9-2.9c-.4-.4-.4-1.1 0-1.4l2.9-2.9c.4-.5 1-.6 1.5-.1z"/></g></svg>