<svg viewBox="0 0 22 22" fill="none" xmlns="http://www.w3.org/2000/svg">
<path d="M14.5122 7.47656L9.95571 12.033C9.69494 12.293 9.27293 12.293 9.01215 12.033L7.48438 10.5077" stroke="currentColor" stroke-width="2" stroke-linecap="round" stroke-linejoin="round"/>
<path fill-rule="evenodd" clip-rule="evenodd" d="M14.0586 20.1402V16.5069C14.0586 15.1569 15.153 14.0625 16.503 14.0625H20.1363" fill="transparent"/>
<path d="M14.0586 20.1402V16.5069C14.0586 15.1569 15.153 14.0625 16.503 14.0625H20.1363" stroke="currentColor" stroke-width="2" stroke-linecap="round" stroke-linejoin="round"/>
<path fill-rule="evenodd" clip-rule="evenodd" d="M19.4491 15.3855L15.3816 19.4539C14.9229 19.9122 14.301 20.1696 13.6526 20.1693H4.27648C2.92645 20.1693 1.83203 19.0749 1.83203 17.7248V4.28038C1.83203 2.93035 2.92645 1.83594 4.27648 1.83594H17.7209C19.071 1.83594 20.1654 2.93035 20.1654 4.28038V13.6573C20.1652 14.3055 19.9076 14.9272 19.4491 15.3855V15.3855Z" stroke="currentColor" stroke-width="2" stroke-linecap="round" stroke-linejoin="round"/>
</svg>
