<svg viewBox="0 0 24 24" fill="none" xmlns="http://www.w3.org/2000/svg">
	<path d="M20.0698 4.9375L16.4031 9.3375L14.2031 7.1375" stroke="currentColor" stroke-width="2" stroke-linecap="round" stroke-linejoin="round"/>
	<path d="M3.93333 12.2667H2.46667C1.65665 12.2667 1 11.61 1 10.8V3.46667C1 2.65665 1.65665 2 2.46667 2H21.5333C22.3434 2 23 2.65665 23 3.46667V10.8C23 11.61 22.3434 12.2667 21.5333 12.2667H12.7333" stroke="currentColor" stroke-width="2" stroke-linecap="round" stroke-linejoin="round"/>
	<path d="M5.39598 22.5359L2.6934 19.495C2.32447 19.0897 2.20192 18.5173 2.37255 17.9964C2.54317 17.4755 2.98062 17.0866 3.51788 16.9781C4.05514 16.8696 4.60927 17.0582 4.96869 17.472L6.86264 19.6026V10.8026C6.86264 9.99259 7.51929 9.33594 8.32931 9.33594C9.13933 9.33594 9.79598 9.99259 9.79598 10.8026V17.4026H11.2626C13.6927 17.4026 15.6626 19.3726 15.6626 21.8026V22.5359" stroke="currentColor" stroke-width="2" stroke-linecap="round" stroke-linejoin="round"/>
</svg>
