<svg viewBox="0 0 12 13" xmlns="http://www.w3.org/2000/svg">
	<path clip-rule="evenodd" d="M11.19 4.01a.72.72 0 0 1 .212.509v6.303a1.08 1.08 0 0 1-1.079 1.079h-8.64a1.08 1.08 0 0 1-1.081-1.08v-8.64a1.08 1.08 0 0 1 1.081-1.08h6.3a.72.72 0 0 1 .51.21L11.19 4.01Z" stroke="currentColor" stroke-width="1.2" stroke-linecap="round" stroke-linejoin="round" fill="none"/>
	<path d="M6.001 5.802H3.215M9.004 8.75h-6M7.8 1.1v2.7a.9.9 0 0 0 .9.9h2.7" stroke="currentColor" stroke-width="1.2" stroke-linecap="round" stroke-linejoin="round" fill="none"/>
</svg>
