<svg viewBox="0 0 16 17" fill="none" xmlns="http://www.w3.org/2000/svg">
<g clip-path="url(#clip0_13141_120685)">
<path d="M10.3447 7.02186L8.47806 5.1552C8.24473 4.99964 8.0114 4.92188 7.77807 4.92188H2.87807C2.4114 4.92188 1.94474 5.31075 1.94474 5.85519V14.5663C1.94474 15.033 2.33362 15.4997 2.87807 15.4997H3.49994" stroke="currentColor" stroke-width="2" stroke-linecap="round" stroke-linejoin="round"/>
<path d="M5.3666 4.92222V2.43332C5.3666 1.88887 5.83326 1.5 6.29993 1.5H11.1999C11.4333 1.5 11.6666 1.57777 11.8999 1.73332L13.7666 3.59999" stroke="currentColor" stroke-width="2" stroke-linecap="round" stroke-linejoin="round"/>
<path d="M14.1902 8.30078L9.19023 15.1008C8.99023 15.4008 8.59023 15.5008 8.29023 15.3008C8.29023 15.3008 8.29023 15.3008 8.19023 15.2008L6.99023 13.8008" stroke="currentColor" stroke-width="2" stroke-linecap="round" stroke-linejoin="round"/>
</g>
<defs>
<clipPath id="clip0_13141_120685">
<rect width="16" height="16" fill="white" transform="matrix(-1 0 0 1 16 0.5)"/>
</clipPath>
</defs>
</svg>
