<svg version="1.1" id="copy" xmlns="http://www.w3.org/2000/svg" x="0" y="0" viewBox="0 0 20 20" xml:space="preserve"><g fill="none" stroke="currentColor" stroke-width="2" stroke-linecap="round" stroke-linejoin="round"><path d="M7 17.765C7 18.485 7.496 19 8.09 19h-.099 8.82c.694 0 1.189-.618 1.189-1.235V6.235C18 5.515 17.405 5 16.81 5h0-6.242c-.298 0-.595.103-.892.309l-2.379 2.47C7 8.09 7 8.397 7 8.706v9.059z"/><path d="M13 5V2.235C13 1.515 12.405 1 11.81 1h0-6.242c-.298 0-.595.103-.892.309l-2.379 2.47C2 4.09 2 4.397 2 4.706v9.059C2 14.485 2.496 15 3.09 15h-.099H7"/></g></svg>