<svg viewBox="0 0 21 20" fill="none" xmlns="http://www.w3.org/2000/svg">
    <path fill-rule="evenodd" clip-rule="evenodd"
        d="M16.0397 7.23438C16.0314 9.40822 17.092 10.6442 19.5012 10.6959C17.2646 10.6876 16.1532 11.8876 16.0397 14.1574C16.0203 12.0159 15.0612 10.6931 12.5781 10.6959C14.8 10.6645 16.0314 9.59284 16.0397 7.23438Z"
        stroke="currentColor" stroke-width="1.6" stroke-linecap="round" stroke-linejoin="round" />
    <path fill-rule="evenodd" clip-rule="evenodd"
        d="M8.45474 1C8.44274 4.06277 9.93627 5.8 13.3304 5.87661C10.18 5.86461 8.61443 7.55477 8.45474 10.7523C8.42797 7.73569 7.07566 5.872 3.57812 5.87661C6.70735 5.83231 8.44274 4.32215 8.45474 1Z"
        stroke="currentColor" stroke-width="1.6" stroke-linecap="round" stroke-linejoin="round" />
    <path
        d="M13.3615 16.3343C11.6807 18.6036 8.73895 19.5466 6.05212 18.6774C3.3653 17.8082 1.53322 15.3208 1.50001 12.4971C1.49744 11.2122 1.88006 9.95595 2.59847 8.89062"
        stroke="currentColor" stroke-width="1.6" stroke-linecap="round" stroke-linejoin="round" />
</svg>