<svg xmlns="http://www.w3.org/2000/svg" width="24" height="25" viewBox="0 0 24 25" fill="none">
  <g clip-path="url(#clip0_13880_105917)">
    <path fill-rule="evenodd" clip-rule="evenodd" d="M18.8821 8.94457H13.7264C13.0146 8.94457 12.4375 8.3675 12.4375 7.65565V2.5" fill="none"/>
    <path d="M18.8821 8.94457H13.7264C13.0146 8.94457 12.4375 8.3675 12.4375 7.65565V2.5" stroke="currentColor" stroke-width="2" stroke-linecap="round" stroke-linejoin="round"/>
    <path d="M5.99174 21.8337H3.41391C2.70207 21.8337 2.125 21.2566 2.125 20.5448V3.78891C2.125 3.07707 2.70207 2.5 3.41391 2.5H12.5472C12.8891 2.49985 13.217 2.63554 13.4588 2.87722L18.5037 7.92289C18.7451 8.16452 18.8808 8.49212 18.8809 8.83372V12.8113" stroke="currentColor" stroke-width="2" stroke-linecap="round" stroke-linejoin="round"/>
    <path fill-rule="evenodd" clip-rule="evenodd" d="M8.35938 19.3003C8.35938 19.3003 10.9372 15.4336 14.8039 15.4336C18.6707 15.4336 21.2485 19.3003 21.2485 19.3003C21.2485 19.3003 18.6707 23.1671 14.8039 23.1671C10.9372 23.1671 8.35938 19.3003 8.35938 19.3003Z" fill="none" stroke="currentColor" stroke-width="2" stroke-linecap="round" stroke-linejoin="round"/>
    <path d="M13.8984 20.6287C14.633 21.1309 15.6355 20.9426 16.1378 20.2081C16.64 19.4736 16.4517 18.471 15.7172 17.9688" stroke="currentColor" stroke-width="2" stroke-linecap="round" stroke-linejoin="round"/>
  </g>
  <defs>
    <clipPath id="clip0_13880_105917">
      <rect width="24" height="24" fill="white" transform="translate(24 24.5) rotate(-180)"/>
    </clipPath>
  </defs>
</svg>
