<svg width="54" height="55" viewBox="0 0 54 55" fill="none" xmlns="http://www.w3.org/2000/svg">
<g clip-path="url(#clip0_24270_18556)">
<path d="M29.2931 46.1134C30.874 46.5273 32.2733 46.4921 33.4555 46.0716L28.1053 48.9905C26.7477 49.8096 25.0138 50.0209 22.9789 49.4882C21.9952 49.2306 20.9963 48.8137 20.0003 48.2597C18.0183 47.1571 16.0479 45.5118 14.2325 43.5C12.883 42.0044 11.6192 40.3063 10.5 38.4782L16.5 34.5803C17.5461 36.3557 18.7301 38.018 20.0003 39.5032C21.7188 41.5125 23.5948 43.1978 25.5 44.401C26.7641 45.1994 28.0409 45.7856 29.2931 46.1134Z" fill="#9EB3DB"/>
<path d="M15.6336 12.4163L15.5983 12.4355C13.2894 13.7059 12.0085 16.6684 12.1003 20.6997L5.78455 24C5.70245 19.5949 7.26764 16.479 10.026 15.4737L15.5983 12.4355C15.61 12.4291 15.6218 12.4227 15.6336 12.4163Z" fill="#9EB3DB"/>
<path d="M6.55483 29.2986L12.869 25.9238C12.7002 25.2664 12.5599 24.6246 12.4473 24L6.11968 27.2997C6.23449 27.9479 6.3792 28.6148 6.55483 29.2986Z" fill="#9EB3DB"/>
<path d="M29.2931 46.1134C30.874 46.5273 32.2733 46.4921 33.4555 46.0716L28.1053 48.9905C26.7477 49.8096 25.0138 50.0209 22.9789 49.4882C21.9952 49.2306 20.9963 48.8137 20.0003 48.2597C18.0183 47.1571 16.0479 45.5118 14.2325 43.5C12.883 42.0044 11.6192 40.3063 10.5 38.4782L16.5 34.5803C17.5461 36.3557 18.7301 38.018 20.0003 39.5032C21.7188 41.5125 23.5948 43.1978 25.5 44.401C26.7641 45.1994 28.0409 45.7856 29.2931 46.1134Z" fill="#9EB3DB"/>
<path d="M15.6336 12.4163L15.5983 12.4355C13.2894 13.7059 12.0085 16.6684 12.1003 20.6997L5.78455 24C5.70245 19.5949 7.26764 16.479 10.026 15.4737L15.5983 12.4355C15.61 12.4291 15.6218 12.4227 15.6336 12.4163Z" fill="#9EB3DB"/>
<path d="M6.55483 29.2986L12.869 25.9238C12.7002 25.2664 12.5599 24.6246 12.4473 24L6.11968 27.2997C6.23449 27.9479 6.3792 28.6148 6.55483 29.2986Z" fill="#9EB3DB"/>
<path d="M29.2931 46.1134C30.874 46.5273 32.2733 46.4921 33.4555 46.0716L28.1053 48.9905C26.7477 49.8096 25.0138 50.0209 22.9789 49.4882C21.9952 49.2306 20.9963 48.8137 20.0003 48.2597C18.0183 47.1571 16.0479 45.5118 14.2325 43.5C12.883 42.0044 11.6192 40.3063 10.5 38.4782L16.5 34.5803C17.5461 36.3557 18.7301 38.018 20.0003 39.5032C21.7188 41.5125 23.5948 43.1978 25.5 44.401C26.7641 45.1994 28.0409 45.7856 29.2931 46.1134Z" fill="#9EB3DB"/>
<path d="M15.6336 12.4163L15.5983 12.4355C13.2894 13.7059 12.0085 16.6684 12.1003 20.6997L5.78455 24C5.70245 19.5949 7.26764 16.479 10.026 15.4737L15.5983 12.4355C15.61 12.4291 15.6218 12.4227 15.6336 12.4163Z" fill="#9EB3DB"/>
<path d="M6.55483 29.2986L12.869 25.9238C12.7002 25.2664 12.5599 24.6246 12.4473 24L6.11968 27.2997C6.23449 27.9479 6.3792 28.6148 6.55483 29.2986Z" fill="#9EB3DB"/>
<path d="M33.4563 46.0692C32.2741 46.4896 30.8748 46.5249 29.2939 46.111C22.6394 44.3688 15.2863 35.3298 12.8698 25.9214C11.1533 19.2385 12.3895 14.1671 15.6344 12.4139M33.4563 46.0692L28.1061 48.988C26.7485 49.8072 25.0146 50.0185 22.9797 49.4857C21.996 49.2282 20.9971 48.8112 20.0011 48.2572C14.2592 45.0632 8.61494 37.3139 6.55562 29.2962C4.71966 22.1481 6.26169 16.8435 10.0268 15.4713L15.6344 12.4139M33.4563 46.0692C36.2454 45.0773 37.8268 41.9413 37.7369 37.4999M15.6344 12.4139C16.7129 11.8311 18.0134 11.615 19.5011 11.8281" stroke="#9EB3DB" stroke-width="2" stroke-linecap="round"/>
<path d="M25.1219 18.9861C24.7116 17.3929 24.4671 15.89 24.3757 14.5M24.6306 32.4642C22.4043 29.2121 20.6146 25.4478 19.6299 21.6237C17.8532 14.7244 19.1834 9.51927 22.6104 7.83338L28.0387 5.22768C29.363 4.55412 31.0063 4.41252 32.9089 4.91065C39.6668 6.67997 47.1374 15.8502 49.5949 25.3932C52.0523 34.9363 48.5661 41.2381 41.8079 39.4687C38.1052 38.4993 34.1887 35.3083 31 31.0517C29.9165 29.6053 28.9171 28.036 28.0387 26.3889C27.3678 25.1312 26.7676 23.8281 26.2543 22.5M24.831 9.48011C24.6479 10.1033 24.4315 11.5 24.4315 11.5" stroke="#355594" stroke-width="2" stroke-linecap="round"/>
<path d="M26.548 29.2108L25.3294 33.7588L20.7814 32.5402" stroke="#355594" stroke-width="2" stroke-linecap="round" stroke-linejoin="round"/>
</g>
<defs>
<clipPath id="clip0_24270_18556">
<rect width="54" height="54" fill="white" transform="translate(0 0.5)"/>
</clipPath>
</defs>
</svg>
