<svg width="54" height="51" viewBox="0 0 54 51" fill="none" xmlns="http://www.w3.org/2000/svg">
<path d="M29.2931 44.1134C30.874 44.5273 32.2733 44.4921 33.4555 44.0716L28.1053 46.9905C26.7477 47.8096 25.0138 48.0209 22.9789 47.4882C21.9952 47.2306 20.9963 46.8137 20.0003 46.2597C18.0183 45.1571 16.0479 43.5118 14.2325 41.5C12.883 40.0044 11.6192 38.3063 10.5 36.4782L16.5 32.5803C17.5461 34.3557 18.7301 36.018 20.0003 37.5032C21.7188 39.5125 23.5948 41.1978 25.5 42.401C26.7641 43.1994 28.0409 43.7856 29.2931 44.1134Z" fill="#235B95"/>
<path d="M15.6336 10.4163L15.5983 10.4355C13.2894 11.7059 12.0085 14.6684 12.1003 18.6997L5.78455 22C5.70245 17.5949 7.26764 14.479 10.026 13.4737L15.5983 10.4355C15.61 10.4291 15.6218 10.4227 15.6336 10.4163Z" fill="#235B95"/>
<path d="M6.55483 27.2986L12.869 23.9238C12.7002 23.2664 12.5599 22.6246 12.4473 22L6.11968 25.2997C6.23449 25.9479 6.3792 26.6148 6.55483 27.2986Z" fill="#235B95"/>
<path d="M29.2931 44.1134C30.874 44.5273 32.2733 44.4921 33.4555 44.0716L28.1053 46.9905C26.7477 47.8096 25.0138 48.0209 22.9789 47.4882C21.9952 47.2306 20.9963 46.8137 20.0003 46.2597C18.0183 45.1571 16.0479 43.5118 14.2325 41.5C12.883 40.0044 11.6192 38.3063 10.5 36.4782L16.5 32.5803C17.5461 34.3557 18.7301 36.018 20.0003 37.5032C21.7188 39.5125 23.5948 41.1978 25.5 42.401C26.7641 43.1994 28.0409 43.7856 29.2931 44.1134Z" fill="#235B95"/>
<path d="M15.6336 10.4163L15.5983 10.4355C13.2894 11.7059 12.0085 14.6684 12.1003 18.6997L5.78455 22C5.70245 17.5949 7.26764 14.479 10.026 13.4737L15.5983 10.4355C15.61 10.4291 15.6218 10.4227 15.6336 10.4163Z" fill="#235B95"/>
<path d="M6.55483 27.2986L12.869 23.9238C12.7002 23.2664 12.5599 22.6246 12.4473 22L6.11968 25.2997C6.23449 25.9479 6.3792 26.6148 6.55483 27.2986Z" fill="#235B95"/>
<path d="M29.2931 44.1134C30.874 44.5273 32.2733 44.4921 33.4555 44.0716L28.1053 46.9905C26.7477 47.8096 25.0138 48.0209 22.9789 47.4882C21.9952 47.2306 20.9963 46.8137 20.0003 46.2597C18.0183 45.1571 16.0479 43.5118 14.2325 41.5C12.883 40.0044 11.6192 38.3063 10.5 36.4782L16.5 32.5803C17.5461 34.3557 18.7301 36.018 20.0003 37.5032C21.7188 39.5125 23.5948 41.1978 25.5 42.401C26.7641 43.1994 28.0409 43.7856 29.2931 44.1134Z" fill="#235B95"/>
<path d="M15.6336 10.4163L15.5983 10.4355C13.2894 11.7059 12.0085 14.6684 12.1003 18.6997L5.78455 22C5.70245 17.5949 7.26764 14.479 10.026 13.4737L15.5983 10.4355C15.61 10.4291 15.6218 10.4227 15.6336 10.4163Z" fill="#235B95"/>
<path d="M6.55483 27.2986L12.869 23.9238C12.7002 23.2664 12.5599 22.6246 12.4473 22L6.11968 25.2997C6.23449 25.9479 6.3792 26.6148 6.55483 27.2986Z" fill="#235B95"/>
<path d="M33.4563 44.0692C32.2741 44.4896 30.8748 44.5249 29.2939 44.111C22.6394 42.3688 15.2863 33.3298 12.8698 23.9214C11.1533 17.2385 12.3895 12.1671 15.6344 10.4139M33.4563 44.0692L28.1061 46.988C26.7485 47.8072 25.0146 48.0185 22.9797 47.4857C21.996 47.2282 20.9971 46.8112 20.0011 46.2572C14.2592 43.0632 8.61494 35.3139 6.55562 27.2962C4.71966 20.1481 6.26169 14.8435 10.0268 13.4713L15.6344 10.4139M33.4563 44.0692C36.2454 43.0773 37.8268 39.9413 37.7369 35.4999M15.6344 10.4139C16.7129 9.83112 18.0134 9.61499 19.5011 9.82812" stroke="#235B95" stroke-width="2" stroke-linecap="round"/>
<path d="M25.1219 16.9861C24.7116 15.3929 24.4671 13.89 24.3757 12.5M24.6306 30.4642C22.4043 27.2121 20.6146 23.4478 19.6299 19.6237C17.8532 12.7244 19.1834 7.51927 22.6104 5.83338L28.0387 3.22768C29.363 2.55412 31.0063 2.41252 32.9089 2.91065C39.6668 4.67997 47.1374 13.8502 49.5949 23.3932C52.0523 32.9363 48.5661 39.2381 41.8079 37.4687C38.1052 36.4993 34.1887 33.3083 31 29.0517C29.9165 27.6053 28.9171 26.036 28.0387 24.3889C27.3678 23.1312 26.7676 21.8281 26.2543 20.5M24.831 7.48011C24.6479 8.10333 24.4315 9.5 24.4315 9.5" stroke="#8AC0F7" stroke-width="2" stroke-linecap="round"/>
<path d="M26.548 27.2108L25.3294 31.7588L20.7814 30.5402" stroke="#8AC0F7" stroke-width="2" stroke-linecap="round" stroke-linejoin="round"/>
</svg>
