<svg version="1.1" xmlns="http://www.w3.org/2000/svg" x="0" y="0" viewBox="0 0 28 28" xml:space="preserve"><path fill="none" stroke="#235B95" stroke-width="2" stroke-linecap="round" stroke-linejoin="round" d="M6.5 26.4H4.7c-1 0-1.7-.8-1.7-1.7v-22C3 1.8 3.8 1 4.6 1h12c.5 0 .9.2 1.2.5l6.6 6.6c.4.4.6.8.6 1.2v5.2"/><path fill="none" stroke="currentColor" stroke-width="2" stroke-linecap="round" stroke-linejoin="round" d="M13 18.8c-1.7 0-3 1.4-3 3.2v1.6c0 1.8 1.3 3.2 3 3.2M20 18.8h-2c-1.1 0-2 .7-2 1.6 0 2.4 4 2.4 4 4.8 0 .9-.9 1.6-2 1.6h-2M23 18.8v2.7c0 1.9.5 3.7 1.5 5.3 1-1.6 1.5-3.4 1.5-5.3v-2.7"/></svg>