<?xml version="1.0" encoding="utf-8"?>
<!-- Generator: Adobe Illustrator 26.3.1, SVG Export Plug-In . SVG Version: 6.00 Build 0)  -->
<svg version="1.1" xmlns="http://www.w3.org/2000/svg" xmlns:xlink="http://www.w3.org/1999/xlink" x="0px" y="0px"
	 viewBox="0 0 28 28" enable-background="new 0 0 28 28" xml:space="preserve">
<path fill="none" stroke="#235B95" stroke-width="2" stroke-linecap="round" stroke-linejoin="round" d="M6.5,26.4H4.7
	c-1,0-1.7-0.8-1.7-1.7V2.7C3,1.8,3.8,1,4.6,1h12c0.5,0,0.9,0.2,1.2,0.5l6.6,6.6C24.8,8.5,25,8.9,25,9.3v5.2"/>
<path fill="none" stroke="currentColor" stroke-width="2" stroke-linecap="round" stroke-linejoin="round" d="M13,18.8
	c-1.7,0-3,1.4-3,3.2v1.6c0,1.8,1.3,3.2,3,3.2"/>
<path fill="none" stroke="currentColor" stroke-width="2" stroke-linecap="round" stroke-linejoin="round" d="M20,18.8h-2
	c-1.1,0-2,0.7-2,1.6c0,2.4,4,2.4,4,4.8c0,0.9-0.9,1.6-2,1.6h-2"/>
<path fill="none" stroke="currentColor" stroke-width="2" stroke-linecap="round" stroke-linejoin="round" d="M23,18.8v2.7
	c0,1.9,0.5,3.7,1.5,5.3c1-1.6,1.5-3.4,1.5-5.3v-2.7"/>
</svg>
