<svg version="1.1" id="extension-wwe" xmlns="http://www.w3.org/2000/svg" x="0" y="0" viewBox="0 0 40 40" xml:space="preserve"><path fill="none" stroke="#289548" stroke-width="2" stroke-linecap="round" stroke-linejoin="round" d="M7.757 37H3.598C2.17 37 1 35.898 1 34.55V3.45C1 2.101 2.17 1 3.469 1h17.929c.78 0 1.298.245 1.818.735l10.004 9.428c.52.49.78 1.102.78 1.715v7.347"/><g fill="none" stroke="currentColor" stroke-width="2" stroke-linecap="round" stroke-linejoin="round"><path d="M22 29v3.396c0 2.35.696 4.648 2 6.604 1.31-1.978 2.004-3.664 2-6"/><path d="M26 33c0 2.35.697 4.044 2 5.999 1.304-1.956 2-4.253 2-6.604V29m7 10h-2a2.002 2.002 0 0 1-2-2.001v-6A2 2 0 0 1 35 29h2m-4 6h4m-26-6v3.396c0 2.35.696 4.648 2 6.604 1.31-1.978 2.004-3.664 2-6"/><path d="M15 33c0 2.35.697 4.044 2 5.999 1.304-1.956 2-4.254 2-6.604V29"/></g></svg>