<svg version="1.1" id="extension-json" xmlns="http://www.w3.org/2000/svg" x="0" y="0" viewBox="0 0 40 40" xml:space="preserve"><path fill="none" stroke="currentColor" stroke-width="2" stroke-linecap="round" stroke-linejoin="round" d="M15 29v8a2 2 0 0 1-2 2h-2m12-10h-2.002a1.999 1.999 0 0 0-1.997 2c0 3 3.995 3 3.995 6 0 1.105-.894 2-1.998 2H19m10-10c-1.104 0-1.999.899-2 2.009v6.021A2.005 2.005 0 0 0 29.039 39 2.005 2.005 0 0 0 31 37.03v-6.025A2.004 2.004 0 0 0 29 29zm6 10V29l4 10V29"/><path fill="none" stroke="#289548" stroke-width="2" stroke-linecap="round" stroke-linejoin="round" d="M7.757 37H3.598C2.17 37 1 35.898 1 34.55V3.45C1 2.101 2.17 1 3.469 1h17.929c.78 0 1.298.245 1.818.735l10.004 9.428c.52.49.78 1.102.78 1.715v7.347"/></svg>