<svg viewBox="0 0 16 16" fill="none" xmlns="http://www.w3.org/2000/svg">
	<path fill-rule="evenodd" clip-rule="evenodd" d="M7.06539 1.87885C7.30301 2.14261 7.64136 2.29321 7.99637 2.29321C8.35138 2.29321 8.68973 2.14261 8.92735 1.87885L9.53306 1.21423C9.88878 0.820543 10.4537 0.693265 10.9439 0.896378C11.4341 1.09949 11.7434 1.58905 11.7164 2.11896L11.671 3.01536C11.6532 3.36897 11.7858 3.71362 12.036 3.96416C12.2861 4.2147 12.6306 4.34778 12.9842 4.33051L13.8806 4.28505C14.4102 4.25895 14.8989 4.56861 15.1015 5.05856C15.3041 5.54852 15.1768 6.11294 14.7834 6.46844L14.1162 7.07031C13.8528 7.30825 13.7025 7.64663 13.7025 8.00161C13.7025 8.35659 13.8528 8.69496 14.1162 8.93291L14.7834 9.53478C15.1771 9.8905 15.3044 10.4554 15.1013 10.9456C14.8982 11.4358 14.4086 11.7451 13.8787 11.7182L12.9823 11.6727C12.6279 11.6545 12.2823 11.7873 12.0314 12.0382C11.7805 12.2892 11.6476 12.6347 11.6659 12.9891L11.7113 13.8855C11.7348 14.4126 11.4259 14.8981 10.9385 15.1001C10.4511 15.3021 9.88934 15.1775 9.53306 14.7883L8.93055 14.1218C8.69272 13.8584 8.35445 13.7081 7.99957 13.7081C7.64469 13.7081 7.30642 13.8584 7.06859 14.1218L6.46352 14.7883C6.10777 15.1794 5.54505 15.3054 5.05651 15.1034C4.56797 14.9015 4.25849 14.4149 4.2827 13.8868L4.3288 12.9904C4.34703 12.636 4.2142 12.2905 3.96326 12.0395C3.71232 11.7886 3.36678 11.6558 3.01236 11.674L2.11596 11.7194C1.58627 11.7471 1.0965 11.4384 0.892933 10.9486C0.689368 10.4588 0.816064 9.89392 1.20931 9.53798L1.87585 8.93611C2.13928 8.69817 2.28962 8.35979 2.28962 8.00481C2.28962 7.64983 2.13928 7.31145 1.87585 7.07351L1.20931 6.46844C0.817383 6.11292 0.690874 5.5496 0.893151 5.06063C1.09543 4.57167 1.58293 4.26235 2.11148 4.28761L3.00788 4.33307C3.36298 4.35174 3.7093 4.21874 3.96062 3.96718C4.21194 3.71561 4.34461 3.36916 4.32559 3.01408L4.2827 2.11704C4.25791 1.58871 4.56719 1.10162 5.05587 0.899312C5.54455 0.697009 6.10762 0.822979 6.46352 1.21423L7.06539 1.87885Z" stroke="currentColor" stroke-width="1.6" stroke-linecap="round" stroke-linejoin="round"/>
	<path fill-rule="evenodd" clip-rule="evenodd" d="M7.99691 10.1618C9.19038 10.1618 10.1579 9.19429 10.1579 8.00082C10.1579 6.80734 9.19038 5.83984 7.99691 5.83984C6.80344 5.83984 5.83594 6.80734 5.83594 8.00082C5.83594 9.19429 6.80344 10.1618 7.99691 10.1618Z" stroke="currentColor" stroke-width="1.6" stroke-linecap="round" stroke-linejoin="round"/>
</svg>
