<svg version="1.1" id="grid" xmlns="http://www.w3.org/2000/svg" x="0" y="0" viewBox="0 0 20 20" xml:space="preserve"><g fill="none" stroke="currentColor" stroke-width="2" stroke-linecap="round" stroke-linejoin="round"><path d="M13.458 1h4.084C18.319 1 19 1.68 19 2.458v4.084C19 7.319 18.32 8 17.542 8h-4.084C12.681 8 12 7.32 12 6.542V2.458C12 1.681 12.68 1 13.458 1zM13.458 12h4.084c.777 0 1.458.68 1.458 1.458v4.084c0 .777-.68 1.458-1.458 1.458h-4.084C12.681 19 12 18.32 12 17.542v-4.084c0-.777.68-1.458 1.458-1.458zM2.458 12h4.084C7.319 12 8 12.68 8 13.458v4.084C8 18.319 7.32 19 6.542 19H2.458C1.681 19 1 18.32 1 17.542v-4.084C1 12.681 1.68 12 2.458 12zM2.458 1h4.084C7.319 1 8 1.68 8 2.458v4.084C8 7.319 7.32 8 6.542 8H2.458C1.681 8 1 7.32 1 6.542V2.458C1 1.681 1.68 1 2.458 1z"/></g></svg>