<svg xmlns="http://www.w3.org/2000/svg" width="20" height="20" viewBox="0 0 20 20" fill="none">
	<path fill-rule="evenodd" clip-rule="evenodd" d="M2.8 18.4984C3.79411 18.4984 4.6 17.6925 4.6 16.6984C4.6 15.7043 3.79411 14.8984 2.8 14.8984C1.80589 14.8984 1 15.7043 1 16.6984C1 17.6925 1.80589 18.4984 2.8 18.4984Z" stroke="currentColor" stroke-width="2" stroke-linecap="round" stroke-linejoin="round"/>
	<path fill-rule="evenodd" clip-rule="evenodd" d="M10.0031 18.4984C10.9972 18.4984 11.8031 17.6925 11.8031 16.6984C11.8031 15.7043 10.9972 14.8984 10.0031 14.8984C9.00901 14.8984 8.20312 15.7043 8.20312 16.6984C8.20312 17.6925 9.00901 18.4984 10.0031 18.4984Z" stroke="currentColor" stroke-width="2" stroke-linecap="round" stroke-linejoin="round"/>
	<path fill-rule="evenodd" clip-rule="evenodd" d="M17.1984 18.4984C18.1925 18.4984 18.9984 17.6925 18.9984 16.6984C18.9984 15.7043 18.1925 14.8984 17.1984 14.8984C16.2043 14.8984 15.3984 15.7043 15.3984 16.6984C15.3984 17.6925 16.2043 18.4984 17.1984 18.4984Z" stroke="currentColor" stroke-width="2" stroke-linecap="round" stroke-linejoin="round"/>
	<path fill-rule="evenodd" clip-rule="evenodd" d="M6.78906 5.7777C6.78906 5.18854 7.26667 4.71094 7.85582 4.71094H12.1509C12.74 4.71094 13.2176 5.18854 13.2176 5.7777V7.92989C13.2176 8.51905 12.74 8.99665 12.1509 8.99665H7.85582C7.26667 8.99665 6.78906 8.51905 6.78906 7.92989V5.7777Z" stroke="currentColor" stroke-width="2" stroke-linecap="round" stroke-linejoin="round"/>
	<path d="M7.85938 4.71429V3.50893C7.85938 2.39943 8.81876 1.5 10.0022 1.5C11.1857 1.5 12.1451 2.39943 12.1451 3.50893V4.71429" stroke="currentColor" stroke-width="2" stroke-linecap="round" stroke-linejoin="round"/>
	<path d="M10 14.5L10 9.5" stroke="currentColor" stroke-width="2" stroke-linecap="round" stroke-linejoin="round"/>
	<path d="M2.79688 14.9V12.5H17.1969V14.9" stroke="currentColor" stroke-width="2" stroke-linecap="round" stroke-linejoin="round"/>
</svg>
