<svg viewBox="0 0 13 13" fill="none" xmlns="http://www.w3.org/2000/svg">
    <g clip-path="url(#clip0_25173_35454)">
        <path
            d="M4.33691 11.9209C3.93911 11.9209 3.50733 11.81 3.1748 11.4834C2.83986 11.1543 2.71883 10.7176 2.71875 10.2979L2.71875 10.1768C2.7188 9.17507 3.23118 8.3687 3.73145 7.78809C4.19024 7.25569 4.80492 6.7441 5.05664 6.50586C4.77558 6.24471 4.19192 5.75268 3.72266 5.19824C3.22999 4.61613 2.71618 3.80568 2.71875 2.8291L2.71875 2.69824C2.71883 2.27848 2.83986 1.84175 3.17481 1.51269C3.50733 1.18611 3.93911 1.07522 4.33691 1.07519L9.21387 1.0752C9.61144 1.07522 10.0354 1.1891 10.3584 1.51367C10.6807 1.83757 10.792 2.26024 10.792 2.65332L10.792 2.8291C10.792 3.80567 10.2767 4.6159 9.7832 5.19824C9.31362 5.75231 8.73034 6.24467 8.44922 6.50586C8.70736 6.74815 9.31777 7.25431 9.77832 7.78809C10.2795 8.36896 10.7919 9.17498 10.792 10.1768L10.792 10.3428C10.792 10.7359 10.6807 11.1585 10.3584 11.4824C10.0354 11.807 9.61144 11.9209 9.21387 11.9209L4.33691 11.9209Z"
            stroke="currentColor" stroke-width="1.6" />
        <path
            d="M8.98534 11.6016L4.52715 11.6016C4.34017 11.6016 4.31065 11.4555 4.4189 11.2559C4.86177 10.4673 6.35276 9.20156 6.75625 9.20156C7.15975 9.20156 8.65072 10.4576 9.09359 11.2559C9.20187 11.4555 9.17233 11.6016 8.98534 11.6016Z"
            fill="currentColor" stroke="currentColor" stroke-width="1.6" stroke-linejoin="round" />
    </g>
    <defs>
        <clipPath id="clip0_25173_35454">
            <rect width="12" height="12" fill="currentColor" transform="translate(12.7539 12.5) rotate(-180)" />
        </clipPath>
    </defs>
</svg>