<svg viewBox="0 0 24 25" fill="none" xmlns="http://www.w3.org/2000/svg">
	<g id="Frame 9848">
		<g id="Group">
			<g id="money-wallet">
				<g id="Shape">
					<path fill-rule="evenodd" clip-rule="evenodd" d="M22.0001 9.5H16.4001C15.6269 9.5 15.0001 8.8732 15.0001 8.1V2.5" fill="#E6EFF9"/>
					<path d="M22.0001 9.5H16.4001C15.6269 9.5 15.0001 8.8732 15.0001 8.1V2.5" stroke="currentColor" stroke-width="2" stroke-linecap="round" stroke-linejoin="round"/>
				</g>
				<path id="Shape_2" d="M4.00012 10.7V3.9C4.00012 3.1268 4.62004 2.5 5.38474 2.5H15.1961C15.5631 2.50008 15.915 2.64745 16.1746 2.90973L21.5949 8.39027C21.8543 8.65272 22 9.00856 22.0001 9.3796V22.1C22.0001 22.8732 21.3802 23.5 20.6155 23.5H13.4617" stroke="currentColor" stroke-width="2" stroke-linecap="round" stroke-linejoin="round"/>
			</g>
			<g id="Group 25">
				<path id="Shape_3" d="M2 20L5 23L8 20" stroke="currentColor" stroke-width="2" stroke-linecap="round" stroke-linejoin="round"/>
				<path id="Shape_4" d="M5 23L5 20C5 16.7345 7.08702 13.9564 10 12.9268" stroke="currentColor" stroke-width="2" stroke-linecap="round" stroke-linejoin="round"/>
			</g>
		</g>
	</g>
</svg>
