<svg viewBox="0 0 24 24" fill="none" xmlns="http://www.w3.org/2000/svg">
	<path fill-rule="evenodd" clip-rule="evenodd" d="M18.5609 5.49235L16.6543 1.6791C16.5087 1.38766 16.2532 1.16604 15.9441 1.06302C15.6351 0.959992 15.2977 0.984012 15.0064 1.12979L6.28125 5.49235" fill="#26372B"/>
	<path d="M18.5609 5.49235L16.6543 1.6791C16.5087 1.38766 16.2532 1.16604 15.9441 1.06302C15.6351 0.959992 15.2977 0.984012 15.0064 1.12979L6.28125 5.49235" stroke="#289548" stroke-width="2" stroke-linecap="round" stroke-linejoin="round"/>
	<path d="M21.0197 15.3159V16.5439C21.0197 17.9003 19.9201 18.9998 18.5637 18.9998H12.4239M21.0197 9.17609V7.94812C21.0197 6.59175 19.9201 5.49219 18.5637 5.49219H6.28406C4.92768 5.49219 3.82812 6.59175 3.82812 7.94812V10.246" stroke="#289548" stroke-width="2" stroke-linecap="round" stroke-linejoin="round"/>
	<path fill-rule="evenodd" clip-rule="evenodd" d="M21.0226 15.3195C21.7008 15.3195 22.2506 14.7697 22.2506 14.0916V10.4077C22.2506 9.72947 21.7008 9.17969 21.0226 9.17969H17.9527C16.2573 9.17969 14.8828 10.5541 14.8828 12.2496C14.8828 13.9451 16.2573 15.3195 17.9527 15.3195H21.0226Z" stroke="#289548" stroke-width="2" stroke-linecap="round" stroke-linejoin="round"/>
	<path d="M17.9476 11.9375C18.1172 11.9375 18.2546 12.0749 18.2546 12.2445C18.2546 12.414 18.1172 12.5515 17.9476 12.5515C17.7781 12.5515 17.6406 12.414 17.6406 12.2445C17.6406 12.0749 17.7781 11.9375 17.9476 11.9375" stroke="#289548" stroke-width="2" stroke-linecap="round" stroke-linejoin="round"/>
	<path d="M1 19.5L4 22.5L7 19.5" stroke="#289548" stroke-width="2" stroke-linecap="round" stroke-linejoin="round"/>
	<path d="M4 22.5L4 19.5C4 16.2345 6.08702 13.4564 9 12.4268" stroke="#289548" stroke-width="2" stroke-linecap="round" stroke-linejoin="round"/>
</svg>
