<svg viewBox="0 0 24 25" fill="none" xmlns="http://www.w3.org/2000/svg">
<path fill-rule="evenodd" clip-rule="evenodd" d="M17.5 23.5001V18.0009H22.9994V19.3757C22.9994 21.6538 21.1531 23.5001 18.8748 23.5001H17.5ZM9.25018 23.5V18.0008H14.7509V23.5H9.25018ZM5.12584 23.5C2.84757 23.5 1 21.6537 1 19.3757V18.0008H6.50067V23.5H5.12584ZM9.25018 15.2492V1.5H18.8754C21.1537 1.5 23 3.34756 23 5.62561V15.2492H9.25018ZM1 15.2491V9.74995H6.50067V15.2491H1ZM1 7.00046V5.62561C1 3.34756 2.84757 1.5 5.12584 1.5H6.50067V7.00046H1Z" fill="currentColor" />
</svg>
