<svg width="22" height="22" viewBox="0 0 22 22" fill="none" xmlns="http://www.w3.org/2000/svg">
<path fill-rule="evenodd" clip-rule="evenodd" d="M15.5859 20.1647V15.582H20.1688V16.7277C20.1688 18.6261 18.6302 20.1647 16.7316 20.1647H15.5859ZM8.71094 20.1647V15.582H13.2948V20.1647H8.71094ZM5.27414 20.1647C3.37558 20.1647 1.83594 18.6261 1.83594 16.7277V15.582H6.41983V20.1647H5.27414ZM8.71094 13.2897V1.83203H16.732C18.6305 1.83203 20.1691 3.37166 20.1691 5.27004V13.2897H8.71094ZM1.83594 13.2897V8.70703H6.41983V13.2897H1.83594ZM1.83594 6.41574V5.27004C1.83594 3.37166 3.37558 1.83203 5.27414 1.83203H6.41983V6.41574H1.83594Z" fill="#192652"/>
<path d="M15.5859 20.1647H14.5859C14.5859 20.717 15.0337 21.1647 15.5859 21.1647V20.1647ZM15.5859 15.582V14.582C15.0337 14.582 14.5859 15.0297 14.5859 15.582H15.5859ZM20.1688 15.582H21.1688C21.1688 15.0297 20.7211 14.582 20.1688 14.582V15.582ZM8.71094 20.1647H7.71094C7.71094 20.717 8.15865 21.1647 8.71094 21.1647V20.1647ZM8.71094 15.582V14.582C8.15865 14.582 7.71094 15.0297 7.71094 15.582H8.71094ZM13.2948 15.582H14.2948C14.2948 15.0297 13.8471 14.582 13.2948 14.582V15.582ZM13.2948 20.1647V21.1647C13.8471 21.1647 14.2948 20.717 14.2948 20.1647H13.2948ZM1.83594 15.582V14.582C1.28365 14.582 0.835938 15.0297 0.835938 15.582H1.83594ZM6.41983 15.582H7.41983C7.41983 15.0297 6.97212 14.582 6.41983 14.582V15.582ZM6.41983 20.1647V21.1647C6.97212 21.1647 7.41983 20.717 7.41983 20.1647H6.41983ZM8.71094 13.2897H7.71094C7.71094 13.842 8.15865 14.2897 8.71094 14.2897V13.2897ZM8.71094 1.83203V0.832031C8.15865 0.832031 7.71094 1.27975 7.71094 1.83203L8.71094 1.83203ZM20.1691 13.2897V14.2897C20.7214 14.2897 21.1691 13.842 21.1691 13.2897H20.1691ZM1.83594 13.2897H0.835938C0.835938 13.842 1.28365 14.2897 1.83594 14.2897L1.83594 13.2897ZM1.83594 8.70703V7.70703C1.28365 7.70703 0.835938 8.15475 0.835938 8.70703H1.83594ZM6.41983 8.70703H7.41983C7.41983 8.15475 6.97212 7.70703 6.41983 7.70703V8.70703ZM6.41983 13.2897V14.2897C6.97212 14.2897 7.41983 13.842 7.41983 13.2897H6.41983ZM1.83594 6.41574H0.835938C0.835938 6.96803 1.28365 7.41574 1.83594 7.41574L1.83594 6.41574ZM6.41983 1.83203H7.41983C7.41983 1.27975 6.97212 0.832031 6.41983 0.832031V1.83203ZM6.41983 6.41574V7.41574C6.97212 7.41574 7.41983 6.96803 7.41983 6.41574H6.41983ZM15.5859 20.1647H16.5859V15.582H15.5859H14.5859V20.1647H15.5859ZM15.5859 15.582V16.582H20.1688V15.582V14.582H15.5859V15.582ZM20.1688 15.582H19.1688V16.7277H20.1688H21.1688V15.582H20.1688ZM20.1688 16.7277H19.1688C19.1688 18.0738 18.0779 19.1647 16.7316 19.1647V20.1647V21.1647C19.1824 21.1647 21.1688 19.1784 21.1688 16.7277H20.1688ZM16.7316 20.1647V19.1647H15.5859V20.1647V21.1647H16.7316V20.1647ZM8.71094 20.1647H9.71094V15.582H8.71094H7.71094V20.1647H8.71094ZM8.71094 15.582V16.582H13.2948V15.582V14.582H8.71094V15.582ZM13.2948 15.582H12.2948V20.1647H13.2948H14.2948V15.582H13.2948ZM13.2948 20.1647V19.1647H8.71094V20.1647V21.1647H13.2948V20.1647ZM5.27414 20.1647V19.1647C3.92743 19.1647 2.83594 18.0734 2.83594 16.7277H1.83594H0.835938C0.835938 19.1788 2.82374 21.1647 5.27414 21.1647V20.1647ZM1.83594 16.7277H2.83594V15.582H1.83594H0.835938V16.7277H1.83594ZM1.83594 15.582V16.582H6.41983V15.582V14.582H1.83594V15.582ZM6.41983 15.582H5.41983V20.1647H6.41983H7.41983V15.582H6.41983ZM6.41983 20.1647V19.1647H5.27414V20.1647V21.1647H6.41983V20.1647ZM8.71094 13.2897H9.71094V1.83203H8.71094H7.71094V13.2897H8.71094ZM8.71094 1.83203V2.83203H16.732V1.83203V0.832031H8.71094V1.83203ZM16.732 1.83203V2.83203C18.0779 2.83203 19.1691 3.92358 19.1691 5.27004H20.1691H21.1691C21.1691 2.81974 19.1832 0.832031 16.732 0.832031V1.83203ZM20.1691 5.27004H19.1691V13.2897H20.1691H21.1691V5.27004H20.1691ZM20.1691 13.2897V12.2897H8.71094V13.2897V14.2897H20.1691V13.2897ZM1.83594 13.2897H2.83594V8.70703H1.83594H0.835938V13.2897H1.83594ZM1.83594 8.70703V9.70703H6.41983V8.70703V7.70703H1.83594V8.70703ZM6.41983 8.70703H5.41983V13.2897H6.41983H7.41983V8.70703H6.41983ZM6.41983 13.2897V12.2897H1.83594V13.2897V14.2897H6.41983V13.2897ZM1.83594 6.41574H2.83594V5.27004H1.83594H0.835938V6.41574H1.83594ZM1.83594 5.27004H2.83594C2.83594 3.92398 3.92783 2.83203 5.27414 2.83203V1.83203V0.832031C2.82334 0.832031 0.835938 2.81934 0.835938 5.27004H1.83594ZM5.27414 1.83203V2.83203H6.41983V1.83203V0.832031H5.27414V1.83203ZM6.41983 1.83203H5.41983V6.41574H6.41983H7.41983V1.83203H6.41983ZM6.41983 6.41574V5.41574H1.83594V6.41574V7.41574H6.41983V6.41574Z" fill="#2079EE"/>
</svg>
