<svg version="1.1" id="list" xmlns="http://www.w3.org/2000/svg" x="0" y="0" viewBox="0 0 20 20" xml:space="preserve"><g fill="none" stroke="currentColor" stroke-width="2" stroke-linecap="round" stroke-linejoin="round"><path d="M17.499 19H9.5A1.505 1.505 0 0 1 8 17.499V16.5C8 15.675 8.675 15 9.501 15H17.5c.826 0 1.501.675 1.501 1.501v.998c0 .826-.675 1.501-1.501 1.501zM3.498 19h-.996A1.506 1.506 0 0 1 1 17.498v-.996C1 15.676 1.676 15 2.502 15h.996C4.324 15 5 15.676 5 16.502v.996C5 18.324 4.324 19 3.498 19zM17.499 5H9.5A1.505 1.505 0 0 1 8 3.499V2.5C8 1.675 8.675 1 9.501 1H17.5C18.325 1 19 1.675 19 2.501V3.5C19 4.325 18.325 5 17.499 5zM3.498 5h-.996A1.506 1.506 0 0 1 1 3.498v-.996C1 1.676 1.676 1 2.502 1h.996C4.324 1 5 1.676 5 2.502v.996C5 4.324 4.324 5 3.498 5z"/><g><path d="M17.499 12H9.5A1.505 1.505 0 0 1 8 10.499V9.5C8 8.675 8.675 8 9.501 8H17.5C18.325 8 19 8.675 19 9.501v.998c0 .826-.675 1.501-1.501 1.501zM3.498 12h-.996A1.506 1.506 0 0 1 1 10.498v-.996C1 8.676 1.676 8 2.502 8h.996C4.324 8 5 8.676 5 9.502v.996C5 11.324 4.324 12 3.498 12z"/></g></g></svg>