<svg version="1.1" id="magnifying-glass-id" xmlns="http://www.w3.org/2000/svg" x="0" y="0" viewBox="0 0 20 20" xml:space="preserve"><g fill="none" stroke="currentColor" stroke-width="2" stroke-linecap="round" stroke-linejoin="round"><path d="M19 17l-3.172-3.172"/><circle cx="13" cy="11" r="4"/></g><path fill="currentColor" d="M4.002 8c-.552 0-1.004-.447-1.004-1s.442-1 .994-1h.01a1 1 0 1 1 0 2zM7.002 8c-.552 0-1.004-.447-1.004-1s.442-1 .994-1h.01a1 1 0 1 1 0 2z"/><path fill="none" stroke="currentColor" stroke-width="2" stroke-linecap="round" stroke-linejoin="round" d="M18 5V4a1 1 0 0 0-1-1H2a1 1 0 0 0-1 1v6a1 1 0 0 0 1 1h4"/></svg>