<svg viewBox="0 0 16 17" fill="none" xmlns="http://www.w3.org/2000/svg">
	<g id="Delete 3" clip-path="url(#clip0_25374_23746)">
		<g id="Group">
			<path id="Vector" d="M1 3.54688H15.1573" stroke="currentColor" stroke-width="1.6" stroke-linecap="round" stroke-linejoin="round"/>
			<path id="Vector_2" d="M9.49561 1.5H6.50685C5.95629 1.5 5.48438 1.97191 5.48438 2.52247V3.54494H10.4394V2.52247C10.4394 1.97191 10.0462 1.5 9.49561 1.5Z" stroke="currentColor" stroke-width="1.6" stroke-linecap="round" stroke-linejoin="round"/>
			<path id="Vector_3" d="M6.50391 11.9629V7.00781" stroke="currentColor" stroke-width="1.6" stroke-linecap="round" stroke-linejoin="round"/>
			<path id="Vector_4" d="M9.49219 8.95896V7.00391" stroke="currentColor" stroke-width="1.6" stroke-linecap="round" stroke-linejoin="round"/>
			<path id="Vector_5" d="M13.2257 6.78717L13.5034 3.54688H2.49219L3.35736 14.5581C3.43601 15.1087 3.82927 15.5019 4.37983 15.5019H6" stroke="currentColor" stroke-width="1.6" stroke-linecap="round" stroke-linejoin="round"/>
		</g>
		<path id="Vector_6" d="M15 9L10.8919 14.7736C10.7838 14.8868 10.6757 15 10.5135 15C10.3514 15 10.1892 14.9434 10.0811 14.8302L9 13.6981" stroke="#DE5846" stroke-width="1.6" stroke-linecap="round" stroke-linejoin="round"/>
	</g>
	<defs>
		<clipPath id="clip0_25374_23746">
			<rect width="16" height="16" fill="white" transform="translate(0 0.5)"/>
		</clipPath>
	</defs>
</svg>
