<svg xmlns="http://www.w3.org/2000/svg" viewBox="0 0 20 20" fill="none">
	<path d="M5.09375 9.18359V10.0017" stroke="currentColor" stroke-width="2" stroke-linecap="round" stroke-linejoin="round"/>
	<path d="M8.20242 5.80351V4.00366C8.19758 2.34895 6.85742 1.00874 5.20277 1.00391V1.00391C3.54794 1.0083 2.20752 2.34876 2.20312 4.00366V5.80351" stroke="currentColor" stroke-width="2" stroke-linecap="round" stroke-linejoin="round"/>
	<path fill-rule="evenodd" clip-rule="evenodd" d="M7 14.2038C7 13.5411 7.5372 13.0039 8.19988 13.0039H17.7987C18.4614 13.0039 18.9986 13.5411 18.9986 14.2038V17.8035C18.9986 18.4662 18.4614 19.0034 17.7987 19.0034H8.19988C7.53721 19.0034 7 18.4662 7 17.8035V14.2038Z" stroke="currentColor" stroke-width="2" stroke-linecap="round" stroke-linejoin="round"/>
	<path d="M14.2031 16.6055H16.6028" stroke="currentColor" stroke-width="2" stroke-linecap="round" stroke-linejoin="round"/>
	<path d="M11.7969 15.4023V16.6022" stroke="currentColor" stroke-width="2" stroke-linecap="round" stroke-linejoin="round"/>
	<path d="M9.39844 15.4023V16.6022" stroke="currentColor" stroke-width="2" stroke-linecap="round" stroke-linejoin="round"/>
	<path d="M9.39901 10.6043V7.00459C9.39901 6.3419 8.86181 5.80469 8.19915 5.80469H2.19986C1.53719 5.80469 1 6.3419 1 7.00459V11.8042C1 12.4669 1.53719 13.0041 2.19986 13.0041H4.59957" stroke="currentColor" stroke-width="2" stroke-linecap="round" stroke-linejoin="round"/>
</svg>
