<svg viewBox="0 0 24 24" fill="none" xmlns="http://www.w3.org/2000/svg">
<g clip-path="url(#clip0_32708_36249)">
<path d="M4.7187 12.2969C5.79271 16.4784 9.06074 20.4957 12.0183 21.27C12.7209 21.454 13.3428 21.4383 13.8683 21.2515L11.4904 22.5487C10.887 22.9128 10.1164 23.0067 9.21198 22.7699C8.7748 22.6555 8.33083 22.4701 7.88817 22.2239C5.33622 20.8044 2.82764 17.3602 1.91239 13.7968C1.09641 10.6198 1.78175 8.26227 3.45512 7.65239L5.9317 6.30208C5.93692 6.29921 5.94215 6.29636 5.94739 6.29353L5.9317 6.30208C4.50123 7.08911 3.95859 9.33751 4.7187 12.2969Z" fill="#5CA4EC"/>
<path d="M13.8677 21.2521C13.3423 21.439 12.7204 21.4546 12.0178 21.2707C9.06022 20.4964 5.79219 16.4791 4.71818 12.2975C3.95531 9.32737 4.50469 7.07338 5.94687 6.29418M13.8677 21.2521L11.4898 22.5494C10.8865 22.9134 10.1159 23.0073 9.21146 22.7706C8.77428 22.6561 8.33032 22.4708 7.88766 22.2246C5.3357 20.805 2.82713 17.3609 1.91187 13.7974C1.09589 10.6205 1.78124 8.26292 3.45461 7.65304L5.94687 6.29418M13.8677 21.2521C15.1073 20.8113 15.8102 19.4175 15.7702 17.4435M5.94687 6.29418C6.42623 6.03519 7.00422 5.93913 7.66544 6.03385" stroke="#235B95" stroke-width="2" stroke-linecap="round"/>
<path d="M10.8379 8.44406C10.6581 7.74585 10.5509 7.08723 10.5108 6.47805M10.6225 14.3508C9.64688 12.9255 8.86255 11.2759 8.43099 9.59998C7.65239 6.57639 8.23532 4.29528 9.73719 3.55644L12.1161 2.41451C12.6965 2.11933 13.4167 2.05727 14.2505 2.27557C17.2121 3.05097 20.486 7.06975 21.563 11.2519C22.6399 15.4341 21.1121 18.1959 18.1504 17.4204C16.735 17.0499 15.2483 15.9385 13.9641 14.4226" stroke="#5CA4EC" stroke-width="2" stroke-linecap="round"/>
<path d="M11.4853 11.7366L10.7487 14.4856L7.99974 13.749" stroke="#5CA4EC" stroke-width="2" stroke-linecap="round" stroke-linejoin="round"/>
</g>
<defs>
<clipPath id="clip0_32708_36249">
<rect width="24" height="24" fill="white"/>
</clipPath>
</defs>
</svg>
