<svg viewBox="0 0 25 24" fill="none" xmlns="http://www.w3.org/2000/svg">
<path d="M22.0626 8.00365L12.8206 2.66773C11.8019 2.07964 10.4995 2.42693 9.90896 3.44411L9.04948 4.92448C10.1631 4.92448 13.5161 4.92031 15.6495 4.92031C17.4668 4.92004 18.1168 5.72876 18.1161 6.58698L18.1161 19.1058L22.8435 10.9178C23.4326 9.89748 23.083 8.59276 22.0626 8.00365Z" fill="#2C4478" stroke="#2C4478" stroke-width="2" stroke-linecap="round" stroke-linejoin="round"/>
<path d="M7.39974 5.11719L17.0664 5.11719C17.6187 5.11719 18.0664 5.5649 18.0664 6.11719L18.0664 19.2005M7.39974 5.11719L3.13307 9.38385M7.39974 5.11719L7.39974 8.38385C7.39974 8.93614 6.95202 9.38385 6.39974 9.38385L3.13307 9.38385M3.13307 21.1172L3.13307 9.38385M3.13307 21.1172L0.999743 21.1172M3.13307 21.1172L16.1997 21.1172" stroke="#9EB3DB" stroke-width="2" stroke-linecap="round"/>
<path d="M13.1379 18.0975L10.3228 15.5814C10.0517 15.3391 9.95727 14.9551 10.0851 14.6147L12.2482 8.85367C12.3264 8.64562 12.5253 8.50781 12.7475 8.50781H16.1913C16.5653 8.50781 16.8232 8.88272 16.6894 9.23195L13.3086 18.0561C13.2819 18.1259 13.1936 18.1472 13.1379 18.0975Z" fill="#9EB3DB"/>
<path d="M9.03196 12.5312H6.08328C5.72863 12.5312 5.51336 12.9224 5.70312 13.222L8.72069 17.9866C8.8032 18.1169 8.94666 18.1958 9.10086 18.1958H11.8907C12.2405 18.1958 12.4565 17.8143 12.2766 17.5143L9.41783 12.7497C9.3365 12.6142 9.19003 12.5312 9.03196 12.5312Z" stroke="#9EB3DB" stroke-width="2" stroke-linecap="round"/>
</svg>
