<svg viewBox="0 0 24 24" fill="none" xmlns="http://www.w3.org/2000/svg">
<path d="M12.444 22.5634H5.3329C3.36922 22.5634 1.77734 20.9715 1.77734 19.0078V6.56337C1.77734 4.59969 3.36922 3.00781 5.3329 3.00781H6.44401" stroke="#454F59" stroke-width="2" stroke-linecap="round" stroke-linejoin="round"/>
<path d="M11.5111 3.79411L15.4312 2.4053C16.2698 2.10819 17.2046 2.32533 17.8264 2.96167L21.9578 7.1897C22.4261 7.66896 22.6603 8.32975 22.5981 8.99694L22.0499 14.8829C21.9674 15.7687 21.3778 16.526 20.5392 16.8231L16.6191 18.2119M11.5111 3.79411C10.6725 4.09122 10.0829 4.84845 10.0004 5.7343L9.45221 11.6202C9.41971 11.9692 9.46825 12.3164 9.58894 12.6368M11.5111 3.79411L8.92027 4.92187C7.47413 5.55136 6.50253 6.93794 6.40455 8.51209L6.13311 12.8728C6.10359 13.1897 6.14091 13.5051 6.2384 13.8003M16.6191 18.2119C15.7805 18.509 14.8457 18.2918 14.2239 17.6555L10.0925 13.4275C9.86911 13.1989 9.69902 12.929 9.58894 12.6368M16.6191 18.2119L13.9665 18.9841C12.4499 19.4256 10.8137 18.9789 9.73192 17.8279L6.77338 14.68C6.5275 14.4284 6.34617 14.1267 6.2384 13.8003M6.2384 13.8003L9.58894 12.6368" stroke="#A4B1BC" stroke-width="2" stroke-linecap="round"/>
<path d="M18.7916 9.05391C19.4672 10.8433 18.717 12.784 17.116 13.3885C16.5897 13.5873 16.0369 13.6169 15.5079 13.5035C14.4279 13.2719 13.4472 12.4443 12.9936 11.2431C12.5491 10.0658 12.7218 8.82305 13.3479 7.9384C13.6734 7.47845 14.1215 7.11531 14.6692 6.90851C16.2703 6.30398 18.1159 7.26451 18.7916 9.05391Z" stroke="#A4B1BC" stroke-width="2" stroke-linecap="round"/>
<path d="M1.77734 16.9036C1.77734 16.1673 2.3743 15.5703 3.11068 15.5703H9.47227C10.2319 15.5703 10.9555 15.8943 11.4614 16.4609L12.6488 17.7908C13.1547 18.3574 13.8783 18.6814 14.638 18.6814H20.2723C20.858 18.6814 21.3329 19.1563 21.3329 19.742C21.3329 21.304 20.0666 22.5703 18.5046 22.5703H5.3329C3.36922 22.5703 1.77734 20.9784 1.77734 19.0148V16.9036Z" fill="#454F59" stroke="#454F59" stroke-width="2" stroke-linecap="round" stroke-linejoin="round"/>
</svg>
