<svg version="1.1" id="money-coin-swap" xmlns="http://www.w3.org/2000/svg" x="0" y="0" viewBox="0 0 20 20" xml:space="preserve"><path d="M14.7 9.648c2.4 0 4.3-2.011 4.3-4.324S17 1 14.7 1c-2.4 0-4.3 2.011-4.3 4.324s1.8 4.324 4.3 4.324h0zM5.4 19c2.4 0 4.4-2.011 4.4-4.425s-2-4.424-4.4-4.424S1 12.162 1 14.575 2.9 19 5.4 19h0zM1 3.916l1.8 3.017 3-1.81M7 1c-2.2.804-4.4 3.52-4.2 5.933M19 16.084l-1.8-3.017-3 1.81M13 19c2.2-.804 4.4-3.52 4.2-5.933" fill="none" stroke="currentColor" stroke-width="2" stroke-linecap="round" stroke-linejoin="round"/></svg>