<svg width="25" height="24" viewBox="0 0 25 24" fill="none" xmlns="http://www.w3.org/2000/svg">
<path d="M16.717 7.76562L11.2493 13.2334C10.9364 13.5454 10.43 13.5454 10.117 13.2334L8.28369 11.403" stroke="currentColor" stroke-width="2" stroke-linecap="round" stroke-linejoin="round"/>
<path fill-rule="evenodd" clip-rule="evenodd" d="M16.1667 22.9602V18.6003C16.1667 16.9803 17.48 15.667 19.1001 15.667H23.46"/>
<path d="M16.1667 22.9602V18.6003C16.1667 16.9803 17.48 15.667 19.1001 15.667H23.46" stroke="currentColor" stroke-width="2" stroke-linecap="round" stroke-linejoin="round"/>
<path fill-rule="evenodd" clip-rule="evenodd" d="M22.6405 17.2595L17.7595 22.1415C17.2091 22.6915 16.4627 23.0004 15.6846 23H4.43333C2.8133 23 1.5 21.6867 1.5 20.0667V3.93333C1.5 2.3133 2.8133 1 4.43333 1H20.5667C22.1867 1 23.5 2.3133 23.5 3.93333V15.1856C23.4998 15.9635 23.1907 16.7095 22.6405 17.2595V17.2595Z" stroke="currentColor" stroke-width="2" stroke-linecap="round" stroke-linejoin="round"/>
</svg>
