<svg version="1.1" id="pencil-ruler" xmlns="http://www.w3.org/2000/svg" x="0" y="0" viewBox="0 0 20 20" xml:space="preserve"><g fill="none" stroke="currentColor" stroke-width="2" stroke-linecap="round" stroke-linejoin="round"><path d="M4.6 19h0c-1.3 0-2.4-1.1-2.4-2.4h0V6.4c0-.4.1-.7.3-1.1l1.6-3.2c.1-.2.2-.4.6-.4.2 0 .4.2.4.4l1.6 3.2c.2.3.3.7.3 1.1v10.2C7 17.9 5.9 19 4.6 19zM2.3 5.8h4.6M2.2 16H7M10.6 2.2c0-.7.6-1.2 1.2-1.2h4.8c.6 0 1.2.5 1.2 1.2h0v15.6c0 .6-.6 1.2-1.2 1.2h0-4.8c-.6 0-1.2-.6-1.2-1.2h0V2.2zM10.6 4.6H13M10.6 8.2H13M10.6 11.8H13M10.6 15.4H13"/></g></svg>