<svg viewBox="0 0 25 24" fill="none" xmlns="http://www.w3.org/2000/svg">
	<g id="Frame 9849">
		<g id="Group">
			<g id="Regular">
				<path id="Oval" fill-rule="evenodd" clip-rule="evenodd" d="M12.5005 14.9337C15.3356 14.9337 17.6339 12.6354 17.6339 9.80033C17.6339 6.96526 15.3356 4.66699 12.5005 4.66699C9.66546 4.66699 7.36719 6.96526 7.36719 9.80033C7.36719 12.6354 9.66546 14.9337 12.5005 14.9337Z" fill="#1A486B" stroke="#0D7ED6" stroke-width="2" stroke-linecap="round" stroke-linejoin="round"/>
				<path id="Shape" d="M19.2609 20.6784C17.4721 18.8784 15.0393 17.8662 12.5016 17.8662C9.96387 17.8662 7.53099 18.8784 5.74219 20.6784" stroke="#0D7ED6" stroke-width="2" stroke-linecap="round" stroke-linejoin="round"/>
				<path id="Oval_2" fill-rule="evenodd" clip-rule="evenodd" d="M12.5 23C18.5751 23 23.5 18.0751 23.5 12C23.5 5.92487 18.5751 1 12.5 1C6.42487 1 1.5 5.92487 1.5 12C1.5 18.0751 6.42487 23 12.5 23Z" stroke="#0D7ED6" stroke-width="2" stroke-linecap="round" stroke-linejoin="round"/>
			</g>
		</g>
	</g>
</svg>
