<svg viewBox="0 0 24 24" fill="none" xmlns="http://www.w3.org/2000/svg">
<g id="Frame 9849">
<g id="Group">
<g id="Regular">
<path id="Oval" fill-rule="evenodd" clip-rule="evenodd" d="M12.0005 14.9337C14.8356 14.9337 17.1339 12.6354 17.1339 9.80033C17.1339 6.96526 14.8356 4.66699 12.0005 4.66699C9.16546 4.66699 6.86719 6.96526 6.86719 9.80033C6.86719 12.6354 9.16546 14.9337 12.0005 14.9337Z" fill="#E6EFF9" stroke="#235B95" stroke-width="2" stroke-linecap="round" stroke-linejoin="round"/>
<path id="Shape" d="M18.7609 20.6784C16.9721 18.8784 14.5393 17.8662 12.0016 17.8662C9.46387 17.8662 7.03099 18.8784 5.24219 20.6784" stroke="#235B95" stroke-width="2" stroke-linecap="round" stroke-linejoin="round"/>
<path id="Oval_2" fill-rule="evenodd" clip-rule="evenodd" d="M12 23C18.0751 23 23 18.0751 23 12C23 5.92487 18.0751 1 12 1C5.92487 1 1 5.92487 1 12C1 18.0751 5.92487 23 12 23Z" stroke="#235B95" stroke-width="2" stroke-linecap="round" stroke-linejoin="round"/>
</g>
</g>
</g>
</svg>
