<svg width="25" height="24" viewBox="0 0 25 24" fill="none" xmlns="http://www.w3.org/2000/svg">
<path fill-rule="evenodd" clip-rule="evenodd" d="M12.5005 14.9346C15.3356 14.9346 17.6339 12.6364 17.6339 9.8013C17.6339 6.96624 15.3356 4.66797 12.5005 4.66797C9.66546 4.66797 7.36719 6.96624 7.36719 9.8013C7.36719 12.6364 9.66546 14.9346 12.5005 14.9346Z" fill="#26372B" stroke="#289548" stroke-width="2" stroke-linecap="round" stroke-linejoin="round"/>
<path d="M19.2609 20.6794C17.4721 18.8794 15.0393 17.8672 12.5016 17.8672C9.96387 17.8672 7.53099 18.8794 5.74219 20.6794" stroke="#289548" stroke-width="2" stroke-linecap="round" stroke-linejoin="round"/>
<path fill-rule="evenodd" clip-rule="evenodd" d="M12.5 23C18.5751 23 23.5 18.0751 23.5 12C23.5 5.92487 18.5751 1 12.5 1C6.42487 1 1.5 5.92487 1.5 12C1.5 18.0751 6.42487 23 12.5 23Z" stroke="#289548" stroke-width="2" stroke-linecap="round" stroke-linejoin="round"/>
</svg>
