<svg viewBox="0 0 60 60" fill="none" xmlns="http://www.w3.org/2000/svg"><circle cx="30" cy="30" r="30" fill="#8247E5"/><path fill-rule="evenodd" clip-rule="evenodd" d="M20.029 13.252a2 2 0 0 1 1.942 0l9 5A2 2 0 0 1 32 20v3.252L28 25.5v-4.323l-7-3.89-7 3.89v7.646l7 3.89 17.029-9.461a2 2 0 0 1 1.942 0l9 5A2 2 0 0 1 50 30v10a2 2 0 0 1-1.029 1.748l-9 5a2 2 0 0 1-1.942 0l-9-5A2 2 0 0 1 28 40v-3.252l4-2.248v4.323l7 3.89 7-3.89v-7.646l-7-3.89-17.029 9.461a2 2 0 0 1-1.942 0l-9-5A2 2 0 0 1 10 30V20a2 2 0 0 1 1.029-1.748l9-5z" fill="#fff"/></svg>