<svg viewBox="0 0 20 20" fill="none" xmlns="http://www.w3.org/2000/svg">
	<g id="key" clip-path="url(#clip0_25478_23376)">
		<g id="Group 2222">
			<g id="Group">
				<g id="login-key-1">
					<path id="Shape" d="M9.0022 11.9219L11.7026 9.22469L13.5404 11.0681M15.5694 10.5239C15.6815 10.1053 15.5617 9.65877 15.2552 9.35244V9.35001L13.4143 7.51064L15.1291 5.79498L16.9701 7.63596C17.446 8.09557 18.2024 8.089 18.6702 7.62119C19.138 7.15338 19.1446 6.39697 18.685 5.92111L16.8448 4.07931L17.7018 3.22552C18.1765 2.7522 18.1775 1.98371 17.7042 1.50905C17.2309 1.03439 16.4624 1.0333 15.9878 1.50663L7.28653 10.207C5.43267 9.20548 3.12471 9.7158 1.86594 11.4056C0.607174 13.0954 0.77885 15.4528 2.26915 16.9424C3.40548 18.0782 5.046 18.4472 6.51001 18" stroke="currentColor" stroke-width="2" stroke-linecap="round" stroke-linejoin="round"/>
					<path id="Oval" fill-rule="evenodd" clip-rule="evenodd" d="M5.2767 15.4489C6.11395 15.4489 6.79267 14.7702 6.79267 13.933C6.79267 13.0957 6.11395 12.417 5.2767 12.417C4.43946 12.417 3.76074 13.0957 3.76074 13.933C3.76074 14.7702 4.43946 15.4489 5.2767 15.4489Z" stroke="currentColor" stroke-width="2" stroke-linecap="round" stroke-linejoin="round"/>
				</g>
			</g>
			<g id="Group 2221">
				<path id="Shape_2" fill-rule="evenodd" clip-rule="evenodd" d="M9.72168 16.1959C9.72168 16.1959 11.519 13.5 14.2149 13.5C16.9108 13.5 18.7081 16.1959 18.7081 16.1959C18.7081 16.1959 16.9108 18.8918 14.2149 18.8918C11.519 18.8918 9.72168 16.1959 9.72168 16.1959Z" stroke="currentColor" stroke-width="2" stroke-linecap="round" stroke-linejoin="round"/>
				<path id="Rectangle-path" d="M13.584 16.735C13.99 17.0127 14.5442 16.9086 14.8219 16.5025C15.0995 16.0965 14.9954 15.5423 14.5894 15.2646" stroke="currentColor" stroke-width="2" stroke-linecap="round" stroke-linejoin="round"/>
			</g>
		</g>
	</g>
	<defs>
		<clipPath id="clip0_25478_23376">
			<rect width="20" height="20" fill="transparent" transform="translate(20 20) rotate(-180)"/>
		</clipPath>
	</defs>
</svg>
