<svg version="1.1" id="qr-code" xmlns="http://www.w3.org/2000/svg" x="0" y="0" viewBox="0 0 20 20" xml:space="preserve"><g fill="none" stroke="currentColor" stroke-width="2" stroke-linecap="round" stroke-linejoin="round"><path d="M1.05 10.65v1.2h1.2M1.05 1.05h4.5v4.5h-4.5zM14.25 1.05h4.8v4.8h-4.8zM1.05 14.25h4.8v4.8h-4.8zM10.75 1.05h1.1M8.25 1.05v2.3h1.4M11.85 3.35v2.4h-3.6M1.05 8.25h4.8v1.2M4.65 11.75h1.1M19.05 19.05h-2.4v-2.4h2.4v-2.4h-2.4M11.85 19.05h-3.6v-4.8M14.25 14.25v4.8M10.65 14.25h1.2v2.4h-1.2M8.25 10.65v1.2h1.2M11.85 11.75h2.4M13.05 11.75v-2.4M8.25 8.25h2.4v1.2M19.05 8.25v1.1M19.05 11.75h0M15.35 8.25v1.2h1.2v1.8"/></g></svg>