<svg xmlns="http://www.w3.org/2000/svg" viewBox="0 0 20 20" fill="none">
	<path d="M9.13672 10.2031L12.2701 13.2181C12.3404 13.2858 12.3418 13.3979 12.2732 13.4673L10.7725 14.9854C10.704 15.0547 10.7053 15.1666 10.7754 15.2343L12.2735 16.6809C12.3424 16.7474 12.4521 16.7462 12.5195 16.678L14.0233 15.1567C14.0918 15.0874 14.2037 15.0874 14.2722 15.1567L14.8187 15.7096C14.8872 15.7788 14.9991 15.7788 15.0676 15.7096L16.5703 14.1895C16.6382 14.1208 16.6377 14.0102 16.5692 13.9422L12.3979 9.80078" stroke="currentColor" stroke-width="1.6" stroke-linecap="round"/>
	<path d="M6.67235 10.847C8.86881 10.847 10.6494 9.0458 10.6494 6.82389C10.6494 4.60199 8.86881 2.80078 6.67235 2.80078C4.47589 2.80078 2.69531 4.60199 2.69531 6.82389C2.69531 9.0458 4.47589 10.847 6.67235 10.847Z" stroke="currentColor" stroke-width="1.6" stroke-linecap="round"/>
</svg>
