<svg xmlns="http://www.w3.org/2000/svg" viewBox="0 0 20 20" fill="none">
	<path d="M2.8 10.1969H2.2C1.53726 10.1969 1 9.65962 1 8.99687V2.99687C1 2.33413 1.53726 1.79688 2.2 1.79688H10.6" stroke="currentColor" stroke-width="2" stroke-linecap="round" stroke-linejoin="round"/>
	<path d="M4.59813 18.5969L2.38693 16.1089C2.08508 15.7772 1.98481 15.3089 2.12441 14.8827C2.26401 14.4566 2.62193 14.1383 3.06151 14.0495C3.50108 13.9607 3.95446 14.1151 4.24853 14.4537L5.79813 16.1969V8.99688C5.79813 8.33413 6.33539 7.79688 6.99813 7.79688C7.66087 7.79688 8.19813 8.33413 8.19813 8.99688V14.3969H9.39813C11.3864 14.3969 12.9981 16.0086 12.9981 17.9969V18.5969" stroke="currentColor" stroke-width="2" stroke-linecap="round" stroke-linejoin="round"/>
	<path fill-rule="evenodd" clip-rule="evenodd" d="M11.7969 6.59844C11.7969 5.9357 12.3341 5.39844 12.9969 5.39844H17.7969C18.4596 5.39844 18.9969 5.9357 18.9969 6.59844V10.1984C18.9969 10.8612 18.4596 11.3984 17.7969 11.3984H12.9969C12.3341 11.3984 11.7969 10.8612 11.7969 10.1984V6.59844Z" stroke="currentColor" stroke-width="2" stroke-linecap="round" stroke-linejoin="round"/>
	<path fill-rule="evenodd" clip-rule="evenodd" d="M15.4 1.79688V1.79688C14.0745 1.79687 13 2.87139 13 4.19687V5.39687H17.8V4.19687C17.8 2.87139 16.7255 1.79688 15.4 1.79688Z" stroke="currentColor" stroke-width="2" stroke-linecap="round" stroke-linejoin="round"/>
	<path d="M15.4016 8.11719C15.5672 8.11719 15.7016 8.2515 15.7016 8.41719C15.7016 8.58287 15.5672 8.71719 15.4016 8.71719C15.2359 8.71719 15.1016 8.58287 15.1016 8.41719C15.1016 8.2515 15.2359 8.11719 15.4016 8.11719" stroke="currentColor" stroke-width="2" stroke-linecap="round" stroke-linejoin="round"/>
</svg>
