<svg viewBox="0 0 24 24" fill="none" xmlns="http://www.w3.org/2000/svg">
	<path d="M14 1.50781C9.02944 1.50781 5 5.53725 5 10.5078L9.5 10.5C9.5 10.8333 9.6 11.8 10 13C10.5 14.5 11 15.2538 13 15.2538H21.6484C22.5052 13.876 23 12.2497 23 10.5078C23 5.53725 18.9706 1.50781 14 1.50781Z" fill="#E2F0E6"/>
	<path d="M5 10.5078C5 5.53725 9.02944 1.50781 14 1.50781C18.9706 1.50781 23 5.53725 23 10.5078C23 13.6332 21.4069 16.3865 18.9884 18" stroke="#289548" stroke-width="2" stroke-linecap="round" stroke-linejoin="round"/>
	<path d="M11.7969 1.78125C10.5969 3.58125 9.79688 6.90439 9.79688 10.5044C9.79688 11.2643 9.83252 12.0125 9.90006 12.7369" stroke="#289548" stroke-width="2" stroke-linecap="round" stroke-linejoin="round"/>
	<path d="M5 10.5078H23" stroke="#289548" stroke-width="2" stroke-linecap="round" stroke-linejoin="round"/>
	<path d="M12.5 15.2031H21.6816" stroke="#289548" stroke-width="2" stroke-linecap="round" stroke-linejoin="round"/>
	<path d="M6.45312 5.60938H21.5539" stroke="#289548" stroke-width="2" stroke-linecap="round" stroke-linejoin="round"/>
	<path d="M16.2031 1.78125C17.4031 3.58125 18.1031 6.81041 18.1031 10.5104C18.1031 12.9777 17.7919 15.2356 17.2286 17" stroke="#289548" stroke-width="2" stroke-linecap="round" stroke-linejoin="round"/>
	<path d="M9.25 16.2188H1.75" stroke="#289548" stroke-width="2" stroke-linecap="round" stroke-linejoin="round"/>
	<path d="M4.16667 18.6146L1.75 16.1979L4.16667 13.7812" stroke="#289548" stroke-width="2" stroke-linecap="round" stroke-linejoin="round"/>
	<path d="M8.75 20.1797L16.25 20.1797" stroke="#289548" stroke-width="2" stroke-linecap="round" stroke-linejoin="round"/>
	<path d="M13.8333 17.7839L16.25 20.2005L13.8333 22.6172" stroke="#289548" stroke-width="2" stroke-linecap="round" stroke-linejoin="round"/>
</svg>

