<svg x="0" y="0" viewBox="0 0 21 21" fill="none" xmlns="http://www.w3.org/2000/svg"><g clip-path="url(#clip0_6059_157627)" stroke="currentColor" stroke-width="2" stroke-linecap="round" stroke-linejoin="round"><path d="M4.389 7.064a.283.283 0 1 0 0 .567.283.283 0 0 0 0-.567v0m0 6.801a.283.283 0 1 0 0 .567.283.283 0 0 0 0-.567v0"/><path d="M15.155 3.95a3.4 3.4 0 1 1 0 6.8h-10.2a3.4 3.4 0 1 1 0-6.8h10.2zm0 6.8a3.4 3.4 0 1 1 0 6.8h-10.2a3.4 3.4 0 1 1 0-6.8h10.2zm-6.233-3.4h6.233m-6.233 6.798h6.233"/></g><defs><clipPath id="clip0_6059_157627"><path fill="#fff" transform="translate(.055 .95)" d="M0 0h20v20H0z"/></clipPath></defs></svg>