<svg version="1.1" viewBox="0 0 20 21" x="0" y="0" fill="none" xmlns="http://www.w3.org/2000/svg" xml:space="preserve"><path d="M5.678 15.416a.276.276 0 1 0 0 .552.276.276 0 0 0 0-.552v0" stroke="currentColor" stroke-width="2" stroke-linecap="round" stroke-linejoin="round"/><path clip-rule="evenodd" d="M15.241 12.38a3.31 3.31 0 1 1 0 6.621h-9.93a3.31 3.31 0 1 1 0-6.62h9.93z" stroke="currentColor" stroke-width="2" stroke-linecap="round" stroke-linejoin="round"/><path d="M9.172 15.69h6.069" stroke="currentColor" stroke-width="2" stroke-linecap="round" stroke-linejoin="round"/><path clip-rule="evenodd" d="M13.6 9.276c1.294 0 2.429-.824 2.777-2.016.348-1.192-.176-2.46-1.282-3.101a2.98 2.98 0 0 0-3.465.348c-.351-2.178-2.423-3.71-4.713-3.485-2.29.224-3.994 2.127-3.876 4.327.117 2.2 2.015 3.927 4.317 3.927H13.6z" stroke="currentColor" stroke-width="2" stroke-linecap="round" stroke-linejoin="round"/></svg>