<svg width="54" height="55" viewBox="0 0 54 55" fill="none" xmlns="http://www.w3.org/2000/svg">
<path d="M28 53.1562H12C7.58172 53.1562 4 49.5745 4 45.1562V17.1563C4 12.738 7.58172 9.15625 12 9.15625V9.15625H16.5" stroke="#355594" stroke-width="2" stroke-linecap="round" stroke-linejoin="round"/>
<path d="M24.0342 5.80989L33.9436 2.29914C36.0635 1.54809 38.4267 2.097 39.9985 3.70558L50.4422 14.3935C51.626 15.605 52.2178 17.2755 52.0607 18.962L50.675 33.841C50.4664 36.0803 48.9759 37.9945 46.856 38.7456L36.9465 42.2563M24.0342 5.80989C21.9143 6.56095 20.4238 8.47513 20.2152 10.7145L18.8294 25.5934M24.0342 5.80989L17.1383 8.81155C13.6953 10.3102 11.382 13.6115 11.1488 17.3593L10.4391 28.7598C10.282 30.4463 10.8738 32.1168 12.0577 33.3283M20.448 30.1619L30.8917 40.8499C32.4635 42.4585 34.8266 43.0074 36.9465 42.2563M20.448 30.1619C19.2641 28.9504 18.6723 27.28 18.8294 25.5934M20.448 30.1619L12.0577 33.3283M18.8294 25.5934L14.6343 27.1766M36.9465 42.2563L29.8777 44.3142C26.2667 45.3655 22.3714 44.3018 19.7957 41.5614L12.0577 33.3283" stroke="#9EB3DB" stroke-width="2" stroke-linecap="round"/>
<path d="M40.1049 33.1215C45.4262 31.1123 47.9195 24.6623 45.6739 18.715C43.4283 12.7677 37.2941 9.57527 31.9728 11.5845C30.1526 12.2718 28.6632 13.4788 27.5813 15.0075C31.1709 15.777 34.4304 18.5278 35.9378 22.52C37.4153 26.4328 36.8414 30.5633 34.7604 33.5036C36.5184 33.8804 38.3556 33.7821 40.1049 33.1215Z" fill="#355594"/>
<path d="M34.7762 33.4881C36.8572 30.5479 37.431 26.4174 35.9536 22.5045C34.4462 18.5123 31.1867 15.7615 27.5971 14.992M34.7762 33.4881C36.5342 33.865 38.3714 33.7666 40.1207 33.1061C45.442 31.0968 47.9353 24.6468 45.6897 18.6995C43.444 12.7522 37.3099 9.55981 31.9886 11.569C30.1684 12.2563 28.679 13.4633 27.5971 14.992M34.7762 33.4881C31.1866 32.7186 27.9271 29.9678 26.4197 25.9756C24.9422 22.0627 25.5161 17.9322 27.5971 14.992" stroke="#9EB3DB" stroke-width="2" stroke-linecap="round"/>
<path d="M4 38.1563C4 36.4994 5.34315 35.1562 7 35.1562H26.3474C27.739 35.1562 29.0874 35.64 30.1617 36.5247L35.3383 40.7878C36.4126 41.6725 37.761 42.1562 39.1526 42.1562H45C46.6569 42.1562 48 43.4994 48 45.1562C48 49.5745 44.4183 53.1562 40 53.1562H12C7.58172 53.1562 4 49.5745 4 45.1562V38.1563Z" fill="#355594" stroke="#355594" stroke-width="2" stroke-linecap="round" stroke-linejoin="round"/>
</svg>
