<svg width="55" height="57" viewBox="0 0 55 57" fill="none" xmlns="http://www.w3.org/2000/svg">
<path d="M25 55.1562H9C4.58172 55.1562 1 51.5745 1 47.1562V19.1563C1 14.738 4.58172 11.1562 9 11.1562V11.1562H13.5" stroke="#505D6A" stroke-width="2" stroke-linecap="round" stroke-linejoin="round"/>
<path d="M21.0342 7.80989L30.9436 4.29914C33.0635 3.54809 35.4267 4.097 36.9985 5.70558L47.4422 16.3935C48.626 17.605 49.2178 19.2755 49.0607 20.962L47.675 35.841C47.4664 38.0803 45.9759 39.9945 43.856 40.7456L33.9465 44.2563M21.0342 7.80989C18.9143 8.56095 17.4238 10.4751 17.2152 12.7145L15.8294 27.5934M21.0342 7.80989L14.1383 10.8115C10.6953 12.3102 8.38205 15.6115 8.14876 19.3593L7.43912 30.7598C7.28204 32.4463 7.87384 34.1168 9.05766 35.3283M17.448 32.1619L27.8917 42.8499C29.4635 44.4585 31.8266 45.0074 33.9465 44.2563M17.448 32.1619C16.2641 30.9504 15.6723 29.28 15.8294 27.5934M17.448 32.1619L9.05766 35.3283M15.8294 27.5934L11.6343 29.1766M33.9465 44.2563L26.8777 46.3142C23.2667 47.3655 19.3714 46.3018 16.7957 43.5614L9.05766 35.3283" stroke="#A4B1BC" stroke-width="2" stroke-linecap="round"/>
<path d="M37.1049 35.1215C42.4262 33.1123 44.9195 26.6623 42.6739 20.715C40.4283 14.7677 34.2941 11.5753 28.9728 13.5845C27.1526 14.2718 25.6632 15.4788 24.5813 17.0075C28.1709 17.777 31.4304 20.5278 32.9378 24.52C34.4153 28.4328 33.8414 32.5633 31.7604 35.5036C33.5184 35.8804 35.3556 35.7821 37.1049 35.1215Z" fill="#505D6A"/>
<path d="M31.7762 35.4881C33.8572 32.5479 34.431 28.4174 32.9536 24.5045C31.4462 20.5123 28.1867 17.7615 24.5971 16.992M31.7762 35.4881C33.5342 35.865 35.3714 35.7666 37.1207 35.1061C42.442 33.0968 44.9353 26.6468 42.6897 20.6995C40.444 14.7522 34.3099 11.5598 28.9886 13.569C27.1684 14.2563 25.679 15.4633 24.5971 16.992M31.7762 35.4881C28.1866 34.7186 24.9271 31.9678 23.4197 27.9756C21.9422 24.0627 22.5161 19.9322 24.5971 16.992" stroke="#A4B1BC" stroke-width="2" stroke-linecap="round"/>
<path d="M1 40.1563C1 38.4994 2.34315 37.1562 4 37.1562H23.3474C24.739 37.1562 26.0874 37.64 27.1617 38.5247L32.3383 42.7878C33.4126 43.6725 34.761 44.1562 36.1526 44.1562H42C43.6569 44.1562 45 45.4994 45 47.1562C45 51.5745 41.4183 55.1562 37 55.1562H9C4.58172 55.1562 1 51.5745 1 47.1562V40.1563Z" fill="#505D6A" stroke="#505D6A" stroke-width="2" stroke-linecap="round" stroke-linejoin="round"/>
</svg>
