<?xml version="1.0" encoding="utf-8"?>
<svg version="1.1" id="shield-check-mark" xmlns="http://www.w3.org/2000/svg" xmlns:xlink="http://www.w3.org/1999/xlink" x="0px"
	 y="0px" viewBox="0 0 20 20" enable-background="new 0 0 20 20" xml:space="preserve">
<g>
	<path fill="none" stroke="currentColor" stroke-width="2" stroke-linecap="round" stroke-linejoin="round" d="M3,3.52851V9.637
		c0,3.90542,1.82192,7.51043,5.36986,8.91238l0.76712,0.30042c0.57534,0.20028,1.15068,0.20028,1.72603,0l0.76712-0.30042
		C15.27397,17.14743,17,13.64256,17,9.637V3.52851c0-0.5007-0.28767-0.90125-0.67123-1.10153
		c-4.0274-1.90264-8.63014-1.90264-12.75342,0C3.19178,2.62726,3,3.12796,3,3.52851z"/>
	<g>
		<path fill="none" stroke="currentColor" stroke-width="2" stroke-linecap="round" stroke-linejoin="round" d="M13,7l-4.16667,5.7432
			c-0.16667,0.25338-0.5,0.33784-0.75,0.16891c0,0,0,0-0.08333-0.08446l-1-1.18242"/>
	</g>
</g>
</svg>
