<svg width="18" height="20" viewBox="0 0 18 20" fill="none" xmlns="http://www.w3.org/2000/svg">
<path fill-rule="evenodd" clip-rule="evenodd" d="M15.7338 7.03747H11.4374C10.8442 7.03747 10.3633 6.55658 10.3633 5.96337V1.66699" fill="#192652"/>
<path d="M15.7338 7.03747H11.4374C10.8442 7.03747 10.3633 6.55658 10.3633 5.96337V1.66699" stroke="#4082F1" stroke-width="2" stroke-linecap="round" stroke-linejoin="round"/>
<path d="M6.65848 17.7784H2.84363C2.25042 17.7784 1.76953 17.2975 1.76953 16.7043V2.74109C1.76953 2.14788 2.25042 1.66699 2.84363 1.66699H10.4547C10.7396 1.66686 11.0129 1.77994 11.2144 1.98134L15.4184 6.18607C15.6196 6.38742 15.7327 6.66043 15.7328 6.94509" stroke="#4082F1" stroke-width="2" stroke-linecap="round" stroke-linejoin="round"/>
<path fill-rule="evenodd" clip-rule="evenodd" d="M7.524 13.91C7.2633 13.8365 7.08098 13.6016 7.0744 13.3308C7.06783 13.06 7.23853 12.8165 7.49535 12.7304L15.829 10.0124C15.9403 9.97615 16.0626 10.0053 16.1456 10.0878C16.2286 10.1704 16.2583 10.2925 16.2226 10.404L13.5068 18.7418C13.421 18.9991 13.1773 19.1702 12.9062 19.1635C12.6351 19.1569 12.4001 18.9739 12.3271 18.7127L11.3946 14.8384L7.524 13.91Z" fill="#192652" stroke="#4082F1" stroke-width="2" stroke-linecap="round" stroke-linejoin="round"/>
</svg>
