<svg width="18" height="20" viewBox="0 0 18 20" fill="none" xmlns="http://www.w3.org/2000/svg">
<path fill-rule="evenodd" clip-rule="evenodd" d="M15.7298 7.03844H11.4335C10.8403 7.03844 10.3594 6.55755 10.3594 5.96435V1.66797" fill="#E6EFF9"/>
<path d="M15.7298 7.03844H11.4335C10.8403 7.03844 10.3594 6.55755 10.3594 5.96435V1.66797" stroke="#235B95" stroke-width="2" stroke-linecap="round" stroke-linejoin="round"/>
<path d="M6.65458 17.7794H2.83972C2.24651 17.7794 1.76562 17.2985 1.76562 16.7053V2.74206C1.76562 2.14886 2.24651 1.66797 2.83972 1.66797H10.4508C10.7357 1.66784 11.009 1.78092 11.2105 1.98232L15.4145 6.18704C15.6157 6.3884 15.7288 6.6614 15.7289 6.94607" stroke="#235B95" stroke-width="2" stroke-linecap="round" stroke-linejoin="round"/>
<path fill-rule="evenodd" clip-rule="evenodd" d="M7.5201 13.9129C7.25939 13.8394 7.07707 13.6045 7.0705 13.3337C7.06392 13.0629 7.23462 12.8194 7.49145 12.7333L15.8251 10.0154C15.9364 9.97908 16.0587 10.0082 16.1417 10.0908C16.2247 10.1733 16.2544 10.2954 16.2187 10.4069L13.5028 18.7447C13.4171 19.002 13.1734 19.1732 12.9023 19.1665C12.6312 19.1598 12.3962 18.9769 12.3232 18.7157L11.3907 14.8413L7.5201 13.9129Z" fill="#E6EFF9" stroke="#235B95" stroke-width="2" stroke-linecap="round" stroke-linejoin="round"/>
</svg>
