<svg width="54" height="54" viewBox="0 0 54 54" fill="none" xmlns="http://www.w3.org/2000/svg">
<path d="M28 52.6562H12C7.58172 52.6562 4 49.0745 4 44.6562V16.6563C4 12.238 7.58172 8.65625 12 8.65625H14.5" stroke="#355594" stroke-width="2" stroke-linecap="round" stroke-linejoin="round"/>
<path d="M4 37.6563C4 35.9994 5.34315 34.6562 7 34.6562H26.3474C27.739 34.6562 29.0874 35.14 30.1617 36.0247L35.3383 40.2878C36.4126 41.1725 37.761 41.6562 39.1526 41.6562H45C46.6569 41.6562 48 42.9994 48 44.6562C48 49.0745 44.4183 52.6562 40 52.6562H12C7.58172 52.6562 4 49.0745 4 44.6562V37.6563Z" fill="#355594" stroke="#355594" stroke-width="2" stroke-linecap="round" stroke-linejoin="round"/>
<path d="M51.6761 30.7825C48.5755 40.9243 37.5705 47.801 27.0958 46.1419C21.7594 45.2967 17.5901 42.3991 15.1938 38.4186C18.3835 40.9931 27.4629 45.013 38.2629 40.4971C49.0629 35.9812 50.9105 23.2154 50.4843 17.397C52.821 21.2391 53.2051 25.7815 51.6761 30.7825Z" fill="#9EB3DB"/>
<path d="M50.4843 17.397C52.821 21.2391 53.2051 25.7815 51.6761 30.7825C50.8886 33.3583 49.5912 35.7235 47.9221 37.7918L45.2627 35.2382C49.9049 29.5059 50.7937 21.6209 50.4843 17.397Z" fill="#283C64"/>
<path d="M32.7627 42.1391C34.5282 41.8184 36.3691 41.289 38.2629 40.4971C39.1562 40.1236 39.9882 39.6937 40.7627 39.2159L43.2763 42.1391C40.7237 43.9442 37.8114 45.2452 34.7627 45.9025L32.7627 42.1391Z" fill="#283C64"/>
<path d="M12.7534 34.6488L15.1926 38.4216C17.5889 42.402 21.7582 45.2997 27.0946 46.1449C28.1478 46.3117 29.2064 46.3922 30.2617 46.3918C31.9483 46.3911 33.6266 46.1837 35.2617 45.7915M46.1747 11.4724C46.1747 11.4724 48.1465 13.5579 50.4831 17.4C52.8197 21.242 53.2039 25.7844 51.6749 30.7854C50.8612 33.4469 49.5032 35.8835 47.7532 38M43.2617 42.1515L40.7617 39M43.2617 42.1515C44.9338 40.9708 46.4519 39.5739 47.7532 38M43.2617 42.1515C40.8524 43.8528 38.1232 45.1052 35.2617 45.7915M47.7532 38L45.7617 35.5M35.2617 45.7915L33.2617 43" stroke="#9EB3DB" stroke-width="2" stroke-linecap="round"/>
<circle cx="19.2025" cy="19.2025" r="19.2025" transform="matrix(-0.987688 -0.156434 -0.292372 0.956305 55.1328 9.17188)" fill="#171F34" stroke="#9EB3DB" stroke-width="2" stroke-linecap="round"/>
<circle cx="14.8133" cy="14.8133" r="14.8133" transform="matrix(-0.987688 -0.156434 -0.292372 0.956305 49.5176 12.6953)" stroke="#283C64" stroke-width="2" stroke-linecap="round" stroke-linejoin="round"/>
</svg>
