<svg viewBox="0 0 20 21" fill="none" xmlns="http://www.w3.org/2000/svg">
    <path d="M1 15.0013C1.00124 13.188 1.91209 11.4962 3.42519 10.4969C4.93829 9.49766 6.8518 9.32411 8.52 10.0349"
        stroke="currentColor" stroke-width="2" stroke-linecap="round" stroke-linejoin="round" />
    <path fill-rule="evenodd" clip-rule="evenodd"
        d="M6.40156 8.40078C8.2241 8.40078 9.70156 6.92332 9.70156 5.10078C9.70156 3.27824 8.2241 1.80078 6.40156 1.80078C4.57902 1.80078 3.10156 3.27824 3.10156 5.10078C3.10156 6.92332 4.57902 8.40078 6.40156 8.40078Z"
        stroke="currentColor" stroke-width="2" stroke-linecap="round" stroke-linejoin="round" />
    <path
        d="M18.9984 15.0012C18.9984 17.6521 16.8494 19.8012 14.1984 19.8012C11.5475 19.8012 9.39844 17.6521 9.39844 15.0012C9.39844 12.3502 11.5475 10.2012 14.1984 10.2012"
        stroke="currentColor" stroke-width="2" stroke-linecap="round" stroke-linejoin="round" />
    <path
        d="M18.9984 11.4004L14.6224 15.7764C14.51 15.8889 14.3575 15.9522 14.1984 15.9522C14.0394 15.9522 13.8868 15.8889 13.7744 15.7764L12.3984 14.4012"
        stroke="currentColor" stroke-width="2" stroke-linecap="round" stroke-linejoin="round" />
</svg>