<svg viewBox="0 0 24 24" fill="none" xmlns="http://www.w3.org/2000/svg">
	<path d="M6 11V12" stroke="#289548" stroke-width="2" stroke-linecap="round" stroke-linejoin="round"/>
	<path d="M9.80208 6.86667V4.66667C9.79618 2.64407 8.15801 1.00591 6.13542 1V1C4.1126 1.00537 2.47412 2.64385 2.46875 4.66667V6.86667" stroke="#289548" stroke-width="2" stroke-linecap="round" stroke-linejoin="round"/>
	<path fill-rule="evenodd" clip-rule="evenodd" d="M8.33594 17.1307C8.33594 16.3207 8.99259 15.6641 9.8026 15.6641H21.5359C22.346 15.6641 23.0026 16.3207 23.0026 17.1307V21.5307C23.0026 22.3407 22.346 22.9974 21.5359 22.9974H9.8026C8.99259 22.9974 8.33594 22.3407 8.33594 21.5307V17.1307Z" fill="#E2F0E6" stroke="#289548" stroke-width="2" stroke-linecap="round" stroke-linejoin="round"/>
	<path d="M17.1328 20.0625H20.0661" stroke="#289548" stroke-width="2" stroke-linecap="round" stroke-linejoin="round"/>
	<path d="M14.2031 18.6016V20.0682" stroke="#289548" stroke-width="2" stroke-linecap="round" stroke-linejoin="round"/>
	<path d="M11.2656 18.6016V20.0682" stroke="#289548" stroke-width="2" stroke-linecap="round" stroke-linejoin="round"/>
	<path d="M11.2667 12.7339V8.33385C11.2667 7.52384 10.61 6.86719 9.8 6.86719H2.46667C1.65665 6.86719 1 7.52384 1 8.33385V14.2005C1 15.0105 1.65665 15.6672 2.46667 15.6672H5.4" stroke="#289548" stroke-width="2" stroke-linecap="round" stroke-linejoin="round"/>
</svg>
