<svg viewBox="0 0 20 20" fill="none" xmlns="http://www.w3.org/2000/svg">
<path d="M16.8946 14.682V15.7877C16.8946 17.0091 15.9045 17.9992 14.6831 17.9992H3.62557C2.40419 17.9992 1.41406 17.0091 1.41406 15.7877V8.04744C1.41406 6.82606 2.40419 5.83594 3.62557 5.83594H14.6831C15.9045 5.83594 16.8946 6.82606 16.8946 8.04744V9.1532" stroke="currentColor" stroke-width="2" stroke-linecap="round" stroke-linejoin="round"/>
<path d="M14.6825 5.8343L12.9657 2.40057C12.8345 2.13814 12.6045 1.93858 12.3262 1.84581C12.0479 1.75304 11.7441 1.77467 11.4817 1.90593L3.625 5.8343" stroke="currentColor" stroke-width="2" stroke-linecap="round" stroke-linejoin="round"/>
<path fill-rule="evenodd" clip-rule="evenodd" d="M16.896 14.685C17.5066 14.685 18.0017 14.19 18.0017 13.5793V10.262C18.0017 9.65131 17.5066 9.15625 16.896 9.15625H14.1316C12.6048 9.15625 11.3672 10.3939 11.3672 11.9206C11.3672 13.4474 12.6048 14.685 14.1316 14.685H16.896Z" stroke="currentColor" stroke-width="2" stroke-linecap="round" stroke-linejoin="round"/>
<path d="M14.1358 11.6406C14.2885 11.6406 14.4123 11.7644 14.4123 11.9171C14.4123 12.0697 14.2885 12.1935 14.1358 12.1935C13.9831 12.1935 13.8594 12.0697 13.8594 11.9171C13.8594 11.7644 13.9831 11.6406 14.1358 11.6406" stroke="currentColor" stroke-width="2" stroke-linecap="round" stroke-linejoin="round"/>
</svg>
