<svg viewBox="0 0 24 24" fill="none" xmlns="http://www.w3.org/2000/svg">
	<path fill-rule="evenodd" clip-rule="evenodd" d="M3.93333 22.9995C5.55337 22.9995 6.86667 21.6862 6.86667 20.0661C6.86667 18.4461 5.55337 17.1328 3.93333 17.1328C2.3133 17.1328 1 18.4461 1 20.0661C1 21.6862 2.3133 22.9995 3.93333 22.9995Z" fill="#26372B" stroke="#289548" stroke-width="2" stroke-linecap="round" stroke-linejoin="round"/>
	<path d="M6.86719 20.0625H14.2005V22.2625" stroke="#289548" stroke-width="2" stroke-linecap="round" stroke-linejoin="round"/>
	<path d="M11.2656 20.0625V21.5292" stroke="#289548" stroke-width="2" stroke-linecap="round" stroke-linejoin="round"/>
	<path d="M6.86719 14.9302V11.2635C6.86719 10.4535 7.52384 9.79688 8.33385 9.79688H21.5339C22.3439 9.79688 23.0005 10.4535 23.0005 11.2635V21.5302C23.0005 22.3402 22.3439 22.9969 21.5339 22.9969H17.1339" stroke="#289548" stroke-width="2" stroke-linecap="round" stroke-linejoin="round"/>
	<path d="M9.79688 9.8V6.13333C9.79688 3.29827 12.0951 1 14.9302 1C17.7653 1 20.0635 3.29827 20.0635 6.13333V9.8" stroke="#289548" stroke-width="2" stroke-linecap="round" stroke-linejoin="round"/>
	<path d="M12.8953 17.2285C12.4777 16.1962 12.8972 15.0146 13.8723 14.4769C14.8474 13.9391 16.0705 14.2147 16.7207 15.1187C17.3709 16.0227 17.2431 17.27 16.4231 18.0234" stroke="#289548" stroke-width="2" stroke-linecap="round" stroke-linejoin="round"/>
</svg>
