<svg viewBox="0 0 24 25" fill="none" xmlns="http://www.w3.org/2000/svg">
	<path fill-rule="evenodd" clip-rule="evenodd" d="M3.93333 23.5005C5.55337 23.5005 6.86667 22.1872 6.86667 20.5671C6.86667 18.9471 5.55337 17.6338 3.93333 17.6338C2.3133 17.6338 1 18.9471 1 20.5671C1 22.1872 2.3133 23.5005 3.93333 23.5005Z" fill="#E6EFF9" stroke="#235B95" stroke-width="2" stroke-linecap="round" stroke-linejoin="round"/>
	<path d="M6.86719 20.5664H14.2005V22.7664" stroke="#235B95" stroke-width="2" stroke-linecap="round" stroke-linejoin="round"/>
	<path d="M11.2676 20.5664V22.0331" stroke="#235B95" stroke-width="2" stroke-linecap="round" stroke-linejoin="round"/>
	<path d="M6.86719 15.4331V11.7665C6.86719 10.9565 7.52384 10.2998 8.33385 10.2998H21.5339C22.3439 10.2998 23.0005 10.9565 23.0005 11.7665V22.0331C23.0005 22.8432 22.3439 23.4998 21.5339 23.4998H17.1339" stroke="#235B95" stroke-width="2" stroke-linecap="round" stroke-linejoin="round"/>
	<path d="M9.80078 10.3V6.63333C9.80078 3.79827 12.0991 1.5 14.9341 1.5C17.7692 1.5 20.0674 3.79827 20.0674 6.63333V10.3" stroke="#235B95" stroke-width="2" stroke-linecap="round" stroke-linejoin="round"/>
	<path d="M12.8934 17.7245C12.4757 16.6923 12.8952 15.5107 13.8703 14.973C14.8454 14.4352 16.0686 14.7108 16.7188 15.6148C17.369 16.5188 17.2412 17.7661 16.4212 18.5195" stroke="#235B95" stroke-width="2" stroke-linecap="round" stroke-linejoin="round"/>
</svg>
